<?xml version="1.0" standalone="no"?>
<!DOCTYPE svg PUBLIC "-//W3C//DTD SVG 1.1//EN" "http://www.w3.org/Graphics/SVG/1.1/DTD/svg11.dtd" >
<svg xmlns="http://www.w3.org/2000/svg">
<metadata>
Created by FontPrep 20130207 at Thu May  1 17:47:16 2014
 By Vitaly Mineev
Copyright (c) 2001, 2005 Parachute :, www.parachute.gr.  All rights reserved.
</metadata>
<defs>
<font id="2c41edb32fecaa28a543096885f58f94" horiz-adv-x='1024' >
  <font-face 
    font-family="PFHighwaySansPro-Bold"
    font-weight="700"
    font-stretch="normal"
    units-per-em="2048"
    panose-1="2 0 8 0 0 0 0 2 0 4"
    ascent="1536"
    descent="-512"
    x-height="999"
    cap-height="1333"
    bbox="-850 -651 3604 1870"
    underline-thickness="102"
    underline-position="-102"
    unicode-range="U+0020-FB05"
  />
<missing-glyph horiz-adv-x="931" 
d="M760 352v733l-199 -370zM170 352l201 367l-201 366v-733zM680 1264h-430l217 -387zM680 170l-213 389l-215 -389h428zM0 1434h932v-1434h-932v1434z" />
    <glyph glyph-name="fj" unicode="fj" horiz-adv-x="1187" 
d="M657 1202q-159 0 -159 -139v-64h258l317 56v-1086q0 -221 -124 -320.5t-392 -101.5l-20 258q138 24 177.5 69t39.5 159v739h-256v-772h-328v772h-125v227h125v144q0 167 113.5 256.5t302.5 89.5t348 -64l-45 -247q-159 24 -232 24z" />
    <glyph glyph-name="ffj" unicode="ffj" horiz-adv-x="1773" 
d="M656 1190q-76 0 -118 -33t-42 -121v-37h266v185q-30 6 -106 6zM1247 1245q-160 0 -160 -139v-107h254l318 56v-1086q0 -221 -124 -320.5t-392 -101.5l-19 258q137 23 176 68t39 158v741h-252v-772h-325v772h-266v-772h-326v772h-125v227h125v131q0 171 115 260t283 89
q169 0 302 -41q111 94 303 94t351 -64l-45 -247q-159 24 -232 24z" />
    <glyph glyph-name="ff" unicode="ff" horiz-adv-x="1349" 
d="M762 999v187q-41 6 -80 6q-98 0 -141 -33t-43 -123v-37h264zM1208 1235q-46 0 -83.5 -19.5t-37.5 -85.5v-131h203v-227h-203v-772h-325v772h-264v-772h-326v772h-125v227h125v134q0 166 113 256t271 90t304 -37q88 74 246 74q99 0 209 -21l-12 -264q-49 4 -95 4z" />
    <glyph glyph-name="fi" unicode="fi" horiz-adv-x="1187" 
d="M657 1202q-161 0 -161 -139v-64h258l321 56v-1055h-321v772h-258v-772h-326v772h-125v227h125v144q0 170 113.5 258t302.5 88t348 -64l-45 -247q-159 24 -232 24z" />
    <glyph glyph-name="fl" unicode="fl" horiz-adv-x="1185" 
d="M583 1460q87 0 224 -26l278 67v-1501h-323v1163q-142 30 -201 -7.5t-59 -113.5v-43h168v-227h-168v-772h-326v772h-121v227h121v115q0 169 113.5 257.5t293.5 88.5z" />
    <glyph glyph-name="ffi" unicode="ffi" horiz-adv-x="1783" 
d="M652 1190q-152 0 -152 -154v-37h264l2 183q-46 8 -114 8zM1262 1239q-86 0 -129 -31.5t-43 -105.5v-103h260l317 54v-1053h-319v772h-258v-772h-326v772h-266v-772h-324v772h-127v227h127v111q0 181 109.5 274t282.5 93t308 -43q108 92 303 92t349 -64q-17 -101 -45 -248
q-133 25 -219 25z" />
    <glyph glyph-name="ffl" unicode="ffl" horiz-adv-x="1763" 
d="M659 1188q-63 0 -108 -31t-45 -121v-37h248v185q-32 4 -95 4zM1230 1243q-63 0 -107 -31.5t-44 -105.5v-107h162v-227h-162v-772h-325v772h-248v-772h-326v772h-125v227h125v111q0 179 109 273t273 94t300 -43q109 96 297 96q122 0 248 -31l256 62v-1561h-324v1235
q-46 8 -109 8z" />
    <glyph glyph-name="ft" unicode="ft" horiz-adv-x="1433" 
d="M633 1178q-47 0 -87 -16.5t-40 -76.5v-86h299v222q6 2 54 19t149.5 52t113.5 43v-336h215v-227h-215v-362q0 -86 24 -118t84 -32q61 0 134 8l22 -254q-148 -39 -291 -39t-218.5 74t-75.5 248v475h-295v-772h-326v772h-127v227h127v148q0 154 92.5 232.5t237.5 78.5
t223 -18l-12 -266q-41 4 -88 4z" />
    <glyph glyph-name=".notdef" horiz-adv-x="931" 
d="M760 352v733l-199 -370zM170 352l201 367l-201 366v-733zM680 1264h-430l217 -387zM680 170l-213 389l-215 -389h428zM0 1434h932v-1434h-932v1434z" />
    <glyph glyph-name=".null" horiz-adv-x="0" 
 />
    <glyph glyph-name="nonmarkingreturn" horiz-adv-x="681" 
 />
    <glyph glyph-name="space" unicode=" " horiz-adv-x="575" 
 />
    <glyph glyph-name="exclam" unicode="!" horiz-adv-x="657" 
d="M340 -23q-74 0 -125 51.5t-51 113.5q0 101 57 147.5t129 46.5t118 -53t46 -127t-50 -126.5t-124 -52.5zM178 1335h330v-405l-47 -486h-238l-45 484v407z" />
    <glyph glyph-name="quotedbl" unicode="&#x22;" horiz-adv-x="966" 
d="M565 791l-47 544h318l-48 -544h-223zM180 791l-47 544h318l-48 -544h-223z" />
    <glyph glyph-name="numbersign" unicode="#" horiz-adv-x="1331" 
d="M526 512h228l55 315h-227zM1061 815l-53 -293h217l-39 -233h-219l-54 -289h-260l52 289h-211l-52 -289h-262l51 289h-215l41 233h217l54 293h-219l43 234h217l51 284h260l-51 -284h213l49 284h262l-49 -284h217l-43 -234h-217z" />
    <glyph glyph-name="dollar" unicode="$" horiz-adv-x="1331" 
d="M332 424q158 -139 346 -139q82 0 125 32.5t43 80.5t-46 76t-160 60t-193.5 63.5t-165.5 101.5t-86 241q0 230 134 298.5t206 84.5v199h243v-193q211 -29 359 -160l-170 -233q-154 125 -314 125q-74 0 -105.5 -31t-31.5 -78t58.5 -71.5t136.5 -48.5t157.5 -49t192.5 -102
t113 -259t-105 -283t-291 -129v-196h-243v198q-240 38 -381 185z" />
    <glyph glyph-name="percent" unicode="%" horiz-adv-x="2023" 
d="M440 -53l895 1442h244l-893 -1442h-246zM462 1135q-75 0 -116 -61.5t-41 -168t41 -167t117 -60.5t117 61t41 169t-42 167.5t-117 59.5zM150.5 1219.5q109.5 128.5 305.5 128.5q195 0 311 -123.5t116 -319t-115 -320t-311 -124.5t-306 127.5t-110 315t109.5 316zM1562 659
q-75 0 -116 -60t-41 -168t41 -168t116.5 -60t116.5 61.5t41 169.5t-41.5 166.5t-116.5 58.5zM1249.5 744q108.5 128 304.5 128t312 -122t116 -319t-115.5 -321t-309.5 -124q-199 0 -307.5 128t-108.5 315t108.5 315z" />
    <glyph glyph-name="ampersand" unicode="&#x26;" horiz-adv-x="1593" 
d="M600 983q80 61 80 145q0 36 -17.5 63.5t-57.5 27.5t-52 -34t-12 -70q0 -73 59 -132zM641 564q0 50 -78 132q-55 -47 -93 -117.5t-38 -120.5q0 -239 268 -239q150 0 228 98.5t78 235.5q0 23 -2 33q-120 -23 -213 -209q-134 57 -185 82q35 77 35 105zM836 739
q123 84 312 84q190 0 365 -51q-32 -143 -45 -205q-33 6 -55 10.5t-41.5 7.5t-37 4t-38.5 3l2 -57q0 -274 -175 -419t-433 -145t-406.5 135.5t-148.5 327.5q0 123 63.5 237.5t186.5 200.5q-125 117 -125 244t88 225.5t253 98.5t261 -84t96 -238t-182 -301q48 -55 60 -78z" />
    <glyph glyph-name="quotesingle" unicode="'" horiz-adv-x="581" 
d="M180 791l-47 544h318l-48 -544h-223z" />
    <glyph glyph-name="parenleft" unicode="(" horiz-adv-x="768" 
d="M408 590q0 -362 268 -711l-207 -155q-255 261 -316 496t-61 360q0 235 108 474t275 410l211 -155q-125 -159 -201.5 -352t-76.5 -367z" />
    <glyph glyph-name="parenright" unicode=")" horiz-adv-x="763" 
d="M350 590q0 259 -107.5 449t-170.5 270l213 155q259 -266 321 -512.5t62 -371.5q0 -229 -106.5 -459.5t-270.5 -396.5l-209 155q268 349 268 711z" />
    <glyph glyph-name="asterisk" unicode="*" horiz-adv-x="1001" 
d="M121 979q66 203 72 221l210 -92q-8 60 -26 227h250l-25 -225l207 90q18 -55 36.5 -110.5t35.5 -110.5l-228 -49l152 -174l-193 -140l-112 195l-119 -195l-188 140l155 174z" />
    <glyph glyph-name="plus" unicode="+" horiz-adv-x="1331" 
d="M805 166h-289v340h-344v262h344v344h289v-344h346v-262h-346v-340z" />
    <glyph glyph-name="comma" unicode="," horiz-adv-x="591" 
d="M109 153q0 77 51 129t131 52t132 -62t52 -150q0 -269 -266 -433l-88 116q111 79 139 185q-66 4 -108.5 45t-42.5 118z" />
    <glyph glyph-name="hyphen" unicode="-" horiz-adv-x="829" 
d="M119 752h594v-279h-594v279z" />
    <glyph glyph-name="period" unicode="." horiz-adv-x="585" 
d="M293 -23q-74 0 -125 51.5t-51 113.5q0 99 55 147.5t129 48.5t121 -54t47 -128t-51 -126.5t-125 -52.5z" />
    <glyph glyph-name="slash" unicode="/" horiz-adv-x="1144" 
d="M2 -154l842 1629h299l-846 -1629h-295z" />
    <glyph glyph-name="zero" unicode="0" horiz-adv-x="1331" 
d="M667 1075q-130 0 -200 -108.5t-70 -297.5t70 -299t200 -110t200.5 110.5t70.5 300.5t-70.5 297t-200.5 107zM172 236q-113 144 -113 430t159 488t439 202t449.5 -191t169.5 -496t-169 -497t-447 -192q-146 0 -260.5 56t-227.5 200z" />
    <glyph glyph-name="one" unicode="1" horiz-adv-x="1331" 
d="M545 954h-178v217q144 10 177.5 69.5t43.5 92.5h286v-1333h-329v954z" />
    <glyph glyph-name="two" unicode="2" horiz-adv-x="1331" 
d="M653 1079q-163 0 -350 -145l-166 221q106 98 247.5 149.5t266.5 51.5q234 0 373 -99t139 -280q0 -134 -81.5 -229.5t-249.5 -185.5t-221.5 -138.5t-74 -81.5t-34.5 -70h665v-272h-1069q15 394 233 553.5t316 219.5t139 97t41 88t-44 86t-130 35z" />
    <glyph glyph-name="three" unicode="3" horiz-adv-x="1331" 
d="M631 1354q245 0 376.5 -105.5t131.5 -259.5q0 -92 -48.5 -170t-144.5 -119v-6q100 -33 157.5 -114.5t57.5 -181.5q0 -200 -158 -309t-395 -109q-324 0 -530 210l201 207q147 -143 321 -143q98 0 158.5 47t60.5 121t-48 111.5t-128 37.5h-160v234h156q102 0 134 57.5
t32 83.5q0 55 -46.5 93t-142.5 38q-156 0 -319 -125q-63 90 -160 219q98 88 230.5 135.5t263.5 47.5z" />
    <glyph glyph-name="four" unicode="4" horiz-adv-x="1331" 
d="M776 526v400h-6l-324 -391l5 -9h325zM1087 0h-311v268h-706v232l694 835h323v-809h170v-258h-170v-268z" />
    <glyph glyph-name="five" unicode="5" horiz-adv-x="1331" 
d="M717 901q236 0 365.5 -118.5t129.5 -319.5q0 -235 -157 -359t-430 -124t-516 149l135 242q195 -115 387 -115q111 0 179.5 51t68.5 143t-60.5 135.5t-146.5 43.5q-131 0 -238 -80l-276 100l51 684h921v-268h-636l-19 -211q0 -2 2 -2q113 49 240 49z" />
    <glyph glyph-name="six" unicode="6" horiz-adv-x="1331" 
d="M903 434q0 78 -60.5 129t-174.5 51t-177 -55t-63 -127q0 -125 86 -156.5t148 -31.5q123 0 182 56t59 134zM775 868q66 0 155.5 -25.5t194 -108.5t104.5 -297t-160 -335.5t-413 -121.5q-252 0 -403 135.5t-151 406.5q0 311 175 512.5t380 258.5t385 61v-275
q-314 -12 -405.5 -98t-128.5 -154l6 -8q93 42 144 45.5t117 3.5z" />
    <glyph glyph-name="seven" unicode="7" horiz-adv-x="1331" 
d="M129 1065v270h1047v-245q-215 -215 -328 -478.5t-115 -611.5h-327q8 641 382 1065h-659z" />
    <glyph glyph-name="eight" unicode="8" horiz-adv-x="1331" 
d="M915 413q0 77 -61 125t-185 48t-189.5 -47t-65.5 -126t59 -127t189 -48t191.5 49t61.5 126zM858 955q0 54 -44 98.5t-148 44.5t-150.5 -43t-46.5 -101t52 -97.5t144.5 -39.5t142.5 42t50 96zM1243 401q0 -203 -155.5 -312t-428.5 -109t-424 107.5t-151 311.5
q0 98 57.5 187.5t161.5 128.5v2q-82 35 -122 107.5t-40 155.5t40 155.5t146 145.5t336 73t376.5 -101t146.5 -284q0 -109 -59.5 -169.5t-104.5 -80.5v-2q104 -41 162.5 -124t58.5 -192z" />
    <glyph glyph-name="nine" unicode="9" horiz-adv-x="1331" 
d="M891 900q0 73 -56.5 131.5t-179.5 58.5t-182 -56.5t-59 -135.5t62 -130t176 -51t176.5 55t62.5 128zM598 463q-233 0 -368.5 107.5t-135.5 322.5t160.5 338t413.5 123t403 -137t150 -408q0 -312 -175.5 -512.5t-380 -256.5t-384.5 -60v274q221 8 341 64.5t197 195.5l-2 4
q-99 -55 -219 -55z" />
    <glyph glyph-name="colon" unicode=":" horiz-adv-x="587" 
d="M295 528q-74 0 -125 52t-51 114q0 99 55 147t129 48t121 -53.5t47 -127.5t-51 -127t-125 -53zM295 -23q-74 0 -125 51.5t-51 113.5q0 99 55 147.5t129 48.5t121 -54t47 -128t-51 -126.5t-125 -52.5z" />
    <glyph glyph-name="semicolon" unicode=";" horiz-adv-x="598" 
d="M119 156q0 76 51 127t131 51t132 -61.5t52 -184.5t-75.5 -227.5t-190.5 -173.5l-88 116q63 45 94 88t45 99q-66 0 -108.5 45t-42.5 121zM121 694q0 99 55 147t129 48t121 -53.5t47 -127.5t-51 -127t-125 -53t-125 52t-51 114z" />
    <glyph glyph-name="less" unicode="&#x3c;" horiz-adv-x="1331" 
d="M223 557v203l844 434v-305l-489 -225l489 -248v-310z" />
    <glyph glyph-name="equal" unicode="=" horiz-adv-x="1331" 
d="M1122 1016v-262h-940v262h940zM1122 557v-264h-940v264h940z" />
    <glyph glyph-name="greater" unicode="&#x3e;" horiz-adv-x="1331" 
d="M227 106v310l490 248l-490 225v305l844 -434v-203z" />
    <glyph glyph-name="question" unicode="?" horiz-adv-x="1085" 
d="M377 138q0 101 57 147.5t129 46.5t118 -53t46 -127t-50 -124.5t-124 -50.5t-125 49.5t-51 111.5zM1006 964q0 -138 -117 -256q-39 -40 -103 -103.5t-79 -182.5h-308q3 184 113 302q39 42 65.5 67.5t63.5 69t37 91.5t-35 86.5t-86 38.5q-83 0 -123 -59t-45 -148h-317
q4 229 145 355.5t341 126.5t324 -108t124 -280z" />
    <glyph glyph-name="at" unicode="@" horiz-adv-x="1853" 
d="M791 642q0 -165 104 -165q62 0 119 55l22 263q-49 57 -110 57t-98 -58.5t-37 -151.5zM1255 543q0 -47 22.5 -60.5t50.5 -13.5q62 0 119.5 87.5t57.5 212.5q0 237 -156 376t-404 139t-422.5 -176.5t-174.5 -439.5q0 -262 175.5 -428t449.5 -166q199 0 304 38t165 64
l69 -186q-135 -51 -259 -80t-288 -29t-322.5 53.5t-338.5 214.5t-180 527q0 172 62.5 317.5t174 252t264 167t326.5 60.5q347 0 561.5 -186t214.5 -494q0 -249 -105 -359t-187 -144t-162 -34q-184 0 -230 121l-6 2q-41 -57 -101.5 -86t-118.5 -29q-123 0 -208.5 87.5
t-85.5 252.5q0 228 101 344.5t245 116.5q109 0 185 -76h4l6 62h233q-28 -353 -41 -498v-10z" />
    <glyph glyph-name="A" unicode="A" horiz-adv-x="1406" 
d="M700 1012q-4 -10 -15 -47t-33 -103t-29 -96l-84 -250h325l-88 270q-4 8 -13 41t-30 95t-26 90h-7zM946 264h-489l-86 -264h-351l492 1333h391l492 -1333h-361z" />
    <glyph glyph-name="B" unicode="B" horiz-adv-x="1296" 
d="M690 283q174 0 174 147q0 76 -53 107.5t-123 31.5h-235v-286h237zM680 838q139 0 139 106t-131 107h-235v-213h227zM1214 412q0 -195 -123.5 -303.5t-355.5 -108.5h-620v1333h626q195 0 308.5 -85t113.5 -251q0 -96 -55 -167.5t-129 -100.5v-6q97 -30 166 -115.5
t69 -195.5z" />
    <glyph glyph-name="C" unicode="C" horiz-adv-x="1218" 
d="M1194 223q-187 -248 -487 -248t-460.5 187t-160.5 506q0 318 162.5 503t449.5 185q178 0 291 -64.5t185 -165.5l-244 -200q-57 76 -114.5 102.5t-121.5 26.5q-124 0 -192 -107t-68 -277t67.5 -282.5t204.5 -112.5q136 0 242 144z" />
    <glyph glyph-name="D" unicode="D" horiz-adv-x="1347" 
d="M537 283q370 0 370 383t-377 383h-73v-766h80zM117 0v1333h458q478 0 579 -241.5t101 -422.5q0 -344 -190.5 -506.5t-501.5 -162.5h-446z" />
    <glyph glyph-name="E" unicode="E" horiz-adv-x="1169" 
d="M113 1333h995v-282h-657v-220h456v-284h-456v-262h679v-285h-1017v1333z" />
    <glyph glyph-name="F" unicode="F" horiz-adv-x="1124" 
d="M117 1333h991v-284h-653v-250h463v-285h-463v-514h-338v1333z" />
    <glyph glyph-name="G" unicode="G" horiz-adv-x="1325" 
d="M432 655q0 -182 67 -281.5t183 -99.5t167.5 59.5t57.5 147.5h-186v250h526v-199q0 -394 -212.5 -474.5t-356.5 -80.5q-287 0 -441.5 186.5t-154.5 502.5q0 317 161.5 502.5t450.5 185.5q166 0 277.5 -57.5t191.5 -172.5q-17 -14 -110.5 -83.5t-149.5 -116.5
q-81 129 -212 129t-195 -108t-64 -290z" />
    <glyph glyph-name="H" unicode="H" horiz-adv-x="1378" 
d="M926 539h-475v-539h-338v1333h338v-508h475v508h338v-1333h-338v539z" />
    <glyph glyph-name="I" unicode="I" horiz-adv-x="612" 
d="M135 1333h340v-1333h-340v1333z" />
    <glyph glyph-name="J" unicode="J" horiz-adv-x="1228" 
d="M1106 539q0 -268 -134 -416t-405 -148q-336 0 -427 157t-120 255l316 100q41 -117 93 -168t136 -51q201 0 201 275v790h340v-794z" />
    <glyph glyph-name="K" unicode="K" horiz-adv-x="1314" 
d="M446 0h-333v1333h333v-540h7l112 145l314 395h381l-398 -481l451 -852h-377l-297 582l-193 -232v-350z" />
    <glyph glyph-name="L" unicode="L" horiz-adv-x="1095" 
d="M113 1333h336v-1050h632v-283h-968v1333z" />
    <glyph glyph-name="M" unicode="M" horiz-adv-x="1591" 
d="M1143 676h-6l-344 -678l-193 377l-149 301h-9v-676h-327v1333h329l174 -344q10 -20 35 -69.5t70.5 -144.5t67.5 -132h10q10 20 32.5 68.5t49 101.5t50 101.5t34.5 66.5l176 352h332v-1333h-332v676z" />
    <glyph glyph-name="N" unicode="N" horiz-adv-x="1384" 
d="M440 793v-793h-331v1333h311l291 -422q14 -20 45.5 -68t67.5 -102.5t68 -103.5t46 -70h6v766h334v-1333h-295l-330 477l-207 316h-6z" />
    <glyph glyph-name="O" unicode="O" horiz-adv-x="1390" 
d="M663 1059q-97 0 -163 -108.5t-66 -280.5q0 -279 98.5 -338.5t194 -59.5t161.5 111.5t66 284.5q0 272 -97 331.5t-194 59.5zM86 665q0 315 156.5 503t450.5 188t453 -188t159 -506q0 -319 -161.5 -503t-452.5 -184q-294 0 -449.5 187.5t-155.5 502.5z" />
    <glyph glyph-name="P" unicode="P" horiz-adv-x="1208" 
d="M446 1051v-320h218q76 0 127 35t51 125t-56.5 125t-130.5 35h-209zM1056 568.5q-134 -117.5 -356 -117.5h-251v-451h-336v1333h602q214 0 344.5 -112t130.5 -323.5t-134 -329z" />
    <glyph glyph-name="Q" unicode="Q" horiz-adv-x="1392" 
d="M958 637q0 422 -266 422q-128 0 -193 -107.5t-65 -280.5t60.5 -281.5t181.5 -119.5q6 2 17.5 3t21.5 6l-72 110l186 141l80 -92q49 82 49 199zM673 -20q-128 0 -241 48t-228.5 182.5t-115.5 453.5t158.5 504.5t448.5 185.5t450 -184.5t160 -510.5q0 -325 -175 -512
l99 -135l-219 -149l-107 145q-102 -28 -230 -28z" />
    <glyph glyph-name="R" unicode="R" horiz-adv-x="1275" 
d="M678 750q176 0 176 153q0 76 -50 112t-124 36h-231v-301h229zM1202 882q0 -130 -65.5 -226.5t-178.5 -141.5l240 -514h-350l-199 469h-200v-469h-336v1333h616q330 0 401.5 -160.5t71.5 -290.5z" />
    <glyph glyph-name="S" unicode="S" horiz-adv-x="1210" 
d="M256 410q170 -146 370 -146q86 0 132.5 33t46.5 86q0 71 -82.5 99t-170.5 52q-212 56 -326.5 145t-114.5 275t146.5 295t363.5 109q141 0 270 -45t225 -129l-182 -242q-158 129 -332 129q-80 0 -113.5 -32.5t-33.5 -67.5t16 -53.5t49 -35.5t130 -44q96 -27 180.5 -54.5
t204.5 -108.5t120 -282t-150 -310.5t-391 -109.5q-158 0 -304 53.5t-244 147.5z" />
    <glyph glyph-name="T" unicode="T" horiz-adv-x="1138" 
d="M741 0h-338v1051h-380v282h1099v-282h-381v-1051z" />
    <glyph glyph-name="U" unicode="U" horiz-adv-x="1368" 
d="M686 274q234 0 234 301v758h340v-766q0 -286 -154.5 -436.5t-491 -150.5t-419 220t-82.5 367v766h338v-749q0 -150 60 -230t175 -80z" />
    <glyph glyph-name="V" unicode="V" horiz-adv-x="1363" 
d="M498 0l-478 1333h367l176 -553l123 -413h8l121 415l174 551h361l-476 -1333h-376z" />
    <glyph glyph-name="W" unicode="W" horiz-adv-x="1804" 
d="M1784 1333l-318 -1333h-352l-88 358q-22 103 -65 277t-54 242h-4q-75 -335 -100 -432t-54.5 -227t-54.5 -218h-350q-78 336 -159 666.5t-158 666.5h360l76 -407q8 -49 19.5 -108.5t22.5 -123t21.5 -126t20.5 -117.5h8q23 123 48.5 241.5t51.5 241.5l86 399h328l88 -401
q46 -208 71 -334.5t29 -146.5h7q20 123 41.5 238.5t44.5 242.5l75 401h359z" />
    <glyph glyph-name="X" unicode="X" horiz-adv-x="1269" 
d="M631 453l-244 -453h-369l435 682l-410 651h371l221 -415l223 415h367l-412 -647l432 -686h-371z" />
    <glyph glyph-name="Y" unicode="Y" horiz-adv-x="1355" 
d="M846 0h-336v446l-504 887h367l307 -626l158 325q12 22 54 109.5t63.5 129.5t31.5 62h363l-504 -882v-451z" />
    <glyph glyph-name="Z" unicode="Z" horiz-adv-x="1210" 
d="M109 1051v282h1032v-260l-674 -788h680v-285h-1077v256l669 795h-630z" />
    <glyph glyph-name="bracketleft" unicode="[" horiz-adv-x="765" 
d="M129 1436h539v-258h-228v-1174h228v-256h-539v1688z" />
    <glyph glyph-name="backslash" unicode="\" horiz-adv-x="1144" 
d="M846 -154l-846 1629h299l842 -1629h-295z" />
    <glyph glyph-name="bracketright" unicode="]" horiz-adv-x="770" 
d="M653 -252h-538v256h227v1174h-227v258h538v-1688z" />
    <glyph glyph-name="asciicircum" unicode="^" horiz-adv-x="1169" 
d="M582 1032l-189 -366h-323l399 669h236l397 -669h-326z" />
    <glyph glyph-name="underscore" unicode="_" horiz-adv-x="1024" 
d="M0 -135h1024v-227h-1024v227z" />
    <glyph glyph-name="grave" unicode="`" horiz-adv-x="1058" 
d="M244 1501l297 55l164 -407l-181 -57z" />
    <glyph glyph-name="a" unicode="a" horiz-adv-x="1097" 
d="M538 428q-145 0 -145 -109q0 -51 36 -77.5t93 -26.5q92 0 156 64v108q-75 41 -140 41zM672 88q-108 -115 -298 -115q-48 0 -109.5 18.5t-131.5 82t-70 226.5q0 162 110.5 247.5t255.5 85.5t249 -39v47q0 129 -164 129q-131 0 -274 -57l-78 229q176 82 399 82
q434 0 434 -373v-651h-317v86z" />
    <glyph glyph-name="b" unicode="b" horiz-adv-x="1161" 
d="M743 496q0 143 -41.5 201.5t-119.5 58.5t-158 -80v-346q75 -84 155 -84q164 0 164 250zM432 926q113 96 268 96t265 -130.5t110 -386.5t-113.5 -390.5t-283.5 -134.5q-61 0 -129 24.5t-121 77.5h-6v-82h-322v1354l324 116v-544h8z" />
    <glyph glyph-name="c" unicode="c" horiz-adv-x="997" 
d="M86 495.5q0 241.5 127 384t365 142.5q92 0 186 -30.5t180 -123.5l-184 -206q-51 53 -89 71.5t-85 18.5q-86 0 -129 -67t-43 -181t43 -184t132 -70t187 100l185 -203q-155 -170 -388 -170t-360 138.5t-127 380z" />
    <glyph glyph-name="d" unicode="d" horiz-adv-x="1163" 
d="M585 756q-77 0 -122 -64t-45 -205q0 -243 153 -243q95 0 168 84v346q-77 82 -154 82zM84 485q0 258 120.5 396.5t289.5 138.5q136 0 237 -88h8v420q160 62 324 118v-1470h-322v84l-6 2q-110 -106 -264 -106q-270 0 -328.5 184t-58.5 321z" />
    <glyph glyph-name="e" unicode="e" horiz-adv-x="1112" 
d="M719 596q-9 178 -139 178q-72 0 -115 -45t-49 -133h303zM981 86q-182 -109 -410 -109t-356.5 138.5t-128.5 379.5t134.5 384t365.5 143t342.5 -140.5t111.5 -381.5v-84h-624q16 -182 207 -183q110 0 249 64z" />
    <glyph glyph-name="f" unicode="f" horiz-adv-x="763" 
d="M524 1466q111 0 211 -20l-12 -264q-25 2 -30 2h-56q-55 0 -92 -16.5t-37 -69.5v-99h205v-231h-205v-768h-328v768h-125v231h125v160q0 154 92.5 230.5t251.5 76.5z" />
    <glyph glyph-name="g" unicode="g" horiz-adv-x="1165" 
d="M587 752q-167 0 -167 -246t160 -246q86 0 159 80v330q-73 82 -152 82zM741 1001h324v-907q0 -319 -189.5 -423.5t-332.5 -135.5l-99 258q183 59 241 127t58 143v39h-8q-114 -106 -271 -106t-267.5 124t-110.5 378t112 387t275 133t262 -105l6 2v86z" />
    <glyph glyph-name="h" unicode="h" horiz-adv-x="1155" 
d="M594 743q-170 0 -170 -211v-532h-324v1352l324 116v-559h6q57 53 131 82t139 29q357 0 357 -406v-614h-322v553q0 90 -40 140t-101 50z" />
    <glyph glyph-name="i" unicode="i" horiz-adv-x="600" 
d="M169.5 1428q56.5 53 132.5 53q77 0 131 -53.5t54 -133.5t-54 -134t-131 -54t-133 53t-56 134.5t56.5 134.5zM139 1001h324v-1001h-324v1001z" />
    <glyph glyph-name="j" unicode="j" horiz-adv-x="606" 
d="M178.5 1425.5q55.5 55.5 133.5 55.5t132 -54.5t54 -133.5t-54 -133t-132 -54t-133.5 55.5t-55.5 132t55.5 132zM473 -39q0 -219 -123 -319.5t-393 -100.5l-20 258q134 23 174.5 65.5t40.5 153.5v981h321v-1038z" />
    <glyph glyph-name="k" unicode="k" horiz-adv-x="1136" 
d="M422 0h-322v1352l322 116v-798h4q8 10 44 54t48 60l180 213h379q-56 -60 -299 -329q86 -166 172 -334t174 -334h-366l-203 428q-72 -80 -133 -156v-272z" />
    <glyph glyph-name="l" unicode="l" horiz-adv-x="550" 
d="M113 0v1354l325 119v-1473h-325z" />
    <glyph glyph-name="m" unicode="m" horiz-adv-x="1712" 
d="M576 745q-152 0 -152 -213v-532h-324v999h324v-102h8q53 61 125 93t137 32q191 0 267 -152q147 152 323 152t254 -110.5t78 -297.5v-614h-324v553q0 192 -120 192q-94 0 -128 -83q-24 -56 -24 -123v-539h-324v553q0 192 -120 192z" />
    <glyph glyph-name="n" unicode="n" horiz-adv-x="1155" 
d="M700 1020q357 0 357 -406v-614h-324v553q0 190 -143 190q-122 0 -156 -118q-12 -54 -12 -93v-532h-322v999h322v-104h8q51 59 128 92t142 33z" />
    <glyph glyph-name="o" unicode="o" horiz-adv-x="1185" 
d="M416 500q0 -264 178 -264q86 0 130 71.5t44 189.5t-43 191.5t-134 73.5t-133 -75t-42 -187zM86 500q0 240 139 381t369 141t368 -142.5t138 -381.5t-140 -381t-371 -142t-367 142.5t-136 382.5z" />
    <glyph glyph-name="p" unicode="p" horiz-adv-x="1165" 
d="M743 502q-4 252 -153 252q-97 0 -166 -82v-348q71 -80 152 -80q82 0 124.5 58.5t42.5 199.5zM959 108.5q-118 -128.5 -274 -128.5t-255 86h-6v-385q-117 -41 -324 -119v1437h322v-86h6q53 49 124.5 78t145.5 29t144.5 -29.5t152.5 -128.5t82 -362t-118 -391.5z" />
    <glyph glyph-name="q" unicode="q" horiz-adv-x="1163" 
d="M585 244q81 0 154 80v346q-71 84 -151 84q-164 0 -168 -252q0 -143 42 -200.5t123 -57.5zM731 74q-114 -97 -270 -97q-155 0 -265 127.5t-110 380.5t112 394t285 141q70 0 139.5 -27.5t112.5 -79.5l6 2v84h322v-1321l-324 -116v512h-8z" />
    <glyph glyph-name="r" unicode="r" horiz-adv-x="854" 
d="M432 498v-498h-323v999h323v-133h6q49 80 123 117t143 37t148 -27l-49 -305q-94 16 -176 16t-138.5 -44t-56.5 -162z" />
    <glyph glyph-name="s" unicode="s" horiz-adv-x="1011" 
d="M537 776q-45 0 -72 -20t-27 -44q0 -48 106 -77q219 -61 305.5 -132t86.5 -216t-116.5 -228.5t-327.5 -83.5t-424 117l106 221q184 -94 308 -94t124 70q0 41 -33.5 60t-118.5 45q-193 58 -269 125t-76 199t106.5 218t304.5 86t395 -96l-100 -228q-146 78 -278 78z" />
    <glyph glyph-name="t" unicode="t" horiz-adv-x="833" 
d="M618 262q59 0 134 8l24 -254q-152 -41 -288 -41t-217 71t-81 241v481h-149v231h154v234l317 117v-351h213v-231h-213v-367q0 -78 23 -108.5t83 -30.5z" />
    <glyph glyph-name="u" unicode="u" horiz-adv-x="1146" 
d="M559 262q162 0 162 203v534h323v-999h-323v102h-6q-112 -122 -284 -122q-333 0 -333 389v630h324v-555q0 -182 137 -182z" />
    <glyph glyph-name="v" unicode="v" horiz-adv-x="1130" 
d="M393 0l-381 999h332l221 -694h6l84 279l136 415h321l-375 -999h-344z" />
    <glyph glyph-name="w" unicode="w" horiz-adv-x="1568" 
d="M774 606l-55 -231l-96 -375h-334l-279 1001h330l80 -393l49 -266h6l158 659h303l96 -405l53 -260h7l53 274l82 391h327l-290 -1001h-336l-150 606h-4z" />
    <glyph glyph-name="x" unicode="x" horiz-adv-x="1052" 
d="M522 717l133 284h349l-295 -475q118 -190 321 -526h-352l-166 322l-160 -322h-340l320 518q-72 117 -146.5 242t-146.5 241h350q18 -32 66.5 -142t66.5 -142z" />
    <glyph glyph-name="y" unicode="y" horiz-adv-x="1118" 
d="M274 -399l129 356l-391 1042h332l123 -385l88 -305h8l92 305l125 385h322l-510 -1398h-318z" />
    <glyph glyph-name="z" unicode="z" horiz-adv-x="1009" 
d="M928 999v-237l-502 -518l2 -2h516v-242h-883v240l486 516l-2 2h-459v241h842z" />
    <glyph glyph-name="braceleft" unicode="{" horiz-adv-x="804" 
d="M516 877q0 -237 -147 -283v-4q86 -35 116.5 -109.5t30.5 -173.5v-174q0 -80 23.5 -110.5t85.5 -30.5h88v-240h-162q-275 0 -308.5 138.5t-33.5 211.5v195q0 132 -38 163.5t-81 35.5v190q110 10 114.5 89t4.5 114v215q0 332 344 332h160v-242h-88q-61 0 -85 -32t-24 -111
v-174z" />
    <glyph glyph-name="bar" unicode="|" horiz-adv-x="671" 
d="M197 -252v1784h290v-1784h-290z" />
    <glyph glyph-name="braceright" unicode="}" horiz-adv-x="804" 
d="M299 877v174q0 82 -23.5 112.5t-82.5 30.5h-89v242h148q294 0 324 -142.5t30 -220.5v-194q0 -85 22 -135.5t99 -57.5v-190q-107 -10 -114 -89t-7 -110v-197q0 -164 -74.5 -256t-267.5 -92h-160v240h89q59 0 82.5 30.5t23.5 110.5v174q0 98 31.5 173t118.5 110v4
q-150 47 -150 283z" />
    <glyph glyph-name="asciitilde" unicode="~" horiz-adv-x="1331" 
d="M872 455q-59 0 -162.5 42t-156.5 61.5t-98 19.5t-85 -29t-94 -96l-174 88q61 153 155.5 223t191.5 70t205 -38t160 -55.5t96 -17.5t81 27.5t84 87.5l160 -97q-63 -162 -157.5 -224t-205.5 -62z" />
    <glyph glyph-name="exclamdown" unicode="&#xa1;" horiz-adv-x="657" 
d="M336 1006q74 0 124 -52.5t50 -129.5t-48 -127t-119 -50t-127 45.5t-56 126.5q0 82 51 134.5t125 52.5zM502 -350h-328v403l45 486h238l45 -486v-403z" />
    <glyph glyph-name="cent" unicode="&#xa2;" horiz-adv-x="1331" 
d="M795 -229h-170v213q-197 25 -300.5 161t-103.5 353t102.5 353t301.5 165v209h170v-209q165 -22 284 -150l-184 -207q-51 53 -89 73t-85 20q-86 0 -129 -65.5t-43 -179.5t43 -185.5t133 -71.5t190 102l183 -200q-127 -138 -303 -164v-217z" />
    <glyph glyph-name="sterling" unicode="&#xa3;" horiz-adv-x="1331" 
d="M229 947q0 75 34 149.5t133.5 166t316.5 91.5q270 0 366.5 -92.5t139.5 -155.5q-224 -171 -238 -182q-53 82 -107.5 115.5t-133.5 33.5t-131 -45.5t-52 -101.5t12.5 -101t26.5 -94h313v-227l-280 -2q0 -126 -86 -234h639v-268h-1028v231q70 68 108.5 127.5t48.5 143.5
h-157v227h120q-45 143 -45 218z" />
    <glyph glyph-name="currency" unicode="&#xa4;" horiz-adv-x="1331" 
d="M430 625q0 -43 16.5 -81t44 -65.5t64.5 -44t80 -16.5t80 16.5t65.5 44t45 65.5t16.5 81t-16.5 79.5t-44 65.5t-65.5 45t-81 16t-80 -16t-64.5 -45t-44 -65.5t-16.5 -79.5zM637 1063q121 0 221 -59q34 34 133 139l166 -166l-137 -135q57 -102 57 -213t-59 -223
q87 -82 139 -134l-166 -166l-135 138q-100 -59 -219 -59.5t-221 59.5l-135 -138l-164 166l137 136q-57 96 -57 218t57 214l-137 137l164 166l135 -135q100 55 221 55z" />
    <glyph glyph-name="yen" unicode="&#xa5;" horiz-adv-x="1331" 
d="M125 606h295l-49 94h-246v177h151l-239 456h369l266 -610l264 610h362l-241 -456h162v-177h-256l-52 -94h308v-176h-383v-430h-338v430h-373v176z" />
    <glyph glyph-name="brokenbar" unicode="&#xa6;" horiz-adv-x="614" 
d="M168 -455v918h289v-918h-289zM168 616v916h289v-916h-289z" />
    <glyph glyph-name="section" unicode="&#xa7;" horiz-adv-x="1171" 
d="M731 697q0 50 -53 76.5t-136 54.5q-190 63 -280 130.5t-90 196.5t111.5 214t311.5 85t404 -104l-90 -201q-183 88 -314 88q-130 0 -130 -72q0 -39 35.5 -62.5t182 -74t246 -121t99.5 -196.5q0 -100 -72.5 -180t-199.5 -115l-92 200q67 31 67 81zM475 522q0 -39 35 -65.5
t117 -54.5q213 -73 320.5 -145.5t107.5 -209.5t-131.5 -219t-352.5 -82q-222 0 -432 121l101 201q102 -67 205.5 -84t152.5 -17t94 20.5t45 60.5t-54 66.5t-138 53.5q-172 55 -273.5 137.5t-101.5 187.5t67.5 183t202.5 110l92 -196q-57 -29 -57 -68z" />
    <glyph glyph-name="dieresis" unicode="&#xa8;" horiz-adv-x="1048" 
d="M306 1124q-64 0 -111.5 47t-47.5 111t47.5 109t111.5 45t110.5 -45t46.5 -109t-46.5 -111t-110.5 -47zM782 1124q-81 0 -127.5 47t-46.5 111t47 109t111 45t109 -45t45 -109t-45.5 -111t-92.5 -47z" />
    <glyph glyph-name="copyright" unicode="&#xa9;" horiz-adv-x="1687" 
d="M876 244q-194 0 -295.5 117.5t-101.5 314.5t102 315.5t283 118.5q119 0 189.5 -44t113.5 -114l-161 -121q-62 87 -144 87t-122 -69t-40 -145q0 -270 170 -270q84 0 148 94l162 -120q-45 -66 -121.5 -115t-182.5 -49zM846 1243q-115 0 -213 -43t-171 -116.5t-114 -175
t-41 -218.5t41 -218t114 -176t171 -118t213 -43t213 43t171 118t113.5 176t40.5 218t-40.5 218.5t-113.5 175t-171 116.5t-213 43zM845.5 -33q-151.5 0 -281.5 55.5t-226 152.5t-150.5 229.5t-54.5 286t54.5 285.5t150.5 228t226 151.5t281.5 55.5t281.5 -55.5t226.5 -151.5
t152 -228t55.5 -285.5t-55.5 -286t-152 -229.5t-226.5 -152.5t-281.5 -55.5z" />
    <glyph glyph-name="ordfeminine" unicode="&#xaa;" horiz-adv-x="765" 
d="M365 748q-82 0 -82 -62t84 -63q39 0 94 36v64q-50 25 -96 25zM405 1161q158 0 230 -68.5t72 -203.5v-410h-246v49q-63 -60 -170 -65q-246 0 -246 205q0 113 75 165t166 52q90 0 175 -23v33q0 31 -20.5 56.5t-90.5 25.5t-182 -43l-59 166q138 61 296 61z" />
    <glyph glyph-name="guillemotleft" unicode="&#xab;" horiz-adv-x="1222" 
d="M88 502l295 422h295l-291 -420l293 -424h-295zM561 502l295 422h295l-291 -420l291 -424h-293z" />
    <glyph glyph-name="logicalnot" unicode="&#xac;" horiz-adv-x="1331" 
d="M1135 193h-295v321h-645v264h940v-585z" />
    <glyph glyph-name="sfthyphen" unicode="&#xad;" horiz-adv-x="833" 
d="M119 752h594v-279h-594v279z" />
    <glyph glyph-name="registered" unicode="&#xae;" horiz-adv-x="1085" 
d="M559 993q59 -1 59 49t-59 50h-76v-99h76zM578 1202q174 0 174 -171q0 -93 -86 -130q23 -47 45 -92t45 -92h-135l-72 168h-64v-168h-131v485h224zM211 954.5q0 -144.5 96 -242.5t234 -98t232.5 98.5t94.5 242t-94 241.5t-233 98t-234.5 -97.5t-95.5 -242zM226 636.5
q-128 126.5 -128 317.5q0 190 127.5 317.5t316 127.5t315 -128t126.5 -317q0 -190 -127 -317t-314.5 -127t-315.5 126.5z" />
    <glyph glyph-name="macron" unicode="&#xaf;" horiz-adv-x="956" 
d="M211 1391h586v-228h-586v228z" />
    <glyph glyph-name="degree" unicode="&#xb0;" horiz-adv-x="886" 
d="M444 1206q-64 0 -108.5 -45t-44.5 -113t44.5 -113.5t108.5 -45.5t107 45t43 114t-43 113.5t-107 44.5zM442.5 711q-142.5 0 -241.5 97t-99 241t99.5 239.5t241 95.5t239.5 -94t98 -241t-97.5 -242.5t-240 -95.5z" />
    <glyph glyph-name="plusminus" unicode="&#xb1;" horiz-adv-x="1331" 
d="M182 127v248h938v-248h-938zM801 778v-317h-287v317h-330v254h330v322h287v-322h334v-254h-334z" />
    <glyph glyph-name="twosuperior" unicode="&#xb2;" horiz-adv-x="901" 
d="M80 1382q179 150 396 150t270 -91t53 -165q0 -138 -242 -268q-138 -72 -180 -138h424v-211h-740q10 271 163 373t215 138t79 54.5t17 41t-24 39t-69 16.5q-102 0 -235 -98z" />
    <glyph glyph-name="threesuperior" unicode="&#xb3;" horiz-adv-x="901" 
d="M549 936q0 35 -26.5 55.5t-71.5 20.5h-121v180h119q39 0 62.5 19.5t23.5 45.5t-23 45t-80 19q-111 0 -219 -80l-123 160q155 131 369 131q155 0 243.5 -69.5t88.5 -172.5q0 -53 -32 -102t-93 -76q74 -29 106.5 -82.5t32.5 -113.5t-63.5 -165.5t-321.5 -105.5
q-217 0 -367 146l142 159q102 -92 227 -92q57 0 92 21.5t35 56.5z" />
    <glyph glyph-name="acute" unicode="&#xb4;" horiz-adv-x="1050" 
d="M532 1092l-178 57l164 410l297 -56z" />
    <glyph glyph-name="mu" unicode="&#xb5;" horiz-adv-x="1153" 
d="M729 0v100h-6q-92 -100 -197 -100q-57 0 -100 20h-2v-339l-324 -117v1435h326v-548q0 -159 56.5 -178t86.5 -19q106 0 144 102q16 37 16 113v530h324v-999h-324z" />
    <glyph glyph-name="mu" unicode="&#x3bc;" horiz-adv-x="1153" 
d="M729 0v100h-6q-92 -100 -197 -100q-57 0 -100 20h-2v-339l-324 -117v1435h326v-548q0 -159 56.5 -178t86.5 -19q106 0 144 102q16 37 16 113v530h324v-999h-324z" />
    <glyph glyph-name="paragraph" unicode="&#xb6;" horiz-adv-x="1140" 
d="M471 506q-177 0 -292.5 119t-115.5 289.5t118 292.5t290 122h178v-823h-178zM1038 -35q0 -216 -107 -317t-364 -105l-20 224q141 24 189 73.5t48 161.5v1327h254v-1364z" />
    <glyph glyph-name="periodcentered" unicode="&#xb7;" horiz-adv-x="604" 
d="M302 455q-75 0 -127 50.5t-52 114.5q0 103 54.5 151t129.5 48q76 0 125 -53t49 -130t-52 -129t-127 -52z" />
    <glyph glyph-name="cedilla" unicode="&#xb8;" horiz-adv-x="1212" 
d="M604 -205q-25 0 -45 -4l-63 55l77 240l125 -16l-51 -154q119 -7 170 -60t55 -104q7 -97 -59 -160t-196 -63t-232 43l43 125q86 -29 137 -29q109 0 109 66q0 29 -22.5 45t-47.5 16z" />
    <glyph glyph-name="onesuperior" unicode="&#xb9;" horiz-adv-x="837" 
d="M311 659v584h-116v172q76 6 106.5 33t42.5 70h225v-859h-258z" />
    <glyph glyph-name="ordmasculine" unicode="&#xba;" horiz-adv-x="817" 
d="M508 811q0 152 -102 152q-51 0 -76 -42t-25 -111t26.5 -108.5t76.5 -39.5t75 43t25 106zM407 463q-165 0 -261.5 94t-96.5 255t97.5 254t262.5 93t261 -93t96 -255t-97 -255t-262 -93z" />
    <glyph glyph-name="guillemotright" unicode="&#xbb;" horiz-adv-x="1222" 
d="M850 80h-293l293 424l-291 420h293l295 -422zM379 80h-295l293 424l-293 420h297l295 -422z" />
    <glyph glyph-name="onequarter" unicode="&#xbc;" horiz-adv-x="2048" 
d="M1477 358v199l-187 -199h187zM1722 0h-245v166h-467v184l467 510h245v-502h111v-192h-111v-166zM358 -53l895 1442h244l-893 -1442h-246zM332 475v584h-117v172q76 6 106.5 32.5t43.5 69.5h225v-858h-258z" />
    <glyph glyph-name="onehalf" unicode="&#xbd;" horiz-adv-x="2048" 
d="M1505 662q-101 0 -235 -99l-127 160q175 147 393 147t272 -90t54 -164q0 -136 -242 -268q-141 -74 -180 -139h424v-209h-740q10 265 163 370t215 141t78.5 54.5t16.5 41t-23.5 39t-68.5 16.5zM324 -53l895 1442h243l-893 -1442h-245zM299 475v584h-117v172
q76 6 106.5 32.5t43.5 69.5h225v-858h-258z" />
    <glyph glyph-name="threequarters" unicode="&#xbe;" horiz-adv-x="2048" 
d="M524 -53l895 1442h244l-893 -1442h-246zM1597 358v199l-186 -199h186zM1843 0h-246v166h-467v184l467 510h246v-502h111v-192h-111v-166zM492 674q57 0 91.5 21.5t34.5 56t-26.5 55t-71.5 20.5h-121v181h119q39 0 62.5 19t23.5 45t-22.5 45.5t-79.5 19.5q-111 0 -219 -80
l-123 160q155 131 368 131q155 0 243.5 -69.5t88.5 -172.5q0 -53 -31.5 -102.5t-93.5 -75.5q74 -29 106.5 -83t32.5 -114t-62.5 -165t-322.5 -105q-215 0 -366 145l141 160q102 -92 228 -92z" />
    <glyph glyph-name="questiondown" unicode="&#xbf;" horiz-adv-x="1077" 
d="M715 838q0 -101 -55.5 -146t-129.5 -45q-73 0 -119 52.5t-46 126.5t50 126t123.5 52t125 -52t51.5 -114zM84 15q0 89 40 151.5t79 101.5q93 93 132 147t50 142h307q-3 -185 -113 -301q-39 -41 -65.5 -65.5t-63 -67.5t-36.5 -91q0 -49 34 -89.5t90 -40.5q90 0 127 64
t37 140h318q-4 -226 -145 -352.5t-341 -126.5q-199 0 -324.5 108.5t-125.5 279.5z" />
    <glyph glyph-name="Agrave" unicode="&#xc0;" horiz-adv-x="1404" 
d="M281 1591l225 201l344 -262l-125 -141zM700 1012q-4 -10 -15 -47t-33 -103t-29 -96l-84 -250h325l-88 270q-4 8 -13 41t-30 95t-26 90h-7zM946 264h-489l-86 -264h-351l492 1333h391l492 -1333h-361z" />
    <glyph glyph-name="Aacute" unicode="&#xc1;" horiz-adv-x="1406" 
d="M686 1389l-125 141l344 262l225 -201zM700 1012q-4 -10 -15 -47t-33 -103t-29 -96l-84 -250h325l-88 270q-4 8 -13 41t-30 95t-26 90h-7zM946 264h-489l-86 -264h-351l492 1333h391l492 -1333h-361z" />
    <glyph glyph-name="Acircumflex" unicode="&#xc2;" horiz-adv-x="1406" 
d="M705 1583l-302 -205l-122 113l307 307h241l306 -307l-127 -115zM700 1012q-4 -10 -15 -47t-33 -103t-29 -96l-84 -250h325l-88 270q-4 8 -13 41t-30 95t-26 90h-7zM946 264h-489l-86 -264h-351l492 1333h391l492 -1333h-361z" />
    <glyph glyph-name="Atilde" unicode="&#xc3;" horiz-adv-x="1406" 
d="M540 1528q-32 0 -63 -19.5t-71 -81.5l-138 64q89 264 279 264q57 0 138 -36t121 -52t73 -16t59.5 19.5t65.5 70.5l131 -62q-51 -147 -124 -201.5t-136 -54.5t-142.5 36t-120 52.5t-72.5 16.5zM700 1012q-4 -10 -15 -47t-33 -103t-29 -96l-84 -250h325l-88 270
q-4 8 -13 41t-30 95t-26 90h-7zM946 264h-489l-86 -264h-351l492 1333h391l492 -1333h-361z" />
    <glyph glyph-name="Adieresis" unicode="&#xc4;" horiz-adv-x="1406" 
d="M472 1425q-64 0 -111.5 46.5t-47.5 110.5t47.5 109.5t111.5 45.5t110.5 -45.5t46.5 -109.5t-46.5 -110.5t-110.5 -46.5zM948 1425q-81 0 -127.5 46.5t-46.5 110.5t47 109.5t111 45.5t108.5 -45.5t44.5 -109.5t-45 -110.5t-92 -46.5zM700 1012q-4 -10 -15 -47t-33 -103
t-29 -96l-84 -250h325l-88 270q-4 8 -13 41t-30 95t-26 90h-7zM946 264h-489l-86 -264h-351l492 1333h391l492 -1333h-361z" />
    <glyph glyph-name="Aring" unicode="&#xc5;" horiz-adv-x="1406" 
d="M701 1706q-44 0 -67.5 -29.5t-23.5 -70.5t23.5 -68t64.5 -27t68 27t27 69t-24 70.5t-68 28.5zM524 1432q-73 68 -73 174t74 174.5t177 68.5q104 0 176 -70.5t72 -172.5q0 -103 -72 -172.5t-177 -69.5q-104 0 -177 68zM700 1012q-4 -10 -15 -47t-33 -103t-29 -96l-84 -250
h325l-88 270q-4 8 -13 41t-30 95t-26 90h-7zM946 264h-489l-86 -264h-351l492 1333h391l492 -1333h-361z" />
    <glyph glyph-name="AE" unicode="&#xc6;" horiz-adv-x="1994" 
d="M952 530v519l-278 -519h278zM952 279h-411l-158 -279h-379l758 1333h1159v-284h-604v-220h403v-282h-403v-264h625v-283h-990v279z" />
    <glyph glyph-name="Ccedilla" unicode="&#xc7;" horiz-adv-x="1218" 
d="M658 -205q-24 0 -46 -4l-63 55l43 138q-246 33 -376 216t-130 484t162.5 486.5t449.5 185.5q178 0 291 -64.5t185 -165.5l-244 -200q-57 76 -114.5 102.5t-121.5 26.5q-124 0 -192 -107t-68 -277t67.5 -282.5t204.5 -112.5q136 0 242 144l246 -197
q-118 -165 -252.5 -205.5t-222.5 -42.5l-19 -59q119 -7 170.5 -60.5t55.5 -104.5q7 -95 -58.5 -158.5t-196.5 -63.5q-130 0 -233 43l43 125q85 -29 137 -29q108 0 109 66q0 29 -22.5 45t-46.5 16z" />
    <glyph glyph-name="Egrave" unicode="&#xc8;" horiz-adv-x="1169" 
d="M295 1591l225 201l344 -262l-125 -141zM113 1333h995v-282h-657v-220h456v-284h-456v-262h679v-285h-1017v1333z" />
    <glyph glyph-name="Eacute" unicode="&#xc9;" horiz-adv-x="1169" 
d="M555 1389l-125 141l344 262l225 -201zM113 1333h995v-282h-657v-220h456v-284h-456v-262h679v-285h-1017v1333z" />
    <glyph glyph-name="Ecircumflex" unicode="&#xca;" horiz-adv-x="1169" 
d="M616 1583l-301 -205l-122 113l307 307h241l306 -307l-127 -115zM113 1333h995v-282h-657v-220h456v-284h-456v-262h679v-285h-1017v1333z" />
    <glyph glyph-name="Edieresis" unicode="&#xcb;" horiz-adv-x="1169" 
d="M400 1427q-64 0 -111 46.5t-47 110.5t47 109.5t111 45.5t110.5 -45.5t46.5 -109.5t-46.5 -110.5t-110.5 -46.5zM876 1427q-81 0 -127.5 46.5t-46.5 110.5t47.5 109.5t110.5 45.5t108.5 -45.5t45.5 -109.5t-45.5 -110.5t-92.5 -46.5zM113 1333h995v-282h-657v-220h456
v-284h-456v-262h679v-285h-1017v1333z" />
    <glyph glyph-name="Igrave" unicode="&#xcc;" horiz-adv-x="612" 
d="M-104 1591l225 201l344 -262l-125 -141zM135 1333h340v-1333h-340v1333z" />
    <glyph glyph-name="Iacute" unicode="&#xcd;" horiz-adv-x="612" 
d="M303 1389l-125 141l344 262l226 -201zM135 1333h340v-1333h-340v1333z" />
    <glyph glyph-name="Icircumflex" unicode="&#xce;" horiz-adv-x="612" 
d="M307 1583l-301 -205l-123 113l307 307h242l305 -307l-127 -115zM135 1333h340v-1333h-340v1333z" />
    <glyph glyph-name="Idieresis" unicode="&#xcf;" horiz-adv-x="612" 
d="M78 1421q-64 0 -111 46t-47 111t47 110t111 45t111 -45.5t47 -109.5t-47 -110.5t-111 -46.5zM555 1421q-81 0 -127.5 46.5t-46.5 110.5t46.5 109.5t110.5 45.5t109 -45.5t45 -109.5t-45 -110.5t-92 -46.5zM135 1333h340v-1333h-340v1333z" />
    <glyph glyph-name="Eth" unicode="&#xd0;" horiz-adv-x="1347" 
d="M537 283q370 0 370 383t-377 383h-73v-301h190v-179h-190v-286h80zM117 0v569h-109v179h109v585h458q478 0 579 -241.5t101 -422.5q0 -344 -190.5 -506.5t-501.5 -162.5h-446z" />
    <glyph glyph-name="Ntilde" unicode="&#xd1;" horiz-adv-x="1384" 
d="M532 1522q-32 0 -63 -19.5t-72 -81.5l-137 64q89 264 279 264q57 0 138 -36t121 -52t72 -16t59 19t66 71l131 -62q-51 -147 -123.5 -201.5t-135.5 -54.5t-142.5 36t-120 52.5t-72.5 16.5zM440 793v-793h-331v1333h311l291 -422q14 -20 45.5 -68t67.5 -102.5t68 -103.5
t46 -70h6v766h334v-1333h-295l-330 477l-207 316h-6z" />
    <glyph glyph-name="Ograve" unicode="&#xd2;" horiz-adv-x="1390" 
d="M264 1591l225 201l345 -262l-125 -141zM663 1059q-97 0 -163 -108.5t-66 -280.5q0 -279 98.5 -338.5t194 -59.5t161.5 111.5t66 284.5q0 272 -97 331.5t-194 59.5zM86 665q0 315 156.5 503t450.5 188t453 -188t159 -506q0 -319 -161.5 -503t-452.5 -184
q-294 0 -449.5 187.5t-155.5 502.5z" />
    <glyph glyph-name="Oacute" unicode="&#xd3;" horiz-adv-x="1390" 
d="M664 1389l-125 141l344 262l225 -201zM663 1059q-97 0 -163 -108.5t-66 -280.5q0 -279 98.5 -338.5t194 -59.5t161.5 111.5t66 284.5q0 272 -97 331.5t-194 59.5zM86 665q0 315 156.5 503t450.5 188t453 -188t159 -506q0 -319 -161.5 -503t-452.5 -184
q-294 0 -449.5 187.5t-155.5 502.5z" />
    <glyph glyph-name="Ocircumflex" unicode="&#xd4;" horiz-adv-x="1390" 
d="M690 1583l-301 -205l-123 113l307 307h242l305 -307l-127 -115zM663 1059q-97 0 -163 -108.5t-66 -280.5q0 -279 98.5 -338.5t194 -59.5t161.5 111.5t66 284.5q0 272 -97 331.5t-194 59.5zM86 665q0 315 156.5 503t450.5 188t453 -188t159 -506q0 -319 -161.5 -503
t-452.5 -184q-294 0 -449.5 187.5t-155.5 502.5z" />
    <glyph glyph-name="Otilde" unicode="&#xd5;" horiz-adv-x="1390" 
d="M542 1528q-32 0 -62.5 -19.5t-71.5 -81.5l-138 64q89 264 279 264q57 0 138 -36t121 -52t73 -16t59.5 19.5t65.5 70.5l131 -62q-51 -147 -124 -201.5t-136 -54.5t-142.5 36t-120 52.5t-72.5 16.5zM663 1059q-97 0 -163 -108.5t-66 -280.5q0 -279 98.5 -338.5t194 -59.5
t161.5 111.5t66 284.5q0 272 -97 331.5t-194 59.5zM86 665q0 315 156.5 503t450.5 188t453 -188t159 -506q0 -319 -161.5 -503t-452.5 -184q-294 0 -449.5 187.5t-155.5 502.5z" />
    <glyph glyph-name="Odieresis" unicode="&#xd6;" horiz-adv-x="1390" 
d="M462 1417q-64 0 -111.5 46t-47.5 111t47.5 110t111.5 45t110 -45.5t46 -109.5t-46 -110.5t-110 -46.5zM938 1417q-82 0 -128 46t-46 111t47 110t111 45t108.5 -45.5t44.5 -109.5t-45 -110.5t-92 -46.5zM663 1059q-97 0 -163 -108.5t-66 -280.5q0 -279 98.5 -338.5
t194 -59.5t161.5 111.5t66 284.5q0 272 -97 331.5t-194 59.5zM86 665q0 315 156.5 503t450.5 188t453 -188t159 -506q0 -319 -161.5 -503t-452.5 -184q-294 0 -449.5 187.5t-155.5 502.5z" />
    <glyph glyph-name="multiply" unicode="&#xd7;" horiz-adv-x="1331" 
d="M193 915l196 195l277 -279l274 277q10 -16 98.5 -100t94.5 -93l-279 -276l276 -274q-6 -4 -34.5 -34t-61.5 -64t-61.5 -62.5t-32.5 -34.5l-276 276l-277 -278l-192 192l276 277z" />
    <glyph glyph-name="Oslash" unicode="&#xd8;" horiz-adv-x="1390" 
d="M954 680q0 92 -24 176l-408 -504q63 -80 182 -80t184.5 111.5t65.5 296.5zM870 977q-69 82 -187 82t-183.5 -108.5t-65.5 -255.5t27 -224zM1165 1145q140 -180 140 -491t-161.5 -495t-451.5 -184q-231 0 -381 119l-104 -129l-94 76l112 139q-139 183 -139 491
t156.5 496.5t453.5 188.5q233 0 381 -123l113 139l96 -78z" />
    <glyph glyph-name="Ugrave" unicode="&#xd9;" horiz-adv-x="1368" 
d="M317 1591l226 201l344 -262l-125 -141zM686 274q234 0 234 301v758h340v-766q0 -286 -154.5 -436.5t-491 -150.5t-419 220t-82.5 367v766h338v-749q0 -150 60 -230t175 -80z" />
    <glyph glyph-name="Uacute" unicode="&#xda;" horiz-adv-x="1368" 
d="M649 1389l-125 141l344 262l226 -201zM686 274q234 0 234 301v758h340v-766q0 -286 -154.5 -436.5t-491 -150.5t-419 220t-82.5 367v766h338v-749q0 -150 60 -230t175 -80z" />
    <glyph glyph-name="Ucircumflex" unicode="&#xdb;" horiz-adv-x="1368" 
d="M684 1583l-301 -205l-123 113l307 307h242l305 -307l-127 -115zM686 274q234 0 234 301v758h340v-766q0 -286 -154.5 -436.5t-491 -150.5t-419 220t-82.5 367v766h338v-749q0 -150 60 -230t175 -80z" />
    <glyph glyph-name="Udieresis" unicode="&#xdc;" horiz-adv-x="1368" 
d="M462 1425q-64 0 -111.5 46.5t-47.5 110.5t47.5 109.5t111.5 45.5t110 -45.5t46 -109.5t-46 -110.5t-110 -46.5zM938 1425q-82 0 -128 46t-46 111t47 110t111 45t108.5 -45.5t44.5 -109.5t-45 -110.5t-92 -46.5zM686 274q234 0 234 301v758h340v-766q0 -286 -154.5 -436.5
t-491 -150.5t-419 220t-82.5 367v766h338v-749q0 -150 60 -230t175 -80z" />
    <glyph glyph-name="Yacute" unicode="&#xdd;" horiz-adv-x="1355" 
d="M629 1389l-125 141l344 262l225 -201zM846 0h-336v446l-504 887h367l307 -626l158 325q12 22 54 109.5t63.5 129.5t31.5 62h363l-504 -882v-451z" />
    <glyph glyph-name="Thorn" unicode="&#xde;" horiz-adv-x="1208" 
d="M446 827v-317h205q92 0 141.5 36t49.5 122q0 159 -187 159h-209zM449 227v-227h-338v1333h335v-221h271q331 0 403 -162t72 -274q0 -216 -136.5 -332.5t-355.5 -116.5h-251z" />
    <glyph glyph-name="germandbls" unicode="&#xdf;" horiz-adv-x="1146" 
d="M1071 422q0 -82 -29.5 -165t-116 -179t-274.5 -96q-90 0 -157 30l43 205h16q106 0 154.5 68t48.5 163t-51.5 167.5t-155.5 80.5v193q63 4 93 56.5t30 106.5t-32 98t-89 44t-93 -46t-36 -124v-1016l-318 -119v1131q0 195 123.5 312.5t316.5 117.5t307 -116.5t114 -258.5
q0 -84 -36 -156.5t-95 -109.5v-4q106 -37 171.5 -137t65.5 -246z" />
    <glyph glyph-name="agrave" unicode="&#xe0;" horiz-adv-x="1097" 
d="M262 1501l297 55l164 -407l-180 -57zM538 428q-145 0 -145 -109q0 -51 36 -77.5t93 -26.5q92 0 156 64v108q-75 41 -140 41zM672 88q-108 -115 -298 -115q-48 0 -109.5 18.5t-131.5 82t-70 226.5q0 162 110.5 247.5t255.5 85.5t249 -39v47q0 129 -164 129
q-131 0 -274 -57l-78 229q176 82 399 82q434 0 434 -373v-651h-317v86z" />
    <glyph glyph-name="aacute" unicode="&#xe1;" horiz-adv-x="1097" 
d="M618 1092l-178 57l164 410l297 -56zM538 428q-145 0 -145 -109q0 -51 36 -77.5t93 -26.5q92 0 156 64v108q-75 41 -140 41zM672 88q-108 -115 -298 -115q-48 0 -109.5 18.5t-131.5 82t-70 226.5q0 162 110.5 247.5t255.5 85.5t249 -39v47q0 129 -164 129q-131 0 -274 -57
l-78 229q176 82 399 82q434 0 434 -373v-651h-317v86z" />
    <glyph glyph-name="acircumflex" unicode="&#xe2;" horiz-adv-x="1097" 
d="M557 1278l-301 -211l-123 113l307 315h242l305 -315l-127 -115zM538 428q-145 0 -145 -109q0 -51 36 -77.5t93 -26.5q92 0 156 64v108q-75 41 -140 41zM672 88q-108 -115 -298 -115q-48 0 -109.5 18.5t-131.5 82t-70 226.5q0 162 110.5 247.5t255.5 85.5t249 -39v47
q0 129 -164 129q-131 0 -274 -57l-78 229q176 82 399 82q434 0 434 -373v-651h-317v86z" />
    <glyph glyph-name="atilde" unicode="&#xe3;" horiz-adv-x="1097" 
d="M408 1231q-32 0 -63.5 -19.5t-72.5 -81.5l-137 64q89 264 279 264q57 0 138 -36t121.5 -52t72.5 -16t58.5 19.5t65.5 70.5l131 -62q-51 -147 -123.5 -201.5t-135.5 -54.5t-142.5 36t-119.5 52.5t-72 16.5zM538 428q-145 0 -145 -109q0 -51 36 -77.5t93 -26.5q92 0 156 64
v108q-75 41 -140 41zM672 88q-108 -115 -298 -115q-48 0 -109.5 18.5t-131.5 82t-70 226.5q0 162 110.5 247.5t255.5 85.5t249 -39v47q0 129 -164 129q-131 0 -274 -57l-78 229q176 82 399 82q434 0 434 -373v-651h-317v86z" />
    <glyph glyph-name="adieresis" unicode="&#xe4;" horiz-adv-x="1097" 
d="M326 1124q-64 0 -111 47t-47 111t47 109t111 45t110.5 -45t46.5 -109t-46.5 -111t-110.5 -47zM802 1124q-81 0 -127 46t-46 111t47 110t110 45t108.5 -45t45.5 -109t-45.5 -111t-92.5 -47zM538 428q-145 0 -145 -109q0 -51 36 -77.5t93 -26.5q92 0 156 64v108
q-75 41 -140 41zM672 88q-108 -115 -298 -115q-48 0 -109.5 18.5t-131.5 82t-70 226.5q0 162 110.5 247.5t255.5 85.5t249 -39v47q0 129 -164 129q-131 0 -274 -57l-78 229q176 82 399 82q434 0 434 -373v-651h-317v86z" />
    <glyph glyph-name="aring" unicode="&#xe5;" horiz-adv-x="1097" 
d="M587 1430q-44 0 -67.5 -30t-23.5 -71t23.5 -67.5t64.5 -26.5t67.5 26.5t26.5 68.5t-23.5 71t-67.5 29zM408.5 1156q-72.5 69 -72.5 173t73.5 174t177.5 70t176.5 -70.5t72.5 -172.5t-72.5 -172.5t-177.5 -70.5t-177.5 69zM538 428q-145 0 -145 -109q0 -51 36 -77.5
t93 -26.5q92 0 156 64v108q-75 41 -140 41zM672 88q-108 -115 -298 -115q-48 0 -109.5 18.5t-131.5 82t-70 226.5q0 162 110.5 247.5t255.5 85.5t249 -39v47q0 129 -164 129q-131 0 -274 -57l-78 229q176 82 399 82q434 0 434 -373v-651h-317v86z" />
    <glyph glyph-name="ae" unicode="&#xe6;" horiz-adv-x="1708" 
d="M1311 596q-10 178 -152 178q-59 0 -102 -45t-47 -133h301zM516 215q51 0 106.5 21.5t88.5 50.5q-16 37 -25 102q-74 41 -144 41q-151 0 -151 -108q0 -53 37 -80t88 -27zM1152 1022q145 0 313.5 -78t168.5 -440v-88h-624q14 -182 207 -183q112 0 247 64l111 -211
q-186 -109 -391 -109q-253 0 -363 136q-104 -80 -192.5 -110t-178.5 -30q-182 0 -284.5 84.5t-102.5 242.5t114.5 245.5t250.5 87.5q137 0 252 -43l2 53q4 129 -191 129q-105 0 -251 -59l-78 231q181 80 396 80t325 -92q124 90 269 90z" />
    <glyph glyph-name="ccedilla" unicode="&#xe7;" horiz-adv-x="997" 
d="M510 -205q-25 0 -45 -4l-64 55l48 144q-178 35 -270.5 168t-92.5 356t127 365.5t365 142.5q92 0 186 -30.5t180 -123.5l-184 -206q-51 53 -89 71.5t-85 18.5q-86 0 -129 -67t-43 -181t43 -184t132 -70t187 100l185 -203q-155 -170 -386 -170h-2l-20 -61q119 -7 170 -60
t55 -104q7 -97 -59 -160t-196 -63t-232 43l43 125q86 -29 137 -29q109 0 109 66q0 29 -22.5 45t-47.5 16z" />
    <glyph glyph-name="egrave" unicode="&#xe8;" horiz-adv-x="1112" 
d="M262 1501l297 55l164 -407l-180 -57zM719 596q-9 178 -139 178q-72 0 -115 -45t-49 -133h303zM981 86q-182 -109 -410 -109t-356.5 138.5t-128.5 379.5t134.5 384t365.5 143t342.5 -140.5t111.5 -381.5v-84h-624q16 -182 207 -183q110 0 249 64z" />
    <glyph glyph-name="eacute" unicode="&#xe9;" horiz-adv-x="1112" 
d="M631 1092l-178 57l163 410l297 -56zM719 596q-9 178 -139 178q-72 0 -115 -45t-49 -133h303zM981 86q-182 -109 -410 -109t-356.5 138.5t-128.5 379.5t134.5 384t365.5 143t342.5 -140.5t111.5 -381.5v-84h-624q16 -182 207 -183q110 0 249 64z" />
    <glyph glyph-name="ecircumflex" unicode="&#xea;" horiz-adv-x="1112" 
d="M573 1278l-301 -211l-122 113l307 315h241l306 -315l-127 -115zM719 596q-9 178 -139 178q-72 0 -115 -45t-49 -133h303zM981 86q-182 -109 -410 -109t-356.5 138.5t-128.5 379.5t134.5 384t365.5 143t342.5 -140.5t111.5 -381.5v-84h-624q16 -182 207 -183q110 0 249 64
z" />
    <glyph glyph-name="edieresis" unicode="&#xeb;" horiz-adv-x="1112" 
d="M342 1104q-64 0 -111 46t-47 111t47.5 109.5t111.5 44.5t110.5 -45t46.5 -109t-47 -110.5t-111 -46.5zM819 1104q-82 0 -128 46t-46 111t46.5 109.5t110.5 44.5t109 -45t45 -109t-45 -110.5t-92 -46.5zM719 596q-9 178 -139 178q-72 0 -115 -45t-49 -133h303zM981 86
q-182 -109 -410 -109t-356.5 138.5t-128.5 379.5t134.5 384t365.5 143t342.5 -140.5t111.5 -381.5v-84h-624q16 -182 207 -183q110 0 249 64z" />
    <glyph glyph-name="igrave" unicode="&#xec;" horiz-adv-x="600" 
d="M141 1001h324v-1001h-324v1001zM-41 1501l297 55l164 -407l-180 -57z" />
    <glyph glyph-name="iacute" unicode="&#xed;" horiz-adv-x="600" 
d="M141 1001h324v-1001h-324v1001zM344 1092l-178 57l164 410l297 -56z" />
    <glyph glyph-name="icircumflex" unicode="&#xee;" horiz-adv-x="813" 
d="M233 1001h324v-1001h-324v1001zM403 1278l-301 -211l-122 113l307 315h241l306 -315l-127 -115z" />
    <glyph glyph-name="idieresis" unicode="&#xef;" horiz-adv-x="731" 
d="M203 1001h323v-1001h-323v1001zM138 1124q-64 0 -111 47t-47 111t47 109t111 45t110.5 -45t46.5 -109t-46.5 -111t-110.5 -47zM614 1124q-81 0 -127.5 47t-46.5 111t47.5 109t110.5 45t108.5 -45t45.5 -109t-45.5 -111t-92.5 -47z" />
    <glyph glyph-name="eth" unicode="&#xf0;" horiz-adv-x="1202" 
d="M768 470q0 110 -46 175.5t-131 65.5t-133 -64.5t-48 -182.5t50 -175.5t126 -57.5t129 64.5t53 174.5zM582 -23q-220 0 -358 136t-138 356t138 360t349 140q59 0 127 -24.5t121 -74.5h2q-16 135 -102 226l-90 -101l-105 92l76 87q-84 50 -221 63q13 129 29 233
q214 -8 372 -94l115 129l107 -86l-107 -121q225 -193 229 -596q0 -297 -78.5 -441t-185 -214t-280.5 -70z" />
    <glyph glyph-name="ntilde" unicode="&#xf1;" horiz-adv-x="1155" 
d="M393 1231q-33 0 -63.5 -19.5t-71.5 -81.5l-137 64q89 264 278 264q57 0 138 -36t121 -52t73 -16t59.5 19.5t65.5 70.5l131 -62q-51 -147 -123.5 -201.5t-135.5 -54.5t-142.5 36t-119.5 52.5t-73 16.5zM700 1020q357 0 357 -406v-614h-324v553q0 190 -143 190
q-122 0 -156 -118q-12 -54 -12 -93v-532h-322v999h322v-104h8q51 59 128 92t142 33z" />
    <glyph glyph-name="ograve" unicode="&#xf2;" horiz-adv-x="1185" 
d="M266 1501l297 55l164 -407l-180 -57zM416 500q0 -264 178 -264q86 0 130 71.5t44 189.5t-43 191.5t-134 73.5t-133 -75t-42 -187zM86 500q0 240 139 381t369 141t368 -142.5t138 -381.5t-140 -381t-371 -142t-367 142.5t-136 382.5z" />
    <glyph glyph-name="oacute" unicode="&#xf3;" horiz-adv-x="1185" 
d="M633 1092l-178 57l163 410l297 -56zM416 500q0 -264 178 -264q86 0 130 71.5t44 189.5t-43 191.5t-134 73.5t-133 -75t-42 -187zM86 500q0 240 139 381t369 141t368 -142.5t138 -381.5t-140 -381t-371 -142t-367 142.5t-136 382.5z" />
    <glyph glyph-name="ocircumflex" unicode="&#xf4;" horiz-adv-x="1185" 
d="M586 1278l-301 -211l-123 113l307 315h242l305 -315l-127 -115zM416 500q0 -264 178 -264q86 0 130 71.5t44 189.5t-43 191.5t-134 73.5t-133 -75t-42 -187zM86 500q0 240 139 381t369 141t368 -142.5t138 -381.5t-140 -381t-371 -142t-367 142.5t-136 382.5z" />
    <glyph glyph-name="otilde" unicode="&#xf5;" horiz-adv-x="1185" 
d="M434 1231q-33 0 -63.5 -19.5t-71.5 -81.5l-137 64q89 264 278 264q57 0 138 -36t121 -52t73 -16t59.5 19.5t65.5 70.5l131 -62q-51 -147 -123.5 -201.5t-135.5 -54.5t-142.5 36t-119.5 52.5t-73 16.5zM416 500q0 -264 178 -264q86 0 130 71.5t44 189.5t-43 191.5
t-134 73.5t-133 -75t-42 -187zM86 500q0 240 139 381t369 141t368 -142.5t138 -381.5t-140 -381t-371 -142t-367 142.5t-136 382.5z" />
    <glyph glyph-name="odieresis" unicode="&#xf6;" horiz-adv-x="1185" 
d="M366 1124q-64 0 -111.5 47t-47.5 111t47.5 109t111.5 45t110 -45t46 -109t-46 -111t-110 -47zM841 1124q-81 0 -127 46t-46 111t47 110t110 45t108.5 -45t45.5 -109t-45.5 -111t-92.5 -47zM416 500q0 -264 178 -264q86 0 130 71.5t44 189.5t-43 191.5t-134 73.5t-133 -75
t-42 -187zM86 500q0 240 139 381t369 141t368 -142.5t138 -381.5t-140 -381t-371 -142t-367 142.5t-136 382.5z" />
    <glyph glyph-name="divide" unicode="&#xf7;" horiz-adv-x="1331" 
d="M827 250q0 -98 -64.5 -127t-98.5 -29q-70 0 -117 45t-47 113t47 114t116.5 46t116.5 -45t47 -117zM662 858q-68 0 -115 46t-47 114t47 113t116.5 45t116.5 -45t47 -111t-48.5 -114t-116.5 -48zM188 506v262h953v-262h-953z" />
    <glyph glyph-name="oslash" unicode="&#xf8;" horiz-adv-x="1185" 
d="M768 500q0 59 -12 108l-273 -332q45 -40 101 -40t88.5 20t54 55t31.5 82.5t10 106.5zM581 762q-81 0 -123 -75t-42 -166t12 -142l277 336q-43 47 -124 47zM971 870q129 -144 129 -377q0 -234 -140 -376t-370 -142q-170 0 -289 78l-78 -94l-84 66l80 96q-133 141 -133 380
t139 380t369 141q172 0 295 -82l76 92l84 -65z" />
    <glyph glyph-name="ugrave" unicode="&#xf9;" horiz-adv-x="1146" 
d="M240 1501l297 55l163 -407l-180 -57zM559 262q162 0 162 203v534h323v-999h-323v102h-6q-112 -122 -284 -122q-333 0 -333 389v630h324v-555q0 -182 137 -182z" />
    <glyph glyph-name="uacute" unicode="&#xfa;" horiz-adv-x="1146" 
d="M598 1092l-178 57l164 410l297 -56zM559 262q162 0 162 203v534h323v-999h-323v102h-6q-112 -122 -284 -122q-333 0 -333 389v630h324v-555q0 -182 137 -182z" />
    <glyph glyph-name="ucircumflex" unicode="&#xfb;" horiz-adv-x="1146" 
d="M573 1278l-301 -211l-122 113l307 315h241l306 -315l-127 -115zM559 262q162 0 162 203v534h323v-999h-323v102h-6q-112 -122 -284 -122q-333 0 -333 389v630h324v-555q0 -182 137 -182z" />
    <glyph glyph-name="udieresis" unicode="&#xfc;" horiz-adv-x="1146" 
d="M346 1124q-64 0 -111 47t-47 111t47.5 109t111.5 45t110.5 -45t46.5 -109t-47 -111t-111 -47zM823 1124q-81 0 -127.5 47t-46.5 111t46.5 109t110.5 45t109.5 -45t45.5 -109t-45.5 -111t-92.5 -47zM559 262q162 0 162 203v534h323v-999h-323v102h-6q-112 -122 -284 -122
q-333 0 -333 389v630h324v-555q0 -182 137 -182z" />
    <glyph glyph-name="yacute" unicode="&#xfd;" horiz-adv-x="1118" 
d="M623 1092l-179 57l164 410l297 -56zM274 -399l129 356l-391 1042h332l123 -385l88 -305h8l92 305l125 385h322l-510 -1398h-318z" />
    <glyph glyph-name="thorn" unicode="&#xfe;" horiz-adv-x="1157" 
d="M743 502q-4 252 -153 252q-94 0 -168 -82v-348q75 -80 156 -80q80 0 122.5 58.5t42.5 199.5zM426 913q116 107 272 107q167 0 273 -128.5t106 -396.5q0 -259 -119.5 -387t-274.5 -128q-154 0 -253 86h-8v-379l-324 -117v1761h322v-418h6z" />
    <glyph glyph-name="ydieresis" unicode="&#xff;" horiz-adv-x="1118" 
d="M338 1124q-64 0 -111 47t-47 111t47 109t111 45t111 -45t47 -109t-47 -111t-111 -47zM815 1124q-81 0 -127.5 47t-46.5 111t46.5 109t110.5 45t109 -45t45 -109t-45 -111t-92 -47zM274 -399l129 356l-391 1042h332l123 -385l88 -305h8l92 305l125 385h322l-510 -1398
h-318z" />
    <glyph glyph-name="Amacron" unicode="&#x100;" horiz-adv-x="1406" 
d="M412 1700h585v-227h-585v227zM700 1012q-4 -10 -15 -47t-33 -103t-29 -96l-84 -250h325l-88 270q-4 8 -13 41t-30 95t-26 90h-7zM946 264h-489l-86 -264h-351l492 1333h391l492 -1333h-361z" />
    <glyph glyph-name="amacron" unicode="&#x101;" horiz-adv-x="1097" 
d="M272 1391h586v-228h-586v228zM538 428q-145 0 -145 -109q0 -51 36 -77.5t93 -26.5q92 0 156 64v108q-75 41 -140 41zM672 88q-108 -115 -298 -115q-48 0 -109.5 18.5t-131.5 82t-70 226.5q0 162 110.5 247.5t255.5 85.5t249 -39v47q0 129 -164 129q-131 0 -274 -57
l-78 229q176 82 399 82q434 0 434 -373v-651h-317v86z" />
    <glyph glyph-name="Abreve" unicode="&#x102;" horiz-adv-x="1406" 
d="M803 1670q37 46 37 95h223q0 -129 -88.5 -238.5t-273 -109.5t-275 109t-90.5 239h217q10 -59 48 -100t102 -41q63 0 100 46zM700 1012q-4 -10 -15 -47t-33 -103t-29 -96l-84 -250h325l-88 270q-4 8 -13 41t-30 95t-26 90h-7zM946 264h-489l-86 -264h-351l492 1333h391
l492 -1333h-361z" />
    <glyph glyph-name="abreve" unicode="&#x103;" horiz-adv-x="1097" 
d="M674.5 1360.5q36.5 45.5 36.5 95.5h223q0 -129 -88.5 -238.5t-273 -109.5t-275 109t-90.5 239h217q10 -59 48 -100t102 -41t100.5 45.5zM538 428q-145 0 -145 -109q0 -51 36 -77.5t93 -26.5q92 0 156 64v108q-75 41 -140 41zM672 88q-108 -115 -298 -115
q-48 0 -109.5 18.5t-131.5 82t-70 226.5q0 162 110.5 247.5t255.5 85.5t249 -39v47q0 129 -164 129q-131 0 -274 -57l-78 229q176 82 399 82q434 0 434 -373v-651h-317v86z" />
    <glyph glyph-name="Aogonek" unicode="&#x104;" horiz-adv-x="1406" 
d="M700 1012q-4 -10 -15 -47t-33 -103t-29 -96l-84 -250h325l-88 270q-4 8 -13 41t-30 95t-26 90h-7zM915 -236q0 106 117 240l-86 260h-489l-86 -264h-351l492 1333h391l492 -1333h-219q-76 -106 -76 -188q0 -91 108 -91q59 0 125 25l47 -141q-101 -56 -216 -56t-182 54.5
t-67 160.5z" />
    <glyph glyph-name="aogonek" unicode="&#x105;" horiz-adv-x="1097" 
d="M538 428q-145 0 -145 -109q0 -51 36 -77.5t93 -26.5q92 0 156 64v108q-75 41 -140 41zM672 88q-108 -115 -298 -115q-48 0 -109.5 18.5t-131.5 82t-70 226.5q0 162 110.5 247.5t255.5 85.5t249 -39v47q0 129 -164 129q-131 0 -274 -57l-78 229q176 82 399 82
q434 0 434 -373v-651h-176q-76 -106 -76 -188q0 -91 115 -91q53 0 119 25l47 -141q-101 -56 -216 -56t-182 54.5t-67 162.5t119 240v80z" />
    <glyph glyph-name="Cacute" unicode="&#x106;" horiz-adv-x="1218" 
d="M631 1389l-125 141l344 262l225 -201zM1194 223q-187 -248 -487 -248t-460.5 187t-160.5 506q0 318 162.5 503t449.5 185q178 0 291 -64.5t185 -165.5l-244 -200q-57 76 -114.5 102.5t-121.5 26.5q-124 0 -192 -107t-68 -277t67.5 -282.5t204.5 -112.5q136 0 242 144z
" />
    <glyph glyph-name="cacute" unicode="&#x107;" horiz-adv-x="997" 
d="M573 1092l-178 57l164 410l297 -56zM86 495.5q0 241.5 127 384t365 142.5q92 0 186 -30.5t180 -123.5l-184 -206q-51 53 -89 71.5t-85 18.5q-86 0 -129 -67t-43 -181t43 -184t132 -70t187 100l185 -203q-155 -170 -388 -170t-360 138.5t-127 380z" />
    <glyph glyph-name="Ccircumflex" unicode="&#x108;" horiz-adv-x="1218" 
d="M664 1583l-302 -205l-122 113l307 307h241l306 -307l-127 -115zM1194 223q-187 -248 -487 -248t-460.5 187t-160.5 506q0 318 162.5 503t449.5 185q178 0 291 -64.5t185 -165.5l-244 -200q-57 76 -114.5 102.5t-121.5 26.5q-124 0 -192 -107t-68 -277t67.5 -282.5
t204.5 -112.5q136 0 242 144z" />
    <glyph glyph-name="ccircumflex" unicode="&#x109;" horiz-adv-x="997" 
d="M541 1282l-301 -211l-123 113l307 315h242l305 -315l-127 -115zM86 495.5q0 241.5 127 384t365 142.5q92 0 186 -30.5t180 -123.5l-184 -206q-51 53 -89 71.5t-85 18.5q-86 0 -129 -67t-43 -181t43 -184t132 -70t187 100l185 -203q-155 -170 -388 -170t-360 138.5
t-127 380z" />
    <glyph glyph-name="Cdotaccent" unicode="&#x10a;" horiz-adv-x="1218" 
d="M504 1588q0 71 48 120t117.5 49t119 -49t49.5 -120t-49.5 -120t-119 -49t-117.5 49t-48 120zM1194 223q-187 -248 -487 -248t-460.5 187t-160.5 506q0 318 162.5 503t449.5 185q178 0 291 -64.5t185 -165.5l-244 -200q-57 76 -114.5 102.5t-121.5 26.5q-124 0 -192 -107
t-68 -277t67.5 -282.5t204.5 -112.5q136 0 242 144z" />
    <glyph glyph-name="cdotaccent" unicode="&#x10b;" horiz-adv-x="997" 
d="M383 1291q0 71 48 120t117.5 49t119 -49t49.5 -120t-49.5 -120t-119 -49t-117.5 49t-48 120zM86 495.5q0 241.5 127 384t365 142.5q92 0 186 -30.5t180 -123.5l-184 -206q-51 53 -89 71.5t-85 18.5q-86 0 -129 -67t-43 -181t43 -184t132 -70t187 100l185 -203
q-155 -170 -388 -170t-360 138.5t-127 380z" />
    <glyph glyph-name="Ccaron" unicode="&#x10c;" horiz-adv-x="1218" 
d="M983 1825l129 -111l-307 -309h-242l-305 309l121 111l301 -205zM1194 223q-187 -248 -487 -248t-460.5 187t-160.5 506q0 318 162.5 503t449.5 185q178 0 291 -64.5t185 -165.5l-244 -200q-57 76 -114.5 102.5t-121.5 26.5q-124 0 -192 -107t-68 -277t67.5 -282.5
t204.5 -112.5q136 0 242 144z" />
    <glyph glyph-name="ccaron" unicode="&#x10d;" horiz-adv-x="997" 
d="M852 1532l129 -111l-305 -317h-242l-307 317l123 111l301 -211zM86 495.5q0 241.5 127 384t365 142.5q92 0 186 -30.5t180 -123.5l-184 -206q-51 53 -89 71.5t-85 18.5q-86 0 -129 -67t-43 -181t43 -184t132 -70t187 100l185 -203q-155 -170 -388 -170t-360 138.5
t-127 380z" />
    <glyph glyph-name="Dcaron" unicode="&#x10e;" horiz-adv-x="1347" 
d="M889 1825l129 -111l-307 -309h-242l-305 309l121 111l301 -205zM537 283q370 0 370 383t-377 383h-73v-766h80zM117 0v1333h458q478 0 579 -241.5t101 -422.5q0 -344 -190.5 -506.5t-501.5 -162.5h-446z" />
    <glyph glyph-name="dcaron" unicode="&#x10f;" horiz-adv-x="1482" 
d="M1161 1352q0 62 46 106.5t122 44.5t127 -56.5t51 -160.5t-70.5 -196.5t-183.5 -143.5l-84 105q59 41 84 75.5t35 79.5q-53 6 -90 45t-37 101zM585 756q-77 0 -122 -64t-45 -205q0 -243 153 -243q95 0 168 84v346q-77 82 -154 82zM84 485q0 258 120.5 396.5t289.5 138.5
q136 0 237 -88h8v420q160 62 324 118v-1470h-322v84l-6 2q-110 -106 -264 -106q-270 0 -328.5 184t-58.5 321z" />
    <glyph glyph-name="Dcroat" unicode="&#x110;" horiz-adv-x="1347" 
d="M537 283q370 0 370 383t-377 383h-73v-301h190v-179h-190v-286h80zM117 0v569h-101v179h101v585h458q478 0 579 -241.5t101 -422.5q0 -344 -190.5 -506.5t-501.5 -162.5h-446z" />
    <glyph glyph-name="dcroat" unicode="&#x111;" horiz-adv-x="1177" 
d="M585 698q-167 0 -167 -227t165 -227q83 0 156 84v288q-77 82 -154 82zM84 464q0 248 118.5 373.5t274.5 125.5t254 -89h8v173h-256v165h256v140q160 62 324 118v-258h90v-165h-90v-1047h-322v84l-6 2q-110 -106 -264 -106q-271 0 -329 176t-58 308z" />
    <glyph glyph-name="Emacron" unicode="&#x112;" horiz-adv-x="1169" 
d="M319 1698h586v-228h-586v228zM113 1333h995v-282h-657v-220h456v-284h-456v-262h679v-285h-1017v1333z" />
    <glyph glyph-name="emacron" unicode="&#x113;" horiz-adv-x="1112" 
d="M281 1391h585v-228h-585v228zM719 596q-9 178 -139 178q-72 0 -115 -45t-49 -133h303zM981 86q-182 -109 -410 -109t-356.5 138.5t-128.5 379.5t134.5 384t365.5 143t342.5 -140.5t111.5 -381.5v-84h-624q16 -182 207 -183q110 0 249 64z" />
    <glyph glyph-name="Ebreve" unicode="&#x114;" horiz-adv-x="1169" 
d="M706.5 1669q36.5 45 36.5 96h224q0 -129 -88.5 -238.5t-273.5 -109.5t-275 108.5t-90 239.5h217q10 -59 48 -100t102 -41q63 0 99.5 45zM113 1333h995v-282h-657v-220h456v-284h-456v-262h679v-285h-1017v1333z" />
    <glyph glyph-name="ebreve" unicode="&#x115;" horiz-adv-x="1112" 
d="M560 1315q82 0 117.5 45.5t35.5 95.5h223q0 -129 -88.5 -238.5t-273 -109.5t-275 109t-90.5 239h217q10 -59 48 -100t86 -41zM719 596q-9 178 -139 178q-72 0 -115 -45t-49 -133h303zM981 86q-182 -109 -410 -109t-356.5 138.5t-128.5 379.5t134.5 384t365.5 143
t342.5 -140.5t111.5 -381.5v-84h-624q16 -182 207 -183q110 0 249 64z" />
    <glyph glyph-name="Edotaccent" unicode="&#x116;" horiz-adv-x="1169" 
d="M459 1580q0 71 48 120t117.5 49t119 -49t49.5 -120t-49.5 -120t-119 -49t-117.5 49t-48 120zM113 1333h995v-282h-657v-220h456v-284h-456v-262h679v-285h-1017v1333z" />
    <glyph glyph-name="edotaccent" unicode="&#x117;" horiz-adv-x="1112" 
d="M406 1281q0 71 48 120t117.5 49t118.5 -49t49 -120t-49 -120t-118.5 -49t-117.5 49t-48 120zM719 596q-9 178 -139 178q-72 0 -115 -45t-49 -133h303zM981 86q-182 -109 -410 -109t-356.5 138.5t-128.5 379.5t134.5 384t365.5 143t342.5 -140.5t111.5 -381.5v-84h-624
q16 -182 207 -183q110 0 249 64z" />
    <glyph glyph-name="Eogonek" unicode="&#x118;" horiz-adv-x="1169" 
d="M987 -188q0 -91 115 -91q53 0 119 25l47 -141q-101 -56 -216 -56q-116 0 -182.5 54.5t-66.5 161.5t112 235h-802v1333h995v-282h-657v-220h456v-284h-456v-262h679v-285h-67q-76 -106 -76 -188z" />
    <glyph glyph-name="eogonek" unicode="&#x119;" horiz-adv-x="1112" 
d="M719 596q-9 178 -139 178q-72 0 -115 -45t-49 -133h303zM590 -23q-248 0 -376 138.5t-128 379.5t134.5 384t365.5 143t342.5 -140.5t111.5 -381.5v-84h-624q16 -182 207 -183q110 0 249 64l109 -211q-63 -39 -121 -59q-55 -90 -55 -158q0 -90 108 -90q59 0 125 24
l47 -141q-99 -55 -215 -55t-182.5 54t-66.5 143t57 178q-58 -5 -88 -5z" />
    <glyph glyph-name="Ecaron" unicode="&#x11a;" horiz-adv-x="1169" 
d="M899 1823l129 -111l-307 -309h-242l-305 309l121 111l301 -205zM113 1333h995v-282h-657v-220h456v-284h-456v-262h679v-285h-1017v1333z" />
    <glyph glyph-name="ecaron" unicode="&#x11b;" horiz-adv-x="1112" 
d="M864 1526l129 -111l-305 -317h-242l-307 317l123 111l301 -211zM719 596q-9 178 -139 178q-72 0 -115 -45t-49 -133h303zM981 86q-182 -109 -410 -109t-356.5 138.5t-128.5 379.5t134.5 384t365.5 143t342.5 -140.5t111.5 -381.5v-84h-624q16 -182 207 -183q110 0 249 64
z" />
    <glyph glyph-name="Gcircumflex" unicode="&#x11c;" horiz-adv-x="1325" 
d="M668 1583l-301 -205l-123 113l307 307h242l305 -307l-127 -115zM432 655q0 -182 67 -281.5t183 -99.5t167.5 59.5t57.5 147.5h-186v250h526v-199q0 -394 -212.5 -474.5t-356.5 -80.5q-287 0 -441.5 186.5t-154.5 502.5q0 317 161.5 502.5t450.5 185.5q166 0 277.5 -57.5
t191.5 -172.5q-17 -14 -110.5 -83.5t-149.5 -116.5q-81 129 -212 129t-195 -108t-64 -290z" />
    <glyph glyph-name="gcircumflex" unicode="&#x11d;" horiz-adv-x="1165" 
d="M587 752q-167 0 -167 -246t160 -246q86 0 159 80v330q-73 82 -152 82zM600 1278l-301 -211l-123 113l307 315h242l305 -315l-127 -115zM741 1001h324v-907q0 -319 -189.5 -423.5t-332.5 -135.5l-99 258q183 59 241 127t58 143v39h-8q-114 -106 -271 -106t-267.5 124
t-110.5 378t112 387t275 133t262 -105l6 2v86z" />
    <glyph glyph-name="Gbreve" unicode="&#x11e;" horiz-adv-x="1325" 
d="M774.5 1671q36.5 45 36.5 96h223q0 -129 -88.5 -238.5t-273 -109.5t-275 109t-90.5 239h217q10 -59 48 -100t102 -41t100.5 45zM432 655q0 -182 67 -281.5t183 -99.5t167.5 59.5t57.5 147.5h-186v250h526v-199q0 -394 -212.5 -474.5t-356.5 -80.5q-287 0 -441.5 186.5
t-154.5 502.5q0 317 161.5 502.5t450.5 185.5q166 0 277.5 -57.5t191.5 -172.5q-17 -14 -110.5 -83.5t-149.5 -116.5q-81 129 -212 129t-195 -108t-64 -290z" />
    <glyph glyph-name="gbreve" unicode="&#x11f;" horiz-adv-x="1165" 
d="M587 752q-167 0 -167 -246t160 -246q86 0 159 80v330q-73 82 -152 82zM711.5 1360.5q36.5 45.5 36.5 95.5h223q0 -129 -88.5 -238.5t-273 -109.5t-275 109t-90.5 239h217q10 -59 48 -100t102 -41t100.5 45.5zM741 1001h324v-907q0 -319 -189.5 -423.5t-332.5 -135.5
l-99 258q183 59 241 127t58 143v39h-8q-114 -106 -271 -106t-267.5 124t-110.5 378t112 387t275 133t262 -105l6 2v86z" />
    <glyph glyph-name="Gdotaccent" unicode="&#x120;" horiz-adv-x="1325" 
d="M518 1580q0 71 48 120t118 49t119 -49t49 -120t-49 -120t-119 -49t-118 49t-48 120zM432 655q0 -182 67 -281.5t183 -99.5t167.5 59.5t57.5 147.5h-186v250h526v-199q0 -394 -212.5 -474.5t-356.5 -80.5q-287 0 -441.5 186.5t-154.5 502.5q0 317 161.5 502.5t450.5 185.5
q166 0 277.5 -57.5t191.5 -172.5q-17 -14 -110.5 -83.5t-149.5 -116.5q-81 129 -212 129t-195 -108t-64 -290z" />
    <glyph glyph-name="gdotaccent" unicode="&#x121;" horiz-adv-x="1165" 
d="M477 1291q0 71 48 120t118 49t119 -49t49 -120t-49 -120t-119 -49t-118 49t-48 120zM587 752q-167 0 -167 -246t160 -246q86 0 159 80v330q-73 82 -152 82zM741 1001h324v-907q0 -319 -189.5 -423.5t-332.5 -135.5l-99 258q183 59 241 127t58 143v39h-8
q-114 -106 -271 -106t-267.5 124t-110.5 378t112 387t275 133t262 -105l6 2v86z" />
    <glyph glyph-name="Gcommaaccent" unicode="&#x122;" horiz-adv-x="1325" 
d="M518 -249.5q0 67.5 48 112.5t126 45t128 -57t50 -161t-68.5 -195t-185.5 -144q-51 68 -81 104q59 41 83.5 76t32.5 80q-53 4 -93 38t-40 101.5zM432 655q0 -182 67 -281.5t183 -99.5t167.5 59.5t57.5 147.5h-186v250h526v-199q0 -394 -212.5 -474.5t-356.5 -80.5
q-287 0 -441.5 186.5t-154.5 502.5q0 317 161.5 502.5t450.5 185.5q166 0 277.5 -57.5t191.5 -172.5q-17 -14 -110.5 -83.5t-149.5 -116.5q-81 129 -212 129t-195 -108t-64 -290z" />
    <glyph glyph-name="gcommaaccent" unicode="&#x123;" horiz-adv-x="1165" 
d="M641 1395q43 0 83 -38t40 -102t-45 -105.5t-116 -41.5t-119 52t-48 154t68.5 198t179.5 147l76 -103q-61 -41 -86 -80.5t-35 -80.5h2zM587 752q-167 0 -167 -246t160 -246q86 0 159 80v330q-73 82 -152 82zM741 1001h324v-907q0 -319 -189.5 -423.5t-332.5 -135.5
l-99 258q183 59 241 127t58 143v39h-8q-114 -106 -271 -106t-267.5 124t-110.5 378t112 387t275 133t262 -105l6 2v86z" />
    <glyph glyph-name="Hcircumflex" unicode="&#x124;" horiz-adv-x="1378" 
d="M692 1583l-301 -205l-123 113l307 307h242l305 -307l-127 -115zM926 539h-475v-539h-338v1333h338v-508h475v508h338v-1333h-338v539z" />
    <glyph glyph-name="hcircumflex" unicode="&#x125;" horiz-adv-x="1155" 
d="M295 1618l-301 -205l-123 113l307 307h242l305 -307l-127 -115zM594 743q-170 0 -170 -211v-532h-324v1352l324 116v-559h6q57 53 131 82t139 29q357 0 357 -406v-614h-322v553q0 90 -40 140t-101 50z" />
    <glyph glyph-name="Hbar" unicode="&#x126;" horiz-adv-x="1378" 
d="M926 825v164h-475v-164h475zM926 539h-475v-539h-338v989h-80v150h80v194h338v-194h475v194h338v-194h82v-150h-82v-989h-338v539z" />
    <glyph glyph-name="hbar" unicode="&#x127;" horiz-adv-x="1148" 
d="M700 961q357 0 357 -406v-555h-322v494q0 106 -43.5 149t-111.5 43t-112 -54t-44 -159v-473h-324v1055h-80v166h80v131l324 116v-247h350v-166h-350v-203h6q57 53 131 81t139 28z" />
    <glyph glyph-name="Itilde" unicode="&#x128;" horiz-adv-x="612" 
d="M152 1544q-32 0 -63.5 -19.5t-72.5 -80.5l-137 63q90 265 279 265q57 0 138 -36t121.5 -52.5t72.5 -16.5t58.5 19.5t65.5 70.5l131 -61q-51 -147 -123.5 -201.5t-134.5 -54.5t-142.5 35.5t-120.5 52t-72 16.5zM135 1333h340v-1333h-340v1333z" />
    <glyph glyph-name="itilde" unicode="&#x129;" horiz-adv-x="845" 
d="M256 1001h324v-1001h-324v1001zM-10 1184q89 264 280 264q55 0 173 -52.5t154 -52.5t62.5 19.5t65.5 71.5l131 -62q-51 -147 -123.5 -201.5t-135.5 -54.5t-142.5 36t-119.5 52.5t-73 16.5t-63.5 -19.5t-71.5 -81.5z" />
    <glyph glyph-name="Imacron" unicode="&#x12a;" horiz-adv-x="612" 
d="M14 1683h586v-227h-586v227zM135 1333h340v-1333h-340v1333z" />
    <glyph glyph-name="imacron" unicode="&#x12b;" horiz-adv-x="600" 
d="M141 1001h324v-1001h-324v1001zM8 1376h586v-227h-586v227z" />
    <glyph glyph-name="Ibreve" unicode="&#x12c;" horiz-adv-x="706" 
d="M457 1670q37 46 37 95h223q0 -129 -88.5 -238.5t-273 -109.5t-275 109t-90.5 239h217q10 -59 48 -100t102 -41q63 0 100 46zM182 1333h340v-1333h-340v1333z" />
    <glyph glyph-name="ibreve" unicode="&#x12d;" horiz-adv-x="706" 
d="M184 1001h324v-1001h-324v1001zM457.5 1360.5q36.5 45.5 36.5 95.5h223q0 -129 -88.5 -238.5t-273 -109.5t-275 109t-90.5 239h217q10 -59 48 -100t102 -41t100.5 45.5z" />
    <glyph glyph-name="Iogonek" unicode="&#x12e;" horiz-adv-x="612" 
d="M111 -235q0 107 112 235h-88v1333h340v-1333h-104q-76 -106 -76 -188q0 -91 108 -91q59 0 125 25l47 -141q-101 -56 -216 -56t-181.5 54.5t-66.5 161.5z" />
    <glyph glyph-name="iogonek" unicode="&#x12f;" horiz-adv-x="600" 
d="M169.5 1428q56.5 53 132.5 53q77 0 131 -53.5t54 -133.5t-54 -134t-131 -54t-133 53t-56 134.5t56.5 134.5zM109 -235q0 107 112 235h-82v1001h324v-1001h-94q-76 -106 -76 -188q0 -91 108 -91q59 0 125 25l47 -141q-101 -56 -216 -56t-181.5 54.5t-66.5 161.5z" />
    <glyph glyph-name="Idotaccent" unicode="&#x130;" horiz-adv-x="612" 
d="M137 1578q0 71 48 120t118 49t119 -49t49 -120t-49 -120t-119 -49t-118 49t-48 120zM135 1333h340v-1333h-340v1333z" />
    <glyph glyph-name="dotlessi" unicode="&#x131;" horiz-adv-x="600" 
d="M141 1001h324v-1001h-324v1001z" />
    <glyph glyph-name="IJ" unicode="&#x132;" horiz-adv-x="1779" 
d="M1657 539q0 -268 -134 -416t-405 -148q-336 0 -427 157t-120 255l316 100q41 -117 93 -168t136 -51q201 0 201 275v790h340v-794zM135 1333h340v-1333h-340v1333z" />
    <glyph glyph-name="ij" unicode="&#x133;" horiz-adv-x="1144" 
d="M717 1426q55 55 132 55t132 -53.5t55 -133.5t-54 -134t-132 -54t-133 55t-55 132.5t55 132.5zM1012 -39q0 -219 -123 -319.5t-393 -100.5l-21 258q135 23 175 65t40 154v981h322v-1038zM169.5 1428q56.5 53 132.5 53q77 0 131 -53.5t54 -133.5t-54 -134t-131 -54t-133 53
t-56 134.5t56.5 134.5zM139 1001h324v-1001h-324v1001z" />
    <glyph glyph-name="Jcircumflex" unicode="&#x134;" horiz-adv-x="1228" 
d="M934 1583l-301 -205l-123 113l307 307h242l305 -307l-127 -115zM1106 541q0 -268 -134 -416t-405 -148q-336 0 -427 157t-120 255l316 100q41 -117 93 -168t136 -51q201 0 201 275v790h340v-794z" />
    <glyph glyph-name="jcircumflex" unicode="&#x135;" horiz-adv-x="833" 
d="M414 1278l-301 -211l-123 113l307 315h240l307 -315l-129 -115zM573 -35q0 -219 -122.5 -319.5t-393.5 -100.5l-20 260q134 23 174.5 65.5t40.5 154.5v974h321v-1034z" />
    <glyph glyph-name="Kcommaaccent" unicode="&#x136;" horiz-adv-x="1314" 
d="M502 -194.5q0 67.5 48 112.5t126 45t128 -56.5t50 -160.5t-68.5 -195.5t-185.5 -144.5q-50 67 -82 105q59 41 84 75.5t33 79.5q-53 4 -93 38t-40 101.5zM446 0h-333v1333h333v-540h7l112 145l314 395h381l-398 -481l451 -852h-377l-297 582l-193 -232v-350z" />
    <glyph glyph-name="kcommaaccent" unicode="&#x137;" horiz-adv-x="1136" 
d="M414 -247.5q0 67.5 48 112.5t126 45t128 -57t50 -161t-68.5 -195t-185.5 -144q-44 59 -82 104q59 41 84 76t33 80q-53 4 -93 38t-40 101.5zM422 0h-322v1352l322 116v-798h4q8 10 44 54t48 60l180 213h379q-56 -60 -299 -329q86 -166 172 -334t174 -334h-366l-203 428
q-72 -80 -133 -156v-272z" />
    <glyph glyph-name="kgreenlandic" unicode="&#x138;" horiz-adv-x="1140" 
d="M422 0h-322v997h322v-327h4l276 327h375q-56 -60 -299 -329q86 -166 172 -334t174 -334h-366l-205 426q-12 -14 -131 -154v-272z" />
    <glyph glyph-name="Lacute" unicode="&#x139;" horiz-adv-x="1095" 
d="M285 1389l-125 141l344 262l225 -201zM113 1333h336v-1050h632v-283h-968v1333z" />
    <glyph glyph-name="lacute" unicode="&#x13a;" horiz-adv-x="550" 
d="M223 1464l-125 142l344 262l226 -201zM113 0v1354l325 119v-1473h-325z" />
    <glyph glyph-name="Lcommaaccent" unicode="&#x13b;" horiz-adv-x="1095" 
d="M416 -239.5q0 67.5 48 112.5t126 45t128 -57t50 -161t-68.5 -195t-185.5 -144q-44 59 -82 104q59 41 84 76t33 80q-53 4 -93 38t-40 101.5zM113 1333h336v-1050h632v-283h-968v1333z" />
    <glyph glyph-name="lcommaaccent" unicode="&#x13c;" horiz-adv-x="550" 
d="M123 -229.5q0 67.5 48 112.5t126 45t128 -56t50 -160t-68.5 -195.5t-185.5 -145.5q-50 67 -82 105q59 41 84 75.5t33 79.5q-53 4 -93 38t-40 101.5zM113 0v1354l325 119v-1473h-325z" />
    <glyph glyph-name="Lcaron" unicode="&#x13d;" horiz-adv-x="1093" 
d="M643 1179q0 69 49 112.5t126 43.5t128 -56.5t51 -160.5t-69.5 -195.5t-184.5 -144.5l-84 105q59 41 85 75.5t34 79.5q-53 4 -94 38t-41 103zM113 1333h336v-1050h632v-283h-968v1333z" />
    <glyph glyph-name="lcaron" unicode="&#x13e;" horiz-adv-x="874" 
d="M532 1235q0 68 48 113t126 45t128.5 -56.5t50.5 -162.5t-68.5 -196.5t-185.5 -141.5l-82 102q59 41 83.5 76t33.5 82q-53 4 -93.5 37.5t-40.5 101.5zM113 0v1354l325 119v-1473h-325z" />
    <glyph glyph-name="Ldot" unicode="&#x13f;" horiz-adv-x="1095" 
d="M645 740q0 71 48 120t118 49t119 -49t49 -120t-49 -120t-119 -49t-118 49t-48 120zM113 1333h336v-1050h632v-283h-968v1333z" />
    <glyph glyph-name="ldot" unicode="&#x140;" horiz-adv-x="856" 
d="M113 0v1354l325 119v-1473h-325zM532 712q0 71 48.5 120t118 49t118.5 -49.5t49 -119.5t-49 -119.5t-118.5 -49.5t-118 49t-48.5 120z" />
    <glyph glyph-name="Lslash" unicode="&#x141;" horiz-adv-x="1153" 
d="M174 1333h336v-520l197 113l88 -154l-285 -166v-323h633v-283h-969v412l-92 -54l-92 156l184 104v715z" />
    <glyph glyph-name="lslash" unicode="&#x142;" horiz-adv-x="692" 
d="M496 0h-326v446l-94 -55l-90 154l184 106v703l326 119v-629l122 71l91 -155l-213 -125v-635z" />
    <glyph glyph-name="Nacute" unicode="&#x143;" horiz-adv-x="1384" 
d="M643 1389l-125 141l344 262l225 -201zM440 793v-793h-331v1333h311l291 -422q14 -20 45.5 -68t67.5 -102.5t68 -103.5t46 -70h6v766h334v-1333h-295l-330 477l-207 316h-6z" />
    <glyph glyph-name="nacute" unicode="&#x144;" horiz-adv-x="1155" 
d="M569 1092l-178 57l164 410l297 -56zM700 1020q357 0 357 -406v-614h-324v553q0 190 -143 190q-122 0 -156 -118q-12 -54 -12 -93v-532h-322v999h322v-104h8q51 59 128 92t142 33z" />
    <glyph glyph-name="Ncommaaccent" unicode="&#x145;" horiz-adv-x="1384" 
d="M530 -188.5q0 67.5 48 112.5t126 45t128.5 -56.5t50.5 -160.5t-69 -195.5t-185 -144.5q-50 67 -82 105q59 41 83.5 75.5t33.5 79.5q-53 4 -93.5 38t-40.5 101.5zM440 793v-793h-331v1333h311l291 -422q14 -20 45.5 -68t67.5 -102.5t68 -103.5t46 -70h6v766h334v-1333
h-295l-330 477l-207 316h-6z" />
    <glyph glyph-name="ncommaaccent" unicode="&#x146;" horiz-adv-x="1155" 
d="M410 -251.5q0 67.5 48 112.5t126 45t128 -57t50 -161t-68.5 -195t-185.5 -144q-44 59 -82 104q59 41 84 76t33 80q-53 4 -93 38t-40 101.5zM700 1020q357 0 357 -406v-614h-324v553q0 190 -143 190q-122 0 -156 -118q-12 -54 -12 -93v-532h-322v999h322v-104h8
q51 59 128 92t142 33z" />
    <glyph glyph-name="Ncaron" unicode="&#x147;" horiz-adv-x="1384" 
d="M983 1823l129 -111l-307 -309h-242l-305 309l121 111l301 -205zM440 793v-793h-331v1333h311l291 -422q14 -20 45.5 -68t67.5 -102.5t68 -103.5t46 -70h6v766h334v-1333h-295l-330 477l-207 316h-6z" />
    <glyph glyph-name="ncaron" unicode="&#x148;" horiz-adv-x="1155" 
d="M840 1526l129 -111l-305 -317h-242l-307 317l123 111l301 -211zM700 1020q357 0 357 -406v-614h-324v553q0 190 -143 190q-122 0 -156 -118q-12 -54 -12 -93v-532h-322v999h322v-104h8q51 59 128 92t142 33z" />
    <glyph glyph-name="napostrophe" unicode="&#x149;" horiz-adv-x="1314" 
d="M-10 1347.5q0 67.5 48 112.5t126 45t128 -56.5t50 -160.5t-68.5 -195.5t-185.5 -144.5q-50 67 -82 105q59 41 84 75.5t33 79.5q-53 4 -93 38t-40 101.5zM750 743q-168 0 -168 -211v-532h-322v999h322v-104h8q51 59 128 92t142 33q357 0 357 -406v-614h-324v553
q0 190 -143 190z" />
    <glyph glyph-name="Eng" unicode="&#x14a;" horiz-adv-x="1384" 
d="M899 -186q57 0 57 92v131l-342 500q-41 57 -83 121.5t-85 129.5h-6v-788h-331v1333h311l340 -491l178 -267h6v758h334v-1501q0 -142 -84 -208t-209 -66t-235 43l43 225q49 -12 106 -12z" />
    <glyph glyph-name="eng" unicode="&#x14b;" horiz-adv-x="1146" 
d="M700 1020q357 0 357 -406v-780q0 -143 -85.5 -208.5t-209.5 -65.5q-125 0 -236 43l43 223q49 -12 84 -12q80 0 80 92v647q0 190 -143 190q-122 0 -156 -118q-12 -54 -12 -93v-532h-322v999h322v-104h8q51 59 128 92t142 33z" />
    <glyph glyph-name="Omacron" unicode="&#x14c;" horiz-adv-x="1390" 
d="M391 1700h586v-227h-586v227zM663 1059q-97 0 -163 -108.5t-66 -280.5q0 -279 98.5 -338.5t194 -59.5t161.5 111.5t66 284.5q0 272 -97 331.5t-194 59.5zM86 665q0 315 156.5 503t450.5 188t453 -188t159 -506q0 -319 -161.5 -503t-452.5 -184q-294 0 -449.5 187.5
t-155.5 502.5z" />
    <glyph glyph-name="omacron" unicode="&#x14d;" horiz-adv-x="1185" 
d="M291 1391h586v-228h-586v228zM416 500q0 -264 178 -264q86 0 130 71.5t44 189.5t-43 191.5t-134 73.5t-133 -75t-42 -187zM86 500q0 240 139 381t369 141t368 -142.5t138 -381.5t-140 -381t-371 -142t-367 142.5t-136 382.5z" />
    <glyph glyph-name="Obreve" unicode="&#x14e;" horiz-adv-x="1390" 
d="M794.5 1671q36.5 45 36.5 96h224q0 -129 -88.5 -238.5t-273 -109.5t-275 108.5t-90.5 239.5h217q10 -59 48 -100t102 -41q63 0 99.5 45zM663 1059q-97 0 -163 -108.5t-66 -280.5q0 -279 98.5 -338.5t194 -59.5t161.5 111.5t66 284.5q0 272 -97 331.5t-194 59.5zM86 665
q0 315 156.5 503t450.5 188t453 -188t159 -506q0 -319 -161.5 -503t-452.5 -184q-294 0 -449.5 187.5t-155.5 502.5z" />
    <glyph glyph-name="obreve" unicode="&#x14f;" horiz-adv-x="1185" 
d="M691 1359.5q36 44.5 36 96.5h223q0 -129 -88.5 -238.5t-273 -109.5t-275 109t-90.5 239h217q10 -59 48 -100t103 -41q64 0 100 44.5zM416 500q0 -264 178 -264q86 0 130 71.5t44 189.5t-43 191.5t-134 73.5t-133 -75t-42 -187zM86 500q0 240 139 381t369 141t368 -142.5
t138 -381.5t-140 -381t-371 -142t-367 142.5t-136 382.5z" />
    <glyph glyph-name="Ohungarumlaut" unicode="&#x150;" horiz-adv-x="1390" 
d="M909 1382l-141 119l297 314l254 -164zM475 1403l-143 119l299 313l256 -164zM663 1059q-97 0 -163 -108.5t-66 -280.5q0 -279 98.5 -338.5t194 -59.5t161.5 111.5t66 284.5q0 272 -97 331.5t-194 59.5zM86 665q0 315 156.5 503t450.5 188t453 -188t159 -506
q0 -319 -161.5 -503t-452.5 -184q-294 0 -449.5 187.5t-155.5 502.5z" />
    <glyph glyph-name="ohungarumlaut" unicode="&#x151;" horiz-adv-x="1185" 
d="M854 1092l-176 57l160 401l295 -55zM467 1102l-178 59l160 400l299 -56zM416 500q0 -264 178 -264q86 0 130 71.5t44 189.5t-43 191.5t-134 73.5t-133 -75t-42 -187zM86 500q0 240 139 381t369 141t368 -142.5t138 -381.5t-140 -381t-371 -142t-367 142.5t-136 382.5z
" />
    <glyph glyph-name="OE" unicode="&#x152;" horiz-adv-x="1886" 
d="M715 272q70 0 125 39v707q-57 41 -128 41q-131 0 -197 -107.5t-66 -281.5q0 -278 98 -338t168 -60zM682 1356q123 0 209 -23h909v-282h-624v-220h423v-284h-423v-262h647v-285h-926q-86 -25 -214 -25t-240.5 50.5t-226.5 187t-114 452.5t115 453t228.5 187.5t236.5 50.5z
" />
    <glyph glyph-name="oe" unicode="&#x153;" horiz-adv-x="1802" 
d="M1407 596q-9 180 -139 180q-72 0 -116 -45t-48 -135h303zM416 500q0 -264 178 -264q86 0 130 71.5t44 189.5t-43 191.5t-134 73.5t-133 -75t-42 -187zM1729 500v-84h-625q12 -182 207 -183q111 0 248 62l110 -209q-182 -109 -402 -109t-335 134q-126 -136 -349 -136
t-360 143t-137 383q0 239 139 380t355 141t356 -137q128 137 349 137q220 0 332 -141.5t112 -380.5z" />
    <glyph glyph-name="Racute" unicode="&#x154;" horiz-adv-x="1275" 
d="M545 1389l-125 141l344 262l225 -201zM678 750q176 0 176 153q0 76 -50 112t-124 36h-231v-301h229zM1202 882q0 -130 -65.5 -226.5t-178.5 -141.5l240 -514h-350l-199 469h-200v-469h-336v1333h616q330 0 401.5 -160.5t71.5 -290.5z" />
    <glyph glyph-name="racute" unicode="&#x155;" horiz-adv-x="854" 
d="M430 1092l-178 57l164 410l297 -56zM432 498v-498h-323v999h323v-133h6q49 80 123 117t143 37t148 -27l-49 -305q-94 16 -176 16t-138.5 -44t-56.5 -162z" />
    <glyph glyph-name="Rcommaaccent" unicode="&#x156;" horiz-adv-x="1275" 
d="M678 750q176 0 176 153q0 76 -50 112t-124 36h-231v-301h229zM465 -184.5q0 67.5 48 112.5t126 45t128 -56.5t50 -160.5t-68.5 -195t-185.5 -145q-50 67 -82 105q59 41 84 75.5t33 79.5q-53 4 -93 38t-40 101.5zM1202 882q0 -130 -65.5 -226.5t-178.5 -141.5l240 -514
h-350l-199 469h-200v-469h-336v1333h616q330 0 401.5 -160.5t71.5 -290.5z" />
    <glyph glyph-name="rcommaaccent" unicode="&#x157;" horiz-adv-x="854" 
d="M119 -249.5q0 67.5 48 112.5t126 45t128 -57t50 -161t-68.5 -195t-185.5 -144q-44 59 -82 104q59 41 84 76t33 80q-53 4 -93 38t-40 101.5zM432 498v-498h-323v999h323v-133h6q49 80 123 117t143 37t148 -27l-49 -305q-94 16 -176 16t-138.5 -44t-56.5 -162z" />
    <glyph glyph-name="Rcaron" unicode="&#x158;" horiz-adv-x="1275" 
d="M678 750q176 0 176 153q0 76 -50 112t-124 36h-231v-301h229zM899 1823l129 -111l-307 -309h-242l-305 309l121 111l301 -205zM1202 882q0 -130 -65.5 -226.5t-178.5 -141.5l240 -514h-350l-199 469h-200v-469h-336v1333h616q330 0 401.5 -160.5t71.5 -290.5z" />
    <glyph glyph-name="rcaron" unicode="&#x159;" horiz-adv-x="854" 
d="M719 1526l129 -111l-305 -317h-242l-307 317l123 111l301 -211zM432 498v-498h-323v999h323v-133h6q49 80 123 117t143 37t148 -27l-49 -305q-94 16 -176 16t-138.5 -44t-56.5 -162z" />
    <glyph glyph-name="Sacute" unicode="&#x15a;" horiz-adv-x="1210" 
d="M569 1389l-125 141l344 262l226 -201zM256 410q170 -146 370 -146q86 0 132.5 33t46.5 86q0 71 -82.5 99t-170.5 52q-212 56 -326.5 145t-114.5 275t146.5 295t363.5 109q141 0 270 -45t225 -129l-182 -242q-158 129 -332 129q-80 0 -113.5 -32.5t-33.5 -67.5t16 -53.5
t49 -35.5t130 -44q96 -27 180.5 -54.5t204.5 -108.5t120 -282t-150 -310.5t-391 -109.5q-158 0 -304 53.5t-244 147.5z" />
    <glyph glyph-name="sacute" unicode="&#x15b;" horiz-adv-x="1011" 
d="M543 1094l-178 57l163 410l297 -56zM537 776q-45 0 -72 -20t-27 -44q0 -48 106 -77q219 -61 305.5 -132t86.5 -216t-116.5 -228.5t-327.5 -83.5t-424 117l106 221q184 -94 308 -94t124 70q0 41 -33.5 60t-118.5 45q-193 58 -269 125t-76 199t106.5 218t304.5 86t395 -96
l-100 -228q-146 78 -278 78z" />
    <glyph glyph-name="Scircumflex" unicode="&#x15c;" horiz-adv-x="1210" 
d="M614 1583l-301 -205l-123 113l308 307h241l305 -307l-126 -115zM256 410q170 -146 370 -146q86 0 132.5 33t46.5 86q0 71 -82.5 99t-170.5 52q-212 56 -326.5 145t-114.5 275t146.5 295t363.5 109q141 0 270 -45t225 -129l-182 -242q-158 129 -332 129
q-80 0 -113.5 -32.5t-33.5 -67.5t16 -53.5t49 -35.5t130 -44q96 -27 180.5 -54.5t204.5 -108.5t120 -282t-150 -310.5t-391 -109.5q-158 0 -304 53.5t-244 147.5z" />
    <glyph glyph-name="scircumflex" unicode="&#x15d;" horiz-adv-x="1011" 
d="M514 1278l-301 -211l-123 113l307 315h242l305 -315l-127 -115zM537 776q-45 0 -72 -20t-27 -44q0 -48 106 -77q219 -61 305.5 -132t86.5 -216t-116.5 -228.5t-327.5 -83.5t-424 117l106 221q184 -94 308 -94t124 70q0 41 -33.5 60t-118.5 45q-193 58 -269 125t-76 199
t106.5 218t304.5 86t395 -96l-100 -228q-146 78 -278 78z" />
    <glyph glyph-name="Scedilla" unicode="&#x15e;" horiz-adv-x="1210" 
d="M256 410q170 -146 370 -146q86 0 132.5 33t46.5 86q0 71 -82.5 99t-170.5 52q-212 56 -326.5 145t-114.5 275t146.5 295t363.5 109q141 0 270 -45t225 -129l-182 -242q-158 129 -332 129q-80 0 -113.5 -32.5t-33.5 -67.5t16 -53.5t49 -35.5t130 -44q96 -27 180.5 -54.5
t204.5 -108.5t120 -281t-146.5 -308.5t-381.5 -112.5l-19 -57q119 -7 170.5 -60.5t55.5 -104.5q7 -95 -58.5 -158.5t-196.5 -63.5q-130 0 -233 43l43 125q85 -29 137 -29q108 0 109 66q0 29 -22.5 45t-47.5 16t-45 -4l-63 55l43 136q-127 16 -242 65t-192 127z" />
    <glyph glyph-name="scedilla" unicode="&#x15f;" horiz-adv-x="1011" 
d="M537 776q-45 0 -72 -20t-27 -44q0 -48 106 -77q219 -61 305.5 -132t86.5 -214t-106.5 -223t-286.5 -89l-21 -61q119 -7 170.5 -60.5t55.5 -104.5q7 -95 -58.5 -158.5t-196.5 -63.5t-233 43l43 125q85 -29 137 -29q108 0 109 66q0 29 -22.5 45t-47.5 16t-45 -4l-63 55
l43 136q-182 18 -346 110l106 221q184 -94 308 -94t124 70q0 41 -33.5 60t-118.5 45q-193 58 -269 125t-76 199t106.5 218t304.5 86t395 -96l-100 -228q-146 78 -278 78z" />
    <glyph glyph-name="Scaron" unicode="&#x160;" horiz-adv-x="1210" 
d="M924 1823l129 -111l-308 -309h-241l-305 309l120 111l302 -205zM256 410q170 -146 370 -146q86 0 132.5 33t46.5 86q0 71 -82.5 99t-170.5 52q-212 56 -326.5 145t-114.5 275t146.5 295t363.5 109q141 0 270 -45t225 -129l-182 -242q-158 129 -332 129
q-80 0 -113.5 -32.5t-33.5 -67.5t16 -53.5t49 -35.5t130 -44q96 -27 180.5 -54.5t204.5 -108.5t120 -282t-150 -310.5t-391 -109.5q-158 0 -304 53.5t-244 147.5z" />
    <glyph glyph-name="scaron" unicode="&#x161;" horiz-adv-x="1011" 
d="M805 1532l129 -111l-305 -317h-242l-307 317l123 111l301 -211zM537 776q-45 0 -72 -20t-27 -44q0 -48 106 -77q219 -61 305.5 -132t86.5 -216t-116.5 -228.5t-327.5 -83.5t-424 117l106 221q184 -94 308 -94t124 70q0 41 -33.5 60t-118.5 45q-193 58 -269 125t-76 199
t106.5 218t304.5 86t395 -96l-100 -228q-146 78 -278 78z" />
    <glyph glyph-name="Tcommaaccent" unicode="&#x162;" horiz-adv-x="1138" 
d="M416 -249.5q0 67.5 48 112.5t126 45t128 -57t50 -161t-68.5 -195t-185.5 -144q-44 59 -82 104q59 41 84 76t33 80q-53 4 -93 38t-40 101.5zM741 0h-338v1051h-380v282h1099v-282h-381v-1051z" />
    <glyph glyph-name="tcommaaccent" unicode="&#x163;" horiz-adv-x="833" 
d="M252 -249.5q0 67.5 48 112.5t126 45t128 -57t50 -161t-68.5 -195t-185.5 -144q-44 59 -82 104q59 41 84 76t33 80q-53 4 -93 38t-40 101.5zM618 262q59 0 134 8l24 -254q-152 -41 -288 -41t-217 71t-81 241v481h-149v231h154v234l317 117v-351h213v-231h-213v-367
q0 -78 23 -108.5t83 -30.5z" />
    <glyph glyph-name="Tcaron" unicode="&#x164;" horiz-adv-x="1138" 
d="M874 1823l130 -111l-308 -309h-241l-305 309l120 111l301 -205zM741 0h-338v1051h-380v282h1099v-282h-381v-1051z" />
    <glyph glyph-name="tcaron" unicode="&#x165;" horiz-adv-x="970" 
d="M618 262q59 0 134 8l24 -254q-152 -41 -288 -41t-217 71t-81 241v481h-149v231h154v234l317 117v-351h213v-231h-213v-367q0 -78 23 -108.5t83 -30.5zM657 1465q0 62 46.5 107.5t122.5 45.5t127 -56t51 -162t-70 -197t-184 -144l-84 104q59 41 83.5 76t34.5 80
q-53 6 -90 45t-37 101z" />
    <glyph glyph-name="Tbar" unicode="&#x166;" horiz-adv-x="1138" 
d="M741 776h353v-176h-353v-600h-338v600h-350v176h350v275h-380v282h1099v-282h-381v-275z" />
    <glyph glyph-name="tbar" unicode="&#x167;" horiz-adv-x="833" 
d="M633 262q60 0 133 8l25 -254q-152 -41 -289 -41t-217 71t-80 241v164h-144v165h144v152h-150v231h154v234l317 117v-351h213v-231h-213v-152h187v-165h-187v-50q0 -78 23.5 -108.5t83.5 -30.5z" />
    <glyph glyph-name="Utilde" unicode="&#x168;" horiz-adv-x="1368" 
d="M534 1530q-32 0 -63 -19.5t-72 -80.5l-137 63q89 264 279 264q55 0 137 -35.5t122 -52t72 -16.5t59 19.5t66 70.5l131 -62q-51 -147 -123.5 -201.5t-135.5 -54.5t-142.5 36t-120 52.5t-72.5 16.5zM686 274q234 0 234 301v758h340v-766q0 -286 -154.5 -436.5t-491 -150.5
t-419 220t-82.5 367v766h338v-749q0 -150 60 -230t175 -80z" />
    <glyph glyph-name="utilde" unicode="&#x169;" horiz-adv-x="1146" 
d="M424 1231q-33 0 -63.5 -19.5t-71.5 -81.5l-137 64q89 264 278 264q57 0 138 -36t121 -52t73 -16t59.5 19.5t65.5 70.5l131 -62q-51 -147 -124 -201.5t-136 -54.5t-142 36t-119 52.5t-73 16.5zM559 262q162 0 162 203v534h323v-999h-323v102h-6q-112 -122 -284 -122
q-333 0 -333 389v630h324v-555q0 -182 137 -182z" />
    <glyph glyph-name="Umacron" unicode="&#x16a;" horiz-adv-x="1368" 
d="M389 1698h586v-228h-586v228zM686 274q234 0 234 301v758h340v-766q0 -286 -154.5 -436.5t-491 -150.5t-419 220t-82.5 367v766h338v-749q0 -150 60 -230t175 -80z" />
    <glyph glyph-name="umacron" unicode="&#x16b;" horiz-adv-x="1146" 
d="M291 1391h586v-228h-586v228zM559 262q162 0 162 203v534h323v-999h-323v102h-6q-112 -122 -284 -122q-333 0 -333 389v630h324v-555q0 -182 137 -182z" />
    <glyph glyph-name="Ubreve" unicode="&#x16c;" horiz-adv-x="1368" 
d="M782.5 1669q36.5 45 36.5 96h223q0 -130 -88 -239t-273 -109t-275.5 109t-90.5 239h217q10 -59 48 -100t102 -41t100.5 45zM686 274q234 0 234 301v758h340v-766q0 -286 -154.5 -436.5t-491 -150.5t-419 220t-82.5 367v766h338v-749q0 -150 60 -230t175 -80z" />
    <glyph glyph-name="ubreve" unicode="&#x16d;" horiz-adv-x="1146" 
d="M668.5 1360.5q36.5 45.5 36.5 95.5h223q0 -129 -88.5 -238.5t-273 -109.5t-275 109t-90.5 239h217q10 -59 48 -100t102 -41t100.5 45.5zM559 262q162 0 162 203v534h323v-999h-323v102h-6q-112 -122 -284 -122q-333 0 -333 389v630h324v-555q0 -182 137 -182z" />
    <glyph glyph-name="Uring" unicode="&#x16e;" horiz-adv-x="1368" 
d="M683 1673q-44 0 -67.5 -29.5t-23.5 -70.5t23.5 -67.5t64.5 -26.5t67.5 26.5t26.5 68.5t-23.5 70.5t-67.5 28.5zM505 1400q-73 69 -73 173t74 174t178 70q103 0 175.5 -70.5t72.5 -172.5t-73 -172.5t-177 -70.5t-177 69zM686 274q234 0 234 301v758h340v-766
q0 -286 -154.5 -436.5t-491 -150.5t-419 220t-82.5 367v766h338v-749q0 -150 60 -230t175 -80z" />
    <glyph glyph-name="uring" unicode="&#x16f;" horiz-adv-x="1146" 
d="M581 1440q-44 0 -68 -30t-24 -71t24 -67.5t65 -26.5t67.5 26.5t26.5 68.5t-23.5 71t-67.5 29zM402.5 1167q-72.5 69 -72.5 173q0 105 73.5 174t177.5 69t176 -69.5t72 -173.5t-72.5 -173t-176.5 -69q-105 0 -177.5 69zM559 262q162 0 162 203v534h323v-999h-323v102h-6
q-112 -122 -284 -122q-333 0 -333 389v630h324v-555q0 -182 137 -182z" />
    <glyph glyph-name="Uhungarumlaut" unicode="&#x170;" horiz-adv-x="1368" 
d="M870 1382l-141 119l297 314l254 -164zM436 1403l-143 119l299 313l256 -164zM686 274q234 0 234 301v758h340v-766q0 -286 -154.5 -436.5t-491 -150.5t-419 220t-82.5 367v766h338v-749q0 -150 60 -230t175 -80z" />
    <glyph glyph-name="uhungarumlaut" unicode="&#x171;" horiz-adv-x="1146" 
d="M807 1092l-176 57l160 401l294 -55zM420 1102l-178 59l159 400l299 -56zM559 262q162 0 162 203v534h323v-999h-323v102h-6q-112 -122 -284 -122q-333 0 -333 389v630h324v-555q0 -182 137 -182z" />
    <glyph glyph-name="Uogonek" unicode="&#x172;" horiz-adv-x="1368" 
d="M686 274q234 0 234 301v758h340v-766q0 -268 -136 -418.5t-374 -166.5q-61 -96 -62 -166q0 -90 109 -90q59 0 125 24l47 -141q-99 -55 -215 -55t-183 54t-67 155t96 221q-225 20 -356 166.5t-131 416.5v766h338v-749q0 -150 60 -230t175 -80z" />
    <glyph glyph-name="uogonek" unicode="&#x173;" horiz-adv-x="1146" 
d="M559 262q162 0 162 203v534h323v-999h-178q-73 -99 -73 -184q0 -90 108 -90q59 0 125 24l47 -141q-99 -55 -215 -55t-183 54t-67 162t113 232v100h-6q-112 -122 -284 -122q-333 0 -333 389v630h324v-555q0 -182 137 -182z" />
    <glyph glyph-name="Wcircumflex" unicode="&#x174;" horiz-adv-x="1804" 
d="M903 1583l-301 -205l-123 113l307 307h242l305 -307l-127 -115zM1784 1333l-318 -1333h-352l-88 358q-22 103 -65 277t-54 242h-4q-75 -335 -100 -432t-54.5 -227t-54.5 -218h-350q-78 336 -159 666.5t-158 666.5h360l76 -407q8 -49 19.5 -108.5t22.5 -123t21.5 -126
t20.5 -117.5h8q23 123 48.5 241.5t51.5 241.5l86 399h328l88 -401q46 -208 71 -334.5t29 -146.5h7q20 123 41.5 238.5t44.5 242.5l75 401h359z" />
    <glyph glyph-name="wcircumflex" unicode="&#x175;" horiz-adv-x="1568" 
d="M772 1278l-301 -211l-123 113l307 315h242l305 -315l-127 -115zM774 606l-55 -231l-96 -375h-334l-279 1001h330l80 -393l49 -266h6l158 659h303l96 -405l53 -260h7l53 274l82 391h327l-290 -1001h-336l-150 606h-4z" />
    <glyph glyph-name="Ycircumflex" unicode="&#x176;" horiz-adv-x="1355" 
d="M678 1583l-301 -205l-123 113l307 307h242l305 -307l-127 -115zM846 0h-336v446l-504 887h367l307 -626l158 325q12 22 54 109.5t63.5 129.5t31.5 62h363l-504 -882v-451z" />
    <glyph glyph-name="ycircumflex" unicode="&#x177;" horiz-adv-x="1118" 
d="M571 1278l-301 -211l-123 113l308 315h241l305 -315l-127 -115zM274 -399l129 356l-391 1042h332l123 -385l88 -305h8l92 305l125 385h322l-510 -1398h-318z" />
    <glyph glyph-name="Ydieresis" unicode="&#x178;" horiz-adv-x="1355" 
d="M927 1427q-81 0 -127 46t-46 111t47 110t110 45t108.5 -45.5t45.5 -109.5t-45.5 -110.5t-92.5 -46.5zM452 1427q-64 0 -111.5 46.5t-47.5 110.5t47.5 109.5t111.5 45.5t110 -45.5t46 -109.5t-46 -110.5t-110 -46.5zM846 0h-336v446l-504 887h367l307 -626l158 325
q12 22 54 109.5t63.5 129.5t31.5 62h363l-504 -882v-451z" />
    <glyph glyph-name="Zacute" unicode="&#x179;" horiz-adv-x="1210" 
d="M575 1389l-124 141l344 262l225 -201zM109 1051v282h1032v-260l-674 -788h680v-285h-1077v256l669 795h-630z" />
    <glyph glyph-name="zacute" unicode="&#x17a;" horiz-adv-x="1009" 
d="M547 1092l-178 57l163 410l297 -56zM928 999v-237l-502 -518l2 -2h516v-242h-883v240l486 516l-2 2h-459v241h842z" />
    <glyph glyph-name="Zdotaccent" unicode="&#x17b;" horiz-adv-x="1210" 
d="M483 1580q0 71 48.5 120t118 49t118.5 -49t49 -120t-49 -120t-118.5 -49t-118 49t-48.5 120zM109 1051v282h1032v-260l-674 -788h680v-285h-1077v256l669 795h-630z" />
    <glyph glyph-name="zdotaccent" unicode="&#x17c;" horiz-adv-x="1009" 
d="M371 1291q0 71 48 120t117.5 49t119 -49t49.5 -120t-49.5 -120t-119 -49t-117.5 49t-48 120zM928 999v-237l-502 -518l2 -2h516v-242h-883v240l486 516l-2 2h-459v241h842z" />
    <glyph glyph-name="Zcaron" unicode="&#x17d;" horiz-adv-x="1210" 
d="M938 1823l129 -111l-307 -309h-242l-305 309l121 111l301 -205zM109 1051v282h1032v-260l-674 -788h680v-285h-1077v256l669 795h-630z" />
    <glyph glyph-name="zcaron" unicode="&#x17e;" horiz-adv-x="1009" 
d="M813 1532l129 -111l-305 -317h-242l-307 317l123 111l301 -211zM928 999v-237l-502 -518l2 -2h516v-242h-883v240l486 516l-2 2h-459v241h842z" />
    <glyph glyph-name="florin" unicode="&#x192;" horiz-adv-x="1331" 
d="M285 70q59 0 93 54t54.5 137t31.5 183.5t23 190.5h-157v237h194q12 88 33 183.5t97 222.5t304 127q140 0 240 -49l-74 -250q-62 20 -111 20q-88 0 -121.5 -63.5t-53.5 -190.5h190v-237h-223q-4 -29 -12.5 -84t-17.5 -114.5t-17 -115t-18 -116.5q-29 -185 -111 -298.5
t-275 -113.5q-127 0 -250 55l80 242q73 -20 101 -20z" />
    <glyph glyph-name="Ohorn" unicode="&#x1a0;" horiz-adv-x="1396" 
d="M663 1059q-97 0 -163 -108.5t-66 -280.5q0 -279 98.5 -338.5t194 -59.5t161.5 111.5t66 284.5q0 272 -97 331.5t-194 59.5zM86 665q0 315 156.5 503t453.5 188q164 0 291 -64q85 0 118.5 42.5t33.5 162.5v76h235v-109q0 -119 -52 -207t-144 -129q127 -180 127 -482
t-161.5 -486.5t-452.5 -184.5q-294 0 -449.5 187.5t-155.5 502.5z" />
    <glyph glyph-name="ohorn" unicode="&#x1a1;" horiz-adv-x="1206" 
d="M416 500q0 -264 178 -264q86 0 130 71.5t44 189.5t-43 191.5t-134 73.5t-133 -75t-42 -187zM1100 521q0 -262 -140 -404t-371 -142t-367 142t-136 383q0 240 139 381t369 141q162 0 276 -72q72 6 99.5 50t27.5 155v76h230v-109q0 -256 -195 -338q68 -121 68 -263z" />
    <glyph glyph-name="Uhorn" unicode="&#x1af;" horiz-adv-x="1576" 
d="M686 274q234 0 234 301v758h340v-53q66 8 92 52t26 153v84h226v-117q0 -166 -93 -269.5t-251 -103.5v-512q0 -286 -154.5 -436.5t-491 -150.5t-419 220t-82.5 367v766h338v-749q0 -150 60 -230t175 -80z" />
    <glyph glyph-name="uhorn" unicode="&#x1b0;" horiz-adv-x="1361" 
d="M559 262q162 0 162 203v534h323v-49q66 8 91.5 52.5t25.5 150.5v76h230v-109q0 -162 -85 -261t-262 -101v-758h-323v102h-6q-112 -122 -284 -122q-333 0 -333 389v630h324v-555q0 -182 137 -182z" />
    <glyph glyph-name="AEacute" unicode="&#x1fc;" horiz-adv-x="1994" 
d="M952 530v519l-278 -519h278zM1178 1389l-125 141l344 262l225 -201zM952 279h-411l-158 -279h-379l758 1333h1159v-284h-604v-220h403v-282h-403v-264h625v-283h-990v279z" />
    <glyph glyph-name="aeacute" unicode="&#x1fd;" horiz-adv-x="1708" 
d="M928 1092l-178 57l163 410l297 -56zM1311 596q-10 178 -152 178q-59 0 -102 -45t-47 -133h301zM516 215q51 0 106.5 21.5t88.5 50.5q-16 37 -25 102q-74 41 -144 41q-151 0 -151 -108q0 -53 37 -80t88 -27zM1152 1022q145 0 313.5 -78t168.5 -440v-88h-624
q14 -182 207 -183q112 0 247 64l111 -211q-186 -109 -391 -109q-253 0 -363 136q-104 -80 -192.5 -110t-178.5 -30q-182 0 -284.5 84.5t-102.5 242.5t114.5 245.5t250.5 87.5q137 0 252 -43l2 53q4 129 -191 129q-105 0 -251 -59l-78 231q181 80 396 80t325 -92
q124 90 269 90z" />
    <glyph glyph-name="Oslashacute" unicode="&#x1fe;" horiz-adv-x="1390" 
d="M670 1389l-125 141l344 262l225 -201zM954 677q0 89 -22 175l-408 -502q66 -78 182 -78t182 111.5t66 293.5zM434 696q0 -145 27 -227l409 506q-64 84 -184 84t-186 -109t-66 -254zM227 180q-141 176 -141 488t156.5 500t453.5 188q231 0 383 -123l115 139l96 -78
l-123 -151q137 -184 137 -492t-161 -492t-451 -184q-231 0 -379 117l-102 -127l-94 78z" />
    <glyph glyph-name="oslashacute" unicode="&#x1ff;" horiz-adv-x="1183" 
d="M582 236q99 0 142.5 71.5t43.5 161.5t-12 143l-275 -333q43 -43 101 -43zM578 762q-78 0 -120 -75t-42 -165t12 -139l272 334q-44 45 -122 45zM641 1092l-178 57l164 410l297 -56zM967 872q133 -144 133 -378q0 -235 -140 -377t-370 -142q-170 0 -291 80l-80 -96
q-18 12 -84 66l80 98q-129 139 -129 378t139 380t369 141q168 0 291 -80l76 90l83 -65z" />
    <glyph glyph-name="Scommaaccent" unicode="&#x218;" horiz-adv-x="1210" 
d="M461 -249.5q0 67.5 48 112.5t126 45t128 -57t50 -161t-68.5 -195t-185.5 -144q-44 59 -82 104q59 41 84 76t33 80q-53 4 -93 38t-40 101.5zM256 410q170 -146 370 -146q86 0 132.5 33t46.5 86q0 71 -82.5 99t-170.5 52q-212 56 -326.5 145t-114.5 275t146.5 295
t363.5 109q141 0 270 -45t225 -129l-182 -242q-158 129 -332 129q-80 0 -113.5 -32.5t-33.5 -67.5t16 -53.5t49 -35.5t130 -44q96 -27 180.5 -54.5t204.5 -108.5t120 -282t-150 -310.5t-391 -109.5q-158 0 -304 53.5t-244 147.5z" />
    <glyph glyph-name="scommaaccent" unicode="&#x219;" horiz-adv-x="1011" 
d="M326 -249.5q0 67.5 48 112.5t126 45t128 -57t50 -161t-68.5 -195t-185.5 -144q-44 59 -82 104q59 41 84 76t33 80q-53 4 -93 38t-40 101.5zM537 776q-45 0 -72 -20t-27 -44q0 -48 106 -77q219 -61 305.5 -132t86.5 -216t-116.5 -228.5t-327.5 -83.5t-424 117l106 221
q184 -94 308 -94t124 70q0 41 -33.5 60t-118.5 45q-193 58 -269 125t-76 199t106.5 218t304.5 86t395 -96l-100 -228q-146 78 -278 78z" />
    <glyph glyph-name="schwa" unicode="&#x259;" horiz-adv-x="1103" 
d="M530 221q150 0 162 182h-303q13 -182 141 -182zM484 766q-100 0 -238 -61l-99 208q104 63 188.5 85t196.5 22q236 0 363 -139t127 -379t-133 -381t-364 -141t-343 140.5t-112 377.5v84h624q-10 98 -60 141t-150 43z" />
    <glyph glyph-name="primemod" unicode="&#x2b9;" horiz-adv-x="532" 
d="M188 791l-178 57l283 645l305 -59z" />
    <glyph glyph-name="circumflex" unicode="&#x2c6;" horiz-adv-x="1105" 
d="M551 1278l-301 -211l-123 113l307 315h242l305 -315l-127 -115z" />
    <glyph glyph-name="caron" unicode="&#x2c7;" horiz-adv-x="997" 
d="M809 1526l129 -111l-305 -317h-242l-307 317l123 111l301 -211z" />
    <glyph glyph-name="breve" unicode="&#x2d8;" horiz-adv-x="1091" 
d="M664 1359.5q36 44.5 36 96.5h224q0 -129 -88.5 -238.5t-273.5 -109.5t-275 108.5t-90 239.5h217q10 -59 48 -100t102 -41t100 44.5z" />
    <glyph glyph-name="dotaccent" unicode="&#x2d9;" horiz-adv-x="829" 
d="M258 1291q0 71 48 120t118 49t119 -49t49 -120t-49 -120t-119 -49t-118 49t-48 120z" />
    <glyph glyph-name="ring" unicode="&#x2da;" horiz-adv-x="1060" 
d="M564 1440q-44 0 -67.5 -30t-23.5 -71t23.5 -67.5t64.5 -26.5t67.5 26.5t26.5 68.5t-23.5 71t-67.5 29zM386.5 1166q-73.5 68 -73.5 174q0 105 74.5 174t177.5 69q104 0 176 -70.5t72 -172.5q0 -103 -72 -172.5t-177 -69.5q-104 0 -177.5 68z" />
    <glyph glyph-name="ogonek" unicode="&#x2db;" horiz-adv-x="747" 
d="M156 -233q0 109 125 245h141v-6q-82 -113 -82 -194q0 -91 109 -91q59 0 124 25l48 -141q-101 -56 -216 -56q-116 0 -182.5 54.5t-66.5 163.5z" />
    <glyph glyph-name="tilde" unicode="&#x2dc;" horiz-adv-x="1093" 
d="M397 1231q-33 0 -63.5 -19.5t-71.5 -81.5l-137 64q89 264 278 264q58 0 139 -36t120.5 -52t72.5 -16t59.5 19.5t65.5 70.5l131 -62q-51 -147 -123.5 -201.5t-135.5 -54.5t-142.5 36t-119.5 52.5t-73 16.5z" />
    <glyph glyph-name="hungarumlaut" unicode="&#x2dd;" horiz-adv-x="1282" 
d="M936 1092l-176 57l160 401l294 -55zM549 1102l-178 59l159 400l299 -56z" />
    <glyph glyph-name="tonos" unicode="&#x384;" horiz-adv-x="1050" 
d="M573 1102l-178 59l164 410l297 -58z" />
    <glyph glyph-name="dieresistonos" unicode="&#x385;" horiz-adv-x="1134" 
d="M569 1102l-180 47l141 407l299 -40zM218 1124q-64 0 -111.5 47t-47.5 111t47.5 109t111.5 45t110.5 -45t46.5 -109t-46.5 -111t-110.5 -47zM926 1124q-64 0 -110 47t-46 111t46 109t110 45t109.5 -45t45.5 -109t-45.5 -111t-109.5 -47z" />
    <glyph glyph-name="Alphatonos" unicode="&#x386;" horiz-adv-x="1406" 
d="M700 1012q-4 -10 -15 -47t-33 -103t-29 -96l-84 -250h325l-88 270q-4 8 -13 41t-30 95t-26 90h-7zM946 264h-489l-86 -264h-351l492 1333h391l492 -1333h-361zM90 961l-178 59l164 410l297 -58z" />
    <glyph glyph-name="anoteleia" unicode="&#x387;" horiz-adv-x="587" 
d="M295 528q-74 0 -125 52t-51 114q0 99 55 147t129 48t121 -53.5t47 -127.5t-51 -127t-125 -53z" />
    <glyph glyph-name="Epsilontonos" unicode="&#x388;" horiz-adv-x="1169" 
d="M-215 958l-178 60l164 409l297 -57zM113 1333h995v-282h-657v-220h456v-284h-456v-262h679v-285h-1017v1333z" />
    <glyph glyph-name="Etatonos" unicode="&#x389;" horiz-adv-x="1378" 
d="M-209 958l-178 60l164 409l297 -57zM926 539h-475v-539h-338v1333h338v-508h475v508h338v-1333h-338v539z" />
    <glyph glyph-name="Iotatonos" unicode="&#x38a;" horiz-adv-x="612" 
d="M-190 956l-179 60l164 409l297 -57zM135 1333h340v-1333h-340v1333z" />
    <glyph glyph-name="Omicrontonos" unicode="&#x38c;" horiz-adv-x="1390" 
d="M-94 961l-178 59l163 410l297 -58zM663 1059q-97 0 -163 -108.5t-66 -280.5q0 -279 98.5 -338.5t194 -59.5t161.5 111.5t66 284.5q0 272 -97 331.5t-194 59.5zM86 665q0 315 156.5 503t450.5 188t453 -188t159 -506q0 -319 -161.5 -503t-452.5 -184q-294 0 -449.5 187.5
t-155.5 502.5z" />
    <glyph glyph-name="Upsilontonos" unicode="&#x38e;" horiz-adv-x="1355" 
d="M-293 961l-178 59l164 410l297 -58zM846 0h-336v446l-504 887h367l307 -626l158 325q12 22 54 109.5t63.5 129.5t31.5 62h363l-504 -882v-451z" />
    <glyph glyph-name="Omegatonos" unicode="&#x38f;" horiz-adv-x="1441" 
d="M-74 961l-178 59l164 410l297 -58zM991 668q0 275 -100 333t-167 58q-127 0 -198 -102.5t-71 -263.5t42 -263t146 -141v-289h-551v279h172q-112 89 -131.5 216.5t-19.5 186.5q0 308 162 491t446 183t450 -177t166 -477q0 -183 -59 -284t-102 -137h170v-281h-545v287
q190 69 190 381z" />
    <glyph glyph-name="iotadieresistonos" unicode="&#x390;" horiz-adv-x="694" 
d="M182 1001h324v-1001h-324v1001zM350 1102l-180 47l141 407l299 -40zM0 1124q-64 0 -112 47t-48 111t47 109t112 45t111 -45t46 -109t-46 -111t-110 -47zM706 1124q-64 0 -109.5 47t-45.5 111t45.5 109t109.5 45t110 -45t46 -109t-46 -111t-110 -47z" />
    <glyph glyph-name="Alpha" unicode="&#x391;" horiz-adv-x="1406" 
d="M700 1012q-4 -10 -15 -47t-33 -103t-29 -96l-84 -250h325l-88 270q-4 8 -13 41t-30 95t-26 90h-7zM946 264h-489l-86 -264h-351l492 1333h391l492 -1333h-361z" />
    <glyph glyph-name="Beta" unicode="&#x392;" horiz-adv-x="1296" 
d="M690 283q174 0 174 147q0 76 -53 107.5t-123 31.5h-235v-286h237zM680 838q139 0 139 106t-131 107h-235v-213h227zM1214 412q0 -195 -123.5 -303.5t-355.5 -108.5h-620v1333h626q195 0 308.5 -85t113.5 -251q0 -96 -55 -167.5t-129 -100.5v-6q97 -30 166 -115.5
t69 -195.5z" />
    <glyph glyph-name="Gamma" unicode="&#x393;" horiz-adv-x="1124" 
d="M113 1333h989v-284h-651v-1049h-338v1333z" />
    <glyph glyph-name="Delta" unicode="&#x394;" horiz-adv-x="1400" 
d="M690 1004l-84 -267q-12 -33 -32.5 -96t-44 -132t-44 -132.5t-32.5 -95.5h477q-31 86 -85 257t-65 203l-84 263h-6zM12 0q20 55 59.5 159.5t87.5 234.5t99 272.5t99.5 272.5t87 234.5t59.5 159.5h391q20 -55 59 -159.5t86 -234.5t99.5 -272.5t126 -345.5t120.5 -321h-1374
z" />
    <glyph glyph-name="Delta" unicode="&#x2206;" horiz-adv-x="1400" 
d="M690 1004l-84 -267q-12 -33 -32.5 -96t-44 -132t-44 -132.5t-32.5 -95.5h477q-31 86 -85 257t-65 203l-84 263h-6zM12 0q20 55 59.5 159.5t87.5 234.5t99 272.5t99.5 272.5t87 234.5t59.5 159.5h391q20 -55 59 -159.5t86 -234.5t99.5 -272.5t126 -345.5t120.5 -321h-1374
z" />
    <glyph glyph-name="Epsilon" unicode="&#x395;" horiz-adv-x="1169" 
d="M113 1333h995v-282h-657v-220h456v-284h-456v-262h679v-285h-1017v1333z" />
    <glyph glyph-name="Zeta" unicode="&#x396;" horiz-adv-x="1210" 
d="M109 1051v282h1032v-260l-674 -788h680v-285h-1077v256l669 795h-630z" />
    <glyph glyph-name="Eta" unicode="&#x397;" horiz-adv-x="1378" 
d="M926 539h-475v-539h-338v1333h338v-508h475v508h338v-1333h-338v539z" />
    <glyph glyph-name="Theta" unicode="&#x398;" horiz-adv-x="1404" 
d="M699 1059q-128 0 -196.5 -109.5t-68.5 -283.5t70.5 -284t197.5 -110q126 0 196.5 112t70.5 284q0 272 -101.5 331.5t-168.5 59.5zM86 663q0 314 161 503.5t455 189.5t455.5 -188.5t161.5 -505.5t-164 -502t-458 -185q-292 0 -451.5 187t-159.5 501zM506 782h389v-229
h-389v229z" />
    <glyph glyph-name="Iota" unicode="&#x399;" horiz-adv-x="612" 
d="M135 1333h340v-1333h-340v1333z" />
    <glyph glyph-name="Kappa" unicode="&#x39a;" horiz-adv-x="1314" 
d="M446 0h-333v1333h333v-540h7l112 145l314 395h381l-398 -481l451 -852h-377l-297 582l-193 -232v-350z" />
    <glyph glyph-name="Lambda" unicode="&#x39b;" horiz-adv-x="1372" 
d="M791 637l-105 354h-8l-107 -364l-204 -627h-353l475 1333h394l473 -1333h-361z" />
    <glyph glyph-name="Mu" unicode="&#x39c;" horiz-adv-x="1591" 
d="M1143 676h-6l-344 -678l-193 377l-149 301h-9v-676h-327v1333h329l174 -344q10 -20 35 -69.5t70.5 -144.5t67.5 -132h10q10 20 32.5 68.5t49 101.5t50 101.5t34.5 66.5l176 352h332v-1333h-332v676z" />
    <glyph glyph-name="Nu" unicode="&#x39d;" horiz-adv-x="1384" 
d="M440 793v-793h-331v1333h311l291 -422q14 -20 45.5 -68t67.5 -102.5t68 -103.5t46 -70h6v766h334v-1333h-295l-330 477l-207 316h-6z" />
    <glyph glyph-name="Xi" unicode="&#x39e;" horiz-adv-x="1181" 
d="M1106 1051h-352v-222h213v-278h-213v-268h374v-283h-1071v283h357v268h-209v278h209v222h-336v282h1028v-282z" />
    <glyph glyph-name="Omicron" unicode="&#x39f;" horiz-adv-x="1390" 
d="M663 1059q-97 0 -163 -108.5t-66 -280.5q0 -279 98.5 -338.5t194 -59.5t161.5 111.5t66 284.5q0 272 -97 331.5t-194 59.5zM86 665q0 315 156.5 503t450.5 188t453 -188t159 -506q0 -319 -161.5 -503t-452.5 -184q-294 0 -449.5 187.5t-155.5 502.5z" />
    <glyph glyph-name="Pi" unicode="&#x3a0;" horiz-adv-x="1378" 
d="M928 1049h-477v-1049h-338v1333h1151v-1333h-336v1049z" />
    <glyph glyph-name="Rho" unicode="&#x3a1;" horiz-adv-x="1208" 
d="M446 1051v-320h218q76 0 127 35t51 125t-56.5 125t-130.5 35h-209zM1056 568.5q-134 -117.5 -356 -117.5h-251v-451h-336v1333h602q214 0 344.5 -112t130.5 -323.5t-134 -329z" />
    <glyph glyph-name="Sigma" unicode="&#x3a3;" horiz-adv-x="1210" 
d="M1149 285v-285h-1079v256l362 432l-338 385v260h1041v-282h-639l315 -363l-342 -403h680z" />
    <glyph glyph-name="Tau" unicode="&#x3a4;" horiz-adv-x="1138" 
d="M741 0h-338v1051h-380v282h1099v-282h-381v-1051z" />
    <glyph glyph-name="Upsilon" unicode="&#x3a5;" horiz-adv-x="1355" 
d="M846 0h-336v446l-504 887h367l307 -626l158 325q12 22 54 109.5t63.5 129.5t31.5 62h363l-504 -882v-451z" />
    <glyph glyph-name="Phi" unicode="&#x3a6;" horiz-adv-x="1613" 
d="M410 668q0 -106 51 -190.5t174 -112.5v620q-123 -37 -174 -124t-51 -193zM1147 880.5q-57 83.5 -176 108.5v-631q117 21 175 110t58 209t-57 203.5zM1382.5 283.5q-153.5 -155.5 -411.5 -181.5v-102h-336v104q-245 28 -400 183t-155 388t156.5 392.5t398.5 187.5v80h336
v-80q260 -29 412.5 -184.5t152.5 -393.5t-153.5 -393.5z" />
    <glyph glyph-name="Chi" unicode="&#x3a7;" horiz-adv-x="1269" 
d="M631 453l-244 -453h-369l435 682l-410 651h371l221 -415l223 415h367l-412 -647l432 -686h-371z" />
    <glyph glyph-name="Psi" unicode="&#x3a8;" horiz-adv-x="1642" 
d="M98 903v430h326v-444q0 -141 60.5 -221t164.5 -101v766h334v-766q106 12 171 91t65 227v448h325v-430q0 -275 -151 -439t-410 -185v-279h-332v279q-257 16 -405 181.5t-148 442.5z" />
    <glyph glyph-name="Omega" unicode="&#x3a9;" horiz-adv-x="1441" 
d="M991 668q0 275 -100 333t-167 58q-127 0 -198 -102.5t-71 -263.5t42 -263t146 -141v-289h-551v279h172q-112 89 -131.5 216.5t-19.5 186.5q0 308 162 491t446 183t450 -177t166 -477q0 -183 -59 -284t-102 -137h170v-281h-545v287q190 69 190 381z" />
    <glyph glyph-name="Iotadieresis" unicode="&#x3aa;" horiz-adv-x="612" 
d="M82 1417q-64 0 -111 46t-47 111t47 110t111 45t111 -45.5t47 -109.5t-47 -110.5t-111 -46.5zM559 1417q-81 0 -127.5 46.5t-46.5 110.5t46.5 109.5t110.5 45.5t109 -45.5t45 -109.5t-45 -110.5t-92 -46.5zM135 1333h340v-1333h-340v1333z" />
    <glyph glyph-name="Upsilondieresis" unicode="&#x3ab;" horiz-adv-x="1355" 
d="M929 1415q-81 0 -127 46t-46 111t47 109.5t110 44.5t108.5 -45t45.5 -109t-45.5 -110.5t-92.5 -46.5zM454 1415q-64 0 -111.5 46t-47.5 111t47.5 109.5t111.5 44.5t110 -45t46 -109t-46 -110.5t-110 -46.5zM846 0h-336v446l-504 887h367l307 -626l158 325q12 22 54 109.5
t63.5 129.5t31.5 62h363l-504 -882v-451z" />
    <glyph glyph-name="alphatonos" unicode="&#x3ac;" horiz-adv-x="1163" 
d="M586 754q-78 0 -122 -69t-44 -198q0 -241 160 -241q86 0 159 80v344q-75 84 -153 84zM86 486q0 255 111.5 394.5t285.5 139.5q70 0 139.5 -28.5t116.5 -78.5l6 2v86h318v-1001h-277l-32 88h-6q-119 -106 -275 -106q-262 0 -324.5 185t-62.5 319zM645 1102l-178 59
l164 410l297 -58z" />
    <glyph glyph-name="epsilontonos" unicode="&#x3ad;" horiz-adv-x="991" 
d="M563 1102l-178 59l164 410l297 -58zM86 276q0 63 39 128t121 100q-82 29 -118 88t-36 126t36 126t126 118.5t266 59.5q260 0 404 -148l-164 -194q-93 96 -199 96q-107 0 -127 -41t-20 -51q0 -78 94 -78h127v-200h-125q-43 0 -75 -24t-32 -49q0 -49 35.5 -81.5
t112.5 -32.5q113 0 237 119l175 -193q-161 -168 -449 -168q-177 0 -302.5 76t-125.5 223z" />
    <glyph glyph-name="etatonos" unicode="&#x3ae;" horiz-adv-x="1146" 
d="M561 1102l-178 59l164 410l297 -58zM700 1020q357 0 357 -406v-614h-324v553q0 190 -143 190q-122 0 -156 -118q-12 -54 -12 -93v-532h-322v999h322v-104h8q51 59 128 92t142 33z" />
    <glyph glyph-name="iotatonos" unicode="&#x3af;" horiz-adv-x="593" 
d="M135 1001h324v-1001h-324v1001zM375 1102l-178 59l163 410l297 -58z" />
    <glyph glyph-name="upsilondieresistonos" unicode="&#x3b0;" horiz-adv-x="1165" 
d="M586 1102l-180 47l141 407l299 -40zM234 1124q-64 0 -111 47t-47 111t47 109t111 45t110.5 -45t46.5 -109t-46.5 -111t-110.5 -47zM942 1124q-64 0 -110 47t-46 111t46.5 109t109.5 45t109.5 -45t46.5 -109t-46 -111t-110 -47zM587 -25q-228 0 -359.5 120t-131.5 349v557
h326v-555q0 -213 160 -213q88 0 127 53.5t39 159.5v555l323 -2v-555q0 -227 -128 -348t-356 -121z" />
    <glyph glyph-name="alpha" unicode="&#x3b1;" horiz-adv-x="1163" 
d="M586 754q-78 0 -122 -69t-44 -198q0 -241 160 -241q86 0 159 80v344q-75 84 -153 84zM86 486q0 255 111.5 394.5t285.5 139.5q70 0 139.5 -28.5t116.5 -78.5l6 2v86h318v-1001h-277l-32 88h-6q-119 -106 -275 -106q-262 0 -324.5 185t-62.5 319z" />
    <glyph glyph-name="beta" unicode="&#x3b2;" horiz-adv-x="1155" 
d="M424 317q58 -73 172 -73q62 0 108 58t46 158t-57.5 159t-143.5 59h-49v201q92 6 138 55.5t46 111.5t-34 104t-102 42t-96 -62.5t-28 -148.5v-664zM424 66v-371q-80 -29 -161 -57.5t-161 -59.5v1417q0 211 125.5 333t321.5 122q197 0 313.5 -111t116.5 -264
q0 -71 -38.5 -150.5t-109.5 -119.5l3 -2q111 -41 177 -143t66 -210q0 -206 -107.5 -337t-291.5 -131q-146 0 -246 84h-8z" />
    <glyph glyph-name="gamma" unicode="&#x3b3;" horiz-adv-x="1087" 
d="M702 49v-368l-323 -117v504l-365 931h332q15 -52 65 -203q49 -151 65 -201t29 -96t23.5 -85t18.5 -66h4q25 86 50.5 176t51.5 176l95 299h323z" />
    <glyph glyph-name="delta" unicode="&#x3b4;" horiz-adv-x="1163" 
d="M408 457q0 -106 45 -165t127 -59t127 66.5t45 158.5q0 91 -37 160.5t-133 126.5q-117 -57 -145.5 -148t-28.5 -140zM338 885q-158 106 -158 243q0 147 111.5 235.5t310.5 88.5t383 -94l-98 -230q-152 82 -264 82q-47 0 -74 -22t-27 -54t45 -59.5t114 -65.5
q189 -104 293.5 -220t104.5 -327q0 -212 -134.5 -348.5t-364 -136.5t-364 130.5t-134.5 345.5q0 117 65.5 241t190.5 189v2z" />
    <glyph glyph-name="epsilon" unicode="&#x3b5;" horiz-adv-x="991" 
d="M86 276q0 63 39 128t121 100q-82 29 -118 88t-36 126t36 126t126 118.5t266 59.5q260 0 404 -148l-164 -194q-93 96 -199 96q-107 0 -127 -41t-20 -51q0 -78 94 -78h127v-200h-125q-43 0 -75 -24t-32 -49q0 -49 35.5 -81.5t112.5 -32.5q113 0 237 119l175 -193
q-161 -168 -449 -168q-177 0 -302.5 76t-125.5 223z" />
    <glyph glyph-name="zeta" unicode="&#x3b6;" horiz-adv-x="927" 
d="M612 -94q0 12 -16 19t-68 24q-209 51 -330.5 158.5t-121.5 294.5t138.5 399.5t348.5 365.5q-20 2 -25 2h-382v240h813v-242q-256 -176 -411 -366.5t-155 -351.5q0 -76 47 -129t159 -91q212 -73 273.5 -121t61.5 -125t-78 -199.5t-168 -199.5q-121 90 -184 133
q98 144 98 189z" />
    <glyph glyph-name="eta" unicode="&#x3b7;" horiz-adv-x="1146" 
d="M700 1020q357 0 357 -406v-614h-324v553q0 190 -143 190q-122 0 -156 -118q-12 -54 -12 -93v-532h-322v999h322v-104h8q51 59 128 92t142 33z" />
    <glyph glyph-name="theta" unicode="&#x3b8;" horiz-adv-x="1202" 
d="M602 1192q-162 0 -174 -334h344q-8 334 -170 334zM426 618q0 -389 176 -389q90 0 131 98.5t41 290.5h-348zM594 -27q-250 0 -379 194.5t-129 547.5t138 544t376 191t377 -196.5t139 -544.5t-136 -542t-386 -194z" />
    <glyph glyph-name="iota" unicode="&#x3b9;" horiz-adv-x="593" 
d="M135 1001h324v-1001h-324v1001z" />
    <glyph glyph-name="kappa" unicode="&#x3ba;" horiz-adv-x="1140" 
d="M422 0h-322v997h322v-327h4l276 327h375q-56 -60 -299 -329q86 -166 172 -334t174 -334h-366l-205 426q-12 -14 -131 -154v-272z" />
    <glyph glyph-name="lambda" unicode="&#x3bb;" horiz-adv-x="1107" 
d="M248 1200h-18q-17 0 -42 -4l-10 248q92 29 170 29q141 0 205.5 -60.5t105.5 -187.5l299 -942q12 -39 28 -48.5t73 -9.5l6 -227q-66 -14 -139 -14q-136 0 -186 46t-81 163l-51 196l-45 191h-8q-14 -45 -29.5 -97.5t-26.5 -84.5t-18.5 -54t-22 -63t-38 -108t-62.5 -173
h-327l383 961l-39 143q-12 47 -35 71.5t-92 24.5z" />
    <glyph glyph-name="nu" unicode="&#x3bd;" horiz-adv-x="1130" 
d="M397 0l-381 999h332l221 -694h6l84 279l136 415h321l-377 -999h-342z" />
    <glyph glyph-name="xi" unicode="&#x3be;" horiz-adv-x="919" 
d="M578 1190q-74 0 -122 -42t-48 -98q0 -92 56.5 -135t127.5 -43h221v-225h-201q-102 0 -163.5 -63.5t-61.5 -170.5t87.5 -145t159.5 -62q167 -54 222 -100t55 -124t-66.5 -183.5t-174.5 -208.5l-185 131q99 145 99 183q0 21 -88 49q-88 27 -169 58.5t-171 105.5t-90 258
q0 185 83.5 266.5t143.5 110.5v8q-199 82 -199 299q0 177 129 285t318 108q290 0 417 -143q-110 -144 -155 -205q-94 86 -225 86z" />
    <glyph glyph-name="omicron" unicode="&#x3bf;" horiz-adv-x="1185" 
d="M416 500q0 -264 178 -264q86 0 130 71.5t44 189.5t-43 191.5t-134 73.5t-133 -75t-42 -187zM86 500q0 240 139 381t369 141t368 -142.5t138 -381.5t-140 -381t-371 -142t-367 142.5t-136 382.5z" />
    <glyph glyph-name="pi" unicode="&#x3c0;" horiz-adv-x="1163" 
d="M739 756h-317v-756h-322v1001h963v-1001h-324v756z" />
    <glyph glyph-name="rho" unicode="&#x3c1;" horiz-adv-x="1173" 
d="M706 301.5q48 57.5 48 211.5t-56.5 197.5t-107.5 43.5q-91 0 -129.5 -66.5t-38.5 -148.5v-215q76 -80 156 -80t128 57.5zM985.5 130.5q-101.5 -150.5 -311.5 -150.5q-156 0 -248 92h-4v-394q-164 -58 -324 -114v938q0 215 120.5 368.5t354.5 157.5q252 0 383 -145.5
t131 -373.5t-101.5 -378.5z" />
    <glyph glyph-name="sigma1" unicode="&#x3c2;" horiz-adv-x="968" 
d="M462 676q-50 -78 -50 -193t43.5 -162.5t143.5 -87.5q185 -76 232.5 -120.5t47.5 -120.5t-64.5 -179.5t-177.5 -211.5l-184 133q98 138 98 184q0 19 -45 35q-220 70 -321 179t-101 349q0 239 125 389t359 150t374 -150l-160 -202q-89 86 -180 86q-90 0 -140 -78z" />
    <glyph glyph-name="sigma" unicode="&#x3c3;" horiz-adv-x="1226" 
d="M588 743q-90 0 -132 -73.5t-42 -185.5t45 -181.5t131 -69.5t130 74t44 184q0 109 -43 180.5t-133 71.5zM1096 461q0 -90 -36 -185.5t-102.5 -162t-161 -102.5t-265.5 -36t-308 139t-137 376t136 373t370 136h588v-243h-168l-4 -8q88 -100 88 -287z" />
    <glyph glyph-name="tau" unicode="&#x3c4;" horiz-adv-x="890" 
d="M240 326v430h-201v243h780v-243h-258v-355q0 -78 22.5 -108.5t80.5 -30.5t137 8q0 -24 7 -96t10 -108.5t5 -49.5q-140 -39 -288 -39t-221.5 78t-73.5 271z" />
    <glyph glyph-name="upsilon" unicode="&#x3c5;" horiz-adv-x="1165" 
d="M587 -25q-228 0 -359.5 120t-131.5 349v557h326v-555q0 -213 160 -213q88 0 127 53.5t39 159.5v555l323 -2v-555q0 -227 -128 -348t-356 -121z" />
    <glyph glyph-name="phi" unicode="&#x3c6;" horiz-adv-x="1529" 
d="M1126 514q0 96 -49 172t-155 84v-549q204 26 204 293zM528 762q-131 -73 -131 -264t82 -230t121 -47v795h311q237 0 386 -134.5t149 -373.5t-140.5 -379t-383.5 -154v-297l-322 -116v413q-234 12 -375 154.5t-141 367.5t111 347t235 155z" />
    <glyph glyph-name="chi" unicode="&#x3c7;" horiz-adv-x="1052" 
d="M522 717l133 284h349l-295 -475q118 -190 321 -526h-352l-166 322l-160 -322h-340l320 518q-72 117 -146.5 242t-146.5 241h350q18 -32 66.5 -142t66.5 -142z" />
    <glyph glyph-name="psi" unicode="&#x3c8;" horiz-adv-x="1501" 
d="M1090 449v491l313 115v-594q0 -212 -135 -341t-357 -143v-301l-319 -116l-2 417q-216 12 -354 139.5t-138 344.5v540h316v-552q0 -102 52 -152.5t124 -60.5v870l321 117v-985q74 10 126.5 61t52.5 150z" />
    <glyph glyph-name="omega" unicode="&#x3c9;" horiz-adv-x="1613" 
d="M604 793q-188 -57 -188 -322q0 -118 42 -178t97 -60t87 41t32 109v244h268v-248q0 -70 33 -108t73 -38q150 0 150 265q0 148 -64.5 211t-121.5 82l88 233q199 -34 313.5 -187t114.5 -335q0 -241 -119 -381.5t-328 -140.5q-84 0 -156.5 39.5t-113.5 107.5h-6
q-43 -68 -113.5 -107.5t-156.5 -39.5q-211 0 -330 135t-119 389q0 186 115 336.5t315 185.5z" />
    <glyph glyph-name="iotadieresis" unicode="&#x3ca;" horiz-adv-x="593" 
d="M135 1001h324v-1001h-324v1001zM56 1124q-64 0 -111 47t-47 111t47 109t111 45t110.5 -45t46.5 -109t-46.5 -111t-110.5 -47zM532 1124q-81 0 -127.5 47t-46.5 111t47.5 109t110.5 45t108.5 -45t45.5 -109t-45.5 -111t-92.5 -47z" />
    <glyph glyph-name="upsilondieresis" unicode="&#x3cb;" horiz-adv-x="1165" 
d="M587 -25q-228 0 -359.5 120t-131.5 349v557h326v-555q0 -213 160 -213q88 0 127 53.5t39 159.5v555l323 -2v-555q0 -227 -128 -348t-356 -121zM340 1124q-64 0 -111 47t-47 111t47 109t111 45t111 -45t47 -109t-47 -111t-111 -47zM817 1124q-81 0 -127.5 47t-46.5 111
t46.5 109t110.5 45t109 -45t45 -109t-45 -111t-92 -47z" />
    <glyph glyph-name="omicrontonos" unicode="&#x3cc;" horiz-adv-x="1185" 
d="M416 500q0 -264 178 -264q86 0 130 71.5t44 189.5t-43 191.5t-134 73.5t-133 -75t-42 -187zM86 500q0 240 139 381t369 141t368 -142.5t138 -381.5t-140 -381t-371 -142t-367 142.5t-136 382.5zM625 1102l-179 59l164 410l297 -58z" />
    <glyph glyph-name="upsilontonos" unicode="&#x3cd;" horiz-adv-x="1165" 
d="M629 1102l-178 59l163 410l297 -58zM587 -25q-228 0 -359.5 120t-131.5 349v557h326v-555q0 -213 160 -213q88 0 127 53.5t39 159.5v555l323 -2v-555q0 -227 -128 -348t-356 -121z" />
    <glyph glyph-name="omegatonos" unicode="&#x3ce;" horiz-adv-x="1613" 
d="M842 1102l-178 59l163 410l297 -58zM604 793q-188 -57 -188 -322q0 -118 42 -178t97 -60t87 41t32 109v244h268v-248q0 -70 33 -108t73 -38q150 0 150 265q0 148 -64.5 211t-121.5 82l88 233q199 -34 313.5 -187t114.5 -335q0 -241 -119 -381.5t-328 -140.5
q-84 0 -156.5 39.5t-113.5 107.5h-6q-43 -68 -113.5 -107.5t-156.5 -39.5q-211 0 -330 135t-119 389q0 186 115 336.5t315 185.5z" />
    <glyph glyph-name="afii10023" unicode="&#x401;" horiz-adv-x="1169" 
d="M394 1409q-64 0 -111 46t-47 111t47 109.5t111 44.5t110.5 -45t46.5 -109t-46.5 -110.5t-110.5 -46.5zM870 1409q-81 0 -127.5 46.5t-46.5 110.5t47.5 109t110.5 45t108.5 -45t45.5 -109t-45.5 -110.5t-92.5 -46.5zM113 1333h995v-282h-657v-220h456v-284h-456v-262h679
v-285h-1017v1333z" />
    <glyph glyph-name="afii10051" unicode="&#x402;" horiz-adv-x="1583" 
d="M1044 887q232 0 352 -140.5t120 -363.5q0 -224 -128.5 -367t-367.5 -143l-51 2v229q108 15 153 93t45 186q0 154 -73.5 190.5t-124.5 36.5q-136 0 -256 -86v-524h-330v1051h-358v282h1171v-282h-483v-260q145 96 331 96z" />
    <glyph glyph-name="afii10052" unicode="&#x403;" horiz-adv-x="1124" 
d="M512 1389l-125 141l344 262l225 -201zM113 1333h989v-284h-651v-1049h-338v1333z" />
    <glyph glyph-name="afii10053" unicode="&#x404;" horiz-adv-x="1214" 
d="M1194 223q-187 -248 -487 -248t-460.5 187t-160.5 506q0 318 162.5 503t449.5 185q178 0 291 -64.5t185 -165.5l-244 -200q-57 76 -114.5 102.5t-119.5 26.5q-104 0 -168.5 -68.5t-81.5 -185.5h420v-248h-422q14 -125 79 -201t175 -76q144 0 250 144z" />
    <glyph glyph-name="afii10054" unicode="&#x405;" horiz-adv-x="1210" 
d="M256 410q170 -146 370 -146q86 0 132.5 33t46.5 86q0 71 -82.5 99t-170.5 52q-212 56 -326.5 145t-114.5 275t146.5 295t363.5 109q141 0 270 -45t225 -129l-182 -242q-158 129 -332 129q-80 0 -113.5 -32.5t-33.5 -67.5t16 -53.5t49 -35.5t130 -44q96 -27 180.5 -54.5
t204.5 -108.5t120 -282t-150 -310.5t-391 -109.5q-158 0 -304 53.5t-244 147.5z" />
    <glyph glyph-name="afii10055" unicode="&#x406;" horiz-adv-x="612" 
d="M135 1333h340v-1333h-340v1333z" />
    <glyph glyph-name="afii10056" unicode="&#x407;" horiz-adv-x="612" 
d="M80 1421q-64 0 -111 46t-47 111t47 110t111 45t111 -45.5t47 -109.5t-47 -110.5t-111 -46.5zM557 1421q-81 0 -127.5 46.5t-46.5 110.5t46.5 109.5t110.5 45.5t109 -45.5t45 -109.5t-45 -110.5t-92 -46.5zM135 1333h340v-1333h-340v1333z" />
    <glyph glyph-name="afii10057" unicode="&#x408;" horiz-adv-x="1228" 
d="M1106 539q0 -268 -134 -416t-405 -148q-336 0 -427 157t-120 255l316 100q41 -117 93 -168t136 -51q201 0 201 275v790h340v-794z" />
    <glyph glyph-name="afii10058" unicode="&#x409;" horiz-adv-x="1927" 
d="M1126 567v-284h236q72 0 123 30.5t51 108.5q0 145 -180 145h-230zM563 698q0 -141 -7 -271t-49 -231.5t-132 -162t-256 -60.5q-38 0 -82 4l-10 267q84 8 129 29.5t65.5 71.5t23.5 136t3 226v626h876v-493h265q216 0 347.5 -107.5t131.5 -315t-127 -312.5t-338 -105h-617
v1049h-223v-351z" />
    <glyph glyph-name="afii10059" unicode="&#x40a;" horiz-adv-x="1916" 
d="M1114 569v-286h238q70 0 122 29.5t52 111.5t-53.5 113.5t-126.5 31.5h-232zM776 565h-325v-565h-338v1335h338v-493h325v493h338v-493h262q218 0 350 -110t132 -316t-129.5 -311t-342.5 -105h-610v565z" />
    <glyph glyph-name="afii10060" unicode="&#x40b;" horiz-adv-x="1574" 
d="M1055 887q297 0 362.5 -161t65.5 -269v-457h-332v395q0 117 -50 165t-149 48q-49 0 -113.5 -20.5t-121.5 -67.5v-520h-332v1051h-346v282h1155v-282h-477v-254l2 -2q161 92 336 92z" />
    <glyph glyph-name="afii10061" unicode="&#x40c;" horiz-adv-x="1314" 
d="M573 1389l-124 141l344 262l225 -201zM449 0h-336v1333h336v-616l6 -2l440 618h401l-481 -647l477 -686h-420l-417 647l-6 -2v-645z" />
    <glyph glyph-name="afii10062" unicode="&#x40e;" horiz-adv-x="1273" 
d="M749.5 1640q36.5 45 36.5 97h224q0 -128 -88 -238t-274.5 -110t-275.5 109t-89 239h217q10 -59 48 -100.5t102 -41.5q63 0 99.5 45zM416 -31h-185v269h103q39 0 66.5 12t48.5 53l14 33q-73 166 -197.5 437.5t-251.5 559.5h367l121 -297l139 -362h10q37 92 70 185t65 183
l109 291h365l-443 -1044q-109 -251 -224.5 -285.5t-176.5 -34.5z" />
    <glyph glyph-name="afii10145" unicode="&#x40f;" horiz-adv-x="1376" 
d="M840 0v-383h-301v383h-428v1333h338v-1052h479v1052h336v-1333h-424z" />
    <glyph glyph-name="afii10017" unicode="&#x410;" horiz-adv-x="1406" 
d="M700 1012q-4 -10 -15 -47t-33 -103t-29 -96l-84 -250h325l-88 270q-4 8 -13 41t-30 95t-26 90h-7zM946 264h-489l-86 -264h-351l492 1333h391l492 -1333h-361z" />
    <glyph glyph-name="afii10018" unicode="&#x411;" horiz-adv-x="1271" 
d="M111 1335h950v-286h-612v-213h264q339 0 410 -156t71 -262q0 -201 -129 -309.5t-340 -108.5h-614v1335zM688 281q174 0 174 147q0 78 -53 109.5t-125 31.5h-235v-288h239z" />
    <glyph glyph-name="afii10019" unicode="&#x412;" horiz-adv-x="1296" 
d="M690 283q174 0 174 147q0 76 -53 107.5t-123 31.5h-235v-286h237zM680 838q139 0 139 106t-131 107h-235v-213h227zM1214 412q0 -195 -123.5 -303.5t-355.5 -108.5h-620v1333h626q195 0 308.5 -85t113.5 -251q0 -96 -55 -167.5t-129 -100.5v-6q97 -30 166 -115.5
t69 -195.5z" />
    <glyph glyph-name="afii10020" unicode="&#x413;" horiz-adv-x="1124" 
d="M113 1333h989v-284h-651v-1049h-338v1333z" />
    <glyph glyph-name="afii10021" unicode="&#x414;" horiz-adv-x="1517" 
d="M993 1051h-342l-8 -185q-12 -223 -33.5 -358.5t-87.5 -226.5h471v770zM1460 -350h-299v350h-825v-350h-295v622l117 2q156 112 176 541l20 516h973v-1052h133v-629z" />
    <glyph glyph-name="afii10022" unicode="&#x415;" horiz-adv-x="1169" 
d="M113 1333h995v-282h-657v-220h456v-284h-456v-262h679v-285h-1017v1333z" />
    <glyph glyph-name="afii10024" unicode="&#x416;" horiz-adv-x="1939" 
d="M801 1333h334v-616l6 -2l391 618h383l-426 -647l426 -686h-402l-372 647l-6 -2v-645h-334v645l-6 2l-373 -647h-399l423 686l-426 647h383l392 -618l6 2v616z" />
    <glyph glyph-name="afii10025" unicode="&#x417;" horiz-adv-x="1206" 
d="M588 1071q-191 0 -342 -113q-2 2 -25.5 36t-77 106t-53.5 76q102 90 239.5 134t340.5 44t324.5 -102.5t121.5 -256.5q0 -92 -56 -173t-149 -115v-11q111 -37 162 -118.5t51 -182.5q0 -200 -158 -307.5t-415 -107.5q-329 0 -531 204l195 211q84 -78 166.5 -105.5
t180.5 -27.5t158 49t60 117q0 141 -186 141h-193v242h183q80 0 130 35t50 89t-39 95t-137 41z" />
    <glyph glyph-name="afii10026" unicode="&#x418;" horiz-adv-x="1423" 
d="M1313 1333v-1333h-336v786h-8l-164 -256l-359 -530h-335v1333h335v-811h11l520 811h336z" />
    <glyph glyph-name="afii10027" unicode="&#x419;" horiz-adv-x="1427" 
d="M1313 1333v-1333h-336v786h-8l-164 -256l-359 -530h-335v1333h335v-811h11l520 811h336zM792.5 1669q36.5 45 36.5 96h224q0 -129 -88.5 -238.5t-273.5 -109.5t-275 108.5t-90 239.5h217q10 -59 48 -100t102 -41q63 0 99.5 45z" />
    <glyph glyph-name="afii10028" unicode="&#x41a;" horiz-adv-x="1314" 
d="M449 0h-336v1333h336v-616l6 -2l440 618h401l-481 -647l477 -686h-420l-417 647l-6 -2v-645z" />
    <glyph glyph-name="afii10029" unicode="&#x41b;" horiz-adv-x="1304" 
d="M854 0v1051h-295v-353q0 -141 -7 -271t-49 -231.5t-131 -162t-255 -60.5q-38 0 -82 4l-10 267q84 8 129 29.5t65.5 71.5t23.5 136t3 226v626h946v-1333h-338z" />
    <glyph glyph-name="afii10030" unicode="&#x41c;" horiz-adv-x="1591" 
d="M1143 676h-6l-344 -678l-193 377l-149 301h-9v-676h-327v1333h329l174 -344q10 -20 35 -69.5t70.5 -144.5t67.5 -132h10q10 20 32.5 68.5t49 101.5t50 101.5t34.5 66.5l176 352h332v-1333h-332v676z" />
    <glyph glyph-name="afii10031" unicode="&#x41d;" horiz-adv-x="1378" 
d="M926 539h-475v-539h-338v1333h338v-508h475v508h338v-1333h-338v539z" />
    <glyph glyph-name="afii10032" unicode="&#x41e;" horiz-adv-x="1390" 
d="M663 1059q-97 0 -163 -108.5t-66 -280.5q0 -279 98.5 -338.5t194 -59.5t161.5 111.5t66 284.5q0 272 -97 331.5t-194 59.5zM86 665q0 315 156.5 503t450.5 188t453 -188t159 -506q0 -319 -161.5 -503t-452.5 -184q-294 0 -449.5 187.5t-155.5 502.5z" />
    <glyph glyph-name="afii10033" unicode="&#x41f;" horiz-adv-x="1378" 
d="M928 1049h-477v-1049h-338v1333h1151v-1333h-336v1049z" />
    <glyph glyph-name="afii10034" unicode="&#x420;" horiz-adv-x="1208" 
d="M446 1051v-320h218q76 0 127 35t51 125t-56.5 125t-130.5 35h-209zM1056 568.5q-134 -117.5 -356 -117.5h-251v-451h-336v1333h602q214 0 344.5 -112t130.5 -323.5t-134 -329z" />
    <glyph glyph-name="afii10035" unicode="&#x421;" horiz-adv-x="1218" 
d="M1194 223q-187 -248 -487 -248t-460.5 187t-160.5 506q0 318 162.5 503t449.5 185q178 0 291 -64.5t185 -165.5l-244 -200q-57 76 -114.5 102.5t-121.5 26.5q-124 0 -192 -107t-68 -277t67.5 -282.5t204.5 -112.5q136 0 242 144z" />
    <glyph glyph-name="afii10036" unicode="&#x422;" horiz-adv-x="1138" 
d="M741 0h-338v1051h-380v282h1099v-282h-381v-1051z" />
    <glyph glyph-name="afii10037" unicode="&#x423;" horiz-adv-x="1273" 
d="M416 -31h-185v269h103q39 0 66.5 12t48.5 53l14 33q-73 166 -197.5 437.5t-251.5 559.5h367l121 -297l139 -362h10q37 92 70 185t65 183l109 291h365l-443 -1044q-109 -251 -224.5 -285.5t-176.5 -34.5z" />
    <glyph glyph-name="afii10038" unicode="&#x424;" horiz-adv-x="1613" 
d="M410 668q0 -106 51 -190.5t174 -112.5v620q-123 -37 -174 -124t-51 -193zM1147 880.5q-57 83.5 -176 108.5v-631q117 21 175 110t58 209t-57 203.5zM1382.5 283.5q-153.5 -155.5 -411.5 -181.5v-102h-336v104q-245 28 -400 183t-155 388t156.5 392.5t398.5 187.5v80h336
v-80q260 -29 412.5 -184.5t152.5 -393.5t-153.5 -393.5z" />
    <glyph glyph-name="afii10039" unicode="&#x425;" horiz-adv-x="1269" 
d="M631 453l-244 -453h-369l435 682l-410 651h371l221 -415l223 415h367l-412 -647l432 -686h-371z" />
    <glyph glyph-name="afii10040" unicode="&#x426;" horiz-adv-x="1429" 
d="M1393 -352h-299v352h-983v1333h335v-1052h478v1052h338v-1054h131v-631z" />
    <glyph glyph-name="afii10041" unicode="&#x427;" horiz-adv-x="1323" 
d="M68 852v481h333v-379q0 -135 62.5 -189t182.5 -54t228 69v553h336v-1333h-336v494q-181 -64 -308 -64q-238 0 -368 107.5t-130 314.5z" />
    <glyph glyph-name="afii10042" unicode="&#x428;" horiz-adv-x="1800" 
d="M111 0v1333h340v-1052h282v1052h338v-1052h279v1052h338v-1333h-1577z" />
    <glyph glyph-name="afii10043" unicode="&#x429;" horiz-adv-x="1861" 
d="M111 1333h340v-1052h282v1052h338v-1052h279v1052h340v-1052h131v-633h-301v352h-1409v1333z" />
    <glyph glyph-name="afii10044" unicode="&#x42a;" horiz-adv-x="1515" 
d="M709 567v-284h235q72 0 124 30.5t52 108.5q0 145 -180 145h-231zM16 1335h693v-497h262q218 0 348.5 -106.5t130.5 -313.5t-126 -312.5t-339 -105.5h-614v1049h-355v286z" />
    <glyph glyph-name="afii10045" unicode="&#x42b;" horiz-adv-x="1755" 
d="M1305 1333h337v-1333h-337v1333zM686 283q172 0 172 145q0 76 -54 107.5t-124 31.5h-231v-284h237zM111 1335h338v-497h264q219 0 349 -106.5t130 -314t-127 -312.5t-338 -105h-616v1335z" />
    <glyph glyph-name="afii10046" unicode="&#x42c;" horiz-adv-x="1261" 
d="M686 283q172 0 172 145q0 76 -54 107.5t-124 31.5h-231v-284h237zM111 1335h338v-497h264q219 0 349 -106.5t130 -314t-127 -312.5t-338 -105h-616v1335z" />
    <glyph glyph-name="afii10047" unicode="&#x42d;" horiz-adv-x="1236" 
d="M541 1055q-134 0 -234 -123l-227 203q92 109 204.5 165t268.5 56q296 0 447 -185t151 -503t-163 -505.5t-451 -187.5q-320 0 -496 246l242 199q106 -144 252 -144q109 0 176 76t80 201h-422v248h419q-14 115 -79.5 184.5t-167.5 69.5z" />
    <glyph glyph-name="afii10048" unicode="&#x42e;" horiz-adv-x="1835" 
d="M1401 668q0 395 -242 395q-123 0 -182 -106.5t-59 -287t59 -289t182 -108.5t182.5 108t59.5 288zM1590 167q-159 -192 -428 -192t-416 163.5t-175 422.5h-122v-561h-338v1333h338v-499h131q38 233 182.5 377.5t408.5 144.5t421 -189.5t157 -498.5t-159 -501z" />
    <glyph glyph-name="afii10049" unicode="&#x42f;" horiz-adv-x="1271" 
d="M422 860.5q0 -112.5 178 -112.5h223v305h-225q-72 0 -124 -40t-52 -152.5zM70 893q0 213 132 326.5t345 113.5h612v-1333h-338v469h-196l-201 -469h-352l241 512q-243 101 -243 381z" />
    <glyph glyph-name="afii10065" unicode="&#x430;" horiz-adv-x="1097" 
d="M538 428q-145 0 -145 -109q0 -51 36 -77.5t93 -26.5q92 0 156 64v108q-75 41 -140 41zM672 88q-108 -115 -298 -115q-48 0 -109.5 18.5t-131.5 82t-70 226.5q0 162 110.5 247.5t255.5 85.5t249 -39v47q0 129 -164 129q-131 0 -274 -57l-78 229q176 82 399 82
q434 0 434 -373v-651h-317v86z" />
    <glyph glyph-name="afii10066" unicode="&#x431;" horiz-adv-x="1200" 
d="M680 981q78 0 161 -31.5t178 -130.5t95 -333t-141.5 -371.5t-368.5 -137.5q-273 0 -396.5 173.5t-123.5 433.5q0 336 108 528.5t371 271.5q72 21 190 46t205 49l68 -236q-73 -29 -189 -52t-177 -43q-62 -20 -133.5 -77t-98.5 -145l4 -13q90 68 248 68zM610 731
q-80 0 -131 -64.5t-51 -183.5q0 -252 178 -252q86 0 130 69.5t44 185.5t-45 180.5t-125 64.5z" />
    <glyph glyph-name="afii10067" unicode="&#x432;" horiz-adv-x="1095" 
d="M594 238q102 0 102 88q0 49 -31.5 69.5t-70.5 20.5h-182v-178h182zM602 627q80 -1 80 67t-78 68h-192v-135h190zM987 742q0 -64 -33.5 -119.5t-91.5 -83.5q76 -33 116 -96t40 -129q0 -135 -94 -224.5t-267 -89.5h-559v1001h557q232 0 282 -97.5t50 -161.5z" />
    <glyph glyph-name="afii10068" unicode="&#x433;" horiz-adv-x="942" 
d="M420 756v-756h-322v1001h832v-245h-510z" />
    <glyph glyph-name="afii10069" unicode="&#x434;" horiz-adv-x="1243" 
d="M766 758h-211l-6 -127q-4 -98 -20.5 -197.5t-67.5 -191.5h305v516zM33 242h104q57 51 85 136t40 226l25 395h800v-757h105v-549h-281v307h-606v-307h-272v549z" />
    <glyph glyph-name="afii10070" unicode="&#x435;" horiz-adv-x="1112" 
d="M719 596q-9 178 -139 178q-72 0 -115 -45t-49 -133h303zM981 86q-182 -109 -410 -109t-356.5 138.5t-128.5 379.5t134.5 384t365.5 143t342.5 -140.5t111.5 -381.5v-84h-624q16 -182 207 -183q110 0 249 64z" />
    <glyph glyph-name="afii10072" unicode="&#x436;" horiz-adv-x="1624" 
d="M651 997h322v-442l284 442h336l-309 -460l313 -537h-348l-276 510v-510h-322v510l-276 -510h-346l311 537l-309 460h336l284 -442v442z" />
    <glyph glyph-name="afii10073" unicode="&#x437;" horiz-adv-x="993" 
d="M504 1018q198 0 295.5 -78.5t97.5 -194.5q0 -59 -33.5 -116.5t-107.5 -96.5q80 -53 116.5 -103t36.5 -127q0 -155 -124.5 -237.5t-319.5 -82.5q-123 0 -239.5 38.5t-192.5 110.5l153 195q72 -66 138 -83.5t130 -17.5t98 30t34 67q0 86 -129 86h-123v184h135q53 0 81 27.5
t28 64.5t-32 62.5t-87 25.5t-121 -24.5t-113 -67.5q-18 25 -139 197q174 141 418 141z" />
    <glyph glyph-name="afii10074" unicode="&#x438;" horiz-adv-x="1183" 
d="M96 0v1001h324v-524h10l332 524h321v-1001h-321v498h-12l-330 -498h-324z" />
    <glyph glyph-name="afii10075" unicode="&#x439;" horiz-adv-x="1183" 
d="M96 0v1001h324v-524h10l332 524h321v-1001h-321v498h-12l-330 -498h-324zM695 1359.5q36 44.5 36 96.5h223q0 -130 -88 -239t-273 -109t-275.5 109t-90.5 239h217q10 -59 48 -100t103 -41q64 0 100 44.5z" />
    <glyph glyph-name="afii10076" unicode="&#x43a;" horiz-adv-x="1099" 
d="M416 0h-318v997h318v-442l319 442h342q-344 -457 -346 -460l348 -537h-352l-311 510v-510z" />
    <glyph glyph-name="afii10077" unicode="&#x43b;" horiz-adv-x="1099" 
d="M487 639q0 -129 -6 -249t-42 -213t-111.5 -148.5t-216.5 -55.5q-45 0 -95 7l-10 243q66 6 103.5 21.5t61.5 67.5t24 288v401h806v-1001h-325v758h-189v-119z" />
    <glyph glyph-name="afii10078" unicode="&#x43c;" horiz-adv-x="1331" 
d="M1231 999v-999h-318v449h-6q-16 -31 -31.5 -62t-30.5 -59t-40 -72.5t-52.5 -93.5t-52 -94t-38.5 -70l-246 451h-4v-449h-316v999h314l252 -495h8l245 495h316z" />
    <glyph glyph-name="afii10079" unicode="&#x43d;" horiz-adv-x="1167" 
d="M741 0v395h-319v-395h-322v1001h322v-364h319v364h324v-1001h-324z" />
    <glyph glyph-name="afii10080" unicode="&#x43e;" horiz-adv-x="1185" 
d="M416 500q0 -264 178 -264q86 0 130 71.5t44 189.5t-43 191.5t-134 73.5t-133 -75t-42 -187zM86 500q0 240 139 381t369 141t368 -142.5t138 -381.5t-140 -381t-371 -142t-367 142.5t-136 382.5z" />
    <glyph glyph-name="afii10081" unicode="&#x43f;" horiz-adv-x="1163" 
d="M739 756h-317v-756h-322v1001h963v-1001h-324v756z" />
    <glyph glyph-name="afii10082" unicode="&#x440;" horiz-adv-x="1165" 
d="M743 502q-4 252 -153 252q-97 0 -166 -82v-348q71 -80 152 -80q82 0 124.5 58.5t42.5 199.5zM959 108.5q-118 -128.5 -274 -128.5t-255 86h-6v-385q-117 -41 -324 -119v1437h322v-86h6q53 49 124.5 78t145.5 29t144.5 -29.5t152.5 -128.5t82 -362t-118 -391.5z" />
    <glyph glyph-name="afii10083" unicode="&#x441;" horiz-adv-x="997" 
d="M86 495.5q0 241.5 127 384t365 142.5q92 0 186 -30.5t180 -123.5l-184 -206q-51 53 -89 71.5t-85 18.5q-86 0 -129 -67t-43 -181t43 -184t132 -70t187 100l185 -203q-155 -170 -388 -170t-360 138.5t-127 380z" />
    <glyph glyph-name="afii10084" unicode="&#x442;" horiz-adv-x="958" 
d="M643 756v-756h-326v756h-278v245h887v-245h-283z" />
    <glyph glyph-name="afii10085" unicode="&#x443;" horiz-adv-x="1118" 
d="M274 -399l129 356l-391 1042h332l123 -385l88 -305h8l92 305l125 385h322l-510 -1398h-318z" />
    <glyph glyph-name="afii10086" unicode="&#x444;" horiz-adv-x="1529" 
d="M1130 490q0 121 -51 198.5t-153 87.5v-557q88 10 146 80t58 191zM397 490q0 -120 58.5 -189.5t148.5 -79.5v555q-100 -10 -153.5 -88t-53.5 -198zM233 865q149 143 371 155v332l322 114v-446q224 -12 372 -154t148 -364t-143 -366t-375 -159v-301l-324 -116v413
q-235 12 -377.5 158t-142.5 369q0 222 149 365z" />
    <glyph glyph-name="afii10087" unicode="&#x445;" horiz-adv-x="1052" 
d="M522 717l133 284h349l-295 -475q118 -190 321 -526h-352l-166 322l-160 -322h-340l320 518q-72 117 -146.5 242t-146.5 241h350q18 -32 66.5 -142t66.5 -142z" />
    <glyph glyph-name="afii10088" unicode="&#x446;" horiz-adv-x="1214" 
d="M1171 -309h-280v309h-793v999h322v-757h321v757h326v-757h104v-551z" />
    <glyph glyph-name="afii10089" unicode="&#x447;" horiz-adv-x="1101" 
d="M682 -2v397h-8q-59 -53 -135 -74.5t-129 -21.5q-197 0 -276 99.5t-79 279.5v321h322v-286q0 -78 31.5 -113t109.5 -33t164 72v360h322v-1001h-322z" />
    <glyph glyph-name="afii10090" unicode="&#x448;" horiz-adv-x="1611" 
d="M98 0v999h318v-755h231v757h318v-757h231v755h317v-999h-1415z" />
    <glyph glyph-name="afii10091" unicode="&#x449;" horiz-adv-x="1656" 
d="M1196 244v755h315v-757h107v-551h-283v309h-1237v999h318v-755h231v757h318v-757h231z" />
    <glyph glyph-name="afii10092" unicode="&#x44a;" horiz-adv-x="1251" 
d="M858 331q0 50 -33.5 71.5t-70.5 21.5h-160v-186h160q41 0 72.5 21.5t31.5 71.5zM594 1001v-339h205q268 0 327.5 -127t59.5 -247.5t-102 -204t-271 -83.5h-541v756h-260v245h582z" />
    <glyph glyph-name="afii10093" unicode="&#x44b;" horiz-adv-x="1515" 
d="M684 330q0 51 -31.5 72.5t-72.5 21.5h-160v-188h162q41 0 71.5 21.5t30.5 72.5zM1012 323q0 -158 -101 -240.5t-272 -82.5h-539v1001h320v-342h205q269 0 328 -126.5t59 -209.5zM1094 0v1001h321v-1001h-321z" />
    <glyph glyph-name="afii10094" unicode="&#x44c;" horiz-adv-x="1085" 
d="M582 236q104 0 104 72.5t-32.5 94t-73.5 21.5h-158v-188h160zM1012 323q0 -158 -101 -240.5t-272 -82.5h-539v1001h322v-342h205q267 0 326 -126.5t59 -209.5z" />
    <glyph glyph-name="afii10095" unicode="&#x44d;" horiz-adv-x="983" 
d="M561 594q-20 158 -179 158q-81 0 -159 -78l-160 211q151 137 372 137t341.5 -139.5t120.5 -379.5t-127 -380.5t-354 -140.5q-226 0 -373 147l164 207q84 -84 182 -84q68 0 113 43t55 113h-274v186h278z" />
    <glyph glyph-name="afii10096" unicode="&#x44e;" horiz-adv-x="1544" 
d="M813 506q0 -275 164 -275t164 273q0 129 -44 195.5t-121 66.5t-120 -67.5t-43 -192.5zM1458 505q0 -114 -32.5 -210t-94 -166t-151.5 -109.5t-256 -39.5t-280 119t-140 307h-82v-406h-324v1001h324v-366h92q53 264 199.5 325.5t263.5 61.5t207 -39t151.5 -107.5
t92 -162.5t30.5 -208z" />
    <glyph glyph-name="afii10097" unicode="&#x44f;" horiz-adv-x="1112" 
d="M399 664q0 -95 115 -95h172v195h-176q-41 0 -76 -25.5t-35 -74.5zM82 662q0 159 104 248t271 89h555v-999h-322v344h-135l-160 -344h-321l194 381q-186 76 -186 281z" />
    <glyph glyph-name="afii10071" unicode="&#x451;" horiz-adv-x="1112" 
d="M340 1116q-64 0 -111 46t-47 111t47 109.5t111 44.5t111 -45t47 -109t-47 -110.5t-111 -46.5zM817 1116q-81 0 -127.5 47t-46.5 111t46.5 108.5t110.5 44.5t109 -45t45 -109t-45 -110.5t-92 -46.5zM719 596q-9 178 -139 178q-72 0 -115 -45t-49 -133h303zM981 86
q-182 -109 -410 -109t-356.5 138.5t-128.5 379.5t134.5 384t365.5 143t342.5 -140.5t111.5 -381.5v-84h-624q16 -182 207 -183q110 0 249 64z" />
    <glyph glyph-name="afii10099" unicode="&#x452;" horiz-adv-x="1222" 
d="M477 858q124 96 281 96t267 -132t110 -357q0 -361 -184.5 -461t-315.5 -123l-53 250q202 53 219.5 161.5t17.5 158.5q0 125 -52 184t-124 59t-122 -53.5t-50 -144.5v-496h-324v1059h-104v172h104v121l324 116v-237h377v-172h-377v-201h6z" />
    <glyph glyph-name="afii10100" unicode="&#x453;" horiz-adv-x="942" 
d="M420 756v-756h-322v1001h832v-245h-510zM487 1092l-178 57l164 410l297 -56z" />
    <glyph glyph-name="afii10101" unicode="&#x454;" horiz-adv-x="978" 
d="M568 -18q-227 0 -354.5 139t-127.5 377q0 367 182.5 445.5t287.5 78.5t195.5 -30.5t176.5 -114.5l-164 -209q-72 84 -172 84q-68 0 -115 -41t-57 -117h278v-188h-274q26 -154 184 -154q82 0 166 84l162 -205q-82 -86 -171 -117.5t-197 -31.5z" />
    <glyph glyph-name="afii10102" unicode="&#x455;" horiz-adv-x="1011" 
d="M537 776q-45 0 -72 -20t-27 -44q0 -48 106 -77q219 -61 305.5 -132t86.5 -216t-116.5 -228.5t-327.5 -83.5t-424 117l106 221q184 -94 308 -94t124 70q0 41 -33.5 60t-118.5 45q-193 58 -269 125t-76 199t106.5 218t304.5 86t395 -96l-100 -228q-146 78 -278 78z" />
    <glyph glyph-name="afii10103" unicode="&#x456;" horiz-adv-x="600" 
d="M169.5 1428q56.5 53 132.5 53q77 0 131 -53.5t54 -133.5t-54 -134t-131 -54t-133 53t-56 134.5t56.5 134.5zM139 1001h324v-1001h-324v1001z" />
    <glyph glyph-name="afii10104" unicode="&#x457;" horiz-adv-x="600" 
d="M141 1001h324v-1001h-324v1001zM80 1124q-64 0 -111 47t-47 111t47 109t111 45t111 -45t47 -109t-47 -111t-111 -47zM557 1124q-81 0 -127.5 47t-46.5 111t46.5 109t110.5 45t109 -45t45 -109t-45 -111t-92 -47z" />
    <glyph glyph-name="afii10105" unicode="&#x458;" horiz-adv-x="606" 
d="M178.5 1425.5q55.5 55.5 133.5 55.5t132 -54.5t54 -133.5t-54 -133t-132 -54t-133.5 55.5t-55.5 132t55.5 132zM473 -39q0 -219 -123 -319.5t-393 -100.5l-20 258q134 23 174.5 65.5t40.5 153.5v981h321v-1038z" />
    <glyph glyph-name="afii10106" unicode="&#x459;" horiz-adv-x="1601" 
d="M963 1001v-342h204q176 0 281.5 -87t105.5 -248t-100.5 -242.5t-271.5 -81.5h-539v758h-154v-119q0 -129 -7 -249t-43 -213t-112.5 -148.5t-217.5 -55.5q-45 0 -95 7l-10 243q66 6 103.5 21.5t61.5 67.5t24 288v401h770zM1227 329q0 50 -32 72.5t-73 22.5h-159v-188h161
q41 0 72 21.5t31 71.5z" />
    <glyph glyph-name="afii10107" unicode="&#x45a;" horiz-adv-x="1613" 
d="M1118 236q103 0 103 90t-103 90h-160v-180h160zM958 653h205q172 0 278.5 -82t106.5 -244t-101.5 -244.5t-270.5 -82.5h-541l-2 412h-213v-412h-320v999h320v-344h213v344l325 2v-348z" />
    <glyph glyph-name="afii10108" unicode="&#x45b;" horiz-adv-x="1163" 
d="M717 967q356 0 356 -408v-559h-323v500q0 190 -144 190q-96 0 -131 -69.5t-35 -206.5v-414h-323v1059h-97v172h97v121l323 116v-237h367v-172h-367v-203h6q57 53 131 82t140 29z" />
    <glyph glyph-name="afii10109" unicode="&#x45c;" horiz-adv-x="1132" 
d="M575 1092l-178 57l164 410l297 -56zM416 0h-318v997h318v-442l319 442h342q-344 -457 -346 -460l348 -537h-352l-311 510v-510z" />
    <glyph glyph-name="afii10110" unicode="&#x45e;" horiz-adv-x="1118" 
d="M672.5 1360.5q36.5 45.5 36.5 95.5h223q0 -129 -88.5 -238.5t-273 -109.5t-275 109t-90.5 239h217q10 -59 48 -100t102 -41t100.5 45.5zM274 -399l129 356l-391 1042h332l123 -385l88 -305h8l92 305l125 385h322l-510 -1398h-318z" />
    <glyph glyph-name="afii10193" unicode="&#x45f;" horiz-adv-x="1163" 
d="M727 0v-336h-283v336h-346v1001h324v-759h317v759h326v-1001h-338z" />
    <glyph glyph-name="afii10050" unicode="&#x490;" horiz-adv-x="1122" 
d="M1102 1051h-653v-1051h-338v1333h696v269h295v-551z" />
    <glyph glyph-name="afii10098" unicode="&#x491;" horiz-adv-x="976" 
d="M956 758h-540v-758h-320v1001h584v222h276v-465z" />
    <glyph glyph-name="schwacyrillic" unicode="&#x4d9;" horiz-adv-x="1103" 
d="M530 221q150 0 162 182h-303q13 -182 141 -182zM484 766q-100 0 -238 -61l-99 208q104 63 188.5 85t196.5 22q236 0 363 -139t127 -379t-133 -381t-364 -141t-343 140.5t-112 377.5v84h624q-10 98 -60 141t-150 43z" />
    <glyph glyph-name="Wgrave" unicode="&#x1e80;" horiz-adv-x="1804" 
d="M440 1591l226 201l344 -262l-125 -141zM1784 1333l-318 -1333h-352l-88 358q-22 103 -65 277t-54 242h-4q-75 -335 -100 -432t-54.5 -227t-54.5 -218h-350q-78 336 -159 666.5t-158 666.5h360l76 -407q8 -49 19.5 -108.5t22.5 -123t21.5 -126t20.5 -117.5h8
q23 123 48.5 241.5t51.5 241.5l86 399h328l88 -401q46 -208 71 -334.5t29 -146.5h7q20 123 41.5 238.5t44.5 242.5l75 401h359z" />
    <glyph glyph-name="wgrave" unicode="&#x1e81;" horiz-adv-x="1568" 
d="M446 1501l297 55l164 -407l-180 -57zM774 606l-55 -231l-96 -375h-334l-279 1001h330l80 -393l49 -266h6l158 659h303l96 -405l53 -260h7l53 274l82 391h327l-290 -1001h-336l-150 606h-4z" />
    <glyph glyph-name="Wacute" unicode="&#x1e82;" horiz-adv-x="1804" 
d="M858 1389l-125 141l344 262l226 -201zM1784 1333l-318 -1333h-352l-88 358q-22 103 -65 277t-54 242h-4q-75 -335 -100 -432t-54.5 -227t-54.5 -218h-350q-78 336 -159 666.5t-158 666.5h360l76 -407q8 -49 19.5 -108.5t22.5 -123t21.5 -126t20.5 -117.5h8
q23 123 48.5 241.5t51.5 241.5l86 399h328l88 -401q46 -208 71 -334.5t29 -146.5h7q20 123 41.5 238.5t44.5 242.5l75 401h359z" />
    <glyph glyph-name="wacute" unicode="&#x1e83;" horiz-adv-x="1568" 
d="M809 1092l-178 57l164 410l297 -56zM774 606l-55 -231l-96 -375h-334l-279 1001h330l80 -393l49 -266h6l158 659h303l96 -405l53 -260h7l53 274l82 391h327l-290 -1001h-336l-150 606h-4z" />
    <glyph glyph-name="Wdieresis" unicode="&#x1e84;" horiz-adv-x="1804" 
d="M1153 1432q-82 0 -128 46t-46 110t46.5 109.5t110.5 45.5t109 -45.5t45 -109.5t-45 -110t-92 -46zM676 1432q-64 0 -111 46t-47 110t47 109.5t111 45.5t111 -45.5t47 -109.5t-47 -110t-111 -46zM1784 1333l-318 -1333h-352l-88 358q-22 103 -65 277t-54 242h-4
q-75 -335 -100 -432t-54.5 -227t-54.5 -218h-350q-78 336 -159 666.5t-158 666.5h360l76 -407q8 -49 19.5 -108.5t22.5 -123t21.5 -126t20.5 -117.5h8q23 123 48.5 241.5t51.5 241.5l86 399h328l88 -401q46 -208 71 -334.5t29 -146.5h7q20 123 41.5 238.5t44.5 242.5l75 401
h359z" />
    <glyph glyph-name="wdieresis" unicode="&#x1e85;" horiz-adv-x="1568" 
d="M1022 1124q-82 0 -128 46t-46 111t47 110t111 45t108.5 -45t44.5 -109t-45 -111t-92 -47zM546 1124q-64 0 -111.5 47t-47.5 111t47.5 109t111.5 45t110 -45t46 -109t-46 -111t-110 -47zM774 606l-55 -231l-96 -375h-334l-279 1001h330l80 -393l49 -266h6l158 659h303
l96 -405l53 -260h7l53 274l82 391h327l-290 -1001h-336l-150 606h-4z" />
    <glyph glyph-name="Ygrave" unicode="&#x1ef2;" horiz-adv-x="1355" 
d="M289 1591l225 201l344 -262l-125 -141zM846 0h-336v446l-504 887h367l307 -626l158 325q12 22 54 109.5t63.5 129.5t31.5 62h363l-504 -882v-451z" />
    <glyph glyph-name="ygrave" unicode="&#x1ef3;" horiz-adv-x="1118" 
d="M233 1501l297 55l164 -407l-180 -57zM274 -399l129 356l-391 1042h332l123 -385l88 -305h8l92 305l125 385h322l-510 -1398h-318z" />
    <glyph glyph-name="uni1F00" unicode="&#x1f00;" horiz-adv-x="1163" 
d="M532 1307q0 39 -26.5 74.5t-110.5 50.5l99 219q135 -27 203.5 -97.5t68.5 -175.5q0 -49 -30.5 -126.5t-110.5 -153.5l-152 51q59 83 59 158zM586 754q-78 0 -122 -69t-44 -198q0 -241 160 -241q86 0 159 80v344q-75 84 -153 84zM86 486q0 255 111.5 394.5t285.5 139.5
q70 0 139.5 -28.5t116.5 -78.5l6 2v86h318v-1001h-277l-32 88h-6q-119 -106 -275 -106q-262 0 -324.5 185t-62.5 319z" />
    <glyph glyph-name="uni1F01" unicode="&#x1f01;" horiz-adv-x="1163" 
d="M643 1294q0 -52 59 -145l-149 -53q-80 74 -111.5 153.5t-31.5 128.5q0 104 72.5 178t217.5 91l74 -222q-86 -14 -108.5 -46.5t-22.5 -84.5zM586 754q-78 0 -122 -69t-44 -198q0 -241 160 -241q86 0 159 80v344q-75 84 -153 84zM86 486q0 255 111.5 394.5t285.5 139.5
q70 0 139.5 -28.5t116.5 -78.5l6 2v86h318v-1001h-277l-32 88h-6q-119 -106 -275 -106q-262 0 -324.5 185t-62.5 319z" />
    <glyph glyph-name="uni1F02" unicode="&#x1f02;" horiz-adv-x="1163" 
d="M551 1579l303 57l166 -465l-180 -53zM328 1295q0 53 -27 88.5t-113 50.5l99 219q135 -27 204.5 -98.5t69.5 -176.5q0 -47 -31.5 -125.5t-109.5 -152.5l-152 51q60 91 60 144zM586 754q-78 0 -122 -69t-44 -198q0 -241 160 -241q86 0 159 80v344q-75 84 -153 84zM86 486
q0 255 111.5 394.5t285.5 139.5q70 0 139.5 -28.5t116.5 -78.5l6 2v86h318v-1001h-277l-32 88h-6q-119 -106 -275 -106q-262 0 -324.5 185t-62.5 319z" />
    <glyph glyph-name="uni1F03" unicode="&#x1f03;" horiz-adv-x="1163" 
d="M532 1589l306 58l166 -463l-179 -54zM408 1313q0 -75 59 -158l-152 -53q-80 74 -110.5 153.5t-30.5 128.5q0 104 72.5 178t216.5 91l74 -221q-84 -14 -106.5 -47t-22.5 -72zM586 754q-78 0 -122 -69t-44 -198q0 -241 160 -241q86 0 159 80v344q-75 84 -153 84zM86 486
q0 255 111.5 394.5t285.5 139.5q70 0 139.5 -28.5t116.5 -78.5l6 2v86h318v-1001h-277l-32 88h-6q-119 -106 -275 -106q-262 0 -324.5 185t-62.5 319z" />
    <glyph glyph-name="uni1F04" unicode="&#x1f04;" horiz-adv-x="1163" 
d="M813 1102l-180 53l168 463l301 -57zM330 1153q59 83 59 145q0 61 -31 94.5t-106 43.5l96 221q135 -29 205 -99.5t70 -175.5q0 -49 -31 -127.5t-111 -152.5zM586 754q-78 0 -122 -69t-44 -198q0 -241 160 -241q86 0 159 80v344q-75 84 -153 84zM86 486q0 255 111.5 394.5
t285.5 139.5q70 0 139.5 -28.5t116.5 -78.5l6 2v86h318v-1001h-277l-32 88h-6q-119 -106 -275 -106q-262 0 -324.5 185t-62.5 319z" />
    <glyph glyph-name="uni1F05" unicode="&#x1f05;" horiz-adv-x="1163" 
d="M782 1100l-180 53l166 463l305 -57zM477 1307q0 -73 60 -158l-150 -53q-80 74 -110.5 153.5t-30.5 128.5q0 104 72.5 179t216.5 92l71 -222q-111 -15 -120 -57.5t-9 -62.5zM586 754q-78 0 -122 -69t-44 -198q0 -241 160 -241q86 0 159 80v344q-75 84 -153 84zM86 486
q0 255 111.5 394.5t285.5 139.5q70 0 139.5 -28.5t116.5 -78.5l6 2v86h318v-1001h-277l-32 88h-6q-119 -106 -275 -106q-262 0 -324.5 185t-62.5 319z" />
    <glyph glyph-name="uni1F06" unicode="&#x1f06;" horiz-adv-x="1163" 
d="M571 1237q0 31 -23.5 49.5t-96.5 36.5l53 158q133 -8 201.5 -61.5t68.5 -126.5t-61.5 -134t-184.5 -90l-41 86q84 38 84 82zM752 1491q-45 0 -121 31.5t-115 46t-69 14.5t-63.5 -14.5t-84.5 -77.5l-117 63q47 133 120 191.5t127 58.5q77 0 186 -47t147 -47
q37 0 66.5 16.5t74.5 67.5l115 -61q-84 -242 -266 -242zM586 754q-78 0 -122 -69t-44 -198q0 -241 160 -241q86 0 159 80v344q-75 84 -153 84zM86 486q0 255 111.5 394.5t285.5 139.5q70 0 139.5 -28.5t116.5 -78.5l6 2v86h318v-1001h-277l-32 88h-6q-119 -106 -275 -106
q-262 0 -324.5 185t-62.5 319z" />
    <glyph glyph-name="uni1F07" unicode="&#x1f07;" horiz-adv-x="1163" 
d="M623 1237q0 -43 82 -78l-35 -88q-133 23 -194.5 80t-57.5 132t70.5 131t199.5 63l49 -154q-70 -20 -92 -38.5t-22 -47.5zM737 1491q-44 0 -120 31.5t-115 46t-70 14.5t-63.5 -14.5t-83.5 -77.5l-117 63q47 133 119.5 191.5t126.5 58.5q77 0 186.5 -47t147.5 -47
q37 0 66.5 16.5t74.5 67.5l115 -61q-84 -242 -267 -242zM586 754q-78 0 -122 -69t-44 -198q0 -241 160 -241q86 0 159 80v344q-75 84 -153 84zM86 486q0 255 111.5 394.5t285.5 139.5q70 0 139.5 -28.5t116.5 -78.5l6 2v86h318v-1001h-277l-32 88h-6q-119 -106 -275 -106
q-262 0 -324.5 185t-62.5 319z" />
    <glyph glyph-name="uni1F08" unicode="&#x1f08;" horiz-adv-x="1406" 
d="M20 1087q0 39 -26.5 75t-110.5 50l99 220q135 -27 203.5 -97.5t68.5 -175.5q0 -49 -30.5 -127t-110.5 -153l-152 51q59 83 59 157zM700 1012q-4 -10 -15 -47t-33 -103t-29 -96l-84 -250h325l-88 270q-4 8 -13 41t-30 95t-26 90h-7zM946 264h-489l-86 -264h-351l492 1333
h391l492 -1333h-361z" />
    <glyph glyph-name="uni1F09" unicode="&#x1f09;" horiz-adv-x="1406" 
d="M139 1090q0 -53 60 -144l-150 -53q-80 74 -111.5 153.5t-31.5 129.5q0 104 72.5 177.5t218.5 90.5l73 -221q-86 -14 -108.5 -47t-22.5 -86zM700 1012q-4 -10 -15 -47t-33 -103t-29 -96l-84 -250h325l-88 270q-4 8 -13 41t-30 95t-26 90h-7zM946 264h-489l-86 -264h-351
l492 1333h391l492 -1333h-361z" />
    <glyph glyph-name="uni1F0A" unicode="&#x1f0a;" horiz-adv-x="1406" 
d="M-156 1393l303 57l166 -465l-180 -53zM-379 1108q0 53 -26.5 89t-112.5 50l98 219q135 -27 205 -98.5t70 -175.5q0 -47 -32 -126t-110 -153l-151 52q59 90 59 143zM700 1012q-4 -10 -15 -47t-33 -103t-29 -96l-84 -250h325l-88 270q-4 8 -13 41t-30 95t-26 90h-7z
M946 264h-489l-86 -264h-351l492 1333h391l492 -1333h-361z" />
    <glyph glyph-name="uni1F0B" unicode="&#x1f0b;" horiz-adv-x="1406" 
d="M-158 1389l305 57l166 -463l-178 -53zM-283 1112q0 -73 60 -158l-152 -53q-80 74 -110.5 154t-30.5 129q0 104 72.5 178t216.5 90l73 -221q-84 -14 -106.5 -47t-22.5 -72zM700 1012q-4 -10 -15 -47t-33 -103t-29 -96l-84 -250h325l-88 270q-4 8 -13 41t-30 95t-26 90h-7z
M946 264h-489l-86 -264h-351l492 1333h391l492 -1333h-361z" />
    <glyph glyph-name="uni1F0C" unicode="&#x1f0c;" horiz-adv-x="1406" 
d="M100 899l-180 53l168 463l301 -57zM-383 950q59 83 59 145q0 61 -31 94.5t-106 43.5l96 221q135 -29 205 -99.5t70 -174.5q0 -49 -31 -128t-110 -153zM700 1012q-4 -10 -15 -47t-33 -103t-29 -96l-84 -250h325l-88 270q-4 8 -13 41t-30 95t-26 90h-7zM946 264h-489
l-86 -264h-351l492 1333h391l492 -1333h-361z" />
    <glyph glyph-name="uni1F0D" unicode="&#x1f0d;" horiz-adv-x="1406" 
d="M94 915l-180 54l166 463l305 -58zM-211 1122q0 -71 59 -157l-149 -54q-80 74 -110.5 154t-30.5 129q0 104 72.5 179t215.5 91l72 -221q-111 -15 -120 -57.5t-9 -63.5zM700 1012q-4 -10 -15 -47t-33 -103t-29 -96l-84 -250h325l-88 270q-4 8 -13 41t-30 95t-26 90h-7z
M946 264h-489l-86 -264h-351l492 1333h391l492 -1333h-361z" />
    <glyph glyph-name="uni1F0E" unicode="&#x1f0e;" horiz-adv-x="1406" 
d="M-27 928q0 31 -23.5 49t-96.5 37l53 157q133 -8 201.5 -61t68.5 -126t-61.5 -134.5t-184.5 -89.5l-41 86q84 38 84 82zM154 1182q-49 0 -123 31.5t-113 46t-69 14.5t-63.5 -14.5t-84.5 -77.5l-117 63q47 133 120 191.5t127 58.5q73 0 185 -47t149 -47q36 0 65.5 16.5
t74.5 67.5l115 -62q-84 -241 -266 -241zM700 1012q-4 -10 -15 -47t-33 -103t-29 -96l-84 -250h325l-88 270q-4 8 -13 41t-30 95t-26 90h-7zM946 264h-489l-86 -264h-351l492 1333h391l492 -1333h-361z" />
    <glyph glyph-name="uni1F0F" unicode="&#x1f0f;" horiz-adv-x="1406" 
d="M37 928q0 -45 82 -78l-35 -88q-133 23 -194.5 80t-57.5 132t70.5 131t199.5 62l50 -153q-70 -20 -92.5 -39t-22.5 -47zM152 1182q-49 0 -123 31.5t-113 46t-69.5 14.5t-63.5 -14.5t-84 -77.5l-117 63q47 133 120 191.5t127 58.5q73 0 185 -47t149 -47q36 0 65.5 16.5
t74.5 67.5l115 -62q-84 -241 -266 -241zM700 1012q-4 -10 -15 -47t-33 -103t-29 -96l-84 -250h325l-88 270q-4 8 -13 41t-30 95t-26 90h-7zM946 264h-489l-86 -264h-351l492 1333h391l492 -1333h-361z" />
    <glyph glyph-name="uni1F10" unicode="&#x1f10;" horiz-adv-x="991" 
d="M461 1307q0 39 -26.5 74.5t-110.5 50.5l98 219q135 -27 203.5 -97.5t68.5 -175.5q0 -49 -30.5 -126.5t-110.5 -153.5l-152 51q60 85 60 158zM86 276q0 63 39 128t121 100q-82 29 -118 88t-36 126t36 126t126 118.5t266 59.5q260 0 404 -148l-164 -194q-93 96 -199 96
q-107 0 -127 -41t-20 -51q0 -78 94 -78h127v-200h-125q-43 0 -75 -24t-32 -49q0 -49 35.5 -81.5t112.5 -32.5q113 0 237 119l175 -193q-161 -168 -449 -168q-177 0 -302.5 76t-125.5 223z" />
    <glyph glyph-name="uni1F11" unicode="&#x1f11;" horiz-adv-x="991" 
d="M569 1293q0 -53 60 -144l-150 -53q-80 74 -111.5 153.5t-31.5 128.5q0 104 72.5 178t218.5 91l73 -222q-86 -14 -108.5 -46.5t-22.5 -85.5zM86 276q0 63 39 128t121 100q-82 29 -118 88t-36 126t36 126t126 118.5t266 59.5q260 0 404 -148l-164 -194q-93 96 -199 96
q-107 0 -127 -41t-20 -51q0 -78 94 -78h127v-200h-125q-43 0 -75 -24t-32 -49q0 -49 35.5 -81.5t112.5 -32.5q113 0 237 119l175 -193q-161 -168 -449 -168q-177 0 -302.5 76t-125.5 223z" />
    <glyph glyph-name="uni1F12" unicode="&#x1f12;" horiz-adv-x="991" 
d="M236 1303q0 53 -27 88.5t-113 50.5l99 219q135 -27 204.5 -98.5t69.5 -176.5q0 -47 -31.5 -125.5t-109.5 -152.5l-152 51q60 91 60 144zM459 1587l303 58l166 -465l-180 -54zM86 276q0 63 39 128t121 100q-82 29 -118 88t-36 126t36 126t126 118.5t266 59.5
q260 0 404 -148l-164 -194q-93 96 -199 96q-107 0 -127 -41t-20 -51q0 -78 94 -78h127v-200h-125q-43 0 -75 -24t-32 -49q0 -49 35.5 -81.5t112.5 -32.5q113 0 237 119l175 -193q-161 -168 -449 -168q-177 0 -302.5 76t-125.5 223z" />
    <glyph glyph-name="uni1F13" unicode="&#x1f13;" horiz-adv-x="991" 
d="M440 1583l305 57l166 -462l-178 -54zM315 1307q0 -73 60 -158l-152 -53q-80 74 -110.5 153.5t-30.5 128.5q0 104 72.5 178t216.5 91l73 -222q-84 -14 -106.5 -46.5t-22.5 -71.5zM86 276q0 63 39 128t121 100q-82 29 -118 88t-36 126t36 126t126 118.5t266 59.5
q260 0 404 -148l-164 -194q-93 96 -199 96q-107 0 -127 -41t-20 -51q0 -78 94 -78h127v-200h-125q-43 0 -75 -24t-32 -49q0 -49 35.5 -81.5t112.5 -32.5q113 0 237 119l175 -193q-161 -168 -449 -168q-177 0 -302.5 76t-125.5 223z" />
    <glyph glyph-name="uni1F14" unicode="&#x1f14;" horiz-adv-x="991" 
d="M731 1108l-180 53l168 463l301 -57zM248 1159q59 83 59 145q0 61 -31 94.5t-106 43.5l96 221q135 -29 205 -99.5t70 -174.5q0 -49 -31 -128t-111 -153zM86 276q0 63 39 128t121 100q-82 29 -118 88t-36 126t36 126t126 118.5t266 59.5q260 0 404 -148l-164 -194
q-93 96 -199 96q-107 0 -127 -41t-20 -51q0 -78 94 -78h127v-200h-125q-43 0 -75 -24t-32 -49q0 -49 35.5 -81.5t112.5 -32.5q113 0 237 119l175 -193q-161 -168 -449 -168q-177 0 -302.5 76t-125.5 223z" />
    <glyph glyph-name="uni1F15" unicode="&#x1f15;" horiz-adv-x="991" 
d="M401 1313q0 -73 60 -158l-150 -53q-80 74 -110.5 153.5t-30.5 128.5q0 104 72.5 179t216.5 92l71 -221q-108 -15 -118.5 -58t-10.5 -63zM707 1106l-181 53l166 463l305 -57zM86 276q0 63 39 128t121 100q-82 29 -118 88t-36 126t36 126t126 118.5t266 59.5
q260 0 404 -148l-164 -194q-93 96 -199 96q-107 0 -127 -41t-20 -51q0 -78 94 -78h127v-200h-125q-43 0 -75 -24t-32 -49q0 -49 35.5 -81.5t112.5 -32.5q113 0 237 119l175 -193q-161 -168 -449 -168q-177 0 -302.5 76t-125.5 223z" />
    <glyph glyph-name="uni1F18" unicode="&#x1f18;" horiz-adv-x="1169" 
d="M-254 1096q0 39 -26.5 74.5t-110.5 50.5l98 219q135 -27 204 -97.5t69 -175.5q0 -49 -31 -126.5t-111 -153.5l-151 51q59 83 59 158zM113 1333h995v-282h-657v-220h456v-284h-456v-262h679v-285h-1017v1333z" />
    <glyph glyph-name="uni1F19" unicode="&#x1f19;" horiz-adv-x="1169" 
d="M-123 1080q0 -53 60 -144l-150 -53q-80 74 -111.5 153.5t-31.5 128.5q0 104 72.5 178t217.5 91l74 -222q-86 -14 -108.5 -46.5t-22.5 -85.5zM113 1333h995v-282h-657v-220h456v-284h-456v-262h679v-285h-1017v1333z" />
    <glyph glyph-name="uni1F1A" unicode="&#x1f1a;" horiz-adv-x="1169" 
d="M-416 1366l303 57l166 -465l-180 -53zM-639 1081q0 54 -26.5 89.5t-112.5 50.5l98 219q135 -27 204.5 -98.5t69.5 -176.5q0 -47 -31.5 -125.5t-109.5 -152.5l-151 51q59 89 59 143zM113 1333h995v-282h-657v-220h456v-284h-456v-262h679v-285h-1017v1333z" />
    <glyph glyph-name="uni1F1B" unicode="&#x1f1b;" horiz-adv-x="1169" 
d="M-430 1368l305 57l166 -462l-178 -54zM-555 1092q0 -72 59 -158l-151 -53q-80 74 -110.5 153.5t-30.5 128.5q0 104 72.5 178t215.5 91l74 -222q-84 -14 -106.5 -47t-22.5 -71zM113 1333h995v-282h-657v-220h456v-284h-456v-262h679v-285h-1017v1333z" />
    <glyph glyph-name="uni1F1C" unicode="&#x1f1c;" horiz-adv-x="1169" 
d="M-233 889l-181 53l168 463l301 -57zM-657 1098q0 106 -138 125l97 221q135 -29 204.5 -99.5t69.5 -175.5q0 -49 -30.5 -127.5t-110.5 -152.5l-152 51q60 85 60 158zM113 1333h995v-282h-657v-220h456v-284h-456v-262h679v-285h-1017v1333z" />
    <glyph glyph-name="uni1F1D" unicode="&#x1f1d;" horiz-adv-x="1169" 
d="M-244 895l-180 53l166 463l305 -57zM-549 1102q0 -73 60 -158l-150 -53q-80 74 -110.5 153.5t-30.5 129.5q0 104 72.5 178.5t215.5 91.5l72 -221q-110 -15 -119.5 -58t-9.5 -63zM113 1333h995v-282h-657v-220h456v-284h-456v-262h679v-285h-1017v1333z" />
    <glyph glyph-name="uni1F20" unicode="&#x1f20;" horiz-adv-x="1146" 
d="M455 1307q0 39 -27 74.5t-111 50.5l99 219q135 -27 203.5 -97.5t68.5 -175.5q0 -49 -30.5 -126.5t-110.5 -153.5l-152 51q60 85 60 158zM700 1020q357 0 357 -406v-614h-324v553q0 190 -143 190q-122 0 -156 -118q-12 -54 -12 -93v-532h-322v999h322v-104h8q51 59 128 92
t142 33z" />
    <glyph glyph-name="uni1F21" unicode="&#x1f21;" horiz-adv-x="1146" 
d="M588 1294q0 -52 59 -145l-149 -53q-80 74 -112 153.5t-32 128.5q0 104 73 178t218 91l74 -222q-86 -14 -108.5 -46.5t-22.5 -84.5zM700 1020q357 0 357 -406v-614h-324v553q0 190 -143 190q-122 0 -156 -118q-12 -54 -12 -93v-532h-322v999h322v-104h8q51 59 128 92
t142 33z" />
    <glyph glyph-name="uni1F22" unicode="&#x1f22;" horiz-adv-x="1146" 
d="M481 1606l303 57l166 -465l-180 -53zM258 1321q0 53 -26.5 89t-112.5 50l98 219q135 -27 205 -98.5t70 -175.5q0 -47 -32 -126t-110 -153l-151 52q59 90 59 143zM700 1020q357 0 357 -406v-614h-324v553q0 190 -143 190q-122 0 -156 -118q-12 -54 -12 -93v-532h-322v999
h322v-104h8q51 59 128 92t142 33z" />
    <glyph glyph-name="uni1F23" unicode="&#x1f23;" horiz-adv-x="1146" 
d="M479 1587l305 58l166 -463l-178 -54zM354 1311q0 -73 60 -158l-152 -53q-80 74 -110.5 153.5t-30.5 128.5q0 104 72.5 178t216.5 91l73 -221q-84 -14 -106.5 -47t-22.5 -72zM700 1020q357 0 357 -406v-614h-324v553q0 190 -143 190q-122 0 -156 -118q-12 -54 -12 -93
v-532h-322v999h322v-104h8q51 59 128 92t142 33z" />
    <glyph glyph-name="uni1F24" unicode="&#x1f24;" horiz-adv-x="1146" 
d="M721 1104l-180 53l168 463l301 -57zM238 1155q59 83 59 145q0 61 -31 94.5t-106 43.5l96 221q135 -29 204.5 -99.5t69.5 -175.5q0 -49 -30.5 -127.5t-110.5 -152.5zM700 1020q357 0 357 -406v-614h-324v553q0 190 -143 190q-122 0 -156 -118q-12 -54 -12 -93v-532h-322
v999h322v-104h8q51 59 128 92t142 33z" />
    <glyph glyph-name="uni1F25" unicode="&#x1f25;" horiz-adv-x="1146" 
d="M711 1104l-181 53l166 463l305 -57zM406 1311q0 -75 59 -158l-150 -53q-80 74 -110.5 153.5t-30.5 128.5q0 104 72.5 179t216.5 92l72 -221q-110 -15 -119.5 -58t-9.5 -63zM700 1020q357 0 357 -406v-614h-324v553q0 190 -143 190q-122 0 -156 -118q-12 -54 -12 -93v-532
h-322v999h322v-104h8q51 59 128 92t142 33z" />
    <glyph glyph-name="uni1F26" unicode="&#x1f26;" horiz-adv-x="1146" 
d="M512 1229q0 31 -23.5 49t-97.5 37l53 158q133 -8 202 -61.5t69 -126.5t-61.5 -134t-184.5 -90l-41 86q84 38 84 82zM388 1575q-30 0 -63.5 -14.5t-84.5 -77.5l-117 63q47 133 120 191.5t127 58.5q73 0 185 -47t149 -47q36 0 65.5 16.5t74.5 67.5l114 -62
q-84 -241 -266 -241q-48 0 -122 31.5t-113 46t-69 14.5zM700 1020q357 0 357 -406v-614h-324v553q0 190 -143 190q-122 0 -156 -118q-12 -54 -12 -93v-532h-322v999h322v-104h8q51 59 128 92t142 33z" />
    <glyph glyph-name="uni1F27" unicode="&#x1f27;" horiz-adv-x="1146" 
d="M575 1235q0 -44 82 -78l-34 -88q-133 23 -194.5 80t-57.5 132t70.5 131t199.5 63l49 -154q-70 -20 -92.5 -38.5t-22.5 -47.5zM690 1489q-46 0 -121 31.5t-114 46t-70 14.5t-63.5 -14.5t-83.5 -77.5l-117 63q47 133 120 191.5t127 58.5q77 0 186 -47t147 -47
q37 0 66.5 16.5t74.5 67.5l114 -61q-84 -242 -266 -242zM700 1020q357 0 357 -406v-614h-324v553q0 190 -143 190q-122 0 -156 -118q-12 -54 -12 -93v-532h-322v999h322v-104h8q51 59 128 92t142 33z" />
    <glyph glyph-name="uni1F28" unicode="&#x1f28;" horiz-adv-x="1378" 
d="M-256 1085q0 39 -26.5 75t-110.5 50l98 220q135 -27 203.5 -97.5t68.5 -175.5q0 -49 -30.5 -127t-110.5 -153l-151 51q59 83 59 157zM926 539h-475v-539h-338v1333h338v-508h475v508h338v-1333h-338v539z" />
    <glyph glyph-name="uni1F29" unicode="&#x1f29;" horiz-adv-x="1378" 
d="M-121 1070q0 -52 60 -144l-150 -54q-80 74 -111.5 154t-31.5 129q0 104 72.5 178t218.5 90l73 -221q-86 -14 -108.5 -47t-22.5 -85zM926 539h-475v-539h-338v1333h338v-508h475v508h338v-1333h-338v539z" />
    <glyph glyph-name="uni1F2A" unicode="&#x1f2a;" horiz-adv-x="1378" 
d="M-414 1368l303 57l166 -464l-180 -54zM-637 1083q0 54 -26.5 89.5t-112.5 50.5l98 219q135 -27 205 -98.5t70 -176.5q0 -47 -32 -125.5t-110 -152.5l-151 51q59 89 59 143zM926 539h-475v-539h-338v1333h338v-508h475v508h338v-1333h-338v539z" />
    <glyph glyph-name="uni1F2B" unicode="&#x1f2b;" horiz-adv-x="1378" 
d="M-414 1362l305 57l166 -463l-178 -53zM-539 1085q0 -72 60 -157l-152 -54q-80 74 -110.5 154t-30.5 129q0 104 72.5 178t216.5 90l73 -221q-84 -14 -106.5 -47t-22.5 -72zM926 539h-475v-539h-338v1333h338v-508h475v508h338v-1333h-338v539z" />
    <glyph glyph-name="uni1F2C" unicode="&#x1f2c;" horiz-adv-x="1378" 
d="M-221 901l-180 53l168 463l301 -57zM-705 952q60 85 60 146t-31 94t-106 43l96 221q135 -29 204.5 -99.5t69.5 -174.5q0 -49 -30.5 -128t-110.5 -153zM926 539h-475v-539h-338v1333h338v-508h475v508h338v-1333h-338v539z" />
    <glyph glyph-name="uni1F2D" unicode="&#x1f2d;" horiz-adv-x="1378" 
d="M-225 897l-181 53l166 463l306 -57zM-530 1104q0 -75 59 -158l-150 -53q-80 74 -110.5 153.5t-30.5 129.5q0 104 73 179t216 91l72 -221q-110 -15 -119.5 -58t-9.5 -63zM926 539h-475v-539h-338v1333h338v-508h475v508h338v-1333h-338v539z" />
    <glyph glyph-name="uni1F2E" unicode="&#x1f2e;" horiz-adv-x="1378" 
d="M-395 926q0 31 -23.5 49t-97.5 37l53 157q133 -8 201.5 -61t68.5 -126t-61 -134.5t-184 -89.5l-41 86q84 38 84 82zM-215 1180q-49 0 -123 31.5t-112.5 46t-68.5 14.5t-63.5 -14.5t-85.5 -77.5l-116 63q47 133 119.5 191.5t126.5 58.5q75 0 184.5 -47t147.5 -47
t67.5 16.5t75.5 67.5l114 -62q-84 -241 -266 -241zM926 539h-475v-539h-338v1333h338v-508h475v508h338v-1333h-338v539z" />
    <glyph glyph-name="uni1F2F" unicode="&#x1f2f;" horiz-adv-x="1378" 
d="M-319 922q0 -45 81 -78l-34 -88q-133 23 -194.5 80t-57.5 132t70.5 131t199.5 62l49 -153q-70 -20 -92 -39t-22 -47zM-205 1176q-48 0 -122 31.5t-113 46t-70 14.5t-63.5 -14.5t-83.5 -77.5l-117 63q47 133 119.5 191.5t126.5 58.5q75 0 184.5 -47t148.5 -47
q38 0 67.5 16t74.5 68l114 -62q-84 -241 -266 -241zM926 539h-475v-539h-338v1333h338v-508h475v508h338v-1333h-338v539z" />
    <glyph glyph-name="uni1F30" unicode="&#x1f30;" horiz-adv-x="593" 
d="M242 1309q0 39 -27 74.5t-111 50.5l99 219q135 -27 203.5 -97.5t68.5 -175.5q0 -49 -30.5 -126.5t-110.5 -153.5l-152 51q60 85 60 158zM135 1001h324v-1001h-324v1001z" />
    <glyph glyph-name="uni1F31" unicode="&#x1f31;" horiz-adv-x="593" 
d="M365 1292q0 -54 59 -143l-150 -53q-80 74 -111.5 153.5t-31.5 128.5q0 104 72.5 178t218.5 91l74 -222q-86 -14 -108.5 -46.5t-22.5 -86.5zM135 1001h324v-1001h-324v1001z" />
    <glyph glyph-name="uni1F32" unicode="&#x1f32;" horiz-adv-x="593" 
d="M240 1606l303 57l166 -465l-181 -53zM16 1321q0 53 -26.5 89t-112.5 50l98 219q135 -27 205 -98.5t70 -175.5q0 -47 -32 -126t-109 -153l-152 52q59 90 59 143zM135 1001h324v-1001h-324v1001z" />
    <glyph glyph-name="uni1F33" unicode="&#x1f33;" horiz-adv-x="593" 
d="M229 1587l306 58l165 -463l-178 -54zM104 1311q0 -73 60 -158l-152 -53q-80 74 -110.5 153.5t-30.5 128.5q0 104 72.5 178t216.5 91l73 -221q-84 -14 -106.5 -47t-22.5 -72zM135 1001h324v-1001h-324v1001z" />
    <glyph glyph-name="uni1F34" unicode="&#x1f34;" horiz-adv-x="593" 
d="M496 1096l-181 53l168 463l301 -58zM12 1147q60 85 60 145t-29.5 92.5t-108.5 45.5l97 221q135 -29 204.5 -99.5t69.5 -175.5q0 -49 -30.5 -128t-110.5 -152zM135 1001h324v-1001h-324v1001z" />
    <glyph glyph-name="uni1F35" unicode="&#x1f35;" horiz-adv-x="593" 
d="M477 1096l-180 53l166 463l305 -58zM172 1303q0 -72 59 -158l-149 -53q-80 74 -110.5 153.5t-30.5 128.5q0 104 72.5 179t215.5 92l72 -222q-111 -15 -120 -57.5t-9 -62.5zM135 1001h324v-1001h-324v1001z" />
    <glyph glyph-name="uni1F36" unicode="&#x1f36;" horiz-adv-x="593" 
d="M264 1249q0 31 -23.5 49.5t-97.5 36.5l54 158q133 -8 201.5 -61.5t68.5 -126.5t-61.5 -134t-184.5 -90l-41 86q84 38 84 82zM444 1503q-46 0 -154 46t-144 46t-69.5 -14t-84.5 -78l-117 64q47 133 120 191.5t127 58.5q75 0 185 -47.5t148 -47.5q37 0 66.5 16.5t74.5 67.5
l115 -61q-84 -242 -267 -242zM135 1001h324v-1001h-324v1001z" />
    <glyph glyph-name="uni1F37" unicode="&#x1f37;" horiz-adv-x="593" 
d="M332 1249q0 -43 82 -78l-35 -88q-133 23 -194.5 81t-57.5 132t70.5 130.5t199.5 62.5l49 -154q-70 -20 -92 -38.5t-22 -47.5zM446 1503q-46 0 -121 32t-114 46t-69.5 14t-63.5 -14t-84 -78l-117 64q47 133 120 191.5t127 58.5q75 0 185 -47.5t148 -47.5q37 0 66.5 16.5
t74.5 67.5l115 -61q-84 -242 -267 -242zM135 1001h324v-1001h-324v1001z" />
    <glyph glyph-name="uni1F38" unicode="&#x1f38;" horiz-adv-x="612" 
d="M-238 1096q0 39 -26.5 74.5t-110.5 50.5l99 219q135 -27 203.5 -97.5t68.5 -175.5q0 -49 -31 -126.5t-110 -153.5l-152 51q59 83 59 158zM135 1333h340v-1333h-340v1333z" />
    <glyph glyph-name="uni1F39" unicode="&#x1f39;" horiz-adv-x="612" 
d="M-104 1060q0 -54 59 -142l-150 -54q-80 74 -111.5 154t-31.5 129q0 104 72.5 178t218.5 90l74 -221q-86 -14 -108.5 -47t-22.5 -87zM135 1333h340v-1333h-340v1333z" />
    <glyph glyph-name="uni1F3A" unicode="&#x1f3a;" horiz-adv-x="612" 
d="M-393 1364l303 57l166 -465l-180 -53zM-616 1080q0 53 -27 88.5t-113 50.5l99 219q135 -27 204.5 -98.5t69.5 -176.5q0 -47 -31.5 -126t-109.5 -152l-152 51q60 91 60 144zM135 1333h340v-1333h-340v1333z" />
    <glyph glyph-name="uni1F3B" unicode="&#x1f3b;" horiz-adv-x="612" 
d="M-391 1366l305 57l166 -462l-178 -54zM-516 1090q0 -72 59 -158l-151 -53q-80 74 -111 153.5t-31 128.5q0 104 73 178t216 91l74 -222q-84 -14 -106.5 -47t-22.5 -71zM135 1333h340v-1333h-340v1333z" />
    <glyph glyph-name="uni1F3C" unicode="&#x1f3c;" horiz-adv-x="612" 
d="M-209 897l-180 53l168 463l301 -57zM-692 948q59 83 59 145q0 61 -31 94.5t-106 43.5l96 221q135 -29 205 -99.5t70 -174.5q0 -49 -31 -128t-111 -153zM135 1333h340v-1333h-340v1333z" />
    <glyph glyph-name="uni1F3D" unicode="&#x1f3d;" horiz-adv-x="612" 
d="M-211 891l-180 53l166 463l305 -57zM-516 1098q0 -72 59 -158l-149 -53q-80 74 -111 153.5t-31 128.5q0 104 73 179t216 92l72 -221q-110 -15 -119.5 -58t-9.5 -63zM135 1333h340v-1333h-340v1333z" />
    <glyph glyph-name="uni1F3E" unicode="&#x1f3e;" horiz-adv-x="612" 
d="M-334 924q0 31 -23.5 49t-97.5 37l54 157q133 -8 201.5 -61t68.5 -126t-61.5 -134.5t-184.5 -89.5l-41 86q84 38 84 82zM-154 1178q-48 0 -122 31.5t-113 46t-69 14.5t-63.5 -14.5t-84.5 -77.5l-117 63q47 133 120 191.5t127 58.5q75 0 184 -47t148 -47q38 0 67.5 16.5
t74.5 67.5l115 -62q-84 -241 -267 -241zM135 1333h340v-1333h-340v1333z" />
    <glyph glyph-name="uni1F3F" unicode="&#x1f3f;" horiz-adv-x="612" 
d="M-268 926q0 -45 82 -78l-35 -88q-133 23 -194.5 80t-57.5 132t70.5 131t199.5 62l49 -153q-70 -20 -92 -39t-22 -47zM-154 1180q-48 0 -122 31.5t-113 46t-69.5 14.5t-63.5 -14.5t-84 -77.5l-117 63q47 133 120 191.5t127 58.5q75 0 184 -47t148 -47q38 0 67.5 16.5
t74.5 67.5l115 -62q-84 -241 -267 -241zM135 1333h340v-1333h-340v1333z" />
    <glyph glyph-name="uni1F40" unicode="&#x1f40;" horiz-adv-x="1185" 
d="M416 500q0 -264 178 -264q86 0 130 71.5t44 189.5t-43 191.5t-134 73.5t-133 -75t-42 -187zM86 500q0 240 139 381t369 141t368 -142.5t138 -381.5t-140 -381t-371 -142t-367 142.5t-136 382.5zM516 1307q0 39 -26.5 74.5t-110.5 50.5l98 219q135 -27 204 -97.5
t69 -175.5q0 -49 -31 -126.5t-111 -153.5l-151 51q59 83 59 158z" />
    <glyph glyph-name="uni1F41" unicode="&#x1f41;" horiz-adv-x="1185" 
d="M416 500q0 -264 178 -264q86 0 130 71.5t44 189.5t-43 191.5t-134 73.5t-133 -75t-42 -187zM86 500q0 240 139 381t369 141t368 -142.5t138 -381.5t-140 -381t-371 -142t-367 142.5t-136 382.5zM635 1294q0 -52 59 -145l-149 -53q-80 74 -112 153.5t-32 128.5
q0 104 73 178t218 91l74 -222q-86 -14 -108.5 -46.5t-22.5 -84.5z" />
    <glyph glyph-name="uni1F42" unicode="&#x1f42;" horiz-adv-x="1185" 
d="M416 500q0 -264 178 -264q86 0 130 71.5t44 189.5t-43 191.5t-134 73.5t-133 -75t-42 -187zM86 500q0 240 139 381t369 141t368 -142.5t138 -381.5t-140 -381t-371 -142t-367 142.5t-136 382.5zM465 1579l303 57l166 -465l-180 -53zM242 1295q0 53 -27 88.5t-113 50.5
l99 219q135 -27 204.5 -98.5t69.5 -176.5q0 -47 -31.5 -125.5t-109.5 -152.5l-152 51q60 91 60 144z" />
    <glyph glyph-name="uni1F43" unicode="&#x1f43;" horiz-adv-x="1185" 
d="M416 500q0 -264 178 -264q86 0 130 71.5t44 189.5t-43 191.5t-134 73.5t-133 -75t-42 -187zM86 500q0 240 139 381t369 141t368 -142.5t138 -381.5t-140 -381t-371 -142t-367 142.5t-136 382.5zM494 1581l305 57l166 -462l-179 -54zM369 1305q0 -75 59 -158l-152 -53
q-80 74 -110.5 153.5t-30.5 128.5q0 104 73 178t216 91l74 -222q-84 -14 -106.5 -47t-22.5 -71z" />
    <glyph glyph-name="uni1F44" unicode="&#x1f44;" horiz-adv-x="1185" 
d="M416 500q0 -264 178 -264q86 0 130 71.5t44 189.5t-43 191.5t-134 73.5t-133 -75t-42 -187zM86 500q0 240 139 381t369 141t368 -142.5t138 -381.5t-140 -381t-371 -142t-367 142.5t-136 382.5zM750 1102l-181 53l168 463l301 -57zM326 1311q0 106 -138 125l97 221
q135 -29 204.5 -99.5t69.5 -175.5q0 -49 -30.5 -127.5t-110.5 -152.5l-152 51q60 85 60 158z" />
    <glyph glyph-name="uni1F45" unicode="&#x1f45;" horiz-adv-x="1185" 
d="M416 500q0 -264 178 -264q86 0 130 71.5t44 189.5t-43 191.5t-134 73.5t-133 -75t-42 -187zM86 500q0 240 139 381t369 141t368 -142.5t138 -381.5t-140 -381t-371 -142t-367 142.5t-136 382.5zM748 1104l-181 53l166 463l305 -57zM442 1311q0 -73 60 -158l-150 -53
q-80 74 -110.5 153.5t-30.5 128.5q0 104 72.5 179t216.5 92l71 -221q-108 -15 -118.5 -58t-10.5 -63z" />
    <glyph glyph-name="uni1F48" unicode="&#x1f48;" horiz-adv-x="1390" 
d="M-186 1104q0 39 -27 74.5t-111 50.5l99 219q135 -27 203.5 -97.5t68.5 -174.5q0 -49 -30.5 -127t-110.5 -154l-152 51q60 85 60 158zM663 1059q-97 0 -163 -108.5t-66 -280.5q0 -279 98.5 -338.5t194 -59.5t161.5 111.5t66 284.5q0 272 -97 331.5t-194 59.5zM86 665
q0 315 156.5 503t450.5 188t453 -188t159 -506q0 -319 -161.5 -503t-452.5 -184q-294 0 -449.5 187.5t-155.5 502.5z" />
    <glyph glyph-name="uni1F49" unicode="&#x1f49;" horiz-adv-x="1390" 
d="M-63 1093q0 -54 59 -143l-150 -53q-80 74 -111.5 153.5t-31.5 129.5q0 104 72.5 178t218.5 90l74 -221q-86 -14 -108.5 -47t-22.5 -87zM663 1059q-97 0 -163 -108.5t-66 -280.5q0 -279 98.5 -338.5t194 -59.5t161.5 111.5t66 284.5q0 272 -97 331.5t-194 59.5zM86 665
q0 315 156.5 503t450.5 188t453 -188t159 -506q0 -319 -161.5 -503t-452.5 -184q-294 0 -449.5 187.5t-155.5 502.5z" />
    <glyph glyph-name="uni1F4A" unicode="&#x1f4a;" horiz-adv-x="1390" 
d="M-387 1374l303 58l166 -465l-180 -54zM-610 1090q0 53 -27 88.5t-113 50.5l99 219q135 -27 204.5 -98.5t69.5 -175.5q0 -47 -31.5 -126t-109.5 -153l-152 51q60 91 60 144zM663 1059q-97 0 -163 -108.5t-66 -280.5q0 -279 98.5 -338.5t194 -59.5t161.5 111.5t66 284.5
q0 272 -97 331.5t-194 59.5zM86 665q0 315 156.5 503t450.5 188t453 -188t159 -506q0 -319 -161.5 -503t-452.5 -184q-294 0 -449.5 187.5t-155.5 502.5z" />
    <glyph glyph-name="uni1F4B" unicode="&#x1f4b;" horiz-adv-x="1390" 
d="M-399 1364l305 57l166 -463l-178 -53zM-524 1087q0 -74 59 -157l-151 -53q-80 74 -111 153.5t-31 128.5q0 104 73 178t216 90l74 -221q-84 -14 -106.5 -47t-22.5 -72zM663 1059q-97 0 -163 -108.5t-66 -280.5q0 -279 98.5 -338.5t194 -59.5t161.5 111.5t66 284.5
q0 272 -97 331.5t-194 59.5zM86 665q0 315 156.5 503t450.5 188t453 -188t159 -506q0 -319 -161.5 -503t-452.5 -184q-294 0 -449.5 187.5t-155.5 502.5z" />
    <glyph glyph-name="uni1F4C" unicode="&#x1f4c;" horiz-adv-x="1390" 
d="M-117 905l-180 53l168 463l301 -57zM-600 956q59 83 59 146q0 62 -31.5 94.5t-105.5 42.5l96 221q135 -29 205 -99.5t70 -174.5q0 -49 -31 -128t-111 -153zM663 1059q-97 0 -163 -108.5t-66 -280.5q0 -279 98.5 -338.5t194 -59.5t161.5 111.5t66 284.5q0 272 -97 331.5
t-194 59.5zM86 665q0 315 156.5 503t450.5 188t453 -188t159 -506q0 -319 -161.5 -503t-452.5 -184q-294 0 -449.5 187.5t-155.5 502.5z" />
    <glyph glyph-name="uni1F4D" unicode="&#x1f4d;" horiz-adv-x="1390" 
d="M-119 903l-180 53l166 463l305 -57zM-424 1110q0 -72 59 -158l-149 -53q-80 74 -110.5 154t-30.5 129q0 104 72.5 179t215.5 91l72 -221q-110 -15 -119.5 -58t-9.5 -63zM663 1059q-97 0 -163 -108.5t-66 -280.5q0 -279 98.5 -338.5t194 -59.5t161.5 111.5t66 284.5
q0 272 -97 331.5t-194 59.5zM86 665q0 315 156.5 503t450.5 188t453 -188t159 -506q0 -319 -161.5 -503t-452.5 -184q-294 0 -449.5 187.5t-155.5 502.5z" />
    <glyph glyph-name="uni1F50" unicode="&#x1f50;" horiz-adv-x="1165" 
d="M506 1307q0 39 -26.5 74.5t-110.5 50.5l98 219q135 -27 203.5 -97.5t68.5 -175.5q0 -49 -30.5 -126.5t-110.5 -153.5l-152 51q60 85 60 158zM587 -25q-228 0 -359.5 120t-131.5 349v557h326v-555q0 -213 160 -213q88 0 127 53.5t39 159.5v555l323 -2v-555
q0 -227 -128 -348t-356 -121z" />
    <glyph glyph-name="uni1F51" unicode="&#x1f51;" horiz-adv-x="1165" 
d="M639 1294q0 -52 59 -145l-149 -53q-80 74 -111.5 153.5t-31.5 128.5q0 104 72.5 178t217.5 91l74 -222q-86 -14 -108.5 -46.5t-22.5 -84.5zM587 -25q-228 0 -359.5 120t-131.5 349v557h326v-555q0 -213 160 -213q88 0 127 53.5t39 159.5v555l323 -2v-555
q0 -227 -128 -348t-356 -121z" />
    <glyph glyph-name="uni1F52" unicode="&#x1f52;" horiz-adv-x="1165" 
d="M504 1606l303 57l166 -465l-180 -53zM281 1322q0 52 -27 88t-113 50l99 219q135 -27 204.5 -98.5t69.5 -175.5q0 -47 -31.5 -126t-109.5 -153l-152 52q60 92 60 144zM587 -25q-228 0 -359.5 120t-131.5 349v557h326v-555q0 -213 160 -213q88 0 127 53.5t39 159.5v555
l323 -2v-555q0 -227 -128 -348t-356 -121z" />
    <glyph glyph-name="uni1F53" unicode="&#x1f53;" horiz-adv-x="1165" 
d="M494 1587l305 58l166 -463l-179 -54zM369 1311q0 -75 59 -158l-152 -53q-80 74 -110.5 153.5t-30.5 128.5q0 104 73 178t216 91l74 -221q-84 -14 -106.5 -47t-22.5 -72zM587 -25q-228 0 -359.5 120t-131.5 349v557h326v-555q0 -213 160 -213q88 0 127 53.5t39 159.5v555
l323 -2v-555q0 -227 -128 -348t-356 -121z" />
    <glyph glyph-name="uni1F54" unicode="&#x1f54;" horiz-adv-x="1165" 
d="M776 1096l-180 53l168 463l301 -58zM293 1147q59 83 59 145q0 61 -30 93.5t-107 44.5l96 221q135 -29 205 -99.5t70 -175.5q0 -49 -31 -128t-111 -152zM587 -25q-228 0 -359.5 120t-131.5 349v557h326v-555q0 -213 160 -213q88 0 127 53.5t39 159.5v555l323 -2v-555
q0 -227 -128 -348t-356 -121z" />
    <glyph glyph-name="uni1F55" unicode="&#x1f55;" horiz-adv-x="1165" 
d="M764 1096l-180 53l166 463l305 -58zM459 1303q0 -75 59 -158l-149 -53q-80 74 -111 153.5t-31 128.5q0 104 73 179t216 92l72 -222q-111 -15 -120 -57.5t-9 -62.5zM587 -25q-228 0 -359.5 120t-131.5 349v557h326v-555q0 -213 160 -213q88 0 127 53.5t39 159.5v555
l323 -2v-555q0 -227 -128 -348t-356 -121z" />
    <glyph glyph-name="uni1F56" unicode="&#x1f56;" horiz-adv-x="1165" 
d="M557 1214q0 31 -23.5 49.5t-97.5 36.5l53 158q133 -8 202 -62t69 -126t-61.5 -133.5t-184.5 -89.5l-41 86q84 38 84 81zM737 1468q-46 0 -121 32t-114 46.5t-69 14.5t-63.5 -14.5t-84.5 -78.5l-117 64q47 133 119.5 191.5t126.5 58.5q75 0 184.5 -47t148.5 -47
q38 0 67.5 16t74.5 68l115 -62q-84 -242 -267 -242zM587 -25q-228 0 -359.5 120t-131.5 349v557h326v-555q0 -213 160 -213q88 0 127 53.5t39 159.5v555l323 -2v-555q0 -227 -128 -348t-356 -121z" />
    <glyph glyph-name="uni1F57" unicode="&#x1f57;" horiz-adv-x="1165" 
d="M584 1217q0 -45 82 -78l-35 -88q-133 23 -194.5 80t-57.5 132t70.5 131t199.5 62l49 -153q-70 -20 -92 -39t-22 -47zM393 1563q-31 0 -63.5 -14.5t-83.5 -78.5l-117 64q47 133 120 191.5t127 58.5q75 0 184 -47t148 -47q38 0 67.5 16t74.5 68l115 -62q-84 -242 -267 -242
q-46 0 -121 32t-114 46.5t-70 14.5zM587 -25q-228 0 -359.5 120t-131.5 349v557h326v-555q0 -213 160 -213q88 0 127 53.5t39 159.5v555l323 -2v-555q0 -227 -128 -348t-356 -121z" />
    <glyph glyph-name="uni1F59" unicode="&#x1f59;" horiz-adv-x="1355" 
d="M-147 1087q0 -54 59 -143l-150 -53q-80 74 -111.5 153.5t-31.5 129.5q0 104 72.5 177.5t218.5 90.5l74 -221q-86 -14 -108.5 -47t-22.5 -87zM846 0h-336v446l-504 887h367l307 -626l158 325q12 22 54 109.5t63.5 129.5t31.5 62h363l-504 -882v-451z" />
    <glyph glyph-name="uni1F5B" unicode="&#x1f5b;" horiz-adv-x="1355" 
d="M-436 1389l305 57l166 -463l-178 -53zM-561 1096q0 -55 59 -142l-151 -53q-80 74 -111 154t-31 129q0 104 73 178t216 90l74 -221q-84 -14 -106.5 -47t-22.5 -88zM846 0h-336v446l-504 887h367l307 -626l158 325q12 22 54 109.5t63.5 129.5t31.5 62h363l-504 -882v-451z
" />
    <glyph glyph-name="uni1F5D" unicode="&#x1f5d;" horiz-adv-x="1355" 
d="M-618 1104q0 -75 59 -158l-150 -53q-80 74 -110.5 153.5t-30.5 129.5q0 104 72.5 179t216.5 91l72 -221q-110 -15 -119.5 -58t-9.5 -63zM-313 897l-181 53l166 463l305 -57zM846 0h-336v446l-504 887h367l307 -626l158 325q12 22 54 109.5t63.5 129.5t31.5 62h363
l-504 -882v-451z" />
    <glyph glyph-name="uni1F5F" unicode="&#x1f5f;" horiz-adv-x="1355" 
d="M-393 926q0 -45 82 -78l-35 -88q-133 23 -194.5 80t-57.5 132t70.5 131t199.5 62l49 -153q-70 -20 -92 -39t-22 -47zM-279 1180q-48 0 -122 31.5t-113 46t-69.5 14.5t-63.5 -14.5t-84 -77.5l-117 63q47 133 120 191.5t127 58.5q75 0 184 -47t148 -47q38 0 67.5 16.5
t74.5 67.5l115 -62q-84 -241 -267 -241zM846 0h-336v446l-504 887h367l307 -626l158 325q12 22 54 109.5t63.5 129.5t31.5 62h363l-504 -882v-451z" />
    <glyph glyph-name="uni1F60" unicode="&#x1f60;" horiz-adv-x="1613" 
d="M733 1307q0 39 -26.5 74.5t-110.5 50.5l98 219q135 -27 204 -97.5t69 -175.5q0 -49 -31 -126.5t-111 -153.5l-151 51q59 83 59 158zM604 793q-188 -57 -188 -322q0 -118 42 -178t97 -60t87 41t32 109v244h268v-248q0 -70 33 -108t73 -38q150 0 150 265q0 148 -64.5 211
t-121.5 82l88 233q199 -34 313.5 -187t114.5 -335q0 -241 -119 -381.5t-328 -140.5q-84 0 -156.5 39.5t-113.5 107.5h-6q-43 -68 -113.5 -107.5t-156.5 -39.5q-211 0 -330 135t-119 389q0 186 115 336.5t315 185.5z" />
    <glyph glyph-name="uni1F61" unicode="&#x1f61;" horiz-adv-x="1613" 
d="M866 1293q0 -53 60 -144l-150 -53q-80 74 -111.5 153.5t-31.5 128.5q0 104 72.5 178t218.5 91l73 -222q-86 -14 -108.5 -46.5t-22.5 -85.5zM604 793q-188 -57 -188 -322q0 -118 42 -178t97 -60t87 41t32 109v244h268v-248q0 -70 33 -108t73 -38q150 0 150 265
q0 148 -64.5 211t-121.5 82l88 233q199 -34 313.5 -187t114.5 -335q0 -241 -119 -381.5t-328 -140.5q-84 0 -156.5 39.5t-113.5 107.5h-6q-43 -68 -113.5 -107.5t-156.5 -39.5q-211 0 -330 135t-119 389q0 186 115 336.5t315 185.5z" />
    <glyph glyph-name="uni1F62" unicode="&#x1f62;" horiz-adv-x="1613" 
d="M739 1589l303 58l166 -465l-180 -54zM516 1304q0 54 -26.5 90t-112.5 50l98 219q135 -27 205 -98.5t70 -175.5q0 -47 -32 -126t-110 -153l-151 51q59 89 59 143zM604 793q-188 -57 -188 -322q0 -118 42 -178t97 -60t87 41t32 109v244h268v-248q0 -70 33 -108t73 -38
q150 0 150 265q0 148 -64.5 211t-121.5 82l88 233q199 -34 313.5 -187t114.5 -335q0 -241 -119 -381.5t-328 -140.5q-84 0 -156.5 39.5t-113.5 107.5h-6q-43 -68 -113.5 -107.5t-156.5 -39.5q-211 0 -330 135t-119 389q0 186 115 336.5t315 185.5z" />
    <glyph glyph-name="uni1F63" unicode="&#x1f63;" horiz-adv-x="1613" 
d="M721 1585l305 57l166 -462l-178 -54zM596 1293q0 -55 59 -142l-151 -53q-80 74 -111 153.5t-31 128.5q0 104 73 178t216 91l74 -222q-84 -14 -106.5 -46.5t-22.5 -87.5zM604 793q-188 -57 -188 -322q0 -118 42 -178t97 -60t87 41t32 109v244h268v-248q0 -70 33 -108
t73 -38q150 0 150 265q0 148 -64.5 211t-121.5 82l88 233q199 -34 313.5 -187t114.5 -335q0 -241 -119 -381.5t-328 -140.5q-84 0 -156.5 39.5t-113.5 107.5h-6q-43 -68 -113.5 -107.5t-156.5 -39.5q-211 0 -330 135t-119 389q0 186 115 336.5t315 185.5z" />
    <glyph glyph-name="uni1F64" unicode="&#x1f64;" horiz-adv-x="1613" 
d="M1016 1092l-180 53l168 463l301 -58zM532 1143q60 85 60 146t-30.5 93t-106.5 43l96 222q135 -29 204.5 -99.5t69.5 -175.5q0 -49 -30.5 -128t-110.5 -152zM604 793q-188 -57 -188 -322q0 -118 42 -178t97 -60t87 41t32 109v244h268v-248q0 -70 33 -108t73 -38
q150 0 150 265q0 148 -64.5 211t-121.5 82l88 233q199 -34 313.5 -187t114.5 -335q0 -241 -119 -381.5t-328 -140.5q-84 0 -156.5 39.5t-113.5 107.5h-6q-43 -68 -113.5 -107.5t-156.5 -39.5q-211 0 -330 135t-119 389q0 186 115 336.5t315 185.5z" />
    <glyph glyph-name="uni1F65" unicode="&#x1f65;" horiz-adv-x="1613" 
d="M987 1096l-180 53l166 463l305 -58zM682 1303q0 -72 59 -158l-149 -53q-80 74 -110.5 153.5t-30.5 128.5q0 104 72.5 179t215.5 92l72 -222q-111 -15 -120 -57.5t-9 -62.5zM604 793q-188 -57 -188 -322q0 -118 42 -178t97 -60t87 41t32 109v244h268v-248q0 -70 33 -108
t73 -38q150 0 150 265q0 148 -64.5 211t-121.5 82l88 233q199 -34 313.5 -187t114.5 -335q0 -241 -119 -381.5t-328 -140.5q-84 0 -156.5 39.5t-113.5 107.5h-6q-43 -68 -113.5 -107.5t-156.5 -39.5q-211 0 -330 135t-119 389q0 186 115 336.5t315 185.5z" />
    <glyph glyph-name="uni1F66" unicode="&#x1f66;" horiz-adv-x="1613" 
d="M772 1186q0 31 -23.5 49t-97.5 37l54 158q133 -8 201.5 -61.5t68.5 -126.5t-61.5 -134t-184.5 -90l-41 86q84 38 84 82zM952 1440q-48 0 -122 31.5t-113 46t-69 14.5t-63.5 -14.5t-84.5 -77.5l-117 63q47 133 120 191.5t127 58.5q73 0 185 -47t149 -47q36 0 65.5 16.5
t74.5 67.5l115 -62q-84 -241 -267 -241zM604 793q-188 -57 -188 -322q0 -118 42 -178t97 -60t87 41t32 109v244h268v-248q0 -70 33 -108t73 -38q150 0 150 265q0 148 -64.5 211t-121.5 82l88 233q199 -34 313.5 -187t114.5 -335q0 -241 -119 -381.5t-328 -140.5
q-84 0 -156.5 39.5t-113.5 107.5h-6q-43 -68 -113.5 -107.5t-156.5 -39.5q-211 0 -330 135t-119 389q0 186 115 336.5t315 185.5z" />
    <glyph glyph-name="uni1F67" unicode="&#x1f67;" horiz-adv-x="1613" 
d="M827 1178q0 -45 82 -78l-35 -88q-133 23 -194.5 80t-57.5 132t71 131t200 62l49 -153q-70 -20 -92.5 -39t-22.5 -47zM942 1432q-49 0 -123 31.5t-112.5 46t-69.5 14.5t-63.5 -14.5t-84.5 -77.5l-116 63q47 133 120 191.5t127 58.5q75 0 184 -47t147 -47t68 16t75 68
l114 -62q-84 -241 -266 -241zM604 793q-188 -57 -188 -322q0 -118 42 -178t97 -60t87 41t32 109v244h268v-248q0 -70 33 -108t73 -38q150 0 150 265q0 148 -64.5 211t-121.5 82l88 233q199 -34 313.5 -187t114.5 -335q0 -241 -119 -381.5t-328 -140.5q-84 0 -156.5 39.5
t-113.5 107.5h-6q-43 -68 -113.5 -107.5t-156.5 -39.5q-211 0 -330 135t-119 389q0 186 115 336.5t315 185.5z" />
    <glyph glyph-name="uni1F68" unicode="&#x1f68;" horiz-adv-x="1441" 
d="M-174 1098q0 39 -26.5 74.5t-110.5 50.5l98 219q135 -27 203.5 -97.5t68.5 -175.5q0 -49 -30.5 -126.5t-110.5 -153.5l-151 51q59 83 59 158zM991 668q0 275 -100 333t-167 58q-127 0 -198 -102.5t-71 -263.5t42 -263t146 -141v-289h-551v279h172q-112 89 -131.5 216.5
t-19.5 186.5q0 308 162 491t446 183t450 -177t166 -477q0 -183 -59 -284t-102 -137h170v-281h-545v287q190 69 190 381z" />
    <glyph glyph-name="uni1F69" unicode="&#x1f69;" horiz-adv-x="1441" 
d="M-61 1089q0 -54 59 -143l-150 -53q-80 74 -111.5 153.5t-31.5 129.5q0 104 72.5 177.5t218.5 90.5l74 -221q-86 -14 -108.5 -47t-22.5 -87zM991 668q0 275 -100 333t-167 58q-127 0 -198 -102.5t-71 -263.5t42 -263t146 -141v-289h-551v279h172q-112 89 -131.5 216.5
t-19.5 186.5q0 308 162 491t446 183t450 -177t166 -477q0 -183 -59 -284t-102 -137h170v-281h-545v287q190 69 190 381z" />
    <glyph glyph-name="uni1F6A" unicode="&#x1f6a;" horiz-adv-x="1441" 
d="M-352 1389l303 57l166 -465l-180 -53zM-575 1105q0 52 -27 88t-113 50l99 219q135 -27 204.5 -98.5t69.5 -175.5q0 -47 -32 -126t-109 -153l-152 52q60 92 60 144zM991 668q0 275 -100 333t-167 58q-127 0 -198 -102.5t-71 -263.5t42 -263t146 -141v-289h-551v279h172
q-112 89 -131.5 216.5t-19.5 186.5q0 308 162 491t446 183t450 -177t166 -477q0 -183 -59 -284t-102 -137h170v-281h-545v287q190 69 190 381z" />
    <glyph glyph-name="uni1F6B" unicode="&#x1f6b;" horiz-adv-x="1441" 
d="M-375 1389l305 57l166 -463l-178 -53zM-500 1112q0 -73 60 -158l-152 -53q-80 74 -110.5 154t-30.5 129q0 104 72.5 178t216.5 90l73 -221q-84 -14 -106.5 -47t-22.5 -72zM991 668q0 275 -100 333t-167 58q-127 0 -198 -102.5t-71 -263.5t42 -263t146 -141v-289h-551v279
h172q-112 89 -131.5 216.5t-19.5 186.5q0 308 162 491t446 183t450 -177t166 -477q0 -183 -59 -284t-102 -137h170v-281h-545v287q190 69 190 381z" />
    <glyph glyph-name="uni1F6C" unicode="&#x1f6c;" horiz-adv-x="1441" 
d="M-59 905l-181 53l168 463l301 -57zM-483 1114q0 106 -138 125l97 221q135 -29 204.5 -99.5t69.5 -174.5q0 -49 -30.5 -128t-110.5 -153l-152 51q60 85 60 158zM991 668q0 275 -100 333t-167 58q-127 0 -198 -102.5t-71 -263.5t42 -263t146 -141v-289h-551v279h172
q-112 89 -131.5 216.5t-19.5 186.5q0 308 162 491t446 183t450 -177t166 -477q0 -183 -59 -284t-102 -137h170v-281h-545v287q190 69 190 381z" />
    <glyph glyph-name="uni1F6D" unicode="&#x1f6d;" horiz-adv-x="1441" 
d="M-53 913l-180 54l165 463l306 -58zM-358 1120q0 -74 59 -157l-150 -54q-80 74 -110.5 154t-30.5 129q0 104 73 179t216 91l72 -221q-111 -15 -120 -57.5t-9 -63.5zM991 668q0 275 -100 333t-167 58q-127 0 -198 -102.5t-71 -263.5t42 -263t146 -141v-289h-551v279h172
q-112 89 -131.5 216.5t-19.5 186.5q0 308 162 491t446 183t450 -177t166 -477q0 -183 -59 -284t-102 -137h170v-281h-545v287q190 69 190 381z" />
    <glyph glyph-name="uni1F6E" unicode="&#x1f6e;" horiz-adv-x="1441" 
d="M-209 924q0 31 -23.5 49t-97.5 37l54 157q133 -8 201.5 -61t68.5 -126t-61.5 -134.5t-184.5 -89.5l-41 86q84 38 84 82zM-29 1178q-48 0 -122 31.5t-113 46t-69 14.5t-63.5 -14.5t-84.5 -77.5l-117 63q47 133 119.5 191.5t126.5 58.5q75 0 184.5 -47t148.5 -47
q38 0 67.5 16.5t74.5 67.5l115 -62q-84 -241 -267 -241zM991 668q0 275 -100 333t-167 58q-127 0 -198 -102.5t-71 -263.5t42 -263t146 -141v-289h-551v279h172q-112 89 -131.5 216.5t-19.5 186.5q0 308 162 491t446 183t450 -177t166 -477q0 -183 -59 -284t-102 -137h170
v-281h-545v287q190 69 190 381z" />
    <glyph glyph-name="uni1F6F" unicode="&#x1f6f;" horiz-adv-x="1441" 
d="M-127 922q0 -45 82 -78l-35 -88q-133 23 -194.5 80t-57.5 132t70.5 131t200.5 62l49 -153q-70 -20 -92.5 -39t-22.5 -47zM-12 1176q-49 0 -123 31.5t-113 46t-69.5 14.5t-63.5 -14.5t-84 -77.5l-117 63q47 133 120 191.5t127 58.5q74 0 184.5 -47t147.5 -47q38 0 67.5 16
t74.5 68l115 -62q-84 -241 -266 -241zM991 668q0 275 -100 333t-167 58q-127 0 -198 -102.5t-71 -263.5t42 -263t146 -141v-289h-551v279h172q-112 89 -131.5 216.5t-19.5 186.5q0 308 162 491t446 183t450 -177t166 -477q0 -183 -59 -284t-102 -137h170v-281h-545v287
q190 69 190 381z" />
    <glyph glyph-name="uni1F70" unicode="&#x1f70;" horiz-adv-x="1163" 
d="M244 1573l315 57l166 -465l-190 -53zM586 754q-78 0 -122 -69t-44 -198q0 -241 160 -241q86 0 159 80v344q-75 84 -153 84zM86 486q0 255 111.5 394.5t285.5 139.5q70 0 139.5 -28.5t116.5 -78.5l6 2v86h318v-1001h-277l-32 88h-6q-119 -106 -275 -106q-262 0 -324.5 185
t-62.5 319z" />
    <glyph glyph-name="uni1F71" unicode="&#x1f71;" horiz-adv-x="1163" 
d="M659 1114l-188 53l166 465l313 -57zM586 754q-78 0 -122 -69t-44 -198q0 -241 160 -241q86 0 159 80v344q-75 84 -153 84zM86 486q0 255 111.5 394.5t285.5 139.5q70 0 139.5 -28.5t116.5 -78.5l6 2v86h318v-1001h-277l-32 88h-6q-119 -106 -275 -106q-262 0 -324.5 185
t-62.5 319z" />
    <glyph glyph-name="uni1F72" unicode="&#x1f72;" horiz-adv-x="991" 
d="M170 1575l315 57l166 -465l-190 -53zM86 276q0 63 39 128t121 100q-82 29 -118 88t-36 126t36 126t126 118.5t266 59.5q260 0 404 -148l-164 -194q-93 96 -199 96q-107 0 -127 -41t-20 -51q0 -78 94 -78h127v-200h-125q-43 0 -75 -24t-32 -49q0 -49 35.5 -81.5
t112.5 -32.5q113 0 237 119l175 -193q-161 -168 -449 -168q-177 0 -302.5 76t-125.5 223z" />
    <glyph glyph-name="uni1F73" unicode="&#x1f73;" horiz-adv-x="991" 
d="M567 1114l-188 53l166 465l313 -57zM86 276q0 63 39 128t121 100q-82 29 -118 88t-36 126t36 126t126 118.5t266 59.5q260 0 404 -148l-164 -194q-93 96 -199 96q-107 0 -127 -41t-20 -51q0 -78 94 -78h127v-200h-125q-43 0 -75 -24t-32 -49q0 -49 35.5 -81.5
t112.5 -32.5q113 0 237 119l175 -193q-161 -168 -449 -168q-177 0 -302.5 76t-125.5 223z" />
    <glyph glyph-name="uni1F74" unicode="&#x1f74;" horiz-adv-x="1146" 
d="M205 1573l315 57l166 -465l-190 -53zM700 1020q357 0 357 -406v-614h-324v553q0 190 -143 190q-122 0 -156 -118q-12 -54 -12 -93v-532h-322v999h322v-104h8q51 59 128 92t142 33z" />
    <glyph glyph-name="uni1F75" unicode="&#x1f75;" horiz-adv-x="1146" 
d="M598 1114l-188 53l165 465l314 -57zM700 1020q357 0 357 -406v-614h-324v553q0 190 -143 190q-122 0 -156 -118q-12 -54 -12 -93v-532h-322v999h322v-104h8q51 59 128 92t142 33z" />
    <glyph glyph-name="uni1F76" unicode="&#x1f76;" horiz-adv-x="593" 
d="M-66 1575l316 57l166 -465l-191 -53zM135 1001h324v-1001h-324v1001z" />
    <glyph glyph-name="uni1F77" unicode="&#x1f77;" horiz-adv-x="593" 
d="M360 1114l-188 53l166 465l313 -57zM135 1001h324v-1001h-324v1001z" />
    <glyph glyph-name="uni1F78" unicode="&#x1f78;" horiz-adv-x="1185" 
d="M416 500q0 -264 178 -264q86 0 130 71.5t44 189.5t-43 191.5t-134 73.5t-133 -75t-42 -187zM86 500q0 240 139 381t369 141t368 -142.5t138 -381.5t-140 -381t-371 -142t-367 142.5t-136 382.5zM238 1575l315 57l166 -465l-191 -53z" />
    <glyph glyph-name="uni1F79" unicode="&#x1f79;" horiz-adv-x="1185" 
d="M416 500q0 -264 178 -264q86 0 130 71.5t44 189.5t-43 191.5t-134 73.5t-133 -75t-42 -187zM86 500q0 240 139 381t369 141t368 -142.5t138 -381.5t-140 -381t-371 -142t-367 142.5t-136 382.5zM627 1114l-189 53l166 465l314 -57z" />
    <glyph glyph-name="uni1F7A" unicode="&#x1f7a;" horiz-adv-x="1165" 
d="M252 1575l315 57l166 -465l-190 -53zM587 -25q-228 0 -359.5 120t-131.5 349v557h326v-555q0 -213 160 -213q88 0 127 53.5t39 159.5v555l323 -2v-555q0 -227 -128 -348t-356 -121z" />
    <glyph glyph-name="uni1F7B" unicode="&#x1f7b;" horiz-adv-x="1165" 
d="M649 1114l-188 53l166 465l313 -57zM587 -25q-228 0 -359.5 120t-131.5 349v557h326v-555q0 -213 160 -213q88 0 127 53.5t39 159.5v555l323 -2v-555q0 -227 -128 -348t-356 -121z" />
    <glyph glyph-name="uni1F7C" unicode="&#x1f7c;" horiz-adv-x="1613" 
d="M455 1575l315 57l166 -465l-191 -53zM604 793q-188 -57 -188 -322q0 -118 42 -178t97 -60t87 41t32 109v244h268v-248q0 -70 33 -108t73 -38q150 0 150 265q0 148 -64.5 211t-121.5 82l88 233q199 -34 313.5 -187t114.5 -335q0 -241 -119 -381.5t-328 -140.5
q-84 0 -156.5 39.5t-113.5 107.5h-6q-43 -68 -113.5 -107.5t-156.5 -39.5q-211 0 -330 135t-119 389q0 186 115 336.5t315 185.5z" />
    <glyph glyph-name="uni1F7D" unicode="&#x1f7d;" horiz-adv-x="1613" 
d="M836 1114l-189 53l166 465l313 -57zM604 793q-188 -57 -188 -322q0 -118 42 -178t97 -60t87 41t32 109v244h268v-248q0 -70 33 -108t73 -38q150 0 150 265q0 148 -64.5 211t-121.5 82l88 233q199 -34 313.5 -187t114.5 -335q0 -241 -119 -381.5t-328 -140.5
q-84 0 -156.5 39.5t-113.5 107.5h-6q-43 -68 -113.5 -107.5t-156.5 -39.5q-211 0 -330 135t-119 389q0 186 115 336.5t315 185.5z" />
    <glyph glyph-name="uni1F80" unicode="&#x1f80;" horiz-adv-x="1163" 
d="M683 -563q-115 0 -170.5 47t-55.5 168v239h217v-190q0 -57 34.5 -70.5t94.5 -9.5v-164q-58 -20 -120 -20zM516 1307q0 39 -26.5 74.5t-110.5 50.5l98 219q135 -27 204 -97.5t69 -175.5q0 -49 -31 -126.5t-111 -153.5l-151 51q59 83 59 158zM586 754q-78 0 -122 -69
t-44 -198q0 -241 160 -241q86 0 159 80v344q-75 84 -153 84zM86 486q0 255 111.5 394.5t285.5 139.5q70 0 139.5 -28.5t116.5 -78.5l6 2v86h318v-1001h-277l-32 88h-6q-119 -106 -275 -106q-262 0 -324.5 185t-62.5 319z" />
    <glyph glyph-name="uni1F81" unicode="&#x1f81;" horiz-adv-x="1163" 
d="M683 -563q-115 0 -170.5 47t-55.5 168v239h217v-190q0 -57 34.5 -70.5t94.5 -9.5v-164q-58 -20 -120 -20zM643 1294q0 -52 59 -145l-149 -53q-80 74 -111.5 153.5t-31.5 128.5q0 104 72.5 178t217.5 91l74 -222q-86 -14 -108.5 -46.5t-22.5 -84.5zM586 754
q-78 0 -122 -69t-44 -198q0 -241 160 -241q86 0 159 80v344q-75 84 -153 84zM86 486q0 255 111.5 394.5t285.5 139.5q70 0 139.5 -28.5t116.5 -78.5l6 2v86h318v-1001h-277l-32 88h-6q-119 -106 -275 -106q-262 0 -324.5 185t-62.5 319z" />
    <glyph glyph-name="uni1F82" unicode="&#x1f82;" horiz-adv-x="1163" 
d="M683 -563q-115 0 -170.5 47t-55.5 168v239h217v-190q0 -57 34.5 -70.5t94.5 -9.5v-164q-58 -20 -120 -20zM524 1589l303 58l166 -465l-180 -54zM301 1304q0 54 -26.5 90t-112.5 50l98 219q135 -27 205 -98.5t70 -175.5q0 -47 -32 -126t-110 -153l-151 51q59 89 59 143z
M586 754q-78 0 -122 -69t-44 -198q0 -241 160 -241q86 0 159 80v344q-75 84 -153 84zM86 486q0 255 111.5 394.5t285.5 139.5q70 0 139.5 -28.5t116.5 -78.5l6 2v86h318v-1001h-277l-32 88h-6q-119 -106 -275 -106q-262 0 -324.5 185t-62.5 319z" />
    <glyph glyph-name="uni1F83" unicode="&#x1f83;" horiz-adv-x="1163" 
d="M683 -563q-115 0 -170.5 47t-55.5 168v239h217v-190q0 -57 34.5 -70.5t94.5 -9.5v-164q-58 -20 -120 -20zM526 1585l305 57l166 -462l-178 -54zM401 1309q0 -73 60 -158l-152 -53q-80 74 -110.5 153.5t-30.5 128.5q0 104 72.5 178t216.5 91l73 -222q-84 -14 -106.5 -46.5
t-22.5 -71.5zM586 754q-78 0 -122 -69t-44 -198q0 -241 160 -241q86 0 159 80v344q-75 84 -153 84zM86 486q0 255 111.5 394.5t285.5 139.5q70 0 139.5 -28.5t116.5 -78.5l6 2v86h318v-1001h-277l-32 88h-6q-119 -106 -275 -106q-262 0 -324.5 185t-62.5 319z" />
    <glyph glyph-name="uni1F84" unicode="&#x1f84;" horiz-adv-x="1163" 
d="M683 -563q-115 0 -170.5 47t-55.5 168v239h217v-190q0 -57 34.5 -70.5t94.5 -9.5v-164q-58 -20 -120 -20zM807 1100l-180 53l168 463l301 -57zM324 1151q59 83 59 145q0 61 -30 93.5t-107 44.5l96 221q135 -29 204.5 -99.5t69.5 -175.5q0 -49 -30.5 -127.5t-110.5 -152.5
zM586 754q-78 0 -122 -69t-44 -198q0 -241 160 -241q86 0 159 80v344q-75 84 -153 84zM86 486q0 255 111.5 394.5t285.5 139.5q70 0 139.5 -28.5t116.5 -78.5l6 2v86h318v-1001h-277l-32 88h-6q-119 -106 -275 -106q-262 0 -324.5 185t-62.5 319z" />
    <glyph glyph-name="uni1F85" unicode="&#x1f85;" horiz-adv-x="1163" 
d="M683 -563q-115 0 -170.5 47t-55.5 168v239h217v-190q0 -57 34.5 -70.5t94.5 -9.5v-164q-58 -20 -120 -20zM788 1098l-180 53l166 463l305 -58zM483 1305q0 -73 60 -158l-150 -53q-80 74 -110.5 153.5t-30.5 128.5q0 104 72.5 179t216.5 92l71 -222q-108 -15 -118.5 -57.5
t-10.5 -62.5zM586 754q-78 0 -122 -69t-44 -198q0 -241 160 -241q86 0 159 80v344q-75 84 -153 84zM86 486q0 255 111.5 394.5t285.5 139.5q70 0 139.5 -28.5t116.5 -78.5l6 2v86h318v-1001h-277l-32 88h-6q-119 -106 -275 -106q-262 0 -324.5 185t-62.5 319z" />
    <glyph glyph-name="uni1F86" unicode="&#x1f86;" horiz-adv-x="1163" 
d="M683 -563q-115 0 -170.5 47t-55.5 168v239h217v-190q0 -57 34.5 -70.5t94.5 -9.5v-164q-58 -20 -120 -20zM573 1239q0 31 -23.5 49.5t-96.5 36.5l53 158q133 -8 201.5 -61.5t68.5 -126.5t-61.5 -134t-184.5 -90l-41 86q84 38 84 82zM754 1493q-45 0 -121 31.5t-114.5 46
t-68.5 14.5t-64 -14.5t-85 -77.5l-117 63q47 133 120 191.5t127 58.5q77 0 186 -47t147 -47q37 0 66.5 16.5t74.5 67.5l115 -61q-84 -242 -266 -242zM586 754q-78 0 -122 -69t-44 -198q0 -241 160 -241q86 0 159 80v344q-75 84 -153 84zM86 486q0 255 111.5 394.5
t285.5 139.5q70 0 139.5 -28.5t116.5 -78.5l6 2v86h318v-1001h-277l-32 88h-6q-119 -106 -275 -106q-262 0 -324.5 185t-62.5 319z" />
    <glyph glyph-name="uni1F87" unicode="&#x1f87;" horiz-adv-x="1163" 
d="M683 -563q-115 0 -170.5 47t-55.5 168v239h217v-190q0 -57 34.5 -70.5t94.5 -9.5v-164q-58 -20 -120 -20zM643 1241q0 -43 82 -78l-35 -88q-133 23 -194.5 80t-57.5 132t70.5 131.5t200.5 62.5l49 -154q-70 -20 -92.5 -38.5t-22.5 -47.5zM758 1495q-47 0 -122 32t-114 46
t-69.5 14t-63.5 -14t-84 -78l-117 64q47 133 120.5 191t127.5 58q77 0 186 -47t146 -47t66.5 16.5t74.5 67.5l115 -61q-84 -242 -266 -242zM586 754q-78 0 -122 -69t-44 -198q0 -241 160 -241q86 0 159 80v344q-75 84 -153 84zM86 486q0 255 111.5 394.5t285.5 139.5
q70 0 139.5 -28.5t116.5 -78.5l6 2v86h318v-1001h-277l-32 88h-6q-119 -106 -275 -106q-262 0 -324.5 185t-62.5 319z" />
    <glyph glyph-name="uni1F88" unicode="&#x1f88;" horiz-adv-x="1964" 
d="M1743 -16q-86 0 -182.5 26t-96.5 264v725h308v-680q0 -66 27.5 -84t103.5 -20v-199q-74 -32 -160 -32zM-25 1087q0 39 -26.5 75t-110.5 50l99 220q135 -27 203.5 -97.5t68.5 -175.5q0 -49 -31 -127t-110 -153l-152 51q59 83 59 157zM700 1012q-4 -10 -15 -47t-33 -103
t-29 -96l-84 -250h325l-88 270q-4 8 -13 41t-30 95t-26 90h-7zM946 264h-489l-86 -264h-351l492 1333h391l492 -1333h-361z" />
    <glyph glyph-name="uni1F89" unicode="&#x1f89;" horiz-adv-x="1964" 
d="M1743 -16q-86 0 -182.5 26t-96.5 264v725h308v-680q0 -66 27.5 -84t103.5 -20v-199q-74 -32 -160 -32zM113 1089q0 -54 59 -143l-149 -53q-80 74 -112 153.5t-32 129.5q0 104 73 177.5t218 90.5l74 -221q-86 -14 -108.5 -47t-22.5 -87zM700 1012q-4 -10 -15 -47t-33 -103
t-29 -96l-84 -250h325l-88 270q-4 8 -13 41t-30 95t-26 90h-7zM946 264h-489l-86 -264h-351l492 1333h391l492 -1333h-361z" />
    <glyph glyph-name="uni1F8A" unicode="&#x1f8a;" horiz-adv-x="1964" 
d="M1743 -16q-86 0 -182.5 26t-96.5 264v725h308v-680q0 -66 27.5 -84t103.5 -20v-199q-74 -32 -160 -32zM-164 1391l303 57l166 -465l-180 -53zM-387 1106q0 53 -26.5 89t-112.5 50l98 219q135 -27 204.5 -98.5t69.5 -175.5q0 -47 -31.5 -126t-109.5 -153l-151 52
q59 90 59 143zM700 1012q-4 -10 -15 -47t-33 -103t-29 -96l-84 -250h325l-88 270q-4 8 -13 41t-30 95t-26 90h-7zM946 264h-489l-86 -264h-351l492 1333h391l492 -1333h-361z" />
    <glyph glyph-name="uni1F8B" unicode="&#x1f8b;" horiz-adv-x="1964" 
d="M1743 -16q-86 0 -182.5 26t-96.5 264v725h308v-680q0 -66 27.5 -84t103.5 -20v-199q-74 -32 -160 -32zM-139 1389l305 57l166 -463l-178 -53zM-264 1096q0 -55 59 -142l-151 -53q-80 74 -111 154t-31 129q0 104 73 178t216 90l74 -221q-84 -14 -106.5 -47t-22.5 -88z
M700 1012q-4 -10 -15 -47t-33 -103t-29 -96l-84 -250h325l-88 270q-4 8 -13 41t-30 95t-26 90h-7zM946 264h-489l-86 -264h-351l492 1333h391l492 -1333h-361z" />
    <glyph glyph-name="uni1F8C" unicode="&#x1f8c;" horiz-adv-x="1964" 
d="M1743 -16q-86 0 -182.5 26t-96.5 264v725h308v-680q0 -66 27.5 -84t103.5 -20v-199q-74 -32 -160 -32zM102 911l-180 54l168 462l301 -57zM-381 963q59 83 59 145q0 61 -30.5 93.5t-106.5 43.5l97 221q135 -29 204.5 -99.5t69.5 -174.5q0 -49 -31 -128t-110 -153z
M700 1012q-4 -10 -15 -47t-33 -103t-29 -96l-84 -250h325l-88 270q-4 8 -13 41t-30 95t-26 90h-7zM946 264h-489l-86 -264h-351l492 1333h391l492 -1333h-361z" />
    <glyph glyph-name="uni1F8D" unicode="&#x1f8d;" horiz-adv-x="1964" 
d="M1743 -16q-86 0 -182.5 26t-96.5 264v725h308v-680q0 -66 27.5 -84t103.5 -20v-199q-74 -32 -160 -32zM98 915l-180 54l166 463l305 -58zM-207 1122q0 -72 60 -157l-150 -54q-80 74 -110.5 154t-30.5 129q0 104 72.5 179t215.5 91l72 -221q-111 -15 -120 -57.5t-9 -63.5z
M700 1012q-4 -10 -15 -47t-33 -103t-29 -96l-84 -250h325l-88 270q-4 8 -13 41t-30 95t-26 90h-7zM946 264h-489l-86 -264h-351l492 1333h391l492 -1333h-361z" />
    <glyph glyph-name="uni1F8E" unicode="&#x1f8e;" horiz-adv-x="1964" 
d="M1743 -16q-86 0 -182.5 26t-96.5 264v725h308v-680q0 -66 27.5 -84t103.5 -20v-199q-74 -32 -160 -32zM-4 977q0 31 -23.5 49t-97.5 37l53 158q133 -8 202 -61.5t69 -126.5t-61.5 -134t-184.5 -90l-41 86q84 38 84 82zM176 1231q-46 0 -121 31.5t-114 46t-69 14.5
t-63.5 -14.5t-84.5 -77.5l-117 63q47 133 120 191.5t127 58.5q77 0 186 -47t146 -47t67 16.5t75 67.5l114 -61q-84 -242 -266 -242zM700 1012q-4 -10 -15 -47t-33 -103t-29 -96l-84 -250h325l-88 270q-4 8 -13 41t-30 95t-26 90h-7zM946 264h-489l-86 -264h-351l492 1333
h391l492 -1333h-361z" />
    <glyph glyph-name="uni1F8F" unicode="&#x1f8f;" horiz-adv-x="1964" 
d="M1743 -16q-86 0 -182.5 26t-96.5 264v725h308v-680q0 -66 27.5 -84t103.5 -20v-199q-74 -32 -160 -32zM63 977q0 -44 82 -78l-34 -88q-133 23 -194.5 80t-57.5 132t70.5 131t199.5 63l49 -154q-70 -20 -92.5 -38.5t-22.5 -47.5zM178 1231q-46 0 -121 31.5t-114 46
t-70 14.5t-63.5 -14.5t-83.5 -77.5l-117 63q47 133 120 191.5t127 58.5q77 0 186 -47t147 -47q37 0 66.5 16.5t74.5 67.5l114 -61q-84 -242 -266 -242zM700 1012q-4 -10 -15 -47t-33 -103t-29 -96l-84 -250h325l-88 270q-4 8 -13 41t-30 95t-26 90h-7zM946 264h-489
l-86 -264h-351l492 1333h391l492 -1333h-361z" />
    <glyph glyph-name="uni1F90" unicode="&#x1f90;" horiz-adv-x="1146" 
d="M689 -563q-115 0 -170.5 47.5t-55.5 167.5v239h217v-190q0 -57 35 -70.5t94 -9.5v-164q-58 -20 -120 -20zM469 1307q0 39 -26.5 74.5t-110.5 50.5l98 219q135 -27 203.5 -97.5t68.5 -175.5q0 -49 -30.5 -126.5t-110.5 -153.5l-151 51q59 83 59 158zM700 1020
q357 0 357 -406v-614h-324v553q0 190 -143 190q-122 0 -156 -118q-12 -54 -12 -93v-532h-322v999h322v-104h8q51 59 128 92t142 33z" />
    <glyph glyph-name="uni1F91" unicode="&#x1f91;" horiz-adv-x="1146" 
d="M467 -348v239h217v-190q0 -57 35 -70.5t94 -9.5v-164q-58 -20 -120 -20q-115 0 -170.5 47.5t-55.5 167.5zM596 1294q0 -52 59 -145l-149 -53q-80 74 -112 153.5t-32 128.5q0 104 73 178t218 91l74 -222q-86 -14 -108.5 -46.5t-22.5 -84.5zM700 1020q357 0 357 -406v-614
h-324v553q0 190 -143 190q-122 0 -156 -118q-12 -54 -12 -93v-532h-322v999h322v-104h8q51 59 128 92t142 33z" />
    <glyph glyph-name="uni1F92" unicode="&#x1f92;" horiz-adv-x="1146" 
d="M467 -348v239h217v-190q0 -57 35 -70.5t94 -9.5v-164q-58 -20 -120 -20q-115 0 -170.5 47.5t-55.5 167.5zM471 1589l303 58l166 -465l-180 -54zM248 1305q0 53 -26.5 89t-112.5 50l98 219q135 -27 204.5 -98.5t69.5 -175.5q0 -47 -31.5 -126t-109.5 -153l-152 51
q60 91 60 144zM700 1020q357 0 357 -406v-614h-324v553q0 190 -143 190q-122 0 -156 -118q-12 -54 -12 -93v-532h-322v999h322v-104h8q51 59 128 92t142 33z" />
    <glyph glyph-name="uni1F93" unicode="&#x1f93;" horiz-adv-x="1146" 
d="M467 -348v239h217v-190q0 -57 35 -70.5t94 -9.5v-164q-58 -20 -120 -20q-115 0 -170.5 47.5t-55.5 167.5zM475 1589l305 58l166 -463l-178 -54zM350 1313q0 -73 60 -158l-152 -53q-80 74 -110.5 153.5t-30.5 128.5q0 104 72.5 178t216.5 91l73 -221q-84 -14 -106.5 -47
t-22.5 -72zM700 1020q357 0 357 -406v-614h-324v553q0 190 -143 190q-122 0 -156 -118q-12 -54 -12 -93v-532h-322v999h322v-104h8q51 59 128 92t142 33z" />
    </font>
</defs>
</svg>
