<?xml version="1.0" standalone="no"?>
<!DOCTYPE svg PUBLIC "-//W3C//DTD SVG 1.1//EN" "http://www.w3.org/Graphics/SVG/1.1/DTD/svg11.dtd" >
<svg xmlns="http://www.w3.org/2000/svg">
<metadata>
Created by FontPrep 20130207 at Thu May  1 17:47:28 2014
 By Vitaly Mineev
Copyright (c) 2001, 2005 Parachute :, www.parachute.gr.  All rights reserved.
</metadata>
<defs>
<font id="a334a373ca7c9e7fe5cdd11b1fa261bd" horiz-adv-x='1024' >
  <font-face 
    font-family="PFHighwaySansPro-Regular"
    font-weight="400"
    font-stretch="normal"
    units-per-em="2048"
    panose-1="2 0 5 0 0 0 0 2 0 4"
    ascent="1536"
    descent="-512"
    x-height="999"
    cap-height="1333"
    bbox="-713 -514 3604 1870"
    underline-thickness="102"
    underline-position="-102"
    unicode-range="U+0020-FB05"
  />
<missing-glyph horiz-adv-x="905" 
d="M795 211v1014l-279 -508zM111 211l276 506l-276 506v-1012zM731 1323h-557l279 -506zM731 111l-278 505l-279 -505h557zM0 1434h905v-1434h-905v1434z" />
    <glyph glyph-name="fj" unicode="fj" horiz-adv-x="958" 
d="M365 1110v-111h294l181 41v-1036q0 -203 -79 -297t-296 -98l-12 147q134 22 171.5 71t37.5 171v858h-297v-856h-183v856h-129v143h129v144q0 134 87.5 202t234.5 68q76 0 147.5 -18.5t106.5 -36.5l-35 -141q-132 28 -200 28q-69 0 -113.5 -28.5t-44.5 -106.5z" />
    <glyph glyph-name="ffj" unicode="ffj" horiz-adv-x="1427" 
d="M515 1245q-59 0 -104.5 -28.5t-45.5 -106.5v-111h299v179q0 27 4 51q-94 16 -153 16zM184 1141q0 272 343 272q91 0 212 -43q88 80 205 80t188.5 -18.5t106.5 -36.5l-35 -142q-136 29 -202 29t-112 -28.5t-46 -106.5v-148h280l185 41v-1036q0 -203 -79 -297t-296 -98
l-12 147q136 23 173.5 71.5t37.5 170.5v858h-289v-856h-180v856h-299v-856h-181v856h-129v143h129v142z" />
    <glyph glyph-name="ff" unicode="ff" horiz-adv-x="1118" 
d="M518 1245q-58 0 -102.5 -30.5t-44.5 -108.5v-107h299v230q-94 16 -152 16zM924 1450q58 0 131 -10l-6 -148q-25 2 -28 2h-38q-66 0 -99.5 -20.5t-33.5 -83.5v-191h199v-143h-199v-856h-180v856h-299v-856h-183v856h-127v143h127v140q0 135 89 204.5t216 69.5t228 -37
q68 74 203 74z" />
    <glyph glyph-name="fi" unicode="fi" horiz-adv-x="960" 
d="M521 1245q-69 0 -114 -28.5t-45 -106.5v-111h293l189 41v-1040h-180v856h-302v-856h-180v856h-129v143h129v144q0 134 87.5 202t234.5 68q74 0 146.5 -18.5t105.5 -36.5l-35 -141q-131 28 -200 28z" />
    <glyph glyph-name="fl" unicode="fl" horiz-adv-x="1001" 
d="M883 0h-181v1212q-99 23 -170 23q-72 0 -116.5 -28.5t-44.5 -106.5v-101h186v-143h-186v-856h-181v856h-127v143h125v134q0 133 88 201.5t257 68.5q91 0 196 -41l154 68v-1430z" />
    <glyph glyph-name="ffi" unicode="ffi" horiz-adv-x="1454" 
d="M532 1245q-65 0 -110 -28.5t-45 -106.5v-111h297v162q0 35 6 66q-83 18 -148 18zM1009 1266q-155 0 -155 -136v-131h299l182 41v-1040h-176v856h-305v-856h-180v856h-299v-856h-180v856h-129v143h129v144q0 134 87.5 202t227.5 68t250 -51q84 72 235 72q76 0 147.5 -18.5
t106.5 -37.5l-35 -141q-142 29 -205 29z" />
    <glyph glyph-name="ffl" unicode="ffl" horiz-adv-x="1484" 
d="M531 1245q-66 0 -111 -28.5t-45 -106.5v-111h305v177q0 25 4 51q-87 18 -153 18zM1024 1278q-72 0 -117 -28.5t-45 -106.5v-144h189v-143h-189v-856h-182v856h-305v-856h-182v856h-127v143h127v144q0 134 87.5 202t221 68t252.5 -49q86 82 247 82q115 0 220 -41l153 68
v-1473h-180v1255q-98 23 -170 23z" />
    <glyph glyph-name="ft" unicode="ft" horiz-adv-x="1169" 
d="M702 262v594h-331v-856h-181v856h-129v143h129v152q0 133 67 193.5t187 60.5q65 0 129 -8l-4 -148q-16 2 -19 2h-44q-53 0 -94 -19.5t-41 -84.5v-148h334v238l169 70v-308h211v-143h-211v-571q0 -80 26 -110t82 -30t134 13l14 -140q-95 -34 -212 -34t-166.5 71.5
t-49.5 206.5z" />
    <glyph glyph-name=".notdef" horiz-adv-x="905" 
d="M795 211v1014l-279 -508zM111 211l276 506l-276 506v-1012zM731 1323h-557l279 -506zM731 111l-278 505l-279 -505h557zM0 1434h905v-1434h-905v1434z" />
    <glyph glyph-name=".null" horiz-adv-x="0" 
 />
    <glyph glyph-name="nonmarkingreturn" horiz-adv-x="681" 
 />
    <glyph glyph-name="space" unicode=" " horiz-adv-x="487" 
 />
    <glyph glyph-name="exclam" unicode="!" horiz-adv-x="542" 
d="M282.5 -18q-49.5 0 -83 33.5t-33.5 88.5t38 85t84 30t77.5 -34.5t31.5 -84.5t-32.5 -84t-82 -34zM190 1333h187v-514l-35 -452h-117l-35 450v516z" />
    <glyph glyph-name="quotedbl" unicode="&#x22;" horiz-adv-x="772" 
d="M481 879l-39 454h189l-39 -454h-111zM184 879l-39 454h187l-39 -454h-109z" />
    <glyph glyph-name="numbersign" unicode="#" horiz-adv-x="1265" 
d="M457 504h307l57 342h-305zM979 840l-55 -330h229l-27 -150h-229l-66 -360h-161l61 360h-297l-61 -360h-166l63 360h-227l25 150h229l57 330h-229l27 149h229l59 344h164l-59 -344h299l57 344h164l-57 -344h229l-27 -149h-231z" />
    <glyph glyph-name="dollar" unicode="$" horiz-adv-x="1265" 
d="M625 174q129 0 203.5 49t74.5 141t-61.5 137.5t-177.5 82.5t-198.5 67.5t-172.5 95t-90 230.5q0 135 92 227t240 117v195h163v-191q203 -18 346 -141l-108 -129q-139 113 -318 112q-115 0 -173 -51t-58 -129q0 -109 123 -156.5t236.5 -83.5t228.5 -110t115 -258
q0 -156 -99.5 -252t-292.5 -113v-192h-163v192q-214 24 -367 170l115 129q152 -139 342 -139z" />
    <glyph glyph-name="percent" unicode="%" horiz-adv-x="1757" 
d="M375 -43l850 1425h153l-852 -1425h-151zM417.5 1210q-110.5 0 -165.5 -77.5t-55 -203.5t57.5 -206t190.5 -80t164.5 111.5t31.5 171.5q0 129 -56.5 206.5t-167 77.5zM140.5 625q-99.5 117 -99.5 300t99 302t274 119t281 -117t106 -302t-105.5 -302t-280.5 -117
t-274.5 117zM1333.5 690q-110.5 0 -166 -77.5t-55.5 -202.5t57 -206t191.5 -81t165 112.5t30.5 172.5q0 125 -56 203.5t-166.5 78.5zM956 406q0 184 100 301.5t275 117.5t280 -116.5t105 -302.5q0 -185 -105 -301.5t-281 -116.5q-174 0 -274 117t-100 301z" />
    <glyph glyph-name="ampersand" unicode="&#x26;" horiz-adv-x="1513" 
d="M694 1151q0 51 -29.5 95t-101.5 44t-93 -49t-21 -105t29.5 -102.5t78.5 -93.5q137 88 137 211zM649 569q0 37 -26.5 79t-94.5 112q-86 -55 -143 -150.5t-57 -189.5q0 -191 119 -245t220 -54q185 0 276 122t91 302q0 48 -8 94q-86 -6 -158.5 -59.5t-138.5 -180.5l-115 56
q35 77 35 114zM1204 535q0 -274 -155.5 -417t-391.5 -143t-368.5 130.5t-132.5 316.5q0 127 71.5 244.5t200.5 205.5q-145 129 -145 275q0 106 73.5 192t214.5 86q193 0 239 -103.5t46 -163.5q0 -103 -60.5 -186.5t-142.5 -140.5q41 -43 71 -80.5t40 -91.5q119 125 322 125
t337 -43l-26 -129q-100 23 -199 29q6 -53 6 -106z" />
    <glyph glyph-name="quotesingle" unicode="'" horiz-adv-x="489" 
d="M190 879l-38 454h186l-37 -454h-111z" />
    <glyph glyph-name="parenleft" unicode="(" horiz-adv-x="651" 
d="M444 -262q-156 156 -261 383.5t-105 464.5t102.5 465t263.5 395l113 -90q-128 -152 -210.5 -360t-82.5 -413q0 -206 82 -403.5t207 -349.5z" />
    <glyph glyph-name="parenright" unicode=")" horiz-adv-x="651" 
d="M381 592q0 296 -114.5 491t-178.5 273q2 2 18.5 15t37 29.5t37 30t20.5 15.5q253 -260 310.5 -498.5t57.5 -363.5q0 -234 -101.5 -456.5t-266.5 -389.5q-2 2 -43.5 36t-63.5 56q125 152 206 349.5t81 412.5z" />
    <glyph glyph-name="asterisk" unicode="*" horiz-adv-x="929" 
d="M522 1085q46 19 228 97l43 -138l-238 -61l160 -190q-29 -23 -57.5 -43.5t-57.5 -42.5q-33 53 -64.5 107t-66.5 108l-129 -217l-115 88l158 190l-233 61l40 138l230 -97l-21 248h142z" />
    <glyph glyph-name="plus" unicode="+" horiz-adv-x="1265" 
d="M713 217h-164v342h-344v156h344v354h164v-354h346v-156h-346v-342z" />
    <glyph glyph-name="comma" unicode="," horiz-adv-x="450" 
d="M88 98q0 55 35 90t89 35t92 -44t38 -130t-53 -157.5t-133 -118.5l-52 63q98 70 105 156q-49 0 -85 25.5t-36 80.5z" />
    <glyph glyph-name="hyphen" unicode="-" horiz-adv-x="716" 
d="M111 721h497v-176h-497v176z" />
    <glyph glyph-name="period" unicode="." horiz-adv-x="434" 
d="M215 -18q-49 0 -84 33.5t-35 87t36 87t84 33.5t82 -34.5t34 -86t-34 -86t-83 -34.5z" />
    <glyph glyph-name="slash" unicode="/" horiz-adv-x="880" 
d="M-12 -162l725 1651h172l-725 -1651h-172z" />
    <glyph glyph-name="zero" unicode="0" horiz-adv-x="1265" 
d="M593.5 1182q-135.5 0 -231.5 -139.5t-96 -372.5t94.5 -376.5t275.5 -143.5t277.5 143.5t96.5 372.5q0 362 -140.5 439t-276 77zM72 664q0 303 150 496.5t410 193.5t416 -190.5t156 -496t-154 -496.5t-417 -191t-412 190.5t-149 493.5z" />
    <glyph glyph-name="one" unicode="1" horiz-adv-x="1265" 
d="M580 1063h-174v123q96 8 139 43.5t63 103.5h160v-1333h-188v1063z" />
    <glyph glyph-name="two" unicode="2" horiz-adv-x="1265" 
d="M637 1354q211 0 333 -94.5t122 -260.5q0 -133 -74.5 -224t-268.5 -201t-272.5 -194t-114.5 -214h740v-166h-965q21 362 224 508t287 196q149 88 201 146t52 144q0 87 -70.5 139.5t-199.5 52.5q-177 0 -346 -129l-105 135q195 162 457 162z" />
    <glyph glyph-name="three" unicode="3" horiz-adv-x="1265" 
d="M1053 1001q0 -94 -52.5 -176t-162.5 -129v-4q118 -30 181.5 -116t63.5 -184q0 -191 -143.5 -301.5t-368.5 -110.5q-287 0 -471 188l125 121q146 -142 356 -142t260 91.5t50 178t-77 144t-198 57.5h-102v150h102q100 0 171 62t71 149t-66.5 147t-223.5 60t-302 -117
l-108 129q186 156 438 156q204 0 330.5 -97t126.5 -256z" />
    <glyph glyph-name="four" unicode="4" horiz-adv-x="1265" 
d="M829 457v641q-135 -162 -268 -322t-268 -319h536zM1006 1333v-876h178v-162h-178v-295h-177v295h-751v158l733 880h195z" />
    <glyph glyph-name="five" unicode="5" horiz-adv-x="1265" 
d="M358 786q141 74 336 74t319 -116t124 -300q0 -227 -146 -345.5t-395 -118.5t-463 124l82 144q206 -105 376 -105q171 0 264 75t93 207t-83 200.5t-232 68.5t-283 -90l-176 68l47 661h826v-164h-666l-27 -381z" />
    <glyph glyph-name="six" unicode="6" horiz-adv-x="1265" 
d="M961 414q0 131 -88.5 194.5t-234.5 63.5t-240.5 -72t-94.5 -185q0 -114 86 -196t238 -82t243 73t91 204zM322 694q134 131 346 131q211 0 345 -103.5t134 -306.5t-145 -319t-377 -116t-370 132.5t-138 395.5q0 311 195.5 565t633.5 279v-164q-252 -16 -405.5 -133
t-223.5 -361h5z" />
    <glyph glyph-name="seven" unicode="7" horiz-adv-x="1265" 
d="M141 1167v166h953l2 -174q-328 -348 -397.5 -666.5t-71.5 -492.5h-189q4 310 122 623t335 544h-754z" />
    <glyph glyph-name="eight" unicode="8" horiz-adv-x="1265" 
d="M985 381q0 121 -91 185.5t-255 64.5t-256 -64.5t-92 -184.5t93 -186.5t250 -66.5t254 65.5t97 186.5zM924 983q0 153 -105.5 187t-181.5 34q-145 0 -216 -62.5t-71 -156.5t81 -150.5t210 -56.5t206 56.5t77 148.5zM1169 381q0 -186 -141 -293.5t-396 -107.5t-390.5 104
t-135.5 297q0 107 64 198t197 136v2q-201 73 -201 270q0 174 131.5 270.5t340.5 96.5t340.5 -95.5t131.5 -269.5q0 -125 -69.5 -187.5t-135.5 -84.5v-2q135 -39 199.5 -132t64.5 -202z" />
    <glyph glyph-name="nine" unicode="9" horiz-adv-x="1265" 
d="M632 1190q-155 0 -247 -71.5t-92 -202.5t90.5 -195t236.5 -64t240 71t94 184t-83.5 195.5t-238.5 82.5zM936 637q-133 -133 -346 -133t-346 101t-133 308t147.5 323t376.5 116t368.5 -131t139.5 -400q0 -129 -41 -272t-137.5 -266t-256 -207t-397.5 -96v161
q252 14 404.5 131t224.5 361z" />
    <glyph glyph-name="colon" unicode=":" horiz-adv-x="471" 
d="M237.5 625q-49.5 0 -84 34.5t-34.5 86.5t35.5 86t85.5 34t82 -36t32 -86t-33.5 -84.5t-83 -34.5zM237.5 -18q-49.5 0 -84 33.5t-34.5 87t35.5 87t85.5 33.5t82 -34.5t32 -86t-33.5 -86t-83 -34.5z" />
    <glyph glyph-name="semicolon" unicode=";" horiz-adv-x="485" 
d="M119 102.5q0 53.5 34.5 88t88.5 34.5t92.5 -44t38.5 -131t-53.5 -158.5t-133.5 -120.5l-51 63q98 71 105 158q-49 -4 -85 26.5t-36 84zM249 625q-50 0 -86 34.5t-36 86.5t37 86t86 34t84 -34.5t35 -86t-35 -86t-85 -34.5z" />
    <glyph glyph-name="less" unicode="&#x3c;" horiz-adv-x="1265" 
d="M428 655q481 -253 602 -313v-178l-805 420v139q80 39 186.5 94t217 111.5t216 111t185.5 93.5v-179z" />
    <glyph glyph-name="equal" unicode="=" horiz-adv-x="1265" 
d="M1049 926v-160h-836v160h836zM1049 524v-162h-836v162h836z" />
    <glyph glyph-name="greater" unicode="&#x3e;" horiz-adv-x="1265" 
d="M227 1135l807 -410v-141l-807 -420v180l604 313l-604 299v179z" />
    <glyph glyph-name="question" unicode="?" horiz-adv-x="1017" 
d="M504 -14q-49 0 -82 30.5t-33 85.5t38 84t84 29t78 -34t32 -83t-34 -80.5t-83 -31.5zM816.5 1249q109.5 -101 109.5 -254q0 -109 -60.5 -181.5t-103.5 -113.5t-104 -120t-64 -218h-176q0 206 130 352.5t158.5 194t28.5 85.5q0 78 -57 134t-172 56q-116 0 -177.5 -73
t-76.5 -163h-180q12 184 140 293t311 109q184 0 293.5 -101z" />
    <glyph glyph-name="at" unicode="@" horiz-adv-x="1728" 
d="M810 401q62 0 109.5 27t69.5 64l27 337q-25 35 -67 62t-90 27q-91 0 -143 -89.5t-52 -203.5q0 -115 42 -169.5t104 -54.5zM139 670q0 156 57.5 289t159 231t240.5 153.5t297 55.5q314 0 502 -173t188 -456q0 -227 -114 -364.5t-275 -137.5q-57 0 -111.5 27t-72.5 78h-4
q-99 -99 -218 -99t-196.5 83.5t-77.5 220.5q0 239 98 352.5t219 113.5q122 0 199 -77h2l6 63h138l-46 -530v-15q0 -43 22 -67.5t64 -24.5t84.5 28t95 106t52.5 221q0 257 -160.5 395.5t-388.5 138.5q-267 0 -448 -175t-181 -447q0 -273 174 -443t455 -170q168 0 263 32
t149 54q26 -76 41 -115q-229 -86 -420 -86q-362 0 -577.5 199.5t-215.5 538.5z" />
    <glyph glyph-name="A" unicode="A" horiz-adv-x="1300" 
d="M905 467q-61 168 -124.5 325.5t-123.5 340.5h-6l-248 -666h502zM1079 0q-76 200 -114 305h-619q-52 -141 -115 -305h-198l520 1333h209q247 -642 520 -1333h-203z" />
    <glyph glyph-name="B" unicode="B" horiz-adv-x="1234" 
d="M319 629v-459h365q131 0 194.5 61t63.5 171t-74.5 168.5t-185.5 58.5h-363zM319 1165v-372h361q98 0 154.5 54t56.5 137t-51.5 132t-151.5 49h-369zM1137 399q0 -193 -118 -296t-331 -103h-553v1333h561q172 0 278.5 -86t106.5 -246q0 -92 -52 -168.5t-136 -107.5v-6
q102 -25 173 -111t71 -209z" />
    <glyph glyph-name="C" unicode="C" horiz-adv-x="1157" 
d="M1104 186q-167 -206 -429 -206q-269 0 -426 184t-157 502t158 504t422 186t424 -193l-133 -127q-129 144 -302 144t-272.5 -140t-99.5 -369t98.5 -373t274.5 -144t309 151z" />
    <glyph glyph-name="D" unicode="D" horiz-adv-x="1273" 
d="M334 1163v-993h162q242 0 360.5 134t118.5 362q0 355 -178.5 426t-298.5 71h-164zM145 0v1333h359q463 0 564 -242.5t101 -504t-188 -424t-483 -162.5h-353z" />
    <glyph glyph-name="E" unicode="E" horiz-adv-x="1069" 
d="M131 1333h879v-170h-688v-370h487v-170h-487v-453h712v-170h-903v1333z" />
    <glyph glyph-name="F" unicode="F" horiz-adv-x="1036" 
d="M141 1333h883v-172h-694v-387h487v-170h-487v-604h-189v1333z" />
    <glyph glyph-name="G" unicode="G" horiz-adv-x="1239" 
d="M279 666q0 -369 142 -442.5t238 -73.5q179 0 249.5 111.5t70.5 248.5h-219v160h411v-138q0 -257 -138 -404.5t-393 -147.5t-405.5 186.5t-150.5 500.5t155.5 499.5t422.5 185.5q268 0 425 -195l-137 -127q-127 146 -302 146t-272 -141t-97 -369z" />
    <glyph glyph-name="H" unicode="H" horiz-adv-x="1294" 
d="M973 608h-651v-608h-193v1333h193v-553h651v553h190v-1333h-190v608z" />
    <glyph glyph-name="I" unicode="I" horiz-adv-x="520" 
d="M164 1333h192v-1333h-192v1333z" />
    <glyph glyph-name="J" unicode="J" horiz-adv-x="1148" 
d="M1001 524q0 -274 -117.5 -409t-363.5 -135q-195 0 -305.5 86t-163.5 243l180 66q41 -109 109 -165t182 -56q158 0 223.5 99t65.5 284v796h190v-809z" />
    <glyph glyph-name="K" unicode="K" horiz-adv-x="1210" 
d="M319 0h-190v1333h190v-704h7l161 211q31 39 83.5 106.5t156 199.5t143.5 187h220q-155 -185 -375 -471q25 -47 62.5 -115.5t80.5 -149.5t89 -166t89 -166t80 -149.5t62 -115.5h-217q-18 35 -82 153.5t-105 197.5t-79 149.5t-66.5 126t-40.5 78.5q-177 -228 -269 -338
v-367z" />
    <glyph glyph-name="L" unicode="L" horiz-adv-x="1013" 
d="M129 1333h190v-1161h680v-172h-870v1333z" />
    <glyph glyph-name="M" unicode="M" horiz-adv-x="1484" 
d="M1159 924h-4l-147 -332l-271 -584l-254 563l-155 355h-6v-926h-187v1333h197l409 -921h9l176 401l233 520h187v-1333h-187v924z" />
    <glyph glyph-name="N" unicode="N" horiz-adv-x="1275" 
d="M315 1010v-1010h-188v1333h184q41 -63 98.5 -150t118 -179.5t119 -178.5t98.5 -149l213 -338h7v995h186v-1333h-172q-29 41 -110 165t-181.5 275.5t-226.5 350.5l-139 219h-7z" />
    <glyph glyph-name="O" unicode="O" horiz-adv-x="1318" 
d="M287 671q0 -226 96 -372.5t276 -146.5t275.5 148t95.5 372q0 225 -95.5 367.5t-276 142.5t-276 -142.5t-95.5 -368.5zM92 662q0 305 150.5 498.5t412.5 193.5t416 -189.5t154 -499.5t-154.5 -497.5t-415.5 -187.5q-263 0 -413 188.5t-150 493.5z" />
    <glyph glyph-name="P" unicode="P" horiz-adv-x="1146" 
d="M317 1165v-493h361q119 2 184.5 64.5t65.5 183t-71 183t-183 62.5h-357zM998.5 611q-123.5 -107 -328.5 -107h-353v-504h-186v1333h553q197 0 317.5 -105t120.5 -307q0 -203 -123.5 -310z" />
    <glyph glyph-name="Q" unicode="Q" horiz-adv-x="1323" 
d="M915 268q123 141 123 386t-95 386.5t-276 141.5t-276.5 -140t-95.5 -437t137 -376t221 -79t135 22l-90 137l131 88zM1233 670q0 -361 -211 -555l84 -129q-6 -4 -25.5 -16.5t-42 -28t-27.5 -18.5l-40 -27l-86 131q-109 -45 -229 -45t-224 48t-218 185t-114 451t154 501
t413 187t412.5 -186t153.5 -498z" />
    <glyph glyph-name="R" unicode="R" horiz-adv-x="1212" 
d="M317 1165v-485h365q121 0 187.5 64.5t66.5 181t-69.5 178t-184.5 61.5h-365zM1128 928q0 -154 -72.5 -251t-201.5 -136l260 -541h-209l-235 516h-353v-516h-186v1333h561q307 0 371.5 -150.5t64.5 -254.5z" />
    <glyph glyph-name="S" unicode="S" horiz-adv-x="1116" 
d="M868 356q0 135 -121.5 177t-206.5 69t-164 57.5t-162 96t-83 230.5t129 266.5t324 101.5q251 0 434 -150l-113 -137q-147 117 -338 117q-121 0 -182 -54.5t-61 -134.5q0 -111 104 -151.5t248.5 -86.5t266.5 -122.5t122 -264.5t-129 -289t-371 -101q-141 0 -263 48
t-208 130l121 137q166 -145 360 -145q293 0 293 206z" />
    <glyph glyph-name="T" unicode="T" horiz-adv-x="1052" 
d="M625 0h-187v1163h-401v170h991v-170h-403v-1163z" />
    <glyph glyph-name="U" unicode="U" horiz-adv-x="1284" 
d="M643 -20q-244 0 -378 144t-134 433v776h191v-768q0 -193 80.5 -302t245.5 -109t244 106.5t79 292.5v780h192v-778q0 -291 -138 -433t-382 -142z" />
    <glyph glyph-name="V" unicode="V" horiz-adv-x="1249" 
d="M524 0l-473 1333h205q10 -33 30.5 -92t45 -133t53.5 -157t70.5 -208.5t79.5 -228.5l96 -291h6q10 31 23.5 73t29 88t30.5 95t32 96l254 758h202l-469 -1333h-215z" />
    <glyph glyph-name="W" unicode="W" horiz-adv-x="1589" 
d="M246 1333q206 -1049 207 -1054h6l67 290q14 61 40 166t52.5 216.5t51 216t39.5 165.5h184q17 -66 44.5 -181.5t49 -203.5t45.5 -194t47 -193l64 -282h4l57 282q4 25 16.5 85.5t27 137t31.5 161.5t32.5 163t27 138.5t17.5 86.5h190q-8 -39 -30.5 -142.5t-51 -238.5
t-61.5 -285.5t-62.5 -285.5t-52 -238.5t-31.5 -142.5h-215l-178 750q-10 57 -35.5 157.5t-27.5 112.5h-4l-62 -266q-10 -41 -25.5 -101.5t-36.5 -146t-60 -251t-62 -255.5h-211q-40 165 -145.5 666.5t-145.5 666.5h197z" />
    <glyph glyph-name="X" unicode="X" horiz-adv-x="1157" 
d="M575 528l-307 -528h-215l424 684l-397 649h219l281 -487l284 487h211l-397 -645l422 -688h-217z" />
    <glyph glyph-name="Y" unicode="Y" horiz-adv-x="1187" 
d="M592 633q99 193 369 700h210l-485 -866v-467h-188v467l-486 866h215q85 -167 189 -362q105 -195 176 -338z" />
    <glyph glyph-name="Z" unicode="Z" horiz-adv-x="1150" 
d="M115 1163v170h972v-166l-788 -997h786v-170h-1009v164l788 999h-749z" />
    <glyph glyph-name="bracketleft" unicode="[" horiz-adv-x="661" 
d="M139 1434h434v-156h-251v-1356h251v-158h-434v1670z" />
    <glyph glyph-name="backslash" unicode="\" horiz-adv-x="886" 
d="M713 -162l-725 1651h172l725 -1651h-172z" />
    <glyph glyph-name="bracketright" unicode="]" horiz-adv-x="675" 
d="M567 -236h-434v158h252v1356h-252v156h434v-1670z" />
    <glyph glyph-name="asciicircum" unicode="^" horiz-adv-x="1087" 
d="M547 1169l-254 -491h-174l358 655h144l356 -655h-178z" />
    <glyph glyph-name="underscore" unicode="_" horiz-adv-x="1019" 
d="M0 -141h1020v-133h-1020v133z" />
    <glyph glyph-name="grave" unicode="`" horiz-adv-x="1003" 
d="M283 1466l196 37l150 -342l-97 -33z" />
    <glyph glyph-name="a" unicode="a" horiz-adv-x="999" 
d="M250 305q0 -88 52 -135t151 -47q141 8 256 125v172q-118 69 -226 69t-170.5 -48t-62.5 -136zM513 1020q179 0 276.5 -84t97.5 -250v-686h-178v94h-4q-124 -114 -299 -114q-137 0 -236.5 76.5t-99.5 231.5t104.5 245t261.5 90q156 0 273 -62v107q0 201 -217 200
q-129 0 -267 -65l-55 137q164 80 343 80z" />
    <glyph glyph-name="b" unicode="b" horiz-adv-x="1050" 
d="M530 864q-72 0 -135 -41t-102 -88v-473q41 -51 102.5 -91t136.5 -40q106 0 173 97.5t71 260.5q0 375 -246 375zM297 901q135 117 288 117t262 -121t109 -378t-112 -398t-273 -141q-162 0 -274 112h-4v-92h-180v1352l180 75v-526h4z" />
    <glyph glyph-name="c" unicode="c" horiz-adv-x="917" 
d="M868 137q-140 -157 -332 -157q-202 0 -323 128t-121 374q0 245 119.5 390.5t321.5 145.5t331 -146l-114 -116q-102 106 -222 106t-187 -107.5t-67 -267.5q0 -159 67 -254.5t187 -95.5t226 109z" />
    <glyph glyph-name="d" unicode="d" horiz-adv-x="1046" 
d="M270 481q0 -350 252 -350q125 0 236 131v473q-104 129 -228 129q-125 0 -192.5 -103.5t-67.5 -279.5zM90 472q0 263 122.5 404.5t291.5 141.5q135 0 246 -100h6v434l180 75v-1427h-180v94h-4q-117 -114 -283 -114q-262 0 -320.5 177t-58.5 315z" />
    <glyph glyph-name="e" unicode="e" horiz-adv-x="1021" 
d="M770 569q0 128 -62.5 212.5t-173.5 84.5q-112 0 -182.5 -80.5t-81.5 -216.5h500zM874 109q-140 -129 -344 -129t-322 133t-118 373t122 386t319 146t307 -136.5t110 -373.5v-72h-678q10 -150 87 -227.5t198 -77.5t225 90z" />
    <glyph glyph-name="f" unicode="f" horiz-adv-x="620" 
d="M433 1421q105 0 153 -10l-4 -145q-25 2 -30 2h-50q-61 0 -95 -20.5t-34 -84.5v-164h209v-143h-209v-856h-183v856h-127v143h127v187q0 123 69 179t174 56z" />
    <glyph glyph-name="g" unicode="g" horiz-adv-x="1050" 
d="M516 866q-106 0 -173 -97t-71 -261q0 -369 248 -369q72 0 134.5 42t103.5 89v463q-107 133 -242 133zM756 999h182v-925q0 -182 -99.5 -315.5t-328.5 -188.5l-55 149q257 80 281 178.5t24 137.5v69h-6q-78 -70 -144.5 -93t-140.5 -23q-166 0 -271.5 119t-105.5 373
t113.5 396t271.5 142t279 -113v94z" />
    <glyph glyph-name="h" unicode="h" horiz-adv-x="1026" 
d="M586 1018q342 0 342 -395v-623h-180v592q0 270 -218 270q-86 0 -161.5 -66.5t-75.5 -209.5v-586h-180v1352l180 75v-555h6q55 76 135 111t152 35z" />
    <glyph glyph-name="i" unicode="i" horiz-adv-x="493" 
d="M137 1271q0 46 32 77.5t78 31.5t78.5 -31.5t32.5 -77.5t-32.5 -79t-78.5 -33t-78 33t-32 79zM158 999h180v-999h-180v999z" />
    <glyph glyph-name="j" unicode="j" horiz-adv-x="495" 
d="M152 1271q0 46 31.5 77.5t77.5 31.5t78 -31.5t32 -77.5t-32 -79t-78 -33t-77.5 33t-31.5 79zM348 -16q0 -204 -77.5 -298t-297.5 -98l-12 150q135 22 172 69.5t37 169.5v1022h178v-1015z" />
    <glyph glyph-name="k" unicode="k" horiz-adv-x="940" 
d="M291 0h-178v1352l178 75v-888h4l358 458h217l-262 -323q102 -224 149.5 -330t89.5 -197.5t66 -146.5h-198q-18 43 -50 114.5t-82.5 189t-97.5 224.5l-194 -245v-283z" />
    <glyph glyph-name="l" unicode="l" horiz-adv-x="446" 
d="M133 0v1352l180 78v-1430h-180z" />
    <glyph glyph-name="m" unicode="m" horiz-adv-x="1581" 
d="M705 598q1 262 -179 262q-197 0 -217 -125t-20 -151v-584h-180v999h180v-129h6q53 80 128 113t146 33q203 0 273 -170q135 170 313 170t251 -102.5t73 -290.5v-623h-181v592q0 200 -68 234t-136 34t-124.5 -53t-74.5 -131q-12 -37 -12 -82v-594h-178v598z" />
    <glyph glyph-name="n" unicode="n" horiz-adv-x="1026" 
d="M745 592q-1 270 -203 270q-100 0 -175.5 -66.5t-75.5 -209.5v-586h-180v999h180v-131l6 -2q53 80 133 116t154 36q342 0 342 -395v-623h-181v592z" />
    <glyph glyph-name="o" unicode="o" horiz-adv-x="1075" 
d="M540 864q-124 0 -195 -101.5t-71 -266.5q0 -164 66 -263.5t191 -99.5t198.5 105t73.5 262q0 252 -98.5 308t-164.5 56zM92 496q0 241 126 381.5t323 140.5t319.5 -137t122.5 -377t-128 -382t-328 -142t-317.5 137.5t-117.5 378.5z" />
    <glyph glyph-name="p" unicode="p" horiz-adv-x="1050" 
d="M520 868q-123 0 -229 -131v-473q39 -53 101.5 -91t129.5 -38q123 0 188.5 94.5t65.5 272.5t-66.5 272t-189.5 94zM297 905q120 115 281 115t269.5 -127t108.5 -385t-119.5 -392t-275.5 -134t-266 106h-4v-412q-40 -16 -93 -40t-85 -37v1402h180v-96h4z" />
    <glyph glyph-name="q" unicode="q" horiz-adv-x="1046" 
d="M528 868q-116 0 -185 -100t-73 -264q0 -371 244 -371q72 0 136.5 41t105.5 88v471q-41 53 -102.5 94t-125.5 41zM92 490q0 251 114.5 389.5t275.5 138.5t270 -113h4v94h180v-1323l-180 -77v497h-4q-134 -116 -279 -116q-266 0 -323.5 186t-57.5 324z" />
    <glyph glyph-name="r" unicode="r" horiz-adv-x="743" 
d="M563 834q-244 0 -244 -267v-567h-180v999h180v-135h5q43 80 115.5 117t147.5 37t146 -25l-37 -174q-92 15 -133 15z" />
    <glyph glyph-name="s" unicode="s" horiz-adv-x="919" 
d="M321.5 834.5q-49.5 -35.5 -49.5 -86.5t43 -85.5t142 -63.5q197 -56 290 -127.5t93 -205.5t-109 -210t-295 -76q-187 0 -358 98l65 135q160 -88 304 -88t179.5 49t35.5 87q0 69 -56 106t-153 68q-182 57 -266.5 125.5t-84.5 186.5q0 117 96.5 194t279.5 77t327 -78
l-60 -137q-127 67 -251 67q-123 0 -172.5 -35.5z" />
    <glyph glyph-name="t" unicode="t" horiz-adv-x="679" 
d="M432 -16q-227 0 -227 245v625h-152v145h154v238q30 15 90 39t82 35v-312h209v-145h-209v-588q0 -70 26.5 -95.5t80.5 -25.5t132 13l17 -138q-92 -36 -203 -36z" />
    <glyph glyph-name="u" unicode="u" horiz-adv-x="1024" 
d="M287 406q-1 -265 197 -265q183 0 235 178q12 43 12 95v585h180v-999h-180v129h-6q-57 -80 -133 -114.5t-148 -34.5q-338 0 -338 380v639h181v-593z" />
    <glyph glyph-name="v" unicode="v" horiz-adv-x="956" 
d="M369 0q-31 88 -78 222t-97.5 277.5t-96.5 277.5t-77 222h187q16 -51 38.5 -123.5t47 -149.5t48.5 -149.5t35 -104.5t22.5 -68.5t24.5 -77.5t25.5 -78t16.5 -51h6l82 258q16 49 42 121.5t56 159.5t92 263h183q-79 -226 -197 -536t-172 -463h-188z" />
    <glyph glyph-name="w" unicode="w" horiz-adv-x="1325" 
d="M653 745l-51 -202l-145 -543h-166q-23 88 -59.5 222t-75.5 277.5t-75 277.5t-61 222h183l114 -471l60 -274h6q15 70 28 116t23 86t22 80t29 109.5t35.5 138t33.5 127t24 88.5h163l129 -489l58 -258h6l59 262q12 43 27.5 107.5t43 173.5t48.5 204h182q-25 -88 -61.5 -222
t-110.5 -399.5t-102 -377.5h-172q-30 113 -73.5 283.5t-76.5 294.5l-41 167h-4z" />
    <glyph glyph-name="x" unicode="x" horiz-adv-x="892" 
d="M651 0l-211 389l-213 -389h-198l313 516l-289 483h201l190 -354l193 354h199l-293 -477q47 -71 120.5 -196t106.5 -179.5t56.5 -94.5t31.5 -52h-207z" />
    <glyph glyph-name="y" unicode="y" horiz-adv-x="978" 
d="M948 999q-412 -1137 -504 -1384h-170l132 367q-34 85 -93 246t-97 260.5t-71.5 193.5t-64.5 176t-53 141h188l174 -503q17 -59 39.5 -125t34.5 -105t22 -65h7q8 27 22 65.5t27.5 81.5t27 82t21.5 66l178 503h180z" />
    <glyph glyph-name="z" unicode="z" horiz-adv-x="940" 
d="M292 150q1 0 1 -3h559v-147h-776v141l555 705q0 4 -2 6h-516v147h737v-141l-559 -706q0 -2 1 -2z" />
    <glyph glyph-name="braceleft" unicode="{" horiz-adv-x="679" 
d="M244 895v240q0 129 62.5 205.5t201.5 76.5h106v-143h-82q-68 0 -91 -51.5t-23 -135.5v-200q0 -119 -44 -191.5t-110 -97.5v-8q66 -23 110 -93.5t44 -199.5v-203q0 -82 23.5 -134t90.5 -52h82v-141h-108q-143 0 -202.5 79.5t-59.5 212.5v238q0 149 -50.5 191t-91.5 47v118
q142 13 142 242z" />
    <glyph glyph-name="bar" unicode="|" horiz-adv-x="507" 
d="M182 -252v1784h166v-1784h-166z" />
    <glyph glyph-name="braceright" unicode="}" horiz-adv-x="679" 
d="M106 -233v141h82q66 0 90.5 52t24.5 134v203q0 129 44 199.5t110 93.5v8q-66 25 -110 97.5t-44 191.5v200q0 84 -24.5 135.5t-90.5 51.5h-82v143h101q270 0 270 -282v-246q0 -152 50.5 -192t90.5 -44v-118q-106 -10 -123.5 -103.5t-17.5 -134.5v-258q-9 -272 -262 -272
h-109z" />
    <glyph glyph-name="asciitilde" unicode="~" horiz-adv-x="1265" 
d="M848 539q-66 0 -165 45t-150.5 65.5t-101.5 20.5t-91 -32t-82 -85l-104 53q94 213 286 213q79 0 177 -44t147 -63.5t98 -19.5q89 0 170 117l101 -61q-94 -209 -285 -209z" />
    <glyph glyph-name="exclamdown" unicode="&#xa1;" horiz-adv-x="542" 
d="M282 995q50 0 82.5 -33.5t32.5 -86.5t-34.5 -84t-81.5 -31t-82 31t-35 83t34 86.5t84 34.5zM375 -354h-187v493l37 453h115l35 -451v-495z" />
    <glyph glyph-name="cent" unicode="&#xa2;" horiz-adv-x="1265" 
d="M725 -240h-121v226q-165 20 -266.5 153.5t-101.5 358.5t101 357t267 157v221h121v-217q168 -16 289 -152l-113 -114q-59 59 -110.5 85.5t-115.5 26.5t-111.5 -26.5t-79 -74.5t-49 -113.5t-17.5 -143.5t16.5 -145.5t48 -116.5t80.5 -77t117 -28t120 28t107 85l111 -105
q-106 -142 -293 -161v-224z" />
    <glyph glyph-name="sterling" unicode="&#xa3;" horiz-adv-x="1265" 
d="M516 522q0 -204 -139 -362h725v-160h-940v158q86 84 128 171t46 212h-174v143h155q-10 41 -23 79t-33.5 100.5t-20.5 130.5q0 147 118.5 253.5t296.5 106.5q179 0 281 -59.5t174 -170.5q-108 -69 -149 -100q-53 78 -121 121t-170 43q-156 0 -200 -80t-44 -123
q0 -64 32 -158.5t42 -140.5h317v-143h-301v-21z" />
    <glyph glyph-name="currency" unicode="&#xa4;" horiz-adv-x="1265" 
d="M823.5 842q-79.5 80 -193.5 80t-194 -80t-80 -195.5t80.5 -194.5t191.5 -79t193 78.5t82 194.5t-79.5 196zM633 1069q129 0 239 -76l140 140l104 -109l-139 -137q74 -112 74 -236t-74 -245q87 -82 139 -134l-104 -106l-140 139q-105 -78 -240 -78t-243 78l-139 -141
l-103 106l140 136q-78 117 -78 243t78 238l-140 139l103 107l139 -140q115 76 244 76z" />
    <glyph glyph-name="yen" unicode="&#xa5;" horiz-adv-x="1265" 
d="M152 604h335l-75 137h-260v133h188l-250 459h217l332 -667l334 667h211l-252 -459h194v-133h-268l-76 -137h344v-133h-397v-471h-188v471h-389v133z" />
    <glyph glyph-name="brokenbar" unicode="&#xa6;" horiz-adv-x="499" 
d="M178 -403v895h166v-895h-166zM178 633v899h166v-899h-166z" />
    <glyph glyph-name="section" unicode="&#xa7;" horiz-adv-x="1144" 
d="M692 571q101 38 101 111q0 74 -61.5 111t-162.5 70q-198 66 -284 129.5t-86 182.5t102.5 196t286.5 77t348 -80q-25 -55 -64 -135q-148 72 -266 72t-174.5 -36t-56.5 -87.5t49.5 -86t149.5 -68.5t248.5 -93t148.5 -221q0 -201 -219 -275zM481 672q-110 -35 -110 -116
q1 -80 201 -147q221 -74 322 -140.5t101 -196.5t-121.5 -206.5t-321.5 -76.5q-201 0 -384 100q50 98 70 131q164 -86 327 -86t205.5 48.5t42.5 83.5q0 63 -62.5 99.5t-175.5 73.5q-207 69 -293.5 136t-86.5 169q0 101 62 168.5t173 98.5q28 -80 51 -139z" />
    <glyph glyph-name="dieresis" unicode="&#xa8;" horiz-adv-x="1001" 
d="M319.5 1178q-40.5 0 -72.5 30.5t-32 73.5t32 72.5t72.5 29.5t72.5 -29.5t32 -72.5t-32 -73.5t-72.5 -30.5zM726 1178q-42 0 -73.5 30.5t-31.5 73.5t31.5 72.5t73.5 29.5t71.5 -29.5t29.5 -72.5t-29.5 -73.5t-71.5 -30.5z" />
    <glyph glyph-name="copyright" unicode="&#xa9;" horiz-adv-x="1566" 
d="M1079 393q-107 -147 -274 -147t-260.5 115t-93.5 303t95 302.5t265 114.5t264 -149l-104 -64q-35 51 -74 76t-98 25q-109 0 -164 -86t-55 -219.5t55 -218.5t164 -85q61 0 102 25t78 74zM790.5 1251q-120.5 0 -225 -44t-180.5 -122.5t-119 -185t-43 -229.5t43 -229.5
t119 -185.5t180.5 -123t225 -44t224 44t180.5 123t120 185.5t43 229.5t-43 229.5t-120 185t-180.5 122.5t-224 44zM790 -23q-144 0 -268.5 53.5t-215.5 145.5t-143 219t-52 274.5t52 274.5t196 272.5t432 145.5q143 0 268 -53.5t216 -145.5t143 -219t52 -274.5t-52 -274.5
t-143 -219t-216 -145.5t-269 -53.5z" />
    <glyph glyph-name="ordfeminine" unicode="&#xaa;" horiz-adv-x="696" 
d="M344 842q-69 0 -109 -28t-40 -78t35.5 -80.5t108.5 -30.5t150 77v101q-76 39 -145 39zM368 1206q265 0 265 -239v-439h-144v58q-91 -66 -190 -70q-161 0 -202.5 77t-41.5 136q0 104 76 160.5t178 56.5t180 -35v56q0 119 -135 118q-86 0 -186 -47l-47 109q111 59 247 59z
" />
    <glyph glyph-name="guillemotleft" unicode="&#xab;" horiz-adv-x="1021" 
d="M104 502l283 422h168l-281 -422l281 -420h-168zM492 502l282 422h168l-278 -422l278 -420h-168z" />
    <glyph glyph-name="logicalnot" unicode="&#xac;" horiz-adv-x="1265" 
d="M1049 244h-172v331h-662v160h834v-491z" />
    <glyph glyph-name="sfthyphen" unicode="&#xad;" horiz-adv-x="722" 
d="M111 721h497v-176h-497v176z" />
    <glyph glyph-name="registered" unicode="&#xae;" horiz-adv-x="1081" 
d="M571 973q76 0 76 74t-76 73h-108v-147h108zM463 897v-176h-84v477h196q70 0 114 -37t44 -123t-88 -129l94 -188h-96l-84 176h-96zM302.5 1203.5q-95.5 -99.5 -95.5 -243.5t95.5 -244t235.5 -100t236 98t96 245.5t-96 245.5t-236 98t-235.5 -99.5zM245.5 661.5
q-116.5 116.5 -116.5 296.5t117.5 297t292 117t293 -118t118.5 -296t-117.5 -295.5t-294 -117.5t-293 116.5z" />
    <glyph glyph-name="macron" unicode="&#xaf;" horiz-adv-x="987" 
d="M285 1358h512v-133h-512v133z" />
    <glyph glyph-name="degree" unicode="&#xb0;" horiz-adv-x="886" 
d="M311 1180q-53 -55 -53 -133t52 -132.5t128 -54.5t127 53.5t51 133.5t-51.5 134t-126 54t-127.5 -55zM438.5 752q-123.5 0 -210.5 83.5t-87 211.5t87 213.5t211 85.5t208 -85.5t84 -213.5t-84.5 -211.5t-208 -83.5z" />
    <glyph glyph-name="plusminus" unicode="&#xb1;" horiz-adv-x="1265" 
d="M207 182v146h846v-146h-846zM715 774v-336h-166v336h-342v156h342v354h166v-354h342v-156h-342z" />
    <glyph glyph-name="twosuperior" unicode="&#xb2;" horiz-adv-x="829" 
d="M571 1301q0 98 -171 98q-92 0 -210 -82q-6 8 -18 21.5t-24.5 28.5t-24.5 29.5t-19 20.5q145 115 303 115t240 -59.5t82 -153.5t-53.5 -151.5t-165.5 -116.5t-164.5 -106.5t-75.5 -106.5h465v-131h-653q15 236 150.5 324.5t207.5 127.5t101.5 68.5t29.5 73.5z" />
    <glyph glyph-name="threesuperior" unicode="&#xb3;" horiz-adv-x="829" 
d="M386 823q200 0 200 93.5t-43 122t-109 28.5h-88v121h90q57 0 94 31.5t37 73.5t-36.5 74t-129.5 32t-192 -74l-80 98q123 107 280 107q156 0 236 -59.5t80 -161.5q0 -51 -30.5 -100.5t-92.5 -78.5q78 -29 110.5 -81t32.5 -107q0 -114 -97 -182t-267 -68t-299 121l92 105
q107 -95 212 -95z" />
    <glyph glyph-name="acute" unicode="&#xb4;" horiz-adv-x="1001" 
d="M502 1128l-96 33l147 346l195 -37z" />
    <glyph glyph-name="mu" unicode="&#xb5;" horiz-adv-x="1036" 
d="M295 416q-1 -283 203 -283q96 0 152.5 48t78.5 126q16 40 16 111v583h181v-1001h-181v127h-4q-53 -74 -119.5 -107.5t-129.5 -33.5q-119 0 -197 73h-2v-368l-180 -76v1386h182v-585z" />
    <glyph glyph-name="mu" unicode="&#x3bc;" horiz-adv-x="1036" 
d="M295 416q-1 -283 203 -283q96 0 152.5 48t78.5 126q16 40 16 111v583h181v-1001h-181v127h-4q-53 -74 -119.5 -107.5t-129.5 -33.5q-119 0 -197 73h-2v-368l-180 -76v1386h182v-585z" />
    <glyph glyph-name="paragraph" unicode="&#xb6;" horiz-adv-x="1026" 
d="M451 573q-165 0 -271 108t-106 264t106.5 268t270.5 112h188v-752h-188zM909 -4q0 -199 -83 -290.5t-310 -102.5l-10 131q174 19 220 83.5t46 196.5v1311h137v-1329z" />
    <glyph glyph-name="periodcentered" unicode="&#xb7;" horiz-adv-x="501" 
d="M253 514q-52 0 -88 36t-36 90t37 89t88 35t86 -36t35 -89t-35 -89t-87 -36z" />
    <glyph glyph-name="cedilla" unicode="&#xb8;" horiz-adv-x="1085" 
d="M562 -334q110 0 110 79q0 38 -31 58.5t-72 20.5l-22 -2l-47 47q24 75 65 194l86 -6l-49 -143q106 -7 153.5 -59t47.5 -95q0 -80 -55 -133t-158 -53q-102 0 -184 37l30 84q72 -29 126 -29z" />
    <glyph glyph-name="onesuperior" unicode="&#xb9;" horiz-adv-x="659" 
d="M268 707v620h-110v105q63 6 90.5 27.5t44.5 62.5h131v-815h-156z" />
    <glyph glyph-name="ordmasculine" unicode="&#xba;" horiz-adv-x="739" 
d="M366 1081q-81 0 -122 -62.5t-41 -160.5t44 -157.5t123 -59.5t120.5 64.5t41.5 158.5t-42.5 155.5t-123.5 61.5zM141.5 608.5q-88.5 94.5 -88.5 255.5q0 160 87 251t228 91t229.5 -93t88.5 -254q0 -160 -90.5 -252.5t-228.5 -92.5q-137 0 -225.5 94.5z" />
    <glyph glyph-name="guillemotright" unicode="&#xbb;" horiz-adv-x="1021" 
d="M662 82h-168l280 420l-278 422h168l282 -422zM274 82h-168l281 420l-281 422h170l283 -422z" />
    <glyph glyph-name="onequarter" unicode="&#xbc;" horiz-adv-x="1802" 
d="M1315 299v315q-72 -80 -144.5 -158.5t-144.5 -156.5h289zM336 520v621h-111v104q63 6 91 27.5t44 62.5h132v-815h-156zM311 -43l850 1425h154l-852 -1425h-152zM1462 0h-147v172h-481v117l479 524h149v-514h115v-127h-115v-172z" />
    <glyph glyph-name="onehalf" unicode="&#xbd;" horiz-adv-x="1802" 
d="M1593 612q0 -94 -53.5 -151.5t-165.5 -116.5t-164.5 -106.5t-74.5 -106.5h464v-131h-653q15 235 150.5 325.5t207.5 128.5t102 67.5t30 73.5t-40 71.5t-131 27.5t-210 -84q-6 8 -18.5 21.5t-35.5 42t-32 37.5q141 112 301 112q159 0 241 -58.5t82 -152.5zM260 -43
l850 1425h154l-852 -1425h-152zM311 520v621h-110v104q63 6 90.5 27.5t44.5 62.5h131v-815h-156z" />
    <glyph glyph-name="threequarters" unicode="&#xbe;" horiz-adv-x="1802" 
d="M1432 299v315q-72 -80 -145 -158.5t-144 -156.5h289zM473 -43l850 1425h154l-852 -1425h-152zM412 639q200 0 200 93t-43 122t-108 29h-88v121h90q57 0 94 31.5t37 73.5t-37 73.5t-130 31.5t-191 -73l-80 98q123 107 280 107q156 0 236 -59.5t80 -162.5q0 -51 -31 -100
t-92 -78q78 -29 110.5 -81t32.5 -107q0 -115 -97.5 -182.5t-248.5 -67.5q-190 0 -317 121l92 104q105 -94 211 -94zM1579 0h-147v172h-482v117l480 524h149v-514h115v-127h-115v-172z" />
    <glyph glyph-name="questiondown" unicode="&#xbf;" horiz-adv-x="1015" 
d="M612 872q0 -54 -38.5 -84t-84.5 -30t-78 33.5t-32 83t33.5 84t83 34.5t83 -33.5t33.5 -87.5zM72 -14q0 80 39 147.5t80 108.5l77 77q77 77 104 141t31 124h179q-4 -108 -42.5 -181.5t-87.5 -125.5t-120.5 -126t-71.5 -153t59 -143t184 -64t174 68.5t73 167.5h182
q-16 -188 -141.5 -295t-303.5 -107t-296.5 102.5t-118.5 258.5z" />
    <glyph glyph-name="Agrave" unicode="&#xc0;" horiz-adv-x="1300" 
d="M293 1567l147 131l287 -207l-65 -78zM905 467q-61 168 -124.5 325.5t-123.5 340.5h-6l-248 -666h502zM1079 0q-76 200 -114 305h-619q-52 -141 -115 -305h-198l520 1333h209q247 -642 520 -1333h-203z" />
    <glyph glyph-name="Aacute" unicode="&#xc1;" horiz-adv-x="1300" 
d="M643 1413l-63 78l284 207l148 -131zM905 467q-61 168 -124.5 325.5t-123.5 340.5h-6l-248 -666h502zM1079 0q-76 200 -114 305h-619q-52 -141 -115 -305h-198l520 1333h209q247 -642 520 -1333h-203z" />
    <glyph glyph-name="Acircumflex" unicode="&#xc2;" horiz-adv-x="1300" 
d="M655 1569l-268 -164l-74 59l269 244h157l265 -246l-70 -59zM905 467q-61 168 -124.5 325.5t-123.5 340.5h-6l-248 -666h502zM1079 0q-76 200 -114 305h-619q-52 -141 -115 -305h-198l520 1333h209q247 -642 520 -1333h-203z" />
    <glyph glyph-name="Atilde" unicode="&#xc3;" horiz-adv-x="1300" 
d="M514 1530q-73 0 -131 -84l-82 37q39 106 100.5 146t106.5 40t83 -14.5t74.5 -30.5t71.5 -30.5t69 -14.5t62.5 15.5t63.5 62.5l78 -39q-67 -174 -213 -174q-52 0 -116.5 29.5t-99 43t-67.5 13.5zM905 467q-61 168 -124.5 325.5t-123.5 340.5h-6l-248 -666h502zM1079 0
q-76 200 -114 305h-619q-52 -141 -115 -305h-198l520 1333h209q247 -642 520 -1333h-203z" />
    <glyph glyph-name="Adieresis" unicode="&#xc4;" horiz-adv-x="1300" 
d="M857 1450q-42 0 -73.5 30.5t-31.5 73.5t31.5 73t73.5 30t71.5 -30t29.5 -73t-29.5 -73.5t-71.5 -30.5zM451 1450q-41 0 -73 30.5t-32 73.5t32 73t73 30t72.5 -30t31.5 -73t-31.5 -73.5t-72.5 -30.5zM905 467q-61 168 -124.5 325.5t-123.5 340.5h-6l-248 -666h502zM1079 0
q-76 200 -114 305h-619q-52 -141 -115 -305h-198l520 1333h209q247 -642 520 -1333h-203z" />
    <glyph glyph-name="Aring" unicode="&#xc5;" horiz-adv-x="1300" 
d="M656 1669q-42 0 -70.5 -28.5t-28.5 -71.5t28.5 -73t70.5 -30t71 30t29 73t-29 71.5t-71 28.5zM656 1374q-83 0 -139 54.5t-56 139.5t56 140t139 55t139.5 -55t56.5 -139t-56.5 -139.5t-139.5 -55.5zM905 467q-61 168 -124.5 325.5t-123.5 340.5h-6l-248 -666h502zM1079 0
q-76 200 -114 305h-619q-52 -141 -115 -305h-198l520 1333h209q247 -642 520 -1333h-203z" />
    <glyph glyph-name="AE" unicode="&#xc6;" horiz-adv-x="1855" 
d="M915 518v643l-383 -643h383zM915 354h-473l-215 -354h-207l795 1333h973v-170h-680v-372h479v-168h-479v-455h704v-168h-897v354z" />
    <glyph glyph-name="Ccedilla" unicode="&#xc7;" horiz-adv-x="1157" 
d="M614 -334q110 0 109 79q0 38 -30.5 58.5t-71.5 20.5l-23 -2l-47 47l37 115q-227 25 -361.5 209.5t-134.5 487.5t158 489t422 186t424 -193l-133 -127q-129 144 -302 144t-272.5 -140t-99.5 -369t98.5 -373t274.5 -144t309 151l133 -119q-161 -199 -428 -206
q-4 -16 -11.5 -33t-11.5 -33q107 -7 154 -58.5t47 -94.5q0 -81 -55 -134t-158 -53q-102 0 -184 37l30 84q73 -29 127 -29z" />
    <glyph glyph-name="Egrave" unicode="&#xc8;" horiz-adv-x="1069" 
d="M307 1567l148 131l286 -207l-65 -78zM131 1333h879v-170h-688v-370h487v-170h-487v-453h712v-170h-903v1333z" />
    <glyph glyph-name="Eacute" unicode="&#xc9;" horiz-adv-x="1069" 
d="M520 1413l-63 78l284 207l148 -131zM131 1333h879v-170h-688v-370h487v-170h-487v-453h712v-170h-903v1333z" />
    <glyph glyph-name="Ecircumflex" unicode="&#xca;" horiz-adv-x="1069" 
d="M580 1569l-269 -164l-73 59l268 244h158l264 -246l-70 -59zM131 1333h879v-170h-688v-370h487v-170h-487v-453h712v-170h-903v1333z" />
    <glyph glyph-name="Edieresis" unicode="&#xcb;" horiz-adv-x="1069" 
d="M377 1444q-41 0 -73 30.5t-32 73.5t32 73t73 30t72.5 -30t31.5 -73t-31.5 -73.5t-72.5 -30.5zM783 1444q-42 0 -73.5 30.5t-31.5 73.5t31.5 73t73.5 30t72 -30t30 -73t-30 -73.5t-72 -30.5zM131 1333h879v-170h-688v-370h487v-170h-487v-453h712v-170h-903v1333z" />
    <glyph glyph-name="Igrave" unicode="&#xcc;" horiz-adv-x="520" 
d="M-80 1567l148 131l286 -207l-65 -78zM164 1333h192v-1333h-192v1333z" />
    <glyph glyph-name="Iacute" unicode="&#xcd;" horiz-adv-x="520" 
d="M260 1413l-63 78l284 207l148 -131zM164 1333h192v-1333h-192v1333z" />
    <glyph glyph-name="Icircumflex" unicode="&#xce;" horiz-adv-x="520" 
d="M260 1569l-268 -164l-74 59l268 244h158l264 -246l-69 -59zM164 1333h192v-1333h-192v1333z" />
    <glyph glyph-name="Idieresis" unicode="&#xcf;" horiz-adv-x="520" 
d="M63.5 1444q-40.5 0 -72.5 30.5t-32 73.5t32 73t72.5 30t72.5 -30t32 -73t-32 -73.5t-72.5 -30.5zM470 1444q-42 0 -73.5 30.5t-31.5 73.5t31.5 73t73.5 30t71.5 -30t29.5 -73t-29.5 -73.5t-71.5 -30.5zM164 1333h192v-1333h-192v1333z" />
    <glyph glyph-name="Eth" unicode="&#xd0;" horiz-adv-x="1273" 
d="M334 1163v-436h244v-117h-244v-440h162q242 0 360.5 134t118.5 362q0 355 -178.5 426t-298.5 71h-164zM145 0v610h-133v117h133v606h359q463 0 564 -242.5t101 -504t-188 -424t-483 -162.5h-353z" />
    <glyph glyph-name="Ntilde" unicode="&#xd1;" horiz-adv-x="1275" 
d="M786 1442q-51 0 -115.5 29.5t-99 43t-67.5 13.5q-73 0 -131 -84l-82 37q39 106 100.5 146t106.5 40t82.5 -14.5t74.5 -30.5t72 -30.5t69 -14.5t62.5 15.5t63.5 62.5l77 -39q-67 -174 -213 -174zM315 1010v-1010h-188v1333h184q41 -63 98.5 -150t118 -179.5t119 -178.5
t98.5 -149l213 -338h7v995h186v-1333h-172q-29 41 -110 165t-181.5 275.5t-226.5 350.5l-139 219h-7z" />
    <glyph glyph-name="Ograve" unicode="&#xd2;" horiz-adv-x="1318" 
d="M342 1567l147 131l287 -207l-65 -78zM287 671q0 -226 96 -372.5t276 -146.5t275.5 148t95.5 372q0 225 -95.5 367.5t-276 142.5t-276 -142.5t-95.5 -368.5zM92 662q0 305 150.5 498.5t412.5 193.5t416 -189.5t154 -499.5t-154.5 -497.5t-415.5 -187.5q-263 0 -413 188.5
t-150 493.5z" />
    <glyph glyph-name="Oacute" unicode="&#xd3;" horiz-adv-x="1318" 
d="M598 1413l-63 78l284 207l148 -131zM287 671q0 -226 96 -372.5t276 -146.5t275.5 148t95.5 372q0 225 -95.5 367.5t-276 142.5t-276 -142.5t-95.5 -368.5zM92 662q0 305 150.5 498.5t412.5 193.5t416 -189.5t154 -499.5t-154.5 -497.5t-415.5 -187.5q-263 0 -413 188.5
t-150 493.5z" />
    <glyph glyph-name="Ocircumflex" unicode="&#xd4;" horiz-adv-x="1318" 
d="M662 1569l-269 -164l-74 59l269 244h157l265 -246l-70 -59zM287 671q0 -226 96 -372.5t276 -146.5t275.5 148t95.5 372q0 225 -95.5 367.5t-276 142.5t-276 -142.5t-95.5 -368.5zM92 662q0 305 150.5 498.5t412.5 193.5t416 -189.5t154 -499.5t-154.5 -497.5
t-415.5 -187.5q-263 0 -413 188.5t-150 493.5z" />
    <glyph glyph-name="Otilde" unicode="&#xd5;" horiz-adv-x="1318" 
d="M805 1448q-49 0 -114.5 29.5t-100.5 43t-68 13.5q-73 0 -131 -84l-82 37q39 106 100.5 146t106.5 40t83 -14t75 -30.5t71.5 -31t68.5 -14.5t62.5 15.5t63.5 62.5l78 -39q-67 -174 -213 -174zM287 671q0 -226 96 -372.5t276 -146.5t275.5 148t95.5 372q0 225 -95.5 367.5
t-276 142.5t-276 -142.5t-95.5 -368.5zM92 662q0 305 150.5 498.5t412.5 193.5t416 -189.5t154 -499.5t-154.5 -497.5t-415.5 -187.5q-263 0 -413 188.5t-150 493.5z" />
    <glyph glyph-name="Odieresis" unicode="&#xd6;" horiz-adv-x="1318" 
d="M455 1442q-41 0 -73 30.5t-32 73.5t32 73t73 30t72.5 -30t31.5 -73t-31.5 -73.5t-72.5 -30.5zM861 1442q-42 0 -73.5 30.5t-31.5 73.5t31.5 73t73.5 30t72 -30t30 -73t-30 -73.5t-72 -30.5zM287 671q0 -226 96 -372.5t276 -146.5t275.5 148t95.5 372q0 225 -95.5 367.5
t-276 142.5t-276 -142.5t-95.5 -368.5zM92 662q0 305 150.5 498.5t412.5 193.5t416 -189.5t154 -499.5t-154.5 -497.5t-415.5 -187.5q-263 0 -413 188.5t-150 493.5z" />
    <glyph glyph-name="multiply" unicode="&#xd7;" horiz-adv-x="1265" 
d="M231 932l117 115l289 -289l289 289l110 -109l-291 -291l285 -282l-112 -117l-285 282l-287 -286l-113 112l287 285z" />
    <glyph glyph-name="Oslash" unicode="&#xd8;" horiz-adv-x="1318" 
d="M659 152q180 0 275.5 148t95.5 349q0 202 -63 332l-559 -715q101 -114 251 -114zM909 1069q-100 113 -265 113t-261 -142.5t-96 -351.5q0 -210 63 -336zM1090 1139q135 -184 135 -484t-154.5 -487.5t-413.5 -187.5q-223 0 -366 137l-117 -150l-76 62l127 161
q-133 185 -133 481t150.5 489.5t416.5 193.5q212 0 365 -140l123 160l78 -63z" />
    <glyph glyph-name="Ugrave" unicode="&#xd9;" horiz-adv-x="1284" 
d="M344 1567l148 131l286 -207l-65 -78zM643 -20q-244 0 -378 144t-134 433v776h191v-768q0 -193 80.5 -302t245.5 -109t244 106.5t79 292.5v780h192v-778q0 -291 -138 -433t-382 -142z" />
    <glyph glyph-name="Uacute" unicode="&#xda;" horiz-adv-x="1284" 
d="M592 1413l-64 78l285 207l148 -131zM643 -20q-244 0 -378 144t-134 433v776h191v-768q0 -193 80.5 -302t245.5 -109t244 106.5t79 292.5v780h192v-778q0 -291 -138 -433t-382 -142z" />
    <glyph glyph-name="Ucircumflex" unicode="&#xdb;" horiz-adv-x="1284" 
d="M647 1569l-268 -164l-74 59l268 244h158l264 -246l-69 -59zM643 -20q-244 0 -378 144t-134 433v776h191v-768q0 -193 80.5 -302t245.5 -109t244 106.5t79 292.5v780h192v-778q0 -291 -138 -433t-382 -142z" />
    <glyph glyph-name="Udieresis" unicode="&#xdc;" horiz-adv-x="1284" 
d="M453 1448q-41 0 -73 30.5t-32 73.5t32 73t73 30t72.5 -30t31.5 -73t-31.5 -73.5t-72.5 -30.5zM859 1448q-42 0 -73.5 30.5t-31.5 73.5t31.5 73t73.5 30t72 -30t30 -73t-30 -73.5t-72 -30.5zM643 -20q-244 0 -378 144t-134 433v776h191v-768q0 -193 80.5 -302t245.5 -109
t244 106.5t79 292.5v780h192v-778q0 -291 -138 -433t-382 -142z" />
    <glyph glyph-name="Yacute" unicode="&#xdd;" horiz-adv-x="1187" 
d="M565 1413l-63 78l284 207l148 -131zM592 633q99 193 369 700h210l-485 -866v-467h-188v467l-486 866h215q85 -167 189 -362q105 -195 176 -338z" />
    <glyph glyph-name="Thorn" unicode="&#xde;" horiz-adv-x="1153" 
d="M317 920v-494h353q123 0 190.5 61.5t67.5 184.5t-71 185.5t-185 62.5h-355zM317 256v-256h-188v1333h188v-246h367q197 0 316.5 -104t119.5 -308t-122 -311.5t-328 -107.5h-353z" />
    <glyph glyph-name="germandbls" unicode="&#xdf;" horiz-adv-x="1048" 
d="M526 127q125 0 193.5 79t68.5 201q0 123 -74.5 212.5t-187.5 97.5v131q69 4 125 64.5t56 140.5t-55.5 147.5t-146 67.5t-144.5 -70t-54 -174v-1022q-45 -16 -89 -35.5t-87 -38.5v1090q0 180 105.5 289.5t270.5 109.5t266 -105t101 -243q0 -84 -44 -158.5t-125 -113.5v-9
q107 -24 184.5 -130.5t77.5 -243.5q0 -185 -106.5 -309.5t-282.5 -124.5q-70 0 -117 18l28 131z" />
    <glyph glyph-name="agrave" unicode="&#xe0;" horiz-adv-x="999" 
d="M279 1466l196 37l150 -342l-97 -33zM250 305q0 -88 52 -135t151 -47q141 8 256 125v172q-118 69 -226 69t-170.5 -48t-62.5 -136zM513 1020q179 0 276.5 -84t97.5 -250v-686h-178v94h-4q-124 -114 -299 -114q-137 0 -236.5 76.5t-99.5 231.5t104.5 245t261.5 90
q156 0 273 -62v107q0 201 -217 200q-129 0 -267 -65l-55 137q164 80 343 80z" />
    <glyph glyph-name="aacute" unicode="&#xe1;" horiz-adv-x="999" 
d="M555 1128l-96 33l147 346l195 -37zM250 305q0 -88 52 -135t151 -47q141 8 256 125v172q-118 69 -226 69t-170.5 -48t-62.5 -136zM513 1020q179 0 276.5 -84t97.5 -250v-686h-178v94h-4q-124 -114 -299 -114q-137 0 -236.5 76.5t-99.5 231.5t104.5 245t261.5 90
q156 0 273 -62v107q0 201 -217 200q-129 0 -267 -65l-55 137q164 80 343 80z" />
    <glyph glyph-name="acircumflex" unicode="&#xe2;" horiz-adv-x="999" 
d="M520 1317l-270 -189l-72 58l266 268h160l264 -268l-69 -60zM250 305q0 -88 52 -135t151 -47q141 8 256 125v172q-118 69 -226 69t-170.5 -48t-62.5 -136zM513 1020q179 0 276.5 -84t97.5 -250v-686h-178v94h-4q-124 -114 -299 -114q-137 0 -236.5 76.5t-99.5 231.5
t104.5 245t261.5 90q156 0 273 -62v107q0 201 -217 200q-129 0 -267 -65l-55 137q164 80 343 80z" />
    <glyph glyph-name="atilde" unicode="&#xe3;" horiz-adv-x="999" 
d="M657 1169q-49 0 -143 43t-133 43t-70.5 -16t-66.5 -68l-82 37q39 106 100.5 146.5t106.5 40.5t82.5 -14.5t106 -45t105.5 -30.5q38 0 66.5 15t63.5 62l77 -39q-67 -174 -213 -174zM250 305q0 -88 52 -135t151 -47q141 8 256 125v172q-118 69 -226 69t-170.5 -48
t-62.5 -136zM513 1020q179 0 276.5 -84t97.5 -250v-686h-178v94h-4q-124 -114 -299 -114q-137 0 -236.5 76.5t-99.5 231.5t104.5 245t261.5 90q156 0 273 -62v107q0 201 -217 200q-129 0 -267 -65l-55 137q164 80 343 80z" />
    <glyph glyph-name="adieresis" unicode="&#xe4;" horiz-adv-x="999" 
d="M319.5 1178q-40.5 0 -72.5 30.5t-32 73.5t32 72.5t72.5 29.5t72.5 -29.5t32 -72.5t-32 -73.5t-72.5 -30.5zM726 1178q-42 0 -73.5 30.5t-31.5 73.5t31.5 72.5t73.5 29.5t71.5 -29.5t29.5 -72.5t-29.5 -73.5t-71.5 -30.5zM250 305q0 -88 52 -135t151 -47q141 8 256 125
v172q-118 69 -226 69t-170.5 -48t-62.5 -136zM513 1020q179 0 276.5 -84t97.5 -250v-686h-178v94h-4q-124 -114 -299 -114q-137 0 -236.5 76.5t-99.5 231.5t104.5 245t261.5 90q156 0 273 -62v107q0 201 -217 200q-129 0 -267 -65l-55 137q164 80 343 80z" />
    <glyph glyph-name="aring" unicode="&#xe5;" horiz-adv-x="999" 
d="M538 1405q-42 0 -71 -28.5t-29 -71.5t29 -73t71 -30t70.5 30t28.5 73t-28.5 71.5t-70.5 28.5zM538 1110q-83 0 -139.5 54.5t-56.5 139.5t56.5 140t139.5 55t139 -55t56 -139t-56 -139.5t-139 -55.5zM250 305q0 -88 52 -135t151 -47q141 8 256 125v172q-118 69 -226 69
t-170.5 -48t-62.5 -136zM513 1020q179 0 276.5 -84t97.5 -250v-686h-178v94h-4q-124 -114 -299 -114q-137 0 -236.5 76.5t-99.5 231.5t104.5 245t261.5 90q156 0 273 -62v107q0 201 -217 200q-129 0 -267 -65l-55 137q164 80 343 80z" />
    <glyph glyph-name="ae" unicode="&#xe6;" horiz-adv-x="1656" 
d="M1399 569q0 205 -92.5 251t-148.5 46q-106 0 -178.5 -82.5t-76.5 -214.5h496zM454 119q87 0 167.5 44t136.5 109q-27 70 -31 154q-121 66 -234 66t-177 -49.5t-64 -136.5t57.5 -137t144.5 -50zM526 1020q235 0 320 -162q53 76 135 118t180 42q195 0 306.5 -138.5
t111.5 -363.5v-78h-676q8 -160 85 -233.5t198 -73.5t221 92l96 -114q-84 -72 -165 -100.5t-181 -28.5q-220 0 -336 172q-131 -106 -201.5 -134t-111.5 -33t-93 -5q-128 0 -230.5 78.5t-102.5 234.5q0 155 107.5 242.5t250.5 87.5t283 -64q0 45 4 123t-55.5 133t-180.5 55
t-249 -65l-58 137q156 78 342 78z" />
    <glyph glyph-name="ccedilla" unicode="&#xe7;" horiz-adv-x="917" 
d="M476 -334q110 0 110 79q0 38 -31 58.5t-72 20.5l-22 -2l-47 47l37 117q-160 21 -259.5 146t-99.5 335q0 260 119.5 405.5t321.5 145.5t331 -146l-114 -116q-102 106 -222 106t-187 -107.5t-67 -267.5q0 -159 67 -254.5t187 -95.5t226 109l114 -109q-131 -150 -329 -157
q-4 -16 -11.5 -33t-11.5 -33q106 -7 153.5 -59t47.5 -95q0 -80 -55 -133t-157 -53t-186 37l31 84q72 -29 126 -29z" />
    <glyph glyph-name="egrave" unicode="&#xe8;" horiz-adv-x="1021" 
d="M279 1466l196 37l150 -342l-97 -33zM770 569q0 128 -62.5 212.5t-173.5 84.5q-112 0 -182.5 -80.5t-81.5 -216.5h500zM874 109q-140 -129 -344 -129t-322 133t-118 373t122 386t319 146t307 -136.5t110 -373.5v-72h-678q10 -150 87 -227.5t198 -77.5t225 90z" />
    <glyph glyph-name="eacute" unicode="&#xe9;" horiz-adv-x="1021" 
d="M549 1128l-96 33l147 346l195 -37zM770 569q0 128 -62.5 212.5t-173.5 84.5q-112 0 -182.5 -80.5t-81.5 -216.5h500zM874 109q-140 -129 -344 -129t-322 133t-118 373t122 386t319 146t307 -136.5t110 -373.5v-72h-678q10 -150 87 -227.5t198 -77.5t225 90z" />
    <glyph glyph-name="ecircumflex" unicode="&#xea;" horiz-adv-x="1021" 
d="M530 1317l-270 -189l-72 58l267 268h159l265 -268l-70 -60zM770 569q0 128 -62.5 212.5t-173.5 84.5q-112 0 -182.5 -80.5t-81.5 -216.5h500zM874 109q-140 -129 -344 -129t-322 133t-118 373t122 386t319 146t307 -136.5t110 -373.5v-72h-678q10 -150 87 -227.5
t198 -77.5t225 90z" />
    <glyph glyph-name="edieresis" unicode="&#xeb;" horiz-adv-x="1021" 
d="M734 1163q-42 0 -73.5 31t-31.5 74t31.5 72.5t73.5 29.5t72 -29.5t30 -72.5t-30 -74t-72 -31zM328 1163q-41 0 -73 31t-32 74t32 72.5t73 29.5t72.5 -29.5t31.5 -72.5t-31.5 -74t-72.5 -31zM770 569q0 128 -62.5 212.5t-173.5 84.5q-112 0 -182.5 -80.5t-81.5 -216.5h500
zM874 109q-140 -129 -344 -129t-322 133t-118 373t122 386t319 146t307 -136.5t110 -373.5v-72h-678q10 -150 87 -227.5t198 -77.5t225 90z" />
    <glyph glyph-name="igrave" unicode="&#xec;" horiz-adv-x="493" 
d="M160 997h180v-997h-180v997zM-12 1466l196 37l150 -342l-96 -33z" />
    <glyph glyph-name="iacute" unicode="&#xed;" horiz-adv-x="493" 
d="M160 997h180v-997h-180v997zM283 1128l-97 33l148 346l194 -37z" />
    <glyph glyph-name="icircumflex" unicode="&#xee;" horiz-adv-x="669" 
d="M240 997h180v-997h-180v997zM332 1311l-271 -189l-71 58l266 268h160l264 -268l-70 -60z" />
    <glyph glyph-name="idieresis" unicode="&#xef;" horiz-adv-x="591" 
d="M203 997h180v-997h-180v997zM94 1178q-41 0 -72.5 30.5t-31.5 73.5t31.5 72.5t72.5 29.5t73 -29.5t32 -72.5t-32 -73.5t-73 -30.5zM501 1178q-42 0 -74 30.5t-32 73.5t32 72.5t74 29.5t71.5 -29.5t29.5 -72.5t-29.5 -73.5t-71.5 -30.5z" />
    <glyph glyph-name="eth" unicode="&#xf0;" horiz-adv-x="1079" 
d="M729 730q-72 91 -194 91t-193.5 -92t-71.5 -252t75 -253t190 -93t190.5 102.5t75.5 253.5q0 152 -72 243zM1008 682q0 -489 -172 -595.5t-288 -106.5q-214 0 -333 137t-119 362t123 358.5t309 133.5q132 0 204.5 -61.5t96.5 -102.5h9q-8 205 -127 338l-105 -121l-76 66
l107 120q-106 80 -268 99l24 143q211 -19 350 -123l117 131l74 -59l-117 -135q191 -199 191 -584z" />
    <glyph glyph-name="ntilde" unicode="&#xf1;" horiz-adv-x="1026" 
d="M369 1255q-39 0 -71 -16t-67 -68l-81 37q39 106 99.5 146.5t106.5 40.5t83.5 -14.5t106 -45t105.5 -30.5t65.5 15t63.5 62l78 -39q-67 -174 -213 -174q-49 0 -143 43t-133 43zM745 592q-1 270 -203 270q-100 0 -175.5 -66.5t-75.5 -209.5v-586h-180v999h180v-131l6 -2
q53 80 133 116t154 36q342 0 342 -395v-623h-181v592z" />
    <glyph glyph-name="ograve" unicode="&#xf2;" horiz-adv-x="1075" 
d="M540 864q-124 0 -195 -101.5t-71 -266.5q0 -164 66 -263.5t191 -99.5t198.5 105t73.5 262q0 252 -98.5 308t-164.5 56zM92 496q0 241 126 381.5t323 140.5t319.5 -137t122.5 -377t-128 -382t-328 -142t-317.5 137.5t-117.5 378.5zM244 1466l196 37l150 -342l-96 -33z" />
    <glyph glyph-name="oacute" unicode="&#xf3;" horiz-adv-x="1075" 
d="M540 864q-124 0 -195 -101.5t-71 -266.5q0 -164 66 -263.5t191 -99.5t198.5 105t73.5 262q0 252 -98.5 308t-164.5 56zM92 496q0 241 126 381.5t323 140.5t319.5 -137t122.5 -377t-128 -382t-328 -142t-317.5 137.5t-117.5 378.5zM563 1128l-96 33l147 346l195 -37z" />
    <glyph glyph-name="ocircumflex" unicode="&#xf4;" horiz-adv-x="1075" 
d="M540 864q-124 0 -195 -101.5t-71 -266.5q0 -164 66 -263.5t191 -99.5t198.5 105t73.5 262q0 252 -98.5 308t-164.5 56zM92 496q0 241 126 381.5t323 140.5t319.5 -137t122.5 -377t-128 -382t-328 -142t-317.5 137.5t-117.5 378.5zM535 1311l-271 -189l-71 58l266 268h159
l265 -268l-70 -60z" />
    <glyph glyph-name="otilde" unicode="&#xf5;" horiz-adv-x="1075" 
d="M540 864q-124 0 -195 -101.5t-71 -266.5q0 -164 66 -263.5t191 -99.5t198.5 105t73.5 262q0 252 -98.5 308t-164.5 56zM92 496q0 241 126 381.5t323 140.5t319.5 -137t122.5 -377t-128 -382t-328 -142t-317.5 137.5t-117.5 378.5zM676 1169q-51 0 -143.5 43t-132.5 43
t-71.5 -16t-66.5 -68l-82 37q39 106 100.5 146.5t106.5 40.5t83 -14.5t106.5 -45t105.5 -30.5t65.5 15t63.5 62l78 -39q-67 -174 -213 -174z" />
    <glyph glyph-name="odieresis" unicode="&#xf6;" horiz-adv-x="1075" 
d="M540 864q-124 0 -195 -101.5t-71 -266.5q0 -164 66 -263.5t191 -99.5t198.5 105t73.5 262q0 252 -98.5 308t-164.5 56zM92 496q0 241 126 381.5t323 140.5t319.5 -137t122.5 -377t-128 -382t-328 -142t-317.5 137.5t-117.5 378.5zM336 1178q-41 0 -73 30.5t-32 73.5
t32 72.5t73 29.5t72.5 -29.5t31.5 -72.5t-31.5 -73.5t-72.5 -30.5zM742 1178q-42 0 -73.5 30.5t-31.5 73.5t31.5 72.5t73.5 29.5t72 -29.5t30 -72.5t-30 -73.5t-72 -30.5z" />
    <glyph glyph-name="divide" unicode="&#xf7;" horiz-adv-x="1265" 
d="M745 288q0 -48 -32.5 -81t-79.5 -33t-80 32t-33 81t33 81.5t80 32.5t79.5 -32.5t32.5 -80.5zM745 976q0 -48 -32.5 -82t-79.5 -34t-80 33t-33 82t33 80.5t80 31.5t79.5 -31.5t32.5 -79.5zM207 559v156h852v-156h-852z" />
    <glyph glyph-name="oslash" unicode="&#xf8;" horiz-adv-x="1075" 
d="M803 524q0 98 -41 191l-393 -518q69 -63 149 -63t130 29.5t85 79.5t52.5 116.5t17.5 164.5zM705 799q-69 65 -180 65q-110 0 -180.5 -101.5t-70.5 -245.5t41 -236zM874 864q109 -141 109 -371t-128 -371.5t-329 -141.5q-154 0 -260 81l-84 -110l-73 55l92 123
q-109 133 -109 371t126 378t325 140q152 0 262 -86l78 104l75 -61z" />
    <glyph glyph-name="ugrave" unicode="&#xf9;" horiz-adv-x="1024" 
d="M262 1466l197 37l149 -342l-96 -33zM287 406q-1 -265 197 -265q183 0 235 178q12 43 12 95v585h180v-999h-180v129h-6q-57 -80 -133 -114.5t-148 -34.5q-338 0 -338 380v639h181v-593z" />
    <glyph glyph-name="uacute" unicode="&#xfa;" horiz-adv-x="1024" 
d="M530 1128l-96 33l148 346l194 -37zM287 406q-1 -265 197 -265q183 0 235 178q12 43 12 95v585h180v-999h-180v129h-6q-57 -80 -133 -114.5t-148 -34.5q-338 0 -338 380v639h181v-593z" />
    <glyph glyph-name="ucircumflex" unicode="&#xfb;" horiz-adv-x="1024" 
d="M524 1313l-270 -189l-72 58l267 268h159l264 -268l-69 -60zM287 406q-1 -265 197 -265q183 0 235 178q12 43 12 95v585h180v-999h-180v129h-6q-57 -80 -133 -114.5t-148 -34.5q-338 0 -338 380v639h181v-593z" />
    <glyph glyph-name="udieresis" unicode="&#xfc;" horiz-adv-x="1024" 
d="M324 1178q-41 0 -73 30.5t-32 73.5t32 72.5t73 29.5t72.5 -29.5t31.5 -72.5t-31.5 -73.5t-72.5 -30.5zM730 1178q-42 0 -73.5 30.5t-31.5 73.5t31.5 72.5t73.5 29.5t71.5 -29.5t29.5 -72.5t-29.5 -73.5t-71.5 -30.5zM287 406q-1 -265 197 -265q183 0 235 178q12 43 12 95
v585h180v-999h-180v129h-6q-57 -80 -133 -114.5t-148 -34.5q-338 0 -338 380v639h181v-593z" />
    <glyph glyph-name="yacute" unicode="&#xfd;" horiz-adv-x="978" 
d="M506 1128l-96 33l147 346l195 -37zM948 999q-412 -1137 -504 -1384h-170l132 367q-34 85 -93 246t-97 260.5t-71.5 193.5t-64.5 176t-53 141h188l174 -503q17 -59 39.5 -125t34.5 -105t22 -65h7q8 27 22 65.5t27.5 81.5t27 82t21.5 66l178 503h180z" />
    <glyph glyph-name="thorn" unicode="&#xfe;" horiz-adv-x="1046" 
d="M774 503q0 177 -66.5 271t-177.5 94q-76 0 -138 -40t-103 -91v-475q39 -51 100.5 -90t132.5 -39q123 0 187.5 96.5t64.5 273.5zM295 903q118 115 279 115t270.5 -129t109.5 -388q0 -258 -120 -388.5t-275.5 -130.5t-265.5 106h-4v-393q-80 -36 -180 -76v1714h182v-430h4z
" />
    <glyph glyph-name="ydieresis" unicode="&#xff;" horiz-adv-x="978" 
d="M699 1178q-42 0 -73.5 30.5t-31.5 73.5t31.5 72.5t73.5 29.5t72 -29.5t30 -72.5t-30 -73.5t-72 -30.5zM293 1178q-41 0 -73 30.5t-32 73.5t32 72.5t73 29.5t72.5 -29.5t31.5 -72.5t-31.5 -73.5t-72.5 -30.5zM948 999q-412 -1137 -504 -1384h-170l132 367q-34 85 -93 246
t-97 260.5t-71.5 193.5t-64.5 176t-53 141h188l174 -503q17 -59 39.5 -125t34.5 -105t22 -65h7q8 27 22 65.5t27.5 81.5t27 82t21.5 66l178 503h180z" />
    <glyph glyph-name="Amacron" unicode="&#x100;" horiz-adv-x="1300" 
d="M399 1620h512v-133h-512v133zM905 467q-61 168 -124.5 325.5t-123.5 340.5h-6l-248 -666h502zM1079 0q-76 200 -114 305h-619q-52 -141 -115 -305h-198l520 1333h209q247 -642 520 -1333h-203z" />
    <glyph glyph-name="amacron" unicode="&#x101;" horiz-adv-x="999" 
d="M270 1358h512v-133h-512v133zM250 305q0 -88 52 -135t151 -47q141 8 256 125v172q-118 69 -226 69t-170.5 -48t-62.5 -136zM513 1020q179 0 276.5 -84t97.5 -250v-686h-178v94h-4q-124 -114 -299 -114q-137 0 -236.5 76.5t-99.5 231.5t104.5 245t261.5 90q156 0 273 -62
v107q0 201 -217 200q-129 0 -267 -65l-55 137q164 80 343 80z" />
    <glyph glyph-name="Abreve" unicode="&#x102;" horiz-adv-x="1300" 
d="M656 1548q68 0 102.5 42t36.5 89h133q-8 -162 -102.5 -208t-171.5 -46q-138 0 -205 77.5t-72 176.5h131q10 -57 45 -94t103 -37zM905 467q-61 168 -124.5 325.5t-123.5 340.5h-6l-248 -666h502zM1079 0q-76 200 -114 305h-619q-52 -141 -115 -305h-198l520 1333h209
q247 -642 520 -1333h-203z" />
    <glyph glyph-name="abreve" unicode="&#x103;" horiz-adv-x="999" 
d="M528 1276q68 0 103 42t37 89h133q-8 -164 -102.5 -209t-171.5 -45q-139 0 -205.5 77.5t-71.5 176.5h131q10 -57 44.5 -94t102.5 -37zM250 305q0 -88 52 -135t151 -47q141 8 256 125v172q-118 69 -226 69t-170.5 -48t-62.5 -136zM513 1020q179 0 276.5 -84t97.5 -250v-686
h-178v94h-4q-124 -114 -299 -114q-137 0 -236.5 76.5t-99.5 231.5t104.5 245t261.5 90q156 0 273 -62v107q0 201 -217 200q-129 0 -267 -65l-55 137q164 80 343 80z" />
    <glyph glyph-name="Aogonek" unicode="&#x104;" horiz-adv-x="1300" 
d="M905 467q-61 168 -124.5 325.5t-123.5 340.5h-6l-248 -666h502zM1083 -205q0 -47 30 -71.5t78 -24.5t109 27q3 -6 37 -91q-92 -45 -178 -45t-143.5 46.5t-57.5 137.5t119 230q-78 199 -112 301h-619q-52 -141 -115 -305h-198l520 1333h209q247 -642 520 -1333h-104
q-95 -128 -95 -205z" />
    <glyph glyph-name="aogonek" unicode="&#x105;" horiz-adv-x="999" 
d="M250 305q0 -88 52 -135t151 -47q141 8 256 125v172q-118 69 -226 69t-170.5 -48t-62.5 -136zM715 -205q0 -47 29.5 -71.5t77.5 -24.5t110 27q3 -6 37 -91q-92 -45 -179 -45q-86 0 -143 46.5t-57 139.5t119 226v92h-4q-124 -114 -299 -114q-137 0 -236.5 76.5t-99.5 231.5
t104.5 245t261.5 90q156 0 273 -62v107q0 201 -217 200q-129 0 -267 -65l-55 137q164 80 343 80t276.5 -84t97.5 -250v-686h-78q-94 -127 -94 -205z" />
    <glyph glyph-name="Cacute" unicode="&#x106;" horiz-adv-x="1157" 
d="M602 1413l-63 78l284 207l148 -131zM1104 186q-167 -206 -429 -206q-269 0 -426 184t-157 502t158 504t422 186t424 -193l-133 -127q-129 144 -302 144t-272.5 -140t-99.5 -369t98.5 -373t274.5 -144t309 151z" />
    <glyph glyph-name="cacute" unicode="&#x107;" horiz-adv-x="917" 
d="M518 1128l-96 33l147 346l195 -37zM868 137q-140 -157 -332 -157q-202 0 -323 128t-121 374q0 245 119.5 390.5t321.5 145.5t331 -146l-114 -116q-102 106 -222 106t-187 -107.5t-67 -267.5q0 -159 67 -254.5t187 -95.5t226 109z" />
    <glyph glyph-name="Ccircumflex" unicode="&#x108;" horiz-adv-x="1157" 
d="M653 1569l-268 -164l-74 59l269 244h157l264 -246l-69 -59zM1104 186q-167 -206 -429 -206q-269 0 -426 184t-157 502t158 504t422 186t424 -193l-133 -127q-129 144 -302 144t-272.5 -140t-99.5 -369t98.5 -373t274.5 -144t309 151z" />
    <glyph glyph-name="ccircumflex" unicode="&#x109;" horiz-adv-x="917" 
d="M508 1311l-270 -189l-72 58l266 268h160l264 -268l-70 -60zM868 137q-140 -157 -332 -157q-202 0 -323 128t-121 374q0 245 119.5 390.5t321.5 145.5t331 -146l-114 -116q-102 106 -222 106t-187 -107.5t-67 -267.5q0 -159 67 -254.5t187 -95.5t226 109z" />
    <glyph glyph-name="Cdotaccent" unicode="&#x10a;" horiz-adv-x="1157" 
d="M541 1554q0 45 31.5 77t76.5 32t77 -32t32 -77t-32 -77.5t-77 -32.5t-76.5 32.5t-31.5 77.5zM1104 186q-167 -206 -429 -206q-269 0 -426 184t-157 502t158 504t422 186t424 -193l-133 -127q-129 144 -302 144t-272.5 -140t-99.5 -369t98.5 -373t274.5 -144t309 151z" />
    <glyph glyph-name="cdotaccent" unicode="&#x10b;" horiz-adv-x="917" 
d="M414 1284q0 45 31.5 77t76.5 32t77 -32t32 -77t-32 -77.5t-77 -32.5t-76.5 32.5t-31.5 77.5zM868 137q-140 -157 -332 -157q-202 0 -323 128t-121 374q0 245 119.5 390.5t321.5 145.5t331 -146l-114 -116q-102 106 -222 106t-187 -107.5t-67 -267.5q0 -159 67 -254.5
t187 -95.5t226 109z" />
    <glyph glyph-name="Ccaron" unicode="&#x10c;" horiz-adv-x="1157" 
d="M932 1720l72 -59l-269 -246h-157l-267 244l72 59l270 -166zM1104 186q-167 -206 -429 -206q-269 0 -426 184t-157 502t158 504t422 186t424 -193l-133 -127q-129 144 -302 144t-272.5 -140t-99.5 -369t98.5 -373t274.5 -144t309 151z" />
    <glyph glyph-name="ccaron" unicode="&#x10d;" horiz-adv-x="917" 
d="M795 1458l69 -57l-264 -271h-160l-266 271l72 57l270 -190zM868 137q-140 -157 -332 -157q-202 0 -323 128t-121 374q0 245 119.5 390.5t321.5 145.5t331 -146l-114 -116q-102 106 -222 106t-187 -107.5t-67 -267.5q0 -159 67 -254.5t187 -95.5t226 109z" />
    <glyph glyph-name="Dcaron" unicode="&#x10e;" horiz-adv-x="1273" 
d="M815 1720l72 -59l-269 -246h-157l-266 244l71 59l271 -166zM334 1163v-993h162q242 0 360.5 134t118.5 362q0 355 -178.5 426t-298.5 71h-164zM145 0v1333h359q463 0 564 -242.5t101 -504t-188 -424t-483 -162.5h-353z" />
    <glyph glyph-name="dcaron" unicode="&#x10f;" horiz-adv-x="1259" 
d="M270 481q0 -350 252 -350q125 0 236 131v473q-104 129 -228 129q-125 0 -192.5 -103.5t-67.5 -279.5zM90 472q0 263 122.5 404.5t291.5 141.5q135 0 246 -100h6v434l180 75v-1427h-180v94h-4q-117 -114 -283 -114q-262 0 -320.5 177t-58.5 315zM1038 1376q0 49 32 83
t82 34t87 -41t37 -126t-48 -145.5t-122 -95.5q-39 49 -47 62q41 29 62.5 53.5t25.5 71.5q-45 0 -77 27.5t-32 76.5z" />
    <glyph glyph-name="Dcroat" unicode="&#x110;" horiz-adv-x="1273" 
d="M334 1163v-436h244v-117h-244v-440h162q242 0 360.5 134t118.5 362q0 355 -178.5 426t-298.5 71h-164zM145 0v610h-131v117h131v606h359q463 0 564 -242.5t101 -504t-188 -424t-483 -162.5h-353z" />
    <glyph glyph-name="dcroat" unicode="&#x111;" horiz-adv-x="1064" 
d="M525 131q122 0 233 131v432q-41 53 -101.5 92t-132.5 39q-123 0 -188.5 -91t-65.5 -260t66.5 -256t188.5 -87zM752 94q-117 -114 -281 -114q-163 0 -272 120.5t-109 374.5q0 255 118.5 378.5t276.5 123.5t265 -107h6v207h-277v113h277v147l180 76v-223h96v-113h-96v-1077
h-180v94h-4z" />
    <glyph glyph-name="Emacron" unicode="&#x112;" horiz-adv-x="1069" 
d="M324 1616h512v-133h-512v133zM131 1333h879v-170h-688v-370h487v-170h-487v-453h712v-170h-903v1333z" />
    <glyph glyph-name="emacron" unicode="&#x113;" horiz-adv-x="1021" 
d="M281 1358h512v-133h-512v133zM770 569q0 128 -62.5 212.5t-173.5 84.5q-112 0 -182.5 -80.5t-81.5 -216.5h500zM874 109q-140 -129 -344 -129t-322 133t-118 373t122 386t319 146t307 -136.5t110 -373.5v-72h-678q10 -150 87 -227.5t198 -77.5t225 90z" />
    <glyph glyph-name="Ebreve" unicode="&#x114;" horiz-adv-x="1069" 
d="M578 1548q68 0 102.5 42t36.5 89h133q-8 -162 -103 -208t-171 -46q-138 0 -205 77.5t-72 176.5h131q10 -57 45 -94t103 -37zM131 1333h879v-170h-688v-370h487v-170h-487v-453h712v-170h-903v1333z" />
    <glyph glyph-name="ebreve" unicode="&#x115;" horiz-adv-x="1021" 
d="M534 1276q68 0 103 42t37 89h133q-8 -164 -102.5 -209t-170.5 -45q-140 0 -206.5 77.5t-71.5 176.5h131q10 -57 44.5 -94t102.5 -37zM770 569q0 128 -62.5 212.5t-173.5 84.5q-112 0 -182.5 -80.5t-81.5 -216.5h500zM874 109q-140 -129 -344 -129t-322 133t-118 373
t122 386t319 146t307 -136.5t110 -373.5v-72h-678q10 -150 87 -227.5t198 -77.5t225 90z" />
    <glyph glyph-name="Edotaccent" unicode="&#x116;" horiz-adv-x="1069" 
d="M479 1550q0 45 32 77t77 32t76.5 -32t31.5 -77t-31.5 -77.5t-76.5 -32.5t-77 32.5t-32 77.5zM131 1333h879v-170h-688v-370h487v-170h-487v-453h712v-170h-903v1333z" />
    <glyph glyph-name="edotaccent" unicode="&#x117;" horiz-adv-x="1021" 
d="M424 1262q0 45 31.5 76.5t77 31.5t77 -31.5t31.5 -76.5t-31.5 -78t-77 -33t-77 33t-31.5 78zM770 569q0 128 -62.5 212.5t-173.5 84.5q-112 0 -182.5 -80.5t-81.5 -216.5h500zM874 109q-140 -129 -344 -129t-322 133t-118 373t122 386t319 146t307 -136.5t110 -373.5v-72
h-678q10 -150 87 -227.5t198 -77.5t225 90z" />
    <glyph glyph-name="Eogonek" unicode="&#x118;" horiz-adv-x="1069" 
d="M799 -228q0 89 114 228h-782v1333h879v-170h-688v-370h487v-170h-487v-453h712v-170h-16q-94 -127 -94 -205q0 -47 29.5 -71.5t77.5 -24.5t110 27q3 -6 37 -91q-92 -45 -179 -45q-86 0 -143 46.5t-57 135.5z" />
    <glyph glyph-name="eogonek" unicode="&#x119;" horiz-adv-x="1021" 
d="M770 569q0 128 -62.5 212.5t-173.5 84.5q-112 0 -182.5 -80.5t-81.5 -216.5h500zM756 -356q-86 0 -143.5 46t-57.5 126t63 170q-42 -6 -116 -6t-154 32.5t-137 97t-89 160t-32 276t122 326.5t319 146t307 -136.5t110 -373.5v-72h-678q10 -150 87 -227.5t198 -77.5t225 90
l94 -112q-57 -51 -118 -82q-76 -98 -76 -179q0 -47 29.5 -71.5t77.5 -24.5t110 27l37 -90q-92 -45 -178 -45z" />
    <glyph glyph-name="Ecaron" unicode="&#x11a;" horiz-adv-x="1069" 
d="M842 1720l71 -59l-268 -246h-158l-266 244l72 59l270 -166zM131 1333h879v-170h-688v-370h487v-170h-487v-453h712v-170h-903v1333z" />
    <glyph glyph-name="ecaron" unicode="&#x11b;" horiz-adv-x="1021" 
d="M797 1458l69 -57l-264 -271h-160l-266 271l72 57l270 -190zM770 569q0 128 -62.5 212.5t-173.5 84.5q-112 0 -182.5 -80.5t-81.5 -216.5h500zM874 109q-140 -129 -344 -129t-322 133t-118 373t122 386t319 146t307 -136.5t110 -373.5v-72h-678q10 -150 87 -227.5
t198 -77.5t225 90z" />
    <glyph glyph-name="Gcircumflex" unicode="&#x11c;" horiz-adv-x="1239" 
d="M649 1569l-268 -164l-74 59l268 244h158l264 -246l-69 -59zM279 666q0 -369 142 -442.5t238 -73.5q179 0 249.5 111.5t70.5 248.5h-219v160h411v-138q0 -257 -138 -404.5t-393 -147.5t-405.5 186.5t-150.5 500.5t155.5 499.5t422.5 185.5q268 0 425 -195l-137 -127
q-127 146 -302 146t-272 -141t-97 -369z" />
    <glyph glyph-name="gcircumflex" unicode="&#x11d;" horiz-adv-x="1050" 
d="M547 1311l-271 -189l-71 58l266 268h160l264 -268l-70 -60zM516 866q-106 0 -173 -97t-71 -261q0 -369 248 -369q72 0 134.5 42t103.5 89v463q-107 133 -242 133zM756 999h182v-925q0 -182 -99.5 -315.5t-328.5 -188.5l-55 149q257 80 281 178.5t24 137.5v69h-6
q-78 -70 -144.5 -93t-140.5 -23q-166 0 -271.5 119t-105.5 373t113.5 396t271.5 142t279 -113v94z" />
    <glyph glyph-name="Gbreve" unicode="&#x11e;" horiz-adv-x="1239" 
d="M650 1550q68 0 102 42t36 89h134q-8 -161 -102.5 -207.5t-171.5 -46.5q-137 0 -204.5 76.5t-72.5 177.5h131q10 -57 45 -94t103 -37zM279 666q0 -369 142 -442.5t238 -73.5q179 0 249.5 111.5t70.5 248.5h-219v160h411v-138q0 -257 -138 -404.5t-393 -147.5t-405.5 186.5
t-150.5 500.5t155.5 499.5t422.5 185.5q268 0 425 -195l-137 -127q-127 146 -302 146t-272 -141t-97 -369z" />
    <glyph glyph-name="gbreve" unicode="&#x11f;" horiz-adv-x="1050" 
d="M547 1276q68 0 102.5 42t36.5 89h133q-8 -164 -102 -209t-171 -45q-138 0 -205.5 77.5t-72.5 176.5h131q10 -57 45 -94t103 -37zM516 866q-106 0 -173 -97t-71 -261q0 -369 248 -369q72 0 134.5 42t103.5 89v463q-107 133 -242 133zM756 999h182v-925
q0 -182 -99.5 -315.5t-328.5 -188.5l-55 149q257 80 281 178.5t24 137.5v69h-6q-78 -70 -144.5 -93t-140.5 -23q-166 0 -271.5 119t-105.5 373t113.5 396t271.5 142t279 -113v94z" />
    <glyph glyph-name="Gdotaccent" unicode="&#x120;" horiz-adv-x="1239" 
d="M555 1550q0 45 31.5 77t77 32t77 -32t31.5 -77t-31.5 -77.5t-77 -32.5t-77 32.5t-31.5 77.5zM279 666q0 -369 142 -442.5t238 -73.5q179 0 249.5 111.5t70.5 248.5h-219v160h411v-138q0 -257 -138 -404.5t-393 -147.5t-405.5 186.5t-150.5 500.5t155.5 499.5t422.5 185.5
q268 0 425 -195l-137 -127q-127 146 -302 146t-272 -141t-97 -369z" />
    <glyph glyph-name="gdotaccent" unicode="&#x121;" horiz-adv-x="1050" 
d="M465 1284q0 45 31.5 77t76.5 32t77 -32t32 -77t-32 -77.5t-77 -32.5t-76.5 32.5t-31.5 77.5zM516 866q-106 0 -173 -97t-71 -261q0 -369 248 -369q72 0 134.5 42t103.5 89v463q-107 133 -242 133zM756 999h182v-925q0 -182 -99.5 -315.5t-328.5 -188.5l-55 149
q257 80 281 178.5t24 137.5v69h-6q-78 -70 -144.5 -93t-140.5 -23q-166 0 -271.5 119t-105.5 373t113.5 396t271.5 142t279 -113v94z" />
    <glyph glyph-name="Gcommaaccent" unicode="&#x122;" horiz-adv-x="1239" 
d="M520 -222q0 54 34 88t85 34t88 -42t37 -126t-47 -145.5t-123 -96.5l-49 61q41 29 63.5 54.5t26.5 70.5q-47 0 -81 24t-34 78zM279 666q0 -369 142 -442.5t238 -73.5q179 0 249.5 111.5t70.5 248.5h-219v160h411v-138q0 -257 -138 -404.5t-393 -147.5t-405.5 186.5
t-150.5 500.5t155.5 499.5t422.5 185.5q268 0 425 -195l-137 -127q-127 146 -302 146t-272 -141t-97 -369z" />
    <glyph glyph-name="gcommaaccent" unicode="&#x123;" horiz-adv-x="1050" 
d="M668 1234q0 -48 -34 -77t-81 -29t-82 36t-35 115t51.5 150.5t135.5 106.5l43 -63q-96 -49 -105 -138l10 2q37 0 67 -27.5t30 -75.5zM516 866q-106 0 -176 -97t-70 -261q0 -369 250 -369q72 0 133.5 41t102.5 90v463q-41 51 -102.5 92t-137.5 41zM756 999h180v-925
q0 -398 -426 -504l-57 149q259 86 283 181.5t24 134.5v69h-6q-78 -70 -144.5 -92t-139.5 -22q-166 0 -272 123t-106 377t114 390t274 136t270 -113l6 2v94z" />
    <glyph glyph-name="Hcircumflex" unicode="&#x124;" horiz-adv-x="1294" 
d="M649 1569l-268 -164l-74 59l268 244h158l264 -246l-69 -59zM973 608h-651v-608h-193v1333h193v-553h651v553h190v-1333h-190v608z" />
    <glyph glyph-name="hcircumflex" unicode="&#x125;" horiz-adv-x="1026" 
d="M217 1573l-268 -164l-74 59l268 244h158l264 -246l-69 -59zM586 1018q342 0 342 -395v-623h-180v592q0 270 -218 270q-86 0 -161.5 -66.5t-75.5 -209.5v-586h-180v1352l180 75v-555h6q55 76 135 111t152 35z" />
    <glyph glyph-name="Hbar" unicode="&#x126;" horiz-adv-x="1294" 
d="M973 780v250h-651v-250h651zM973 608h-651v-608h-193v1030h-84v115h84v188h193v-188h651v188h190v-188h90v-115h-90v-1030h-190v608z" />
    <glyph glyph-name="hbar" unicode="&#x127;" horiz-adv-x="1030" 
d="M586 965q342 0 342 -398v-567h-180v539q0 270 -218 270q-86 0 -146 -54.5t-76 -114.5t-15 -108v-532h-180v1085h-84v111h84v158q20 8 69 29.5t75 32.5t36 16v-236h399v-111h-399v-266h6q55 76 135 111t152 35z" />
    <glyph glyph-name="Itilde" unicode="&#x128;" horiz-adv-x="626" 
d="M455 1446q-48 0 -114.5 29.5t-101 43t-67.5 13.5q-73 0 -131 -84l-82 37q39 106 100.5 146t106.5 40t83 -14.5t74.5 -30.5t71.5 -30.5t69 -14.5t62.5 15.5t63.5 62.5l78 -39q-67 -174 -213 -174zM207 1333h192v-1333h-192v1333z" />
    <glyph glyph-name="itilde" unicode="&#x129;" horiz-adv-x="667" 
d="M233 997h181v-997h-181v997zM475 1169q-49 0 -143 43t-133 43t-71 -16t-67 -68l-81 37q39 106 99.5 146.5t106.5 40.5t83.5 -14.5t106 -45t105.5 -30.5t65.5 15t63.5 62l78 -39q-67 -174 -213 -174z" />
    <glyph glyph-name="Imacron" unicode="&#x12a;" horiz-adv-x="520" 
d="M8 1612h512v-133h-512v133zM164 1333h192v-1333h-192v1333z" />
    <glyph glyph-name="imacron" unicode="&#x12b;" horiz-adv-x="493" 
d="M160 997h180v-997h-180v997zM-6 1358h512v-133h-512v133z" />
    <glyph glyph-name="Ibreve" unicode="&#x12c;" horiz-adv-x="520" 
d="M266 1548q68 0 102.5 42t37.5 89h133q-8 -161 -102.5 -207.5t-171.5 -46.5q-137 0 -204.5 76.5t-72.5 177.5h131q10 -57 44.5 -94t102.5 -37zM164 1333h192v-1333h-192v1333z" />
    <glyph glyph-name="ibreve" unicode="&#x12d;" horiz-adv-x="530" 
d="M172 997h180v-997h-180v997zM268 1276q68 0 103 42t37 89h133q-8 -163 -102.5 -208.5t-171.5 -45.5q-138 0 -205 77t-72 177h131q10 -57 44.5 -94t102.5 -37z" />
    <glyph glyph-name="Iogonek" unicode="&#x12e;" horiz-adv-x="520" 
d="M90 -228q0 90 115 228h-41v1333h192v-1333h-47q-94 -127 -94 -205q0 -47 29.5 -71.5t77.5 -24.5t110 27q3 -6 37 -91q-92 -45 -178 -45t-143.5 46t-57.5 136z" />
    <glyph glyph-name="iogonek" unicode="&#x12f;" horiz-adv-x="493" 
d="M137 1271q0 46 32 77.5t78 31.5t78.5 -31.5t32.5 -77.5t-32.5 -79t-78.5 -33t-78 33t-32 79zM78 -228q0 90 115 228h-35v999h180v-999h-41q-94 -127 -94 -205q0 -47 29.5 -71.5t77.5 -24.5t110 27q3 -6 37 -91q-92 -45 -179 -45q-86 0 -143 46t-57 136z" />
    <glyph glyph-name="Idotaccent" unicode="&#x130;" horiz-adv-x="520" 
d="M152 1546q0 45 31.5 77t76.5 32t77 -32t32 -77t-32 -77.5t-77 -32.5t-76.5 32.5t-31.5 77.5zM164 1333h192v-1333h-192v1333z" />
    <glyph glyph-name="dotlessi" unicode="&#x131;" horiz-adv-x="493" 
d="M160 997h180v-997h-180v997z" />
    <glyph glyph-name="IJ" unicode="&#x132;" horiz-adv-x="1558" 
d="M1411 524q0 -274 -117.5 -409t-363.5 -135q-195 0 -305.5 86t-163.5 243l180 66q41 -109 108.5 -165t182.5 -56q158 0 223.5 99t65.5 284v796h190v-809zM164 1333h192v-1333h-192v1333z" />
    <glyph glyph-name="ij" unicode="&#x133;" horiz-adv-x="911" 
d="M567 1271q0 46 32 77.5t78 31.5t77.5 -31.5t31.5 -77.5t-31.5 -79t-77.5 -33t-78 33t-32 79zM764 -16q0 -205 -78.5 -298.5t-296.5 -97.5l-12 150q134 22 171.5 70.5t37.5 168.5v1022h178v-1015zM137 1271q0 46 32 77.5t78 31.5t78.5 -31.5t32.5 -77.5t-32.5 -79
t-78.5 -33t-78 33t-32 79zM158 999h180v-999h-180v999z" />
    <glyph glyph-name="Jcircumflex" unicode="&#x134;" horiz-adv-x="1218" 
d="M901 1569l-268 -164l-74 59l268 244h158l264 -246l-69 -59zM1001 526q0 -274 -117.5 -409t-363.5 -135q-195 0 -305.5 86t-163.5 243l180 66q41 -109 109 -165t182 -56q158 0 223.5 99t65.5 284v796h190v-809z" />
    <glyph glyph-name="jcircumflex" unicode="&#x135;" horiz-adv-x="669" 
d="M334 1311l-271 -189l-73 58l268 268h158l264 -268l-70 -60zM420 -14q0 -202 -78 -297t-295 -99l-14 152q134 22 171.5 70.5t37.5 171.5v1015h178v-1013z" />
    <glyph glyph-name="Kcommaaccent" unicode="&#x136;" horiz-adv-x="1210" 
d="M483 -165q0 54 34 88t85 34t88 -42t37 -126t-47 -145.5t-123 -96.5l-49 62q41 29 63.5 54.5t26.5 70.5q-47 0 -81 23.5t-34 77.5zM319 0h-190v1333h190v-704h7l161 211q31 39 83.5 106.5t156 199.5t143.5 187h220q-155 -185 -375 -471q25 -47 62.5 -115.5t80.5 -149.5
t89 -166t89 -166t80 -149.5t62 -115.5h-217q-18 35 -82 153.5t-105 197.5t-79 149.5t-66.5 126t-40.5 78.5q-177 -228 -269 -338v-367z" />
    <glyph glyph-name="kcommaaccent" unicode="&#x137;" horiz-adv-x="940" 
d="M373 -193q0 51 33.5 85t84.5 34t88 -42t37 -126t-47 -145.5t-123 -95.5l-49 61q41 29 63.5 54.5t26.5 70.5q-114 0 -114 104zM291 0h-178v1352l178 75v-888h4l358 458h217l-262 -323q102 -224 149.5 -330t89.5 -197.5t66 -146.5h-198q-18 43 -50 114.5t-82.5 189
t-97.5 224.5l-194 -245v-283z" />
    <glyph glyph-name="kgreenlandic" unicode="&#x138;" horiz-adv-x="952" 
d="M295 0h-180v997h180v-471h2l133 174q25 32 114 146.5t120 150.5h210q-99 -115 -262 -323q25 -55 67 -146.5t86 -190.5t86 -190.5t67 -146.5h-199l-236 524l-188 -241v-283z" />
    <glyph glyph-name="Lacute" unicode="&#x139;" horiz-adv-x="1013" 
d="M227 1413l-63 78l285 207l147 -131zM129 1333h190v-1161h680v-172h-870v1333z" />
    <glyph glyph-name="lacute" unicode="&#x13a;" horiz-adv-x="446" 
d="M195 1438l-64 78l285 206l147 -131zM133 0v1352l180 78v-1430h-180z" />
    <glyph glyph-name="Lcommaaccent" unicode="&#x13b;" horiz-adv-x="1013" 
d="M430 -222q0 54 34 88t85 34t88 -42t37 -126t-47 -145.5t-123 -96.5l-49 61q41 29 63.5 54.5t26.5 70.5q-47 0 -81 24t-34 78zM129 1333h190v-1161h680v-172h-870v1333z" />
    <glyph glyph-name="lcommaaccent" unicode="&#x13c;" horiz-adv-x="446" 
d="M98 -206q0 54 34 88t85 34t88 -42t37 -126t-47 -145.5t-123 -96.5l-49 62q41 29 63.5 54.5t26.5 70.5q-47 0 -81 23.5t-34 77.5zM133 0v1352l180 78v-1430h-180z" />
    <glyph glyph-name="Lcaron" unicode="&#x13d;" horiz-adv-x="1013" 
d="M584 1212q0 51 32.5 84t83.5 33t89 -41.5t38 -125.5t-48 -145t-124 -97l-47 61q41 29 63.5 54.5t26.5 72.5q-114 0 -114 104zM129 1333h190v-1161h680v-172h-870v1333z" />
    <glyph glyph-name="lcaron" unicode="&#x13e;" horiz-adv-x="651" 
d="M416 1266q0 52 33.5 86t84.5 34t88 -41.5t37 -125.5t-48 -145.5t-124 -96.5l-47 61q41 29 63.5 54.5t24.5 72.5q-47 0 -79.5 24.5t-32.5 76.5zM133 0v1352l180 78v-1430h-180z" />
    <glyph glyph-name="Ldot" unicode="&#x13f;" horiz-adv-x="1013" 
d="M543 709q0 45 31.5 76.5t76.5 31.5t77 -31.5t32 -76.5t-32 -78t-77 -33t-76.5 33t-31.5 78zM129 1333h190v-1161h680v-172h-870v1333z" />
    <glyph glyph-name="ldot" unicode="&#x140;" horiz-adv-x="610" 
d="M133 0v1352l180 78v-1430h-180zM410 725q0 45 31.5 77t76.5 32t77 -32t32 -77t-32 -78t-77 -33t-76.5 33t-31.5 78z" />
    <glyph glyph-name="Lslash" unicode="&#x141;" horiz-adv-x="1021" 
d="M129 1333h190v-641l234 135l59 -104l-293 -172v-379h680v-172h-870v440l-115 -65l-63 106l178 103v749z" />
    <glyph glyph-name="lslash" unicode="&#x142;" horiz-adv-x="557" 
d="M354 0h-180v463l-119 -70l-59 107q108 60 178 102v750l180 78v-723l172 98l60 -105l-232 -135v-565z" />
    <glyph glyph-name="Nacute" unicode="&#x143;" horiz-adv-x="1275" 
d="M604 1413l-63 78l284 207l148 -131zM315 1010v-1010h-188v1333h184q41 -63 98.5 -150t118 -179.5t119 -178.5t98.5 -149l213 -338h7v995h186v-1333h-172q-29 41 -110 165t-181.5 275.5t-226.5 350.5l-139 219h-7z" />
    <glyph glyph-name="nacute" unicode="&#x144;" horiz-adv-x="1026" 
d="M496 1128l-97 33l148 346l194 -37zM745 592q-1 270 -203 270q-100 0 -175.5 -66.5t-75.5 -209.5v-586h-180v999h180v-131l6 -2q53 80 133 116t154 36q342 0 342 -395v-623h-181v592z" />
    <glyph glyph-name="Ncommaaccent" unicode="&#x145;" horiz-adv-x="1275" 
d="M510 -161q0 54 34 88t85 34t88 -42t37 -126t-47.5 -145.5t-122.5 -96.5l-49 62q41 29 63.5 54.5t26.5 70.5q-47 0 -81 23.5t-34 77.5zM315 1010v-1010h-188v1333h184q41 -63 98.5 -150t118 -179.5t119 -178.5t98.5 -149l213 -338h7v995h186v-1333h-172q-29 41 -110 165
t-181.5 275.5t-226.5 350.5l-139 219h-7z" />
    <glyph glyph-name="ncommaaccent" unicode="&#x146;" horiz-adv-x="1026" 
d="M397 -222q0 54 34 88t85 34t88 -42t37 -126t-47 -145.5t-123 -96.5l-49 61q41 29 63.5 54.5t26.5 70.5q-47 0 -81 24t-34 78zM745 592q-1 270 -203 270q-100 0 -175.5 -66.5t-75.5 -209.5v-586h-180v999h180v-131l6 -2q53 80 133 116t154 36q342 0 342 -395v-623h-181
v592z" />
    <glyph glyph-name="Ncaron" unicode="&#x147;" horiz-adv-x="1275" 
d="M913 1720l72 -59l-268 -246h-158l-266 244l72 59l270 -166zM315 1010v-1010h-188v1333h184q41 -63 98.5 -150t118 -179.5t119 -178.5t98.5 -149l213 -338h7v995h186v-1333h-172q-29 41 -110 165t-181.5 275.5t-226.5 350.5l-139 219h-7z" />
    <glyph glyph-name="ncaron" unicode="&#x148;" horiz-adv-x="1026" 
d="M772 1458l70 -57l-264 -271h-160l-266 271l71 57l271 -190zM745 592q-1 270 -203 270q-100 0 -175.5 -66.5t-75.5 -209.5v-586h-180v999h180v-131l6 -2q53 80 133 116t154 36q342 0 342 -395v-623h-181v592z" />
    <glyph glyph-name="napostrophe" unicode="&#x149;" horiz-adv-x="1136" 
d="M-10 1271q0 54 33.5 88t84.5 34t88 -42t37 -126t-47 -145.5t-123 -96.5l-49 61q41 29 63.5 54.5t26.5 70.5q-47 0 -80.5 24t-33.5 78zM856 592q0 270 -202 270q-100 0 -175 -65t-78 -211v-586h-180v999h180v-131l7 -2q53 80 133 116t153 36q342 0 342 -395v-623h-180v592
z" />
    <glyph glyph-name="Eng" unicode="&#x14a;" horiz-adv-x="1275" 
d="M890 -236q34 0 57.5 18.5t23.5 76.5v151q-49 76 -120 183.5t-145.5 221t-183 276t-200.5 317.5h-7v-1008h-186v1333h182l523 -790q12 -20 30.5 -49t37 -58.5t33.5 -54.5t23 -37h7v989h186v-1503q0 -160 -88 -187.5t-157 -27.5t-152 37q3 17 13.5 50.5t14.5 51t9 27.5
q65 -17 99 -17z" />
    <glyph glyph-name="eng" unicode="&#x14b;" horiz-adv-x="1026" 
d="M584 1018q342 0 342 -395v-795q0 -158 -89 -185.5t-158 -27.5t-151 37l37 129q62 -17 98 -17t59 18.5t23 76.5v733q0 127 -49.5 198.5t-151.5 71.5t-177.5 -66.5t-75.5 -209.5v-586h-180v999h180v-131l6 -2q53 80 133 116t154 36z" />
    <glyph glyph-name="Omacron" unicode="&#x14c;" horiz-adv-x="1318" 
d="M393 1624h512v-133h-512v133zM287 671q0 -226 96 -372.5t276 -146.5t275.5 148t95.5 372q0 225 -95.5 367.5t-276 142.5t-276 -142.5t-95.5 -368.5zM92 662q0 305 150.5 498.5t412.5 193.5t416 -189.5t154 -499.5t-154.5 -497.5t-415.5 -187.5q-263 0 -413 188.5
t-150 493.5z" />
    <glyph glyph-name="omacron" unicode="&#x14d;" horiz-adv-x="1075" 
d="M540 864q-124 0 -195 -101.5t-71 -266.5q0 -164 66 -263.5t191 -99.5t198.5 105t73.5 262q0 252 -98.5 308t-164.5 56zM92 496q0 241 126 381.5t323 140.5t319.5 -137t122.5 -377t-128 -382t-328 -142t-317.5 137.5t-117.5 378.5zM276 1358h512v-133h-512v133z" />
    <glyph glyph-name="Obreve" unicode="&#x14e;" horiz-adv-x="1318" 
d="M666 1550q68 0 102.5 42t36.5 89h133q-8 -162 -103 -208t-171 -46q-138 0 -205 77.5t-72 176.5h131q10 -57 45 -94t103 -37zM287 671q0 -226 96 -372.5t276 -146.5t275.5 148t95.5 372q0 225 -95.5 367.5t-276 142.5t-276 -142.5t-95.5 -368.5zM92 662q0 305 150.5 498.5
t412.5 193.5t416 -189.5t154 -499.5t-154.5 -497.5t-415.5 -187.5q-263 0 -413 188.5t-150 493.5z" />
    <glyph glyph-name="obreve" unicode="&#x14f;" horiz-adv-x="1075" 
d="M540 864q-124 0 -195 -101.5t-71 -266.5q0 -164 66 -263.5t191 -99.5t198.5 105t73.5 262q0 252 -98.5 308t-164.5 56zM92 496q0 241 126 381.5t323 140.5t319.5 -137t122.5 -377t-128 -382t-328 -142t-317.5 137.5t-117.5 378.5zM534 1276q68 0 103 42t37 89h133
q-8 -164 -102.5 -209t-170.5 -45q-140 0 -206.5 77.5t-71.5 176.5h131q10 -57 44.5 -94t102.5 -37z" />
    <glyph glyph-name="Ohungarumlaut" unicode="&#x150;" horiz-adv-x="1318" 
d="M813 1409l-76 68l254 243l166 -104zM485 1413l-75 68l254 243l167 -106zM287 671q0 -226 96 -372.5t276 -146.5t275.5 148t95.5 372q0 225 -95.5 367.5t-276 142.5t-276 -142.5t-95.5 -368.5zM92 662q0 305 150.5 498.5t412.5 193.5t416 -189.5t154 -499.5t-154.5 -497.5
t-415.5 -187.5q-263 0 -413 188.5t-150 493.5z" />
    <glyph glyph-name="ohungarumlaut" unicode="&#x151;" horiz-adv-x="1075" 
d="M540 864q-124 0 -195 -101.5t-71 -266.5q0 -164 66 -263.5t191 -99.5t198.5 105t73.5 262q0 252 -98.5 308t-164.5 56zM92 496q0 241 126 381.5t323 140.5t319.5 -137t122.5 -377t-128 -382t-328 -142t-317.5 137.5t-117.5 378.5zM662 1128l-95 35l135 326l197 -35z
M397 1130l-98 35l137 326l195 -37z" />
    <glyph glyph-name="OE" unicode="&#x152;" horiz-adv-x="1779" 
d="M659 152q87 0 150 32v965q-63 33 -150 33q-173 0 -270.5 -142t-97.5 -368q0 -227 69.5 -333t140.5 -146.5t158 -40.5zM639 -20q-110 0 -216 51t-215.5 188.5t-109.5 442.5t150.5 498.5t415.5 193.5q86 0 153 -21h862v-170h-682v-370h482v-170h-482v-453h709v-170h-883
q-74 -20 -184 -20z" />
    <glyph glyph-name="oe" unicode="&#x153;" horiz-adv-x="1736" 
d="M1485 569q0 130 -62 215.5t-174 85.5t-185 -82.5t-77 -218.5h498zM532 864q-124 0 -192 -101t-68 -266t70 -264.5t193 -99.5t193.5 106.5t70.5 260.5q0 253 -100.5 308.5t-166.5 55.5zM542 -20q-204 0 -327 141t-123 381t125.5 378t319.5 138q117 0 209 -53.5t149 -151.5
q55 98 144 151.5t197 53.5q205 0 316 -136t111 -372v-72h-678q10 -154 86 -230.5t196 -76.5t224 90l98 -112q-144 -129 -348 -129q-109 0 -201 50t-147 154q-57 -100 -151 -152t-200 -52z" />
    <glyph glyph-name="Racute" unicode="&#x154;" horiz-adv-x="1212" 
d="M506 1413l-64 78l285 207l147 -131zM317 1165v-485h365q121 0 187.5 64.5t66.5 181t-69.5 178t-184.5 61.5h-365zM1128 928q0 -154 -72.5 -251t-201.5 -136l260 -541h-209l-235 516h-353v-516h-186v1333h561q307 0 371.5 -150.5t64.5 -254.5z" />
    <glyph glyph-name="racute" unicode="&#x155;" horiz-adv-x="743" 
d="M367 1128l-97 33l148 346l194 -37zM563 834q-244 0 -244 -267v-567h-180v999h180v-135h5q43 80 115.5 117t147.5 37t146 -25l-37 -174q-92 15 -133 15z" />
    <glyph glyph-name="Rcommaaccent" unicode="&#x156;" horiz-adv-x="1212" 
d="M467 -157q0 54 34 88t85 34t88 -41.5t37 -125.5t-47.5 -146t-122.5 -96l-49 61q41 29 63.5 54.5t26.5 70.5q-47 0 -81 23.5t-34 77.5zM317 1165v-485h365q121 0 187.5 64.5t66.5 181t-69.5 178t-184.5 61.5h-365zM1128 928q0 -154 -72.5 -251t-201.5 -136l260 -541h-209
l-235 516h-353v-516h-186v1333h561q307 0 371.5 -150.5t64.5 -254.5z" />
    <glyph glyph-name="rcommaaccent" unicode="&#x157;" horiz-adv-x="743" 
d="M109 -222q0 54 33.5 88t84.5 34t88 -42t37 -126t-47 -145.5t-123 -96.5l-49 61q41 29 63.5 54.5t26.5 70.5q-47 0 -80.5 24t-33.5 78zM563 834q-244 0 -244 -267v-567h-180v999h180v-135h5q43 80 115.5 117t147.5 37t146 -25l-37 -174q-92 15 -133 15z" />
    <glyph glyph-name="Rcaron" unicode="&#x158;" horiz-adv-x="1212" 
d="M852 1720l72 -59l-269 -246h-157l-267 244l72 59l270 -166zM317 1165v-485h365q121 0 187.5 64.5t66.5 181t-69.5 178t-184.5 61.5h-365zM1128 928q0 -154 -72.5 -251t-201.5 -136l260 -541h-209l-235 516h-353v-516h-186v1333h561q307 0 371.5 -150.5t64.5 -254.5z" />
    <glyph glyph-name="rcaron" unicode="&#x159;" horiz-adv-x="743" 
d="M645 1458l70 -57l-264 -271h-160l-266 271l71 57l271 -190zM563 834q-244 0 -244 -267v-567h-180v999h180v-135h5q43 80 115.5 117t147.5 37t146 -25l-37 -174q-92 15 -133 15z" />
    <glyph glyph-name="Sacute" unicode="&#x15a;" horiz-adv-x="1116" 
d="M535 1413l-64 78l285 207l147 -131zM868 356q0 135 -121.5 177t-206.5 69t-164 57.5t-162 96t-83 230.5t129 266.5t324 101.5q251 0 434 -150l-113 -137q-147 117 -338 117q-121 0 -182 -54.5t-61 -134.5q0 -111 104 -151.5t248.5 -86.5t266.5 -122.5t122 -264.5
t-129 -289t-371 -101q-141 0 -263 48t-208 130l121 137q166 -145 360 -145q293 0 293 206z" />
    <glyph glyph-name="sacute" unicode="&#x15b;" horiz-adv-x="919" 
d="M463 1128l-96 33l147 346l195 -37zM321.5 834.5q-49.5 -35.5 -49.5 -86.5t43 -85.5t142 -63.5q197 -56 290 -127.5t93 -205.5t-109 -210t-295 -76q-187 0 -358 98l65 135q160 -88 304 -88t179.5 49t35.5 87q0 69 -56 106t-153 68q-182 57 -266.5 125.5t-84.5 186.5
q0 117 96.5 194t279.5 77t327 -78l-60 -137q-127 67 -251 67q-123 0 -172.5 -35.5z" />
    <glyph glyph-name="Scircumflex" unicode="&#x15c;" horiz-adv-x="1116" 
d="M578 1569l-269 -164l-73 59l268 244h158l264 -246l-70 -59zM868 356q0 135 -121.5 177t-206.5 69t-164 57.5t-162 96t-83 230.5t129 266.5t324 101.5q251 0 434 -150l-113 -137q-147 117 -338 117q-121 0 -182 -54.5t-61 -134.5q0 -111 104 -151.5t248.5 -86.5
t266.5 -122.5t122 -264.5t-129 -289t-371 -101q-141 0 -263 48t-208 130l121 137q166 -145 360 -145q293 0 293 206z" />
    <glyph glyph-name="scircumflex" unicode="&#x15d;" horiz-adv-x="919" 
d="M455 1311l-271 -189l-71 58l266 268h160l264 -268l-70 -60zM321.5 834.5q-49.5 -35.5 -49.5 -86.5t43 -85.5t142 -63.5q197 -56 290 -127.5t93 -205.5t-109 -210t-295 -76q-187 0 -358 98l65 135q160 -88 304 -88t179.5 49t35.5 87q0 69 -56 106t-153 68
q-182 57 -266.5 125.5t-84.5 186.5q0 117 96.5 194t279.5 77t327 -78l-60 -137q-127 67 -251 67q-123 0 -172.5 -35.5z" />
    <glyph glyph-name="Scedilla" unicode="&#x15e;" horiz-adv-x="1116" 
d="M538 -334q109 0 109 79q0 38 -30.5 58.5t-71.5 20.5l-23 -2l-47 47l37 113q-254 20 -418 176l121 137q166 -145 360 -145q293 0 293 206q0 135 -121.5 177t-206.5 69t-164 57.5t-162 96t-83 230.5t129 266.5t324 101.5q251 0 434 -150l-113 -137q-147 117 -338 117
q-121 0 -182 -54.5t-61 -134.5q0 -111 104 -151.5t248.5 -86.5t266.5 -122.5t122 -261.5t-120 -284t-345 -107l-22 -68q106 -7 153 -58.5t47 -94.5q0 -82 -55.5 -134.5t-157.5 -52.5t-184 37l31 84q72 -29 126 -29z" />
    <glyph glyph-name="scedilla" unicode="&#x15f;" horiz-adv-x="919" 
d="M423 -334q109 0 109 79q0 38 -30.5 58.5t-71.5 20.5l-22 -2l-48 47l37 113q-172 12 -319 96l65 135q160 -88 304 -88t179.5 49t35.5 87q0 69 -56 106t-153 68q-182 57 -266.5 125.5t-84.5 186.5q0 117 96.5 194t279.5 77t327 -78l-60 -137q-127 67 -251 67
q-123 0 -172.5 -35.5t-49.5 -86.5t43 -85.5t142 -63.5q197 -56 290 -127.5t93 -201.5q0 -195 -139.5 -239.5t-215.5 -48.5l-22 -68q106 -7 153.5 -59t47.5 -95q0 -80 -55 -133t-158 -53t-185 37l31 84q72 -29 126 -29z" />
    <glyph glyph-name="Scaron" unicode="&#x160;" horiz-adv-x="1116" 
d="M854 1720l72 -59l-269 -246h-157l-267 244l72 59l270 -166zM868 356q0 135 -121.5 177t-206.5 69t-164 57.5t-162 96t-83 230.5t129 266.5t324 101.5q251 0 434 -150l-113 -137q-147 117 -338 117q-121 0 -182 -54.5t-61 -134.5q0 -111 104 -151.5t248.5 -86.5
t266.5 -122.5t122 -264.5t-129 -289t-371 -101q-141 0 -263 48t-208 130l121 137q166 -145 360 -145q293 0 293 206z" />
    <glyph glyph-name="scaron" unicode="&#x161;" horiz-adv-x="919" 
d="M725 1458l70 -57l-265 -271h-159l-267 271l72 57l270 -190zM321.5 834.5q-49.5 -35.5 -49.5 -86.5t43 -85.5t142 -63.5q197 -56 290 -127.5t93 -205.5t-109 -210t-295 -76q-187 0 -358 98l65 135q160 -88 304 -88t179.5 49t35.5 87q0 69 -56 106t-153 68
q-182 57 -266.5 125.5t-84.5 186.5q0 117 96.5 194t279.5 77t327 -78l-60 -137q-127 67 -251 67q-123 0 -172.5 -35.5z" />
    <glyph glyph-name="Tcommaaccent" unicode="&#x162;" horiz-adv-x="1052" 
d="M416 -222q0 54 33.5 88t84.5 34t88 -42t37 -126t-47 -145.5t-123 -96.5l-49 61q41 29 63.5 54.5t26.5 70.5q-47 0 -80.5 24t-33.5 78zM625 0h-187v1163h-401v170h991v-170h-403v-1163z" />
    <glyph glyph-name="tcommaaccent" unicode="&#x163;" horiz-adv-x="679" 
d="M240 -222q0 54 33.5 88t84.5 34t88 -42t37 -126t-47 -145.5t-123 -96.5l-49 61q41 29 63.5 54.5t26.5 70.5q-47 0 -80.5 24t-33.5 78zM432 -16q-227 0 -227 245v625h-152v145h154v238q30 15 90 39t82 35v-312h209v-145h-209v-588q0 -70 26.5 -95.5t80.5 -25.5t132 13
l17 -138q-92 -36 -203 -36z" />
    <glyph glyph-name="Tcaron" unicode="&#x164;" horiz-adv-x="1052" 
d="M811 1720l72 -59l-269 -246h-157l-267 244l72 59l270 -166zM625 0h-187v1163h-401v170h991v-170h-403v-1163z" />
    <glyph glyph-name="tcaron" unicode="&#x165;" horiz-adv-x="720" 
d="M494 1457q0 50 31.5 84t81.5 34t87 -42t37 -126t-47 -145.5t-123 -96.5l-47 62q41 29 62.5 54.5t25.5 72.5q-45 0 -76.5 26.5t-31.5 76.5zM432 -16q-227 0 -227 245v625h-152v145h154v238q30 15 90 39t82 35v-312h209v-145h-209v-588q0 -70 26.5 -95.5t80.5 -25.5t132 13
l17 -138q-92 -36 -203 -36z" />
    <glyph glyph-name="Tbar" unicode="&#x166;" horiz-adv-x="1052" 
d="M625 803h391v-131h-391v-672h-187v672h-395v131h395v360h-401v170h991v-170h-403v-360z" />
    <glyph glyph-name="tbar" unicode="&#x167;" horiz-adv-x="679" 
d="M432 -16q-227 0 -227 245v256h-156v123h156v246h-152v145h154v238q30 15 90 39t82 35v-312h209v-145h-209v-246h199v-123h-199v-219q0 -70 26.5 -95.5t80.5 -25.5t132 13l17 -138q-92 -36 -203 -36z" />
    <glyph glyph-name="Utilde" unicode="&#x168;" horiz-adv-x="1284" 
d="M512 1528q-73 0 -131 -84l-82 37q39 106 100.5 146t106.5 40t83 -14.5t74.5 -30.5t71.5 -30.5t69 -14.5t62.5 15.5t63.5 62.5l78 -39q-67 -174 -213 -174q-52 0 -116.5 29.5t-99 43t-67.5 13.5zM643 -20q-244 0 -378 144t-134 433v776h191v-768q0 -193 80.5 -302
t245.5 -109t244 106.5t79 292.5v780h192v-778q0 -291 -138 -433t-382 -142z" />
    <glyph glyph-name="utilde" unicode="&#x169;" horiz-adv-x="1024" 
d="M668 1169q-50 0 -144 43t-133 43t-70.5 -16t-66.5 -68l-82 37q39 106 100.5 146.5t106.5 40.5q57 0 156.5 -45t137.5 -45t66.5 15t63.5 62l78 -39q-67 -174 -213 -174zM287 406q-1 -265 197 -265q183 0 235 178q12 43 12 95v585h180v-999h-180v129h-6
q-57 -80 -133 -114.5t-148 -34.5q-338 0 -338 380v639h181v-593z" />
    <glyph glyph-name="Umacron" unicode="&#x16a;" horiz-adv-x="1284" 
d="M387 1616h512v-133h-512v133zM643 -20q-244 0 -378 144t-134 433v776h191v-768q0 -193 80.5 -302t245.5 -109t244 106.5t79 292.5v780h192v-778q0 -291 -138 -433t-382 -142z" />
    <glyph glyph-name="umacron" unicode="&#x16b;" horiz-adv-x="1024" 
d="M274 1358h512v-133h-512v133zM287 406q-1 -265 197 -265q183 0 235 178q12 43 12 95v585h180v-999h-180v129h-6q-57 -80 -133 -114.5t-148 -34.5q-338 0 -338 380v639h181v-593z" />
    <glyph glyph-name="Ubreve" unicode="&#x16c;" horiz-adv-x="1284" 
d="M652 1548q68 0 102 42t37 89h133q-8 -161 -102.5 -207.5t-171.5 -46.5q-137 0 -204.5 76.5t-72.5 177.5h131q10 -57 45 -94t103 -37zM643 -20q-244 0 -378 144t-134 433v776h191v-768q0 -193 80.5 -302t245.5 -109t244 106.5t79 292.5v780h192v-778q0 -291 -138 -433
t-382 -142z" />
    <glyph glyph-name="ubreve" unicode="&#x16d;" horiz-adv-x="1024" 
d="M526 1276q68 0 103 42t37 89h133q-8 -164 -102.5 -209t-171.5 -45q-139 0 -205.5 77.5t-71.5 176.5h131q10 -57 44.5 -94t102.5 -37zM287 406q-1 -265 197 -265q183 0 235 178q12 43 12 95v585h180v-999h-180v129h-6q-57 -80 -133 -114.5t-148 -34.5q-338 0 -338 380v639
h181v-593z" />
    <glyph glyph-name="Uring" unicode="&#x16e;" horiz-adv-x="1284" 
d="M656 1634q-42 0 -70.5 -28.5t-28.5 -71.5t28.5 -72.5t70.5 -29.5t71 29.5t29 72.5t-29 71.5t-71 28.5zM656 1339q-83 0 -139 54.5t-56 139.5t56 140.5t139 55.5t139.5 -55.5t56.5 -139.5t-56.5 -139.5t-139.5 -55.5zM643 -20q-244 0 -378 144t-134 433v776h191v-768
q0 -193 80.5 -302t245.5 -109t244 106.5t79 292.5v780h192v-778q0 -291 -138 -433t-382 -142z" />
    <glyph glyph-name="uring" unicode="&#x16f;" horiz-adv-x="1024" 
d="M529 1409q-42 0 -70.5 -28.5t-28.5 -71.5t28.5 -73t70.5 -30t71 30t29 73t-29 71.5t-71 28.5zM529 1114q-83 0 -139 54.5t-56 139.5t56 140t139 55t139.5 -55t56.5 -139t-56.5 -139.5t-139.5 -55.5zM287 406q-1 -265 197 -265q183 0 235 178q12 43 12 95v585h180v-999
h-180v129h-6q-57 -80 -133 -114.5t-148 -34.5q-338 0 -338 380v639h181v-593z" />
    <glyph glyph-name="Uhungarumlaut" unicode="&#x170;" horiz-adv-x="1284" 
d="M788 1409l-75 68l254 243l166 -104zM461 1413l-76 68l254 243l168 -106zM643 -20q-244 0 -378 144t-134 433v776h191v-768q0 -193 80.5 -302t245.5 -109t244 106.5t79 292.5v780h192v-778q0 -291 -138 -433t-382 -142z" />
    <glyph glyph-name="uhungarumlaut" unicode="&#x171;" horiz-adv-x="1024" 
d="M684 1128l-94 35l135 326l197 -35zM420 1130l-98 35l137 326l194 -37zM287 406q-1 -265 197 -265q183 0 235 178q12 43 12 95v585h180v-999h-180v129h-6q-57 -80 -133 -114.5t-148 -34.5q-338 0 -338 380v639h181v-593z" />
    <glyph glyph-name="Uogonek" unicode="&#x172;" horiz-adv-x="1284" 
d="M508 -229q0 86 98 209q-227 10 -351 154.5t-124 422.5v776h191v-768q0 -193 80.5 -302t245.5 -109t244 106.5t79 292.5v780h192v-778q0 -270 -117.5 -411.5t-332.5 -159.5q-80 -114 -80 -174q0 -110 106 -109q49 0 111 27l37 -90q-94 -46 -179 -46t-142.5 46.5
t-57.5 132.5z" />
    <glyph glyph-name="uogonek" unicode="&#x173;" horiz-adv-x="1024" 
d="M287 406q-1 -265 197 -265q183 0 235 178q12 43 12 95v585h180v-999h-80q-92 -123 -92 -203q0 -47 30 -71.5t78 -24.5t109 27l37 -90q-94 -46 -179 -46t-142.5 46.5t-57.5 135.5t117 228v127h-6q-57 -80 -133 -114.5t-148 -34.5q-338 0 -338 380v639h181v-593z" />
    <glyph glyph-name="Wcircumflex" unicode="&#x174;" horiz-adv-x="1589" 
d="M799 1569l-269 -164l-73 59l268 244h158l264 -246l-70 -59zM246 1333q206 -1049 207 -1054h6l67 290q14 61 40 166t52.5 216.5t51 216t39.5 165.5h184q17 -66 44.5 -181.5t49 -203.5t45.5 -194t47 -193l64 -282h4l57 282q4 25 16.5 85.5t27 137t31.5 161.5t32.5 163
t27 138.5t17.5 86.5h190q-8 -39 -30.5 -142.5t-51 -238.5t-61.5 -285.5t-62.5 -285.5t-52 -238.5t-31.5 -142.5h-215l-178 750q-10 57 -35.5 157.5t-27.5 112.5h-4l-62 -266q-10 -41 -25.5 -101.5t-36.5 -146t-60 -251t-62 -255.5h-211q-40 165 -145.5 666.5t-145.5 666.5
h197z" />
    <glyph glyph-name="wcircumflex" unicode="&#x175;" horiz-adv-x="1325" 
d="M647 1311l-270 -189l-72 58l266 268h160l264 -268l-69 -60zM653 745l-51 -202l-145 -543h-166q-23 88 -59.5 222t-75.5 277.5t-75 277.5t-61 222h183l114 -471l60 -274h6q15 70 28 116t23 86t22 80t29 109.5t35.5 138t33.5 127t24 88.5h163l129 -489l58 -258h6l59 262
q12 43 27.5 107.5t43 173.5t48.5 204h182q-25 -88 -61.5 -222t-110.5 -399.5t-102 -377.5h-172q-30 113 -73.5 283.5t-76.5 294.5l-41 167h-4z" />
    <glyph glyph-name="Ycircumflex" unicode="&#x176;" horiz-adv-x="1187" 
d="M606 1569l-268 -164l-74 59l268 244h158l264 -246l-69 -59zM592 633q99 193 369 700h210l-485 -866v-467h-188v467l-486 866h215q85 -167 189 -362q105 -195 176 -338z" />
    <glyph glyph-name="ycircumflex" unicode="&#x177;" horiz-adv-x="978" 
d="M504 1311l-271 -189l-71 58l266 268h160l264 -268l-70 -60zM948 999q-412 -1137 -504 -1384h-170l132 367q-34 85 -93 246t-97 260.5t-71.5 193.5t-64.5 176t-53 141h188l174 -503q17 -59 39.5 -125t34.5 -105t22 -65h7q8 27 22 65.5t27.5 81.5t27 82t21.5 66l178 503
h180z" />
    <glyph glyph-name="Ydieresis" unicode="&#x178;" horiz-adv-x="1187" 
d="M414 1448q-41 0 -73 30.5t-32 73.5t32 73t73 30t72.5 -30t31.5 -73t-31.5 -73.5t-72.5 -30.5zM820 1448q-42 0 -73.5 30.5t-31.5 73.5t31.5 73t73.5 30t72 -30t30 -73t-30 -73.5t-72 -30.5zM592 633q99 193 369 700h210l-485 -866v-467h-188v467l-486 866h215
q85 -167 189 -362q105 -195 176 -338z" />
    <glyph glyph-name="Zacute" unicode="&#x179;" horiz-adv-x="1150" 
d="M551 1413l-64 78l285 207l148 -131zM115 1163v170h972v-166l-788 -997h786v-170h-1009v164l788 999h-749z" />
    <glyph glyph-name="zacute" unicode="&#x17a;" horiz-adv-x="940" 
d="M500 1128l-97 33l148 346l194 -37zM292 150q1 0 1 -3h559v-147h-776v141l555 705q0 4 -2 6h-516v147h737v-141l-559 -706q0 -2 1 -2z" />
    <glyph glyph-name="Zdotaccent" unicode="&#x17b;" horiz-adv-x="1150" 
d="M500 1554q0 45 31.5 77t76.5 32t77 -32t32 -77t-32 -77.5t-77 -32.5t-76.5 32.5t-31.5 77.5zM115 1163v170h972v-166l-788 -997h786v-170h-1009v164l788 999h-749z" />
    <glyph glyph-name="zdotaccent" unicode="&#x17c;" horiz-adv-x="940" 
d="M395 1284q0 45 32 77t77 32t76.5 -32t31.5 -77t-31.5 -77.5t-76.5 -32.5t-77 32.5t-32 77.5zM292 150q1 0 1 -3h559v-147h-776v141l555 705q0 4 -2 6h-516v147h737v-141l-559 -706q0 -2 1 -2z" />
    <glyph glyph-name="Zcaron" unicode="&#x17d;" horiz-adv-x="1150" 
d="M897 1720l72 -59l-269 -246h-157l-267 244l72 59l270 -166zM115 1163v170h972v-166l-788 -997h786v-170h-1009v164l788 999h-749z" />
    <glyph glyph-name="zcaron" unicode="&#x17e;" horiz-adv-x="940" 
d="M760 1458l69 -57l-264 -271h-159l-267 271l72 57l270 -190zM292 150q1 0 1 -3h559v-147h-776v141l555 705q0 4 -2 6h-516v147h737v-141l-559 -706q0 -2 1 -2z" />
    <glyph glyph-name="florin" unicode="&#x192;" horiz-adv-x="1265" 
d="M272 -45q82 0 120.5 62t60.5 186t39.5 250.5t33.5 232.5h-178v150h199q10 88 26.5 187t83 235.5t277.5 136.5q90 0 180 -31l-39 -152q-67 23 -129 23q-110 0 -154.5 -111t-58.5 -288h207v-150h-229q-23 -195 -43.5 -357.5t-60.5 -281.5t-111.5 -185.5t-190.5 -66.5
t-203 41l50 146q79 -27 120 -27z" />
    <glyph glyph-name="Ohorn" unicode="&#x1a0;" horiz-adv-x="1318" 
d="M287 671q0 -226 96 -372.5t276 -146.5t275.5 148t95.5 372q0 225 -95.5 367.5t-276 142.5t-276 -142.5t-95.5 -368.5zM1065 1171q160 -189 160 -502t-154.5 -501t-416.5 -188t-412 188.5t-150 493.5t150.5 498.5t416.5 193.5q145 0 263 -64h18q84 0 120 44t36 161v76h151
v-101q0 -243 -182 -299z" />
    <glyph glyph-name="ohorn" unicode="&#x1a1;" horiz-adv-x="1110" 
d="M540 864q-124 0 -195 -101.5t-71 -266.5q0 -164 66 -263.5t191 -99.5t198.5 105t73.5 262q0 252 -98.5 308t-164.5 56zM983 535q0 -152 -35 -250.5t-96 -166t-144 -103t-232 -35.5t-266.5 137t-117.5 379q0 241 126 381.5t325 140.5q150 0 256 -82q84 0 119.5 44
t35.5 159v75h150v-100q0 -252 -195 -303q74 -124 74 -276z" />
    <glyph glyph-name="Uhorn" unicode="&#x1af;" horiz-adv-x="1413" 
d="M1442 1468q0 -304 -279 -315v-598q0 -291 -138 -433t-382 -142t-378 144t-134 433v776h191v-768q0 -193 80.5 -302t245.5 -109t244 106.5t79 292.5v780h192v-45q68 6 97.5 52t29.5 153v76h152v-101z" />
    <glyph glyph-name="uhorn" unicode="&#x1b0;" horiz-adv-x="1161" 
d="M287 406q-1 -265 197 -265q183 0 235 178q12 43 12 95v585h180v-63q72 4 104 49t32 154v75h149v-100q0 -305 -285 -313v-801h-180v129h-6q-57 -80 -133 -114.5t-148 -34.5q-338 0 -338 380v639h181v-593z" />
    <glyph glyph-name="AEacute" unicode="&#x1fc;" horiz-adv-x="1855" 
d="M1120 1413l-63 78l284 207l148 -131zM915 518v643l-383 -643h383zM915 354h-473l-215 -354h-207l795 1333h973v-170h-680v-372h479v-168h-479v-455h704v-168h-897v354z" />
    <glyph glyph-name="aeacute" unicode="&#x1fd;" horiz-adv-x="1656" 
d="M897 1128l-96 33l147 346l195 -37zM1399 569q0 205 -92.5 251t-148.5 46q-106 0 -178.5 -82.5t-76.5 -214.5h496zM454 119q87 0 167.5 44t136.5 109q-27 70 -31 154q-121 66 -234 66t-177 -49.5t-64 -136.5t57.5 -137t144.5 -50zM526 1020q235 0 320 -162q53 76 135 118
t180 42q195 0 306.5 -138.5t111.5 -363.5v-78h-676q8 -160 85 -233.5t198 -73.5t221 92l96 -114q-84 -72 -165 -100.5t-181 -28.5q-220 0 -336 172q-131 -106 -201.5 -134t-111.5 -33t-93 -5q-128 0 -230.5 78.5t-102.5 234.5q0 155 107.5 242.5t250.5 87.5t283 -64
q0 45 4 123t-55.5 133t-180.5 55t-249 -65l-58 137q156 78 342 78z" />
    <glyph glyph-name="Oslashacute" unicode="&#x1fe;" horiz-adv-x="1318" 
d="M618 1413l-63 78l285 207l147 -131zM659 152q180 0 275.5 148t95.5 349q0 202 -63 332l-559 -717q99 -112 251 -112zM909 1069q-100 113 -265 113t-261 -142.5t-96 -349.5q0 -208 65 -338zM1090 1139q135 -184 135 -484t-154.5 -487.5t-413.5 -187.5q-225 0 -366 135
l-115 -148l-76 62l125 161q-133 185 -133 481t150.5 489.5t416.5 193.5q212 0 365 -140l123 160l78 -63z" />
    <glyph glyph-name="oslashacute" unicode="&#x1ff;" horiz-adv-x="1075" 
d="M549 1128l-96 33l147 346l195 -37zM803 524q0 98 -41 191l-393 -518q69 -63 149 -63t130 29.5t85 79.5t52.5 116.5t17.5 164.5zM705 799q-69 65 -180 65q-110 0 -180.5 -101.5t-70.5 -245.5t41 -236zM874 864q109 -141 109 -371t-128 -371.5t-329 -141.5q-154 0 -260 81
l-84 -110l-73 55l92 123q-109 133 -109 371t126 378t325 140q152 0 262 -86l78 104l75 -61z" />
    <glyph glyph-name="Scommaaccent" unicode="&#x218;" horiz-adv-x="1116" 
d="M457 -222q0 54 33.5 88t84.5 34t88 -42t37 -126t-47 -145.5t-123 -96.5l-49 61q41 29 63.5 54.5t26.5 70.5q-47 0 -80.5 24t-33.5 78zM868 356q0 135 -121.5 177t-206.5 69t-164 57.5t-162 96t-83 230.5t129 266.5t324 101.5q251 0 434 -150l-113 -137q-147 117 -338 117
q-121 0 -182 -54.5t-61 -134.5q0 -111 104 -151.5t248.5 -86.5t266.5 -122.5t122 -264.5t-129 -289t-371 -101q-141 0 -263 48t-208 130l121 137q166 -145 360 -145q293 0 293 206z" />
    <glyph glyph-name="scommaaccent" unicode="&#x219;" horiz-adv-x="919" 
d="M332 -222q0 54 33 88t85 34t88.5 -42t36.5 -126t-47 -145.5t-122 -96.5l-50 61q41 29 63.5 54.5t26.5 70.5q-47 0 -80.5 24t-33.5 78zM321.5 834.5q-49.5 -35.5 -49.5 -86.5t43 -85.5t142 -63.5q197 -56 290 -127.5t93 -205.5t-109 -210t-295 -76q-187 0 -358 98l65 135
q160 -88 304 -88t179.5 49t35.5 87q0 69 -56 106t-153 68q-182 57 -266.5 125.5t-84.5 186.5q0 117 96.5 194t279.5 77t327 -78l-60 -137q-127 67 -251 67q-123 0 -172.5 -35.5z" />
    <glyph glyph-name="schwa" unicode="&#x259;" horiz-adv-x="1017" 
d="M502 127q106 0 175.5 81.5t80.5 219.5h-502q14 -213 102 -257t144 -44zM174 887q138 131 327 131t313 -137t124 -377q0 -239 -122.5 -381.5t-318.5 -142.5t-304.5 141t-108.5 366v72h676q-14 162 -89 233.5t-189 71.5t-214 -88z" />
    <glyph glyph-name="primemod" unicode="&#x2b9;" horiz-adv-x="434" 
d="M125 860l-98 33l245 582l215 -41z" />
    <glyph glyph-name="circumflex" unicode="&#x2c6;" horiz-adv-x="1060" 
d="M524 1311l-270 -189l-72 58l267 268h159l264 -268l-69 -60z" />
    <glyph glyph-name="caron" unicode="&#x2c7;" horiz-adv-x="937" 
d="M754 1458l69 -57l-264 -271h-160l-266 271l72 57l270 -190z" />
    <glyph glyph-name="breve" unicode="&#x2d8;" horiz-adv-x="1032" 
d="M556 1153q-138 0 -205 77t-72 177h131q23 -131 147 -131q68 0 102.5 42t36.5 89h133q-8 -164 -102 -209t-171 -45z" />
    <glyph glyph-name="dotaccent" unicode="&#x2d9;" horiz-adv-x="671" 
d="M240 1284q0 45 31.5 77t76.5 32t77 -32t32 -77t-32 -77.5t-77 -32.5t-76.5 32.5t-31.5 77.5z" />
    <glyph glyph-name="ring" unicode="&#x2da;" horiz-adv-x="1001" 
d="M548 1409q-42 0 -70.5 -28.5t-28.5 -71.5t28.5 -73t70.5 -30t70.5 30t28.5 73t-28.5 71.5t-70.5 28.5zM548 1114q-83 0 -139.5 54.5t-56.5 139.5t56.5 140t139.5 55t139 -55t56 -139t-56 -139.5t-139 -55.5z" />
    <glyph glyph-name="ogonek" unicode="&#x2db;" horiz-adv-x="827" 
d="M244 -225q0 92 123 233h100v-4q-98 -129 -98 -209q0 -47 29.5 -71.5t77.5 -24.5t110 27q3 -6 37 -91q-92 -45 -179 -45q-86 0 -143 46.5t-57 138.5z" />
    <glyph glyph-name="tilde" unicode="&#x2dc;" horiz-adv-x="1034" 
d="M664 1169q-50 0 -144 43t-133 43t-70.5 -16t-66.5 -68l-82 37q39 106 100.5 146.5t106.5 40.5q57 0 156.5 -45t137.5 -45t66.5 15t63.5 62l78 -39q-67 -174 -213 -174z" />
    <glyph glyph-name="hungarumlaut" unicode="&#x2dd;" horiz-adv-x="1144" 
d="M774 1128l-94 35l135 326l197 -35zM510 1130l-98 35l137 326l194 -37z" />
    <glyph glyph-name="tonos" unicode="&#x384;" horiz-adv-x="1001" 
d="M508 1130l-96 33l147 346l195 -36z" />
    <glyph glyph-name="dieresistonos" unicode="&#x385;" horiz-adv-x="1015" 
d="M467 1130l-96 33l133 326l196 -33zM244 1178q-41 0 -72 30.5t-31 73.5t31 72.5t72 29.5t72.5 -29.5t31.5 -72.5t-31.5 -73.5t-72.5 -30.5zM790 1178q-42 0 -73 30.5t-31 73.5t31 72.5t73 29.5t72.5 -29.5t30.5 -72.5t-30.5 -73.5t-72.5 -30.5z" />
    <glyph glyph-name="Alphatonos" unicode="&#x386;" horiz-adv-x="1300" 
d="M100 1024l-96 33l148 346l194 -37zM905 467q-61 168 -124.5 325.5t-123.5 340.5h-6l-248 -666h502zM1079 0q-76 200 -114 305h-619q-52 -141 -115 -305h-198l520 1333h209q247 -642 520 -1333h-203z" />
    <glyph glyph-name="anoteleia" unicode="&#x387;" horiz-adv-x="471" 
d="M237.5 625q-49.5 0 -84 34.5t-34.5 86.5t35.5 86t85.5 34t82 -36t32 -86t-33.5 -84.5t-83 -34.5z" />
    <glyph glyph-name="Epsilontonos" unicode="&#x388;" horiz-adv-x="1069" 
d="M131 1333h879v-170h-688v-370h487v-170h-487v-453h712v-170h-903v1333zM-190 1028l-97 33l148 346l194 -37z" />
    <glyph glyph-name="Etatonos" unicode="&#x389;" horiz-adv-x="1294" 
d="M973 608h-651v-608h-193v1333h193v-553h651v553h190v-1333h-190v608zM-176 1028l-96 33l147 346l195 -37z" />
    <glyph glyph-name="Iotatonos" unicode="&#x38a;" horiz-adv-x="520" 
d="M164 1333h192v-1333h-192v1333zM-143 1028l-97 33l148 346l194 -37z" />
    <glyph glyph-name="Omicrontonos" unicode="&#x38c;" horiz-adv-x="1318" 
d="M287 671q0 -226 96 -372.5t276 -146.5t275.5 148t95.5 372q0 225 -95.5 367.5t-276 142.5t-276 -142.5t-95.5 -368.5zM92 662q0 305 150.5 498.5t412.5 193.5t416 -189.5t154 -499.5t-154.5 -497.5t-415.5 -187.5q-263 0 -413 188.5t-150 493.5zM-102 1028l-97 33
l148 346l194 -37z" />
    <glyph glyph-name="Upsilontonos" unicode="&#x38e;" horiz-adv-x="1187" 
d="M592 633q99 193 369 700h210l-485 -866v-467h-188v467l-486 866h215q85 -167 189 -362q105 -195 176 -338zM-256 1028l-96 33l147 346l195 -37z" />
    <glyph glyph-name="Omegatonos" unicode="&#x38f;" horiz-adv-x="1368" 
d="M1253 694q0 -386 -235 -532h248v-162h-475v197q139 47 202.5 178t63.5 332t-100 338t-279.5 137t-278 -139t-98.5 -353q0 -291 100.5 -381t171.5 -112v-197h-477v162h244q-229 131 -229 526q0 301 155.5 483.5t414 182.5t415.5 -182.5t157 -477.5zM-98 1028l-97 33
l148 346l194 -37z" />
    <glyph glyph-name="iotadieresistonos" unicode="&#x390;" horiz-adv-x="499" 
d="M209 1130l-96 33l133 326l196 -33zM-14 1178q-41 0 -72 30.5t-31 73.5t31 72.5t72 29.5t72.5 -29.5t31.5 -72.5t-31.5 -73.5t-72.5 -30.5zM531 1178q-42 0 -72.5 30.5t-30.5 73.5t30.5 72.5t72.5 29.5t73 -29.5t31 -72.5t-31 -73.5t-73 -30.5zM160 997h180v-997h-180v997
z" />
    <glyph glyph-name="Alpha" unicode="&#x391;" horiz-adv-x="1300" 
d="M905 467q-61 168 -124.5 325.5t-123.5 340.5h-6l-248 -666h502zM1079 0q-76 200 -114 305h-619q-52 -141 -115 -305h-198l520 1333h209q247 -642 520 -1333h-203z" />
    <glyph glyph-name="Beta" unicode="&#x392;" horiz-adv-x="1234" 
d="M319 629v-459h365q131 0 194.5 61t63.5 171t-74.5 168.5t-185.5 58.5h-363zM319 1165v-372h361q98 0 154.5 54t56.5 137t-51.5 132t-151.5 49h-369zM1137 399q0 -193 -118 -296t-331 -103h-553v1333h561q172 0 278.5 -86t106.5 -246q0 -92 -52 -168.5t-136 -107.5v-6
q102 -25 173 -111t71 -209z" />
    <glyph glyph-name="Gamma" unicode="&#x393;" horiz-adv-x="1021" 
d="M131 1333h883v-170h-692v-1163h-191v1333z" />
    <glyph glyph-name="Delta" unicode="&#x394;" horiz-adv-x="1296" 
d="M639 1133l-152 -418l-206 -551h723l-213 565l-146 404h-6zM541 1333h209l518 -1333h-1245z" />
    <glyph glyph-name="Delta" unicode="&#x2206;" horiz-adv-x="1296" 
d="M639 1133l-152 -418l-206 -551h723l-213 565l-146 404h-6zM541 1333h209l518 -1333h-1245z" />
    <glyph glyph-name="Epsilon" unicode="&#x395;" horiz-adv-x="1069" 
d="M131 1333h879v-170h-688v-370h487v-170h-487v-453h712v-170h-903v1333z" />
    <glyph glyph-name="Zeta" unicode="&#x396;" horiz-adv-x="1150" 
d="M115 1163v170h972v-166l-788 -997h786v-170h-1009v164l788 999h-749z" />
    <glyph glyph-name="Eta" unicode="&#x397;" horiz-adv-x="1294" 
d="M973 608h-651v-608h-193v1333h193v-553h651v553h190v-1333h-190v608z" />
    <glyph glyph-name="Theta" unicode="&#x398;" horiz-adv-x="1349" 
d="M285 671q0 -226 104.5 -372.5t284 -146.5t284.5 147.5t105 372.5q0 226 -105 368t-285 142t-284 -142.5t-104 -368.5zM90 664q0 304 159.5 497t422.5 193q264 0 426 -191.5t162 -497.5t-162 -495.5t-426 -189.5q-265 0 -423.5 190t-158.5 494zM377 760h598v-158h-598v158
z" />
    <glyph glyph-name="Iota" unicode="&#x399;" horiz-adv-x="520" 
d="M164 1333h192v-1333h-192v1333z" />
    <glyph glyph-name="Kappa" unicode="&#x39a;" horiz-adv-x="1210" 
d="M319 0h-190v1333h190v-704h7l161 211q31 39 83.5 106.5t156 199.5t143.5 187h220q-155 -185 -375 -471q25 -47 62.5 -115.5t80.5 -149.5t89 -166t89 -166t80 -149.5t62 -115.5h-217q-18 35 -82 153.5t-105 197.5t-79 149.5t-66.5 126t-40.5 78.5q-177 -228 -269 -338
v-367z" />
    <glyph glyph-name="Lambda" unicode="&#x39b;" horiz-adv-x="1239" 
d="M1001 0l-231 680l-143 438h-11l-141 -438l-233 -680h-205l479 1333h213l477 -1333h-205z" />
    <glyph glyph-name="Mu" unicode="&#x39c;" horiz-adv-x="1484" 
d="M1159 924h-4l-147 -332l-271 -584l-254 563l-155 355h-6v-926h-187v1333h197l409 -921h9l176 401l233 520h187v-1333h-187v924z" />
    <glyph glyph-name="Nu" unicode="&#x39d;" horiz-adv-x="1275" 
d="M315 1010v-1010h-188v1333h184q41 -63 98.5 -150t118 -179.5t119 -178.5t98.5 -149l213 -338h7v995h186v-1333h-172q-29 41 -110 165t-181.5 275.5t-226.5 350.5l-139 219h-7z" />
    <glyph glyph-name="Xi" unicode="&#x39e;" horiz-adv-x="1079" 
d="M997 1163h-364v-370h250v-168h-250v-455h391v-170h-961v170h379v455h-235v168h235v370h-352v170h907v-170z" />
    <glyph glyph-name="Omicron" unicode="&#x39f;" horiz-adv-x="1318" 
d="M287 671q0 -226 96 -372.5t276 -146.5t275.5 148t95.5 372q0 225 -95.5 367.5t-276 142.5t-276 -142.5t-95.5 -368.5zM92 662q0 305 150.5 498.5t412.5 193.5t416 -189.5t154 -499.5t-154.5 -497.5t-415.5 -187.5q-263 0 -413 188.5t-150 493.5z" />
    <glyph glyph-name="Pi" unicode="&#x3a0;" horiz-adv-x="1294" 
d="M973 1163h-649v-1163h-193v1333h1032v-1333h-190v1163z" />
    <glyph glyph-name="Rho" unicode="&#x3a1;" horiz-adv-x="1146" 
d="M317 1165v-493h361q119 2 184.5 64.5t65.5 183t-71 183t-183 62.5h-357zM998.5 611q-123.5 -107 -328.5 -107h-353v-504h-186v1333h553q197 0 317.5 -105t120.5 -307q0 -203 -123.5 -310z" />
    <glyph glyph-name="Sigma" unicode="&#x3a3;" horiz-adv-x="1159" 
d="M1096 170v-170h-1010v164l416 526l-379 477v166h975v-170h-756l377 -473l-412 -520h789z" />
    <glyph glyph-name="Tau" unicode="&#x3a4;" horiz-adv-x="1052" 
d="M625 0h-187v1163h-401v170h991v-170h-403v-1163z" />
    <glyph glyph-name="Upsilon" unicode="&#x3a5;" horiz-adv-x="1187" 
d="M592 633q99 193 369 700h210l-485 -866v-467h-188v467l-486 866h215q85 -167 189 -362q105 -195 176 -338z" />
    <glyph glyph-name="Phi" unicode="&#x3a6;" horiz-adv-x="1470" 
d="M371.5 393q90.5 -118 267.5 -145v848q-169 -23 -263.5 -141.5t-94.5 -281t90.5 -280.5zM1099.5 960q-92.5 116 -274.5 140v-854q186 23 276.5 143.5t90.5 287.5t-92.5 283zM1230.5 273q-149.5 -159 -405.5 -179v-94h-186v96q-243 24 -393 182t-150 394q0 235 145.5 396
t397.5 185v80h186v-80q261 -24 408 -181t147 -399q0 -241 -149.5 -400z" />
    <glyph glyph-name="Chi" unicode="&#x3a7;" horiz-adv-x="1157" 
d="M575 528l-307 -528h-215l424 684l-397 649h219l281 -487l284 487h211l-397 -645l422 -688h-217z" />
    <glyph glyph-name="Psi" unicode="&#x3a8;" horiz-adv-x="1425" 
d="M113 868v465h184v-465q0 -362 321 -407v872h185v-872q172 20 249.5 120.5t77.5 280.5v471h187v-467q0 -270 -135 -413.5t-379 -163.5v-289h-182v289q-508 47 -508 579z" />
    <glyph glyph-name="Omega" unicode="&#x3a9;" horiz-adv-x="1368" 
d="M1253 694q0 -386 -235 -532h248v-162h-475v197q139 47 202.5 178t63.5 332t-100 338t-279.5 137t-278 -139t-98.5 -353q0 -291 100.5 -381t171.5 -112v-197h-477v162h244q-229 131 -229 526q0 301 155.5 483.5t414 182.5t415.5 -182.5t157 -477.5z" />
    <glyph glyph-name="Iotadieresis" unicode="&#x3aa;" horiz-adv-x="520" 
d="M59 1454q-41 0 -72.5 31t-31.5 74t31.5 72.5t72.5 29.5t73 -29.5t32 -72.5t-32 -74t-73 -31zM466 1454q-42 0 -74 31t-32 74t32 72.5t74 29.5t71.5 -29.5t29.5 -72.5t-29.5 -74t-71.5 -31zM164 1333h192v-1333h-192v1333z" />
    <glyph glyph-name="Upsilondieresis" unicode="&#x3ab;" horiz-adv-x="1187" 
d="M387 1452q-41 0 -72.5 30.5t-31.5 73.5t31.5 73t72.5 30t73 -30t32 -73t-32 -73.5t-73 -30.5zM794 1452q-42 0 -74 30.5t-32 73.5t32 73t74 30t71.5 -30t29.5 -73t-29.5 -73.5t-71.5 -30.5zM592 633q99 193 369 700h210l-485 -866v-467h-188v467l-486 866h215
q85 -167 189 -362q105 -195 176 -338z" />
    <glyph glyph-name="alphatonos" unicode="&#x3ac;" horiz-adv-x="1052" 
d="M516 868q-106 0 -176 -96t-70 -276q0 -362 246 -363q72 0 135.5 42t104.5 89v469q-41 51 -102.5 93t-137.5 42zM762 905v94h174v-999h-150l-20 102h-8q-131 -123 -289 -122q-262 0 -319.5 188t-57.5 378t114.5 331t278.5 141t273 -113h4zM580 1130l-97 33l148 346
l194 -36z" />
    <glyph glyph-name="epsilontonos" unicode="&#x3ad;" horiz-adv-x="897" 
d="M498 1130l-97 33l148 346l194 -36zM870 131q-151 -151 -399 -151t-313.5 107t-65.5 183t47 142.5t129 93.5v4q-86 29 -124 91.5t-38 126.5q0 126 115.5 208t267.5 82q221 0 357 -129q-23 -23 -103 -119q-108 100 -223 100t-173 -48.5t-58 -100.5q0 -139 172 -139h137
v-131h-129q-71 0 -116.5 -28t-64 -56.5t-18.5 -80.5t54.5 -105.5t169.5 -53.5q151 0 274 117z" />
    <glyph glyph-name="etatonos" unicode="&#x3ae;" horiz-adv-x="1024" 
d="M496 1130l-97 33l148 346l194 -36zM745 592q-1 270 -203 270q-100 0 -175.5 -66.5t-75.5 -209.5v-586h-180v999h180v-131l6 -2q53 80 133 116t154 36q342 0 342 -395v-623h-181v592z" />
    <glyph glyph-name="iotatonos" unicode="&#x3af;" horiz-adv-x="499" 
d="M160 997h180v-997h-180v997zM291 1130l-96 33l147 346l195 -36z" />
    <glyph glyph-name="upsilondieresistonos" unicode="&#x3b0;" horiz-adv-x="1036" 
d="M481 1130l-96 33l133 326l197 -33zM258 1178q-41 0 -71.5 30.5t-30.5 73.5t30.5 72.5t71.5 29.5t72.5 -29.5t31.5 -72.5t-31.5 -73.5t-72.5 -30.5zM804 1178q-42 0 -73 30.5t-31 73.5t31 72.5t73 29.5t72.5 -29.5t30.5 -72.5t-30.5 -73.5t-72.5 -30.5zM525 -20
q-202 0 -312.5 111.5t-110.5 340.5v569h185v-561q0 -156 53 -234.5t185 -78.5t183.5 80t51.5 233v561h180v-569q0 -229 -106.5 -340.5t-308.5 -111.5z" />
    <glyph glyph-name="alpha" unicode="&#x3b1;" horiz-adv-x="1052" 
d="M516 868q-106 0 -176 -96t-70 -276q0 -362 246 -363q72 0 135.5 42t104.5 89v469q-41 51 -102.5 93t-137.5 42zM762 905v94h174v-999h-150l-20 102h-8q-131 -123 -289 -122q-262 0 -319.5 188t-57.5 378t114.5 331t278.5 141t273 -113h4z" />
    <glyph glyph-name="beta" unicode="&#x3b2;" horiz-adv-x="1044" 
d="M422 725v127q177 10 226.5 83t49.5 147t-52 131t-146 57t-149.5 -71t-55.5 -175v-766q35 -43 95 -84t132 -41q124 0 189 85t65 209q0 125 -84.5 211.5t-210.5 86.5h-59zM295 90v-371l-176 -75v1370q0 179 104.5 293t277.5 114t268 -99t95 -237t-68.5 -202t-111.5 -80v-2
q117 -26 194.5 -135t77.5 -248q0 -184 -107 -309t-271 -125q-165 0 -277 106h-6z" />
    <glyph glyph-name="gamma" unicode="&#x3b3;" horiz-adv-x="940" 
d="M469 285h4l107 301q17 48 76.5 207t74.5 206h187l-361 -917v-404q-10 -4 -34.5 -15t-53.5 -23.5t-54.5 -23.5t-35.5 -15v487l-359 911h187q33 -88 73 -196.5t64 -173.5t40.5 -112.5t35 -97.5t34 -91t15.5 -43z" />
    <glyph glyph-name="delta" unicode="&#x3b4;" horiz-adv-x="1044" 
d="M270 422q0 -121 63.5 -205t188.5 -84t188.5 93t63.5 203t-54 200t-188 151q-105 -28 -183.5 -132.5t-78.5 -225.5zM578 1280q-107 0 -156 -44t-49 -97.5t56.5 -98.5t138.5 -87q184 -94 287 -208.5t103 -309.5t-124.5 -324t-319.5 -129t-311.5 120.5t-116.5 323.5
t109.5 301t185.5 129v4q-188 119 -188 266q0 127 97.5 212t269.5 85q171 0 317 -73l-58 -142q-134 72 -241 72z" />
    <glyph glyph-name="epsilon" unicode="&#x3b5;" horiz-adv-x="897" 
d="M870 131q-151 -151 -399 -151t-313.5 107t-65.5 183t47 142.5t129 93.5v4q-86 29 -124 91.5t-38 126.5q0 126 115.5 208t267.5 82q221 0 357 -129q-23 -23 -103 -119q-108 100 -223 100t-173 -48.5t-58 -100.5q0 -139 172 -139h137v-131h-129q-71 0 -116.5 -28t-64 -56.5
t-18.5 -80.5t54.5 -105.5t169.5 -53.5q151 0 274 117z" />
    <glyph glyph-name="zeta" unicode="&#x3b6;" horiz-adv-x="817" 
d="M610 1239h-477v147h725v-135q-287 -219 -441.5 -415.5t-154.5 -391.5q0 -114 73.5 -187.5t321.5 -137.5q177 -47 177 -135q0 -76 -60 -169.5t-141 -162.5l-111 82q71 95 101 172q10 23 8 34.5t-73 27.5q-209 49 -342.5 158.5t-133.5 296.5t126 392t402 418v6z" />
    <glyph glyph-name="eta" unicode="&#x3b7;" horiz-adv-x="1024" 
d="M745 592q-1 270 -203 270q-100 0 -175.5 -66.5t-75.5 -209.5v-586h-180v999h180v-131l6 -2q53 80 133 116t154 36q342 0 342 -395v-623h-181v592z" />
    <glyph glyph-name="theta" unicode="&#x3b8;" horiz-adv-x="1079" 
d="M536 1270q-238 0 -260 -461h525q-10 223 -78.5 342t-186.5 119zM803 664h-527q4 -535 267 -535q128 0 194 141.5t66 393.5zM540 -23q-214 0 -330 195t-116 537q0 343 120.5 527.5t324.5 184.5t326 -188t122 -516q0 -515 -168.5 -627.5t-278.5 -112.5z" />
    <glyph glyph-name="iota" unicode="&#x3b9;" horiz-adv-x="499" 
d="M160 997h180v-997h-180v997z" />
    <glyph glyph-name="kappa" unicode="&#x3ba;" horiz-adv-x="952" 
d="M295 0h-180v997h180v-471h2l133 174q25 32 114 146.5t120 150.5h210q-99 -115 -262 -323q25 -55 67 -146.5t86 -190.5t86 -190.5t67 -146.5h-199l-236 524l-188 -241v-283z" />
    <glyph glyph-name="lambda" unicode="&#x3bb;" horiz-adv-x="960" 
d="M240 1278h-16q-17 0 -27 -2l-9 145q63 13 115 13q92 0 142.5 -49.5t78.5 -143.5l303 -1005q21 -66 37.5 -84.5t69.5 -18.5l4 -135q-201 -48 -248 106l-104 334l-84 285h-6l-291 -723h-182l397 967l-60 209q-14 51 -36.5 76.5t-83.5 25.5z" />
    <glyph glyph-name="nu" unicode="&#x3bd;" horiz-adv-x="956" 
d="M932 999l-357 -999h-188l-360 999h184q257 -760 268 -804h6q12 40 55.5 170.5t61.5 187.5l148 446h182z" />
    <glyph glyph-name="xi" unicode="&#x3be;" horiz-adv-x="823" 
d="M500 1270q-104 0 -166 -64t-62 -156t74.5 -155.5t159.5 -63.5h213v-139h-201q-126 0 -201 -91t-75 -203t84 -175.5t286 -111.5q176 -40 176 -146q0 -76 -54 -157.5t-126 -143.5l-108 78q57 90 96 174q10 20 -2 28t-78 26q-211 56 -327.5 139t-116.5 266q0 184 86 272
t147 115v4q-107 36 -156 121.5t-49 173.5q0 168 115.5 264t280.5 96q228 0 350 -129l-92 -121q-112 99 -254 99z" />
    <glyph glyph-name="omicron" unicode="&#x3bf;" horiz-adv-x="1075" 
d="M540 864q-124 0 -195 -101.5t-71 -266.5q0 -164 66 -263.5t191 -99.5t198.5 105t73.5 262q0 252 -98.5 308t-164.5 56zM92 496q0 241 126 381.5t323 140.5t319.5 -137t122.5 -377t-128 -382t-328 -142t-317.5 137.5t-117.5 378.5z" />
    <glyph glyph-name="pi" unicode="&#x3c0;" horiz-adv-x="1052" 
d="M760 850h-467v-850h-182v1001h831v-1001h-182v850z" />
    <glyph glyph-name="rho" unicode="&#x3c1;" horiz-adv-x="1079" 
d="M287 498v-224q45 -55 114.5 -96t147.5 -41q113 0 184.5 94t71.5 247t-62 269.5t-194 116.5t-197 -101.5t-65 -264.5zM875 126.5q-112 -144.5 -283 -144.5q-78 0 -152.5 25.5t-150.5 103.5v-437l-178 -73v891q0 241 110 385.5t315 144.5t328 -137.5t123 -375.5
t-112 -382.5z" />
    <glyph glyph-name="sigma1" unicode="&#x3c2;" horiz-adv-x="923" 
d="M750 756q-102 106 -222 106t-187 -107.5t-67 -268.5t70 -237t219.5 -120.5t186 -79.5t36.5 -80q0 -76 -54 -157.5t-126 -143.5l-108 78q110 174 101 191t-79 37q-192 53 -310 166t-118 327q0 260 119.5 405.5t321.5 145.5t331 -146z" />
    <glyph glyph-name="sigma" unicode="&#x3c3;" horiz-adv-x="1112" 
d="M530 844q-127 0 -192.5 -94t-65.5 -256t70 -261.5t193 -99.5t193.5 105t70.5 261q0 157 -71 251t-198 94zM983 488q0 -233 -124 -370.5t-323 -137.5q-198 0 -320 140t-122 380t121 369.5t320 129.5h534v-149h-233v-6q74 -53 110.5 -147.5t36.5 -208.5z" />
    <glyph glyph-name="tau" unicode="&#x3c4;" horiz-adv-x="716" 
d="M236 252v598h-220v149h650v-149h-258v-584q0 -70 25.5 -95.5t78.5 -25.5t137 13l15 -140q-95 -34 -210 -34q-116 0 -167 66.5t-51 201.5z" />
    <glyph glyph-name="upsilon" unicode="&#x3c5;" horiz-adv-x="1036" 
d="M525 -20q-202 0 -312.5 111.5t-110.5 340.5v569h185v-561q0 -156 53 -234.5t185 -78.5t183.5 80t51.5 233v561h180v-569q0 -229 -106.5 -340.5t-308.5 -111.5z" />
    <glyph glyph-name="phi" unicode="&#x3c6;" horiz-adv-x="1323" 
d="M743 139q183 0 245.5 122.5t62.5 262.5t-78 239t-230 103v-727zM266 486q0 -92 58.5 -214.5t240.5 -132.5v881h191q204 0 339.5 -135.5t135.5 -373.5t-134 -379.5t-354 -145.5v-314l-178 -73v387q-219 8 -347 147.5t-128 380.5q0 192 89.5 311.5t191.5 159.5l53 -149
q-103 -53 -130.5 -155.5t-27.5 -194.5z" />
    <glyph glyph-name="chi" unicode="&#x3c7;" horiz-adv-x="892" 
d="M651 0l-211 389l-213 -389h-198l313 516l-289 483h201l190 -354l193 354h199l-293 -477q47 -71 120.5 -196t106.5 -179.5t56.5 -94.5t31.5 -52h-207z" />
    <glyph glyph-name="psi" unicode="&#x3c8;" horiz-adv-x="1261" 
d="M977 446v517l176 69v-590q0 -205 -114.5 -323.5t-321.5 -134.5v-318l-176 -72v390q-306 26 -370.5 188t-64.5 272v560h177v-558q0 -276 258 -309v961l176 71v-1032q117 12 188.5 85t71.5 224z" />
    <glyph glyph-name="omega" unicode="&#x3c9;" horiz-adv-x="1531" 
d="M92 498q0 185 100.5 332t256.5 184l57 -144q-116 -34 -175 -141.5t-59 -259.5q0 -151 63 -243.5t161 -92.5t144 68.5t46 167.5v260h162v-260q0 -100 44 -168t136 -68q229 0 229 359q0 121 -58 230.5t-171 145.5l57 144q159 -39 256 -189.5t97 -328.5q0 -248 -110.5 -380
t-293.5 -132q-78 0 -150.5 37.5t-117.5 121.5h-2q-95 -159 -273 -159t-288.5 132t-110.5 384z" />
    <glyph glyph-name="iotadieresis" unicode="&#x3ca;" horiz-adv-x="499" 
d="M160 997h180v-997h-180v997zM57 1178q-41 0 -72.5 30.5t-31.5 73.5t31.5 72.5t72.5 29.5t73 -29.5t32 -72.5t-32 -73.5t-73 -30.5zM464 1178q-42 0 -74 30.5t-32 73.5t32 72.5t74 29.5t71.5 -29.5t29.5 -72.5t-29.5 -73.5t-71.5 -30.5z" />
    <glyph glyph-name="upsilondieresis" unicode="&#x3cb;" horiz-adv-x="1036" 
d="M525 -20q-202 0 -312.5 111.5t-110.5 340.5v569h185v-561q0 -156 53 -234.5t185 -78.5t183.5 80t51.5 233v561h180v-569q0 -229 -106.5 -340.5t-308.5 -111.5zM325 1178q-42 0 -74 30.5t-32 73.5t32 72.5t74 29.5t72.5 -29.5t30.5 -72.5t-30.5 -73.5t-72.5 -30.5z
M731 1178q-41 0 -72.5 30.5t-31.5 73.5t30.5 72.5t72.5 29.5t73 -29.5t31 -72.5t-31 -73.5t-72 -30.5z" />
    <glyph glyph-name="omicrontonos" unicode="&#x3cc;" horiz-adv-x="1075" 
d="M540 864q-124 0 -195 -101.5t-71 -266.5q0 -164 66 -263.5t191 -99.5t198.5 105t73.5 262q0 252 -98.5 308t-164.5 56zM92 496q0 241 126 381.5t323 140.5t319.5 -137t122.5 -377t-128 -382t-328 -142t-317.5 137.5t-117.5 378.5zM559 1130l-96 33l147 346l195 -36z" />
    <glyph glyph-name="upsilontonos" unicode="&#x3cd;" horiz-adv-x="1036" 
d="M532 1130l-96 33l148 346l194 -36zM525 -20q-202 0 -312.5 111.5t-110.5 340.5v569h185v-561q0 -156 53 -234.5t185 -78.5t183.5 80t51.5 233v561h180v-569q0 -229 -106.5 -340.5t-308.5 -111.5z" />
    <glyph glyph-name="omegatonos" unicode="&#x3ce;" horiz-adv-x="1531" 
d="M780 1130l-96 33l147 346l195 -36zM92 498q0 185 100.5 332t256.5 184l57 -144q-116 -34 -175 -141.5t-59 -259.5q0 -151 63 -243.5t161 -92.5t144 68.5t46 167.5v260h162v-260q0 -100 44 -168t136 -68q229 0 229 359q0 121 -58 230.5t-171 145.5l57 144
q159 -39 256 -189.5t97 -328.5q0 -248 -110.5 -380t-293.5 -132q-78 0 -150.5 37.5t-117.5 121.5h-2q-95 -159 -273 -159t-288.5 132t-110.5 384z" />
    <glyph glyph-name="afii10023" unicode="&#x401;" horiz-adv-x="1069" 
d="M377 1446q-41 0 -73 30.5t-32 73.5t32 73t73 30t72.5 -30t31.5 -73t-31.5 -73.5t-72.5 -30.5zM783 1446q-42 0 -73.5 30.5t-31.5 73.5t31.5 73t73.5 30t72 -30t30 -73t-30 -73.5t-72 -30.5zM131 1333h879v-170h-688v-370h487v-170h-487v-453h712v-170h-903v1333z" />
    <glyph glyph-name="afii10051" unicode="&#x402;" horiz-adv-x="1515" 
d="M608 823q144 103 362 103q201 0 326 -133t125 -357t-123.5 -368t-347.5 -148v150q138 11 206.5 113.5t68.5 246.5q0 328 -283 328q-182 0 -334 -113v-645h-188v1163h-383v170h1126v-170h-555v-340z" />
    <glyph glyph-name="afii10052" unicode="&#x403;" horiz-adv-x="1021" 
d="M489 1413l-63 78l285 207l147 -131zM131 1333h883v-170h-692v-1163h-191v1333z" />
    <glyph glyph-name="afii10053" unicode="&#x404;" horiz-adv-x="1146" 
d="M1102 184q-170 -204 -430 -204q-269 0 -424.5 184.5t-155.5 504t157.5 502.5t420.5 183q264 0 426 -191l-138 -129q-125 144 -292 144q-166 0 -258.5 -112t-112.5 -290h582v-164h-586q4 -193 103 -326.5t270 -133.5q172 0 305 151q8 -8 61 -53t72 -66z" />
    <glyph glyph-name="afii10054" unicode="&#x405;" horiz-adv-x="1116" 
d="M868 356q0 135 -121.5 177t-206.5 69t-164 57.5t-162 96t-83 230.5t129 266.5t324 101.5q251 0 434 -150l-113 -137q-147 117 -338 117q-121 0 -182 -54.5t-61 -134.5q0 -111 104 -151.5t248.5 -86.5t266.5 -122.5t122 -264.5t-129 -289t-371 -101q-141 0 -263 48
t-208 130l121 137q166 -145 360 -145q293 0 293 206z" />
    <glyph glyph-name="afii10055" unicode="&#x406;" horiz-adv-x="520" 
d="M164 1333h192v-1333h-192v1333z" />
    <glyph glyph-name="afii10056" unicode="&#x407;" horiz-adv-x="520" 
d="M63.5 1448q-40.5 0 -72.5 30.5t-32 73.5t32 73t72.5 30t72.5 -30t32 -73t-32 -73.5t-72.5 -30.5zM470 1448q-42 0 -73.5 30.5t-31.5 73.5t31.5 73t73.5 30t71.5 -30t29.5 -73t-29.5 -73.5t-71.5 -30.5zM164 1333h192v-1333h-192v1333z" />
    <glyph glyph-name="afii10057" unicode="&#x408;" horiz-adv-x="1148" 
d="M1001 524q0 -274 -117.5 -409t-363.5 -135q-195 0 -305.5 86t-163.5 243l180 66q41 -109 109 -165t182 -56q158 0 223.5 99t65.5 284v796h190v-809z" />
    <glyph glyph-name="afii10058" unicode="&#x409;" horiz-adv-x="1859" 
d="M1001 621v-453h359q179 0 216.5 83t37.5 146q0 111 -72 167.5t-186 56.5h-355zM262 473v858h739v-543h363q207 0 322.5 -102t115.5 -296t-114.5 -292t-311.5 -98h-565v1161h-369l4 -604q0 -98 -4 -200.5t-58.5 -237.5t-313.5 -135l-15 161q134 23 170.5 85t36.5 243z" />
    <glyph glyph-name="afii10059" unicode="&#x40a;" horiz-adv-x="1851" 
d="M997 629v-461h359q178 0 215 82t37 143q0 111 -66.5 173.5t-189.5 62.5h-355zM805 627h-486v-627h-190v1331h190v-543h486v543h192v-543h359q205 0 323.5 -102t118.5 -298t-121.5 -292t-320.5 -96h-551v627z" />
    <glyph glyph-name="afii10060" unicode="&#x40b;" horiz-adv-x="1509" 
d="M625 842q153 94 344 94t310.5 -112t119.5 -324v-500h-182v475q0 158 -79 227.5t-216 69.5q-68 0 -154 -26.5t-147 -81.5v-664h-189v1163h-377v170h1102v-170h-536v-319z" />
    <glyph glyph-name="afii10061" unicode="&#x40c;" horiz-adv-x="1130" 
d="M475 1413l-63 78l284 207l148 -131zM324 0h-193v1333h193v-616l6 -2l542 618h218l-566 -647l561 -686h-235l-520 647l-6 -2v-645z" />
    <glyph glyph-name="afii10062" unicode="&#x40e;" horiz-adv-x="1120" 
d="M570 1556q68 0 102.5 42t36.5 90h133q-8 -164 -102.5 -209t-171.5 -45q-139 0 -205.5 77.5t-71.5 176.5h131q10 -57 45 -94.5t103 -37.5zM213 -20v157h55q51 0 92 19.5t70 79.5l31 65l-441 1028h197l195 -475q35 -86 71.5 -179t71.5 -179h10q35 72 73 172t86 216
t98 241.5t83 203.5h195l-463 -1081q-115 -268 -328 -268h-96z" />
    <glyph glyph-name="afii10145" unicode="&#x40f;" horiz-adv-x="1294" 
d="M743 0v-346h-196v346h-416v1333h191v-1163h653v1163h188v-1333h-420z" />
    <glyph glyph-name="afii10017" unicode="&#x410;" horiz-adv-x="1300" 
d="M905 467q-61 168 -124.5 325.5t-123.5 340.5h-6l-248 -666h502zM1079 0q-76 200 -114 305h-619q-52 -141 -115 -305h-198l520 1333h209q247 -642 520 -1333h-203z" />
    <glyph glyph-name="afii10018" unicode="&#x411;" horiz-adv-x="1222" 
d="M946 397.5q0 110.5 -67.5 169t-184.5 58.5h-375v-455h373q121 0 187.5 58.5t66.5 169zM690 0h-555v1333h873v-170h-689v-370h367q209 0 329 -99.5t119 -293.5t-117 -297t-327 -103z" />
    <glyph glyph-name="afii10019" unicode="&#x412;" horiz-adv-x="1234" 
d="M319 629v-459h365q131 0 194.5 61t63.5 171t-74.5 168.5t-185.5 58.5h-363zM319 1165v-372h361q98 0 154.5 54t56.5 137t-51.5 132t-151.5 49h-369zM1137 399q0 -193 -118 -296t-331 -103h-553v1333h561q172 0 278.5 -86t106.5 -246q0 -92 -52 -168.5t-136 -107.5v-6
q102 -25 173 -111t71 -209z" />
    <glyph glyph-name="afii10020" unicode="&#x413;" horiz-adv-x="1021" 
d="M131 1333h883v-170h-692v-1163h-191v1333z" />
    <glyph glyph-name="afii10021" unicode="&#x414;" horiz-adv-x="1417" 
d="M1047 1163h-510l-13 -293q-12 -277 -35 -438.5t-100 -261.5h658v993zM1174 -319v319h-943v-319h-190v489h109q155 138 171.5 361t20.5 346l12 454h881v-1167h129l2 -483h-192z" />
    <glyph glyph-name="afii10022" unicode="&#x415;" horiz-adv-x="1069" 
d="M131 1333h879v-170h-688v-370h487v-170h-487v-453h712v-170h-903v1333z" />
    <glyph glyph-name="afii10024" unicode="&#x416;" horiz-adv-x="1708" 
d="M942 0h-186v645l-6 2l-500 -647h-236l541 686l-532 647h217l510 -618l6 2v616h186v-616l6 -2l510 618h217l-532 -647l540 -686h-235l-500 647l-6 -2v-645z" />
    <glyph glyph-name="afii10025" unicode="&#x417;" horiz-adv-x="1110" 
d="M481 150q166 0 243 70.5t77 177.5t-75 165t-198 58h-206v151h200q115 0 193 59.5t78 143.5t-61.5 145.5t-196.5 61.5q-86 0 -182.5 -26t-162.5 -79l-100 129q86 76 208 112t245 36q213 0 332.5 -90t119.5 -244q0 -102 -59 -188.5t-176 -129.5v-6q124 -33 184 -121.5
t60 -184.5q0 -193 -142.5 -301.5t-378.5 -108.5q-139 0 -262 44t-205 134l20 20q21 21 40.5 41.5t37 38.5t23.5 25q133 -133 344 -133z" />
    <glyph glyph-name="afii10026" unicode="&#x418;" horiz-adv-x="1333" 
d="M1012 0v1028h-4l-248 -375l-441 -653h-188v1333h188v-1030h5l233 352l455 678h188v-1333h-188z" />
    <glyph glyph-name="afii10027" unicode="&#x419;" horiz-adv-x="1333" 
d="M1012 0v1028h-4l-248 -375l-441 -653h-188v1333h188v-1030h5l233 352l455 678h188v-1333h-188zM658 1556q68 0 102.5 42t36.5 90h133q-8 -164 -102.5 -209t-171.5 -45q-139 0 -205.5 77.5t-71.5 176.5h131q10 -57 45 -94.5t103 -37.5z" />
    <glyph glyph-name="afii10028" unicode="&#x41a;" horiz-adv-x="1130" 
d="M324 0h-193v1333h193v-616l6 -2l542 618h218l-566 -647l561 -686h-235l-520 647l-6 -2v-645z" />
    <glyph glyph-name="afii10029" unicode="&#x41b;" horiz-adv-x="1243" 
d="M455 1163v-606q0 -98 -4.5 -200.5t-59 -237.5t-315.5 -135l-15 161q134 23 170.5 85t36.5 243v858h840v-1331h-190v1163h-463z" />
    <glyph glyph-name="afii10030" unicode="&#x41c;" horiz-adv-x="1484" 
d="M1159 924h-4l-147 -332l-271 -584l-254 563l-155 355h-6v-926h-187v1333h197l409 -921h9l176 401l233 520h187v-1333h-187v924z" />
    <glyph glyph-name="afii10031" unicode="&#x41d;" horiz-adv-x="1294" 
d="M973 608h-651v-608h-193v1333h193v-553h651v553h190v-1333h-190v608z" />
    <glyph glyph-name="afii10032" unicode="&#x41e;" horiz-adv-x="1318" 
d="M287 671q0 -226 96 -372.5t276 -146.5t275.5 148t95.5 372q0 225 -95.5 367.5t-276 142.5t-276 -142.5t-95.5 -368.5zM92 662q0 305 150.5 498.5t412.5 193.5t416 -189.5t154 -499.5t-154.5 -497.5t-415.5 -187.5q-263 0 -413 188.5t-150 493.5z" />
    <glyph glyph-name="afii10033" unicode="&#x41f;" horiz-adv-x="1294" 
d="M973 1163h-649v-1163h-193v1333h1032v-1333h-190v1163z" />
    <glyph glyph-name="afii10034" unicode="&#x420;" horiz-adv-x="1146" 
d="M317 1165v-493h361q119 2 184.5 64.5t65.5 183t-71 183t-183 62.5h-357zM998.5 611q-123.5 -107 -328.5 -107h-353v-504h-186v1333h553q197 0 317.5 -105t120.5 -307q0 -203 -123.5 -310z" />
    <glyph glyph-name="afii10035" unicode="&#x421;" horiz-adv-x="1157" 
d="M1104 186q-167 -206 -429 -206q-269 0 -426 184t-157 502t158 504t422 186t424 -193l-133 -127q-129 144 -302 144t-272.5 -140t-99.5 -369t98.5 -373t274.5 -144t309 151z" />
    <glyph glyph-name="afii10036" unicode="&#x422;" horiz-adv-x="1052" 
d="M625 0h-187v1163h-401v170h991v-170h-403v-1163z" />
    <glyph glyph-name="afii10037" unicode="&#x423;" horiz-adv-x="1120" 
d="M213 -20v157h55q51 0 92 19.5t70 79.5l31 65l-441 1028h197l195 -475q35 -86 71.5 -179t71.5 -179h10q35 72 73 172t86 216t98 241.5t83 203.5h195l-463 -1081q-115 -268 -328 -268h-96z" />
    <glyph glyph-name="afii10038" unicode="&#x424;" horiz-adv-x="1470" 
d="M371.5 393q90.5 -118 267.5 -145v848q-169 -23 -263.5 -141.5t-94.5 -281t90.5 -280.5zM1099.5 960q-92.5 116 -274.5 140v-854q186 23 276.5 143.5t90.5 287.5t-92.5 283zM1230.5 273q-149.5 -159 -405.5 -179v-94h-186v96q-243 24 -393 182t-150 394q0 235 145.5 396
t397.5 185v80h186v-80q261 -24 408 -181t147 -399q0 -241 -149.5 -400z" />
    <glyph glyph-name="afii10039" unicode="&#x425;" horiz-adv-x="1157" 
d="M575 528l-307 -528h-215l424 684l-397 649h219l281 -487l284 487h211l-397 -645l422 -688h-217z" />
    <glyph glyph-name="afii10040" unicode="&#x426;" horiz-adv-x="1312" 
d="M1098 -322v322h-967v1331h188v-1161h652v1161h190v-1167h127v-486h-190z" />
    <glyph glyph-name="afii10041" unicode="&#x427;" horiz-adv-x="1220" 
d="M899 0v543h-2q-154 -94 -374 -94t-328.5 115.5t-108.5 312.5v456h184v-424q0 -160 70 -229.5t221 -69.5q71 0 172 28t166 81v614h188v-1333h-188z" />
    <glyph glyph-name="afii10042" unicode="&#x428;" horiz-adv-x="1724" 
d="M131 0v1333h193v-1163h442v1163h192v-1163h445v1163h188v-1333h-1460z" />
    <glyph glyph-name="afii10043" unicode="&#x429;" horiz-adv-x="1761" 
d="M1720 -322h-192v322h-1395v1333h191v-1165h444v1165h190v-1165h445v1165h192v-1165h125v-490z" />
    <glyph glyph-name="afii10044" unicode="&#x42a;" horiz-adv-x="1544" 
d="M674 618v-448h358q176 0 215 82t39 143q0 111 -71.5 167t-186.5 56h-354zM25 1331h649v-543h362q205 0 322 -102t117 -293t-113.5 -292t-312.5 -101h-564v1163h-460v168z" />
    <glyph glyph-name="afii10045" unicode="&#x42b;" horiz-adv-x="1574" 
d="M1253 1333h191v-1333h-191v1333zM317 621v-451h357q178 0 215 82t37 143q0 111 -71 168.5t-183 57.5h-355zM127 1331h190v-543h363q205 0 320.5 -102t115.5 -294t-114 -292t-312 -100h-563v1331z" />
    <glyph glyph-name="afii10046" unicode="&#x42c;" horiz-adv-x="1191" 
d="M317 618v-448h357q178 0 215 82t37 143q0 111 -71 167t-183 56h-355zM127 1331h190v-543h363q205 0 320.5 -102t115.5 -294t-114 -292t-312 -100h-563v1331z" />
    <glyph glyph-name="afii10047" unicode="&#x42d;" horiz-adv-x="1167" 
d="M464 1178q-122 0 -253 -129q-4 2 -22.5 21.5t-40 41t-40 39.5t-20.5 23q88 94 187.5 138t236.5 44q267 0 415 -185.5t148 -501.5q0 -317 -160 -503t-417 -186q-154 0 -258.5 53t-182.5 149q2 2 22.5 20.5t62 58.5t46.5 42q133 -149 303 -149t270.5 128t112.5 328h-577
v166h573q-26 276 -155 339t-251 63z" />
    <glyph glyph-name="afii10048" unicode="&#x42e;" horiz-adv-x="1648" 
d="M1273.5 1043q-88.5 139 -260.5 139t-259.5 -139t-87.5 -375q0 -364 129 -440t219 -76t155.5 39.5t129 143t63.5 336.5t-88.5 372zM624 151q-139 171 -151 459h-151v-610h-193v1333h193v-551h159q25 258 163.5 415t377.5 157t385.5 -186t146.5 -502t-144 -501t-395.5 -185
t-390.5 171z" />
    <glyph glyph-name="afii10049" unicode="&#x42f;" horiz-adv-x="1220" 
d="M283 855q0 -175 254 -175h362v485h-358q-115 0 -186.5 -67.5t-71.5 -242.5zM88 915q0 201 123 309.5t319 108.5h557v-1333h-188v516h-348l-244 -516h-213l264 535q-270 82 -270 380z" />
    <glyph glyph-name="afii10065" unicode="&#x430;" horiz-adv-x="999" 
d="M250 305q0 -88 52 -135t151 -47q141 8 256 125v172q-118 69 -226 69t-170.5 -48t-62.5 -136zM513 1020q179 0 276.5 -84t97.5 -250v-686h-178v94h-4q-124 -114 -299 -114q-137 0 -236.5 76.5t-99.5 231.5t104.5 245t261.5 90q156 0 273 -62v107q0 201 -217 200
q-129 0 -267 -65l-55 137q164 80 343 80z" />
    <glyph glyph-name="afii10066" unicode="&#x431;" horiz-adv-x="1105" 
d="M377.5 744.5q-78.5 -93.5 -78.5 -255.5t67.5 -259t198 -97t196.5 101.5t66 256.5t-67 251t-185 96q-119 0 -197.5 -93.5zM593 989q190 0 305.5 -131t115.5 -365q0 -233 -126.5 -374.5t-330.5 -141.5q-234 0 -349.5 176t-115.5 457t105.5 481t292 244.5t276 64t145.5 36.5
l41 -131q-101 -40 -213 -63t-161 -40q-154 -55 -221.5 -156.5t-77.5 -242.5l6 -2q41 84 127 136t181 52z" />
    <glyph glyph-name="afii10067" unicode="&#x432;" horiz-adv-x="991" 
d="M283 850v-248h260q72 0 111.5 36t39.5 90t-35.5 88t-111.5 34h-264zM547 145q186 0 186 158q0 74 -52 114t-134 40h-264v-312h264zM915 303q0 -143 -95 -223t-263 -80h-453v999h459q215 0 263 -96t48 -159.5t-33.5 -119t-99.5 -83.5v-2q78 -23 126 -88.5t48 -147.5z" />
    <glyph glyph-name="afii10068" unicode="&#x433;" horiz-adv-x="851" 
d="M289 850v-850h-180v999h731v-149h-551z" />
    <glyph glyph-name="afii10069" unicode="&#x434;" horiz-adv-x="1142" 
d="M821 850h-372l-13 -221q-8 -123 -26.5 -248t-71.5 -234h483v703zM41 147h102q59 75 86 176t39 324l19 350h712v-850h93v-440h-172v293h-707v-293h-172v440z" />
    <glyph glyph-name="afii10070" unicode="&#x435;" horiz-adv-x="1021" 
d="M770 569q0 128 -62.5 212.5t-173.5 84.5q-112 0 -182.5 -80.5t-81.5 -216.5h500zM874 109q-140 -129 -344 -129t-322 133t-118 373t122 386t319 146t307 -136.5t110 -373.5v-72h-678q10 -150 87 -227.5t198 -77.5t225 90z" />
    <glyph glyph-name="afii10072" unicode="&#x436;" horiz-adv-x="1425" 
d="M625 997h176v-442l401 442h201l-420 -460l428 -537h-217l-393 510v-510h-176v510l-394 -510h-211l422 537l-419 460h206l396 -442v442z" />
    <glyph glyph-name="afii10073" unicode="&#x437;" horiz-adv-x="927" 
d="M446 1014q199 0 287 -74t88 -184q0 -66 -38 -131.5t-130 -96.5v-6q93 -23 139 -89t46 -140q0 -148 -115 -228.5t-303 -80.5q-230 0 -379 149l102 115q117 -113 277 -113q102 0 168.5 46t66.5 120t-57 109.5t-145 35.5h-160v142h145q92 0 147.5 40t55.5 94t-44 97t-169 43
t-238 -90l-96 119q153 123 352 123z" />
    <glyph glyph-name="afii10074" unicode="&#x438;" horiz-adv-x="1054" 
d="M111 0v1001h180v-714h8l463 714h180v-1001h-180v705h-8l-463 -705h-180z" />
    <glyph glyph-name="afii10075" unicode="&#x439;" horiz-adv-x="1054" 
d="M111 0v1001h180v-714h8l463 714h180v-1001h-180v705h-8l-463 -705h-180zM534 1231q68 0 103 42t37 89h133q-8 -164 -102.5 -209t-170.5 -45q-140 0 -206.5 77.5t-71.5 176.5h131q10 -57 44.5 -94t102.5 -37z" />
    <glyph glyph-name="afii10076" unicode="&#x43a;" horiz-adv-x="931" 
d="M287 0h-176v997h176v-442l403 442h207l-426 -460l440 -537h-221l-403 510v-510z" />
    <glyph glyph-name="afii10077" unicode="&#x43b;" horiz-adv-x="1036" 
d="M385 504q0 -90 -3 -183.5t-35 -169t-102.5 -123.5t-205.5 -48l-12 147q124 24 157 81t33 218v573h705v-999h-179v850h-358v-346z" />
    <glyph glyph-name="afii10078" unicode="&#x43c;" horiz-adv-x="1212" 
d="M1100 999v-999h-180v608h-9l-307 -610l-311 620h-4v-618h-180v999h180l215 -419l102 -209h8l308 628h178z" />
    <glyph glyph-name="afii10079" unicode="&#x43d;" horiz-adv-x="1064" 
d="M774 0v446h-483v-446h-180v1001h180v-403h483v403h180v-1001h-180z" />
    <glyph glyph-name="afii10080" unicode="&#x43e;" horiz-adv-x="1075" 
d="M540 864q-124 0 -195 -101.5t-71 -266.5q0 -164 66 -263.5t191 -99.5t198.5 105t73.5 262q0 252 -98.5 308t-164.5 56zM92 496q0 241 126 381.5t323 140.5t319.5 -137t122.5 -377t-128 -382t-328 -142t-317.5 137.5t-117.5 378.5z" />
    <glyph glyph-name="afii10081" unicode="&#x43f;" horiz-adv-x="1052" 
d="M760 850h-467v-850h-182v1001h831v-1001h-182v850z" />
    <glyph glyph-name="afii10082" unicode="&#x440;" horiz-adv-x="1050" 
d="M520 868q-123 0 -229 -131v-473q39 -53 101.5 -91t129.5 -38q123 0 188.5 94.5t65.5 272.5t-66.5 272t-189.5 94zM297 905q120 115 281 115t269.5 -127t108.5 -385t-119.5 -392t-275.5 -134t-266 106h-4v-412q-40 -16 -93 -40t-85 -37v1402h180v-96h4z" />
    <glyph glyph-name="afii10083" unicode="&#x441;" horiz-adv-x="917" 
d="M868 137q-140 -157 -332 -157q-202 0 -323 128t-121 374q0 245 119.5 390.5t321.5 145.5t331 -146l-114 -116q-102 106 -222 106t-187 -107.5t-67 -267.5q0 -159 67 -254.5t187 -95.5t226 109z" />
    <glyph glyph-name="afii10084" unicode="&#x442;" horiz-adv-x="854" 
d="M520 850v-850h-180v850h-311v149h805v-149h-314z" />
    <glyph glyph-name="afii10085" unicode="&#x443;" horiz-adv-x="978" 
d="M948 999q-412 -1137 -504 -1384h-170l132 367q-34 85 -93 246t-97 260.5t-71.5 193.5t-64.5 176t-53 141h188l174 -503q17 -59 39.5 -125t34.5 -105t22 -65h7q8 27 22 65.5t27.5 81.5t27 82t21.5 66l178 503h180z" />
    <glyph glyph-name="afii10086" unicode="&#x444;" horiz-adv-x="1384" 
d="M1035.5 763.5q-92.5 102.5 -251.5 110.5v-755q143 9 243.5 109.5t100.5 266.5t-92.5 268.5zM358.5 227q102.5 -97 245.5 -106v753q-158 -8 -253 -111t-95 -271t102.5 -265zM90 503q0 225 145 364t369 151v328l180 73l-2 -401q230 -12 371 -146t141 -366t-143.5 -370.5
t-366.5 -151.5v-312l-180 -73v383q-363 12 -438.5 207.5t-75.5 313.5z" />
    <glyph glyph-name="afii10087" unicode="&#x445;" horiz-adv-x="892" 
d="M651 0l-211 389l-213 -389h-198l313 516l-289 483h201l190 -354l193 354h199l-293 -477q47 -71 120.5 -196t106.5 -179.5t56.5 -94.5t31.5 -52h-207z" />
    <glyph glyph-name="afii10088" unicode="&#x446;" horiz-adv-x="1095" 
d="M1047 -293h-173v293h-763v1001h178v-854h483v854h182v-854h93v-440z" />
    <glyph glyph-name="afii10089" unicode="&#x447;" horiz-adv-x="1005" 
d="M713 999h180v-1001h-180v457h-6q-66 -72 -144 -102.5t-143 -30.5q-176 0 -259 89t-83 279v309h180v-278q0 -117 41 -180.5t156 -63.5q153 4 258 133v389z" />
    <glyph glyph-name="afii10090" unicode="&#x448;" horiz-adv-x="1476" 
d="M113 0v1004h178v-854h356v854h178v-854h363v854h176v-1004h-1251z" />
    <glyph glyph-name="afii10091" unicode="&#x449;" horiz-adv-x="1497" 
d="M113 1001h176v-851h358v851h178v-851h363v851h178v-851h92v-445h-172v295h-1173v1001z" />
    <glyph glyph-name="afii10092" unicode="&#x44a;" horiz-adv-x="1216" 
d="M983 306q0 81 -52 124t-134 43h-260v-326h262q78 0 131 39t53 120zM537 1001v-383h258q172 0 270 -79.5t98 -230.5t-96 -229.5t-258 -78.5h-449v850h-342v151h519z" />
    <glyph glyph-name="afii10093" unicode="&#x44b;" horiz-adv-x="1314" 
d="M553 147q184 0 184 164q0 76 -49 119t-137 43h-264v-326h266zM918 302q0 -154 -95.5 -228t-261.5 -74h-450v1001h176v-383h266q170 0 267.5 -81t97.5 -235zM1028 0v1001h176v-1001h-176z" />
    <glyph glyph-name="afii10094" unicode="&#x44c;" horiz-adv-x="987" 
d="M555 147q184 0 184 164q0 76 -50 119t-136 43h-262v-326h264zM918 302q0 -154 -95.5 -228t-259.5 -74h-452v1001h180v-383h264q170 0 266.5 -81t96.5 -235z" />
    <glyph glyph-name="afii10095" unicode="&#x44d;" horiz-adv-x="933" 
d="M223 442v142h432q-2 123 -62.5 200.5t-180.5 77.5t-230 -98l-100 121q145 133 346 133t307.5 -128t106.5 -377t-118.5 -391t-325.5 -142t-332 159l108 109q107 -111 223 -111t182.5 84.5t75.5 220.5h-432z" />
    <glyph glyph-name="afii10096" unicode="&#x44e;" horiz-adv-x="1353" 
d="M1028 765q-66 101 -192 101t-189 -101t-63 -265q0 -253 93 -312t160 -59t114.5 29.5t95 104.5t47.5 238t-66 264zM1152 127.5q-112 -143.5 -318 -143.5t-305 134t-113 328h-125v-446h-176v999h176v-405h129q37 283 174.5 352.5t243.5 69.5t186 -39t160 -142.5t80 -333.5
t-112 -373.5z" />
    <glyph glyph-name="afii10097" unicode="&#x44f;" horiz-adv-x="1011" 
d="M262 677q0 -79 52.5 -116t129.5 -37h279v326h-281q-74 0 -127 -47t-53 -126zM88 680q0 155 98.5 237t245.5 82h471v-999h-180v375h-264l-187 -375h-192l209 399q-201 66 -201 281z" />
    <glyph glyph-name="afii10071" unicode="&#x451;" horiz-adv-x="1021" 
d="M728 1180q-42 0 -73.5 30.5t-31.5 73.5t31.5 72.5t73.5 29.5t71.5 -29.5t29.5 -72.5t-29.5 -73.5t-71.5 -30.5zM321.5 1180q-40.5 0 -72.5 30.5t-32 73.5t32 72.5t72.5 29.5t72.5 -29.5t32 -72.5t-32 -73.5t-72.5 -30.5zM770 569q0 128 -62.5 212.5t-173.5 84.5
q-112 0 -182.5 -80.5t-81.5 -216.5h500zM874 109q-140 -129 -344 -129t-322 133t-118 373t122 386t319 146t307 -136.5t110 -373.5v-72h-678q10 -150 87 -227.5t198 -77.5t225 90z" />
    <glyph glyph-name="afii10099" unicode="&#x452;" horiz-adv-x="1105" 
d="M834 481q0 176 -70 258t-173 82t-172 -81.5t-69 -202.5v-537h-180v1090h-125v120h125v144l180 76v-220h428v-120h-428v-263h6q59 80 137 113t152 33q166 0 267.5 -124t101.5 -351q0 -479 -459 -586l-35 143q314 80 314 426z" />
    <glyph glyph-name="afii10100" unicode="&#x453;" horiz-adv-x="851" 
d="M289 850v-850h-180v999h731v-149h-551zM436 1128l-96 33l147 346l195 -37z" />
    <glyph glyph-name="afii10101" unicode="&#x454;" horiz-adv-x="931" 
d="M711 580v-142h-432q10 -131 75.5 -216t180.5 -85q68 0 119 28t104 83l108 -107q-126 -161 -329 -161t-324 139t-121 379t120 380t318 140t332 -148l-108 -116q-100 108 -216 108t-181.5 -78.5t-75.5 -203.5h430z" />
    <glyph glyph-name="afii10102" unicode="&#x455;" horiz-adv-x="919" 
d="M321.5 834.5q-49.5 -35.5 -49.5 -86.5t43 -85.5t142 -63.5q197 -56 290 -127.5t93 -205.5t-109 -210t-295 -76q-187 0 -358 98l65 135q160 -88 304 -88t179.5 49t35.5 87q0 69 -56 106t-153 68q-182 57 -266.5 125.5t-84.5 186.5q0 117 96.5 194t279.5 77t327 -78
l-60 -137q-127 67 -251 67q-123 0 -172.5 -35.5z" />
    <glyph glyph-name="afii10103" unicode="&#x456;" horiz-adv-x="493" 
d="M137 1271q0 46 32 77.5t78 31.5t78.5 -31.5t32.5 -77.5t-32.5 -79t-78.5 -33t-78 33t-32 79zM158 999h180v-999h-180v999z" />
    <glyph glyph-name="afii10104" unicode="&#x457;" horiz-adv-x="499" 
d="M49 1178q-41 0 -72.5 30.5t-31.5 73.5t31.5 72.5t72.5 29.5t73 -29.5t32 -72.5t-32 -73.5t-73 -30.5zM456 1178q-42 0 -74 30.5t-32 73.5t32 72.5t74 29.5t71.5 -29.5t29.5 -72.5t-29.5 -73.5t-71.5 -30.5zM160 997h180v-997h-180v997z" />
    <glyph glyph-name="afii10105" unicode="&#x458;" horiz-adv-x="495" 
d="M152 1271q0 46 31.5 77.5t77.5 31.5t78 -31.5t32 -77.5t-32 -79t-78 -33t-77.5 33t-31.5 79zM348 -16q0 -204 -77.5 -298t-297.5 -98l-12 150q135 22 172 69.5t37 169.5v1022h178v-1015z" />
    <glyph glyph-name="afii10106" unicode="&#x459;" horiz-adv-x="1482" 
d="M1266 305q0 80 -48.5 123t-134.5 43h-262v-324h262q82 0 132.5 39t50.5 119zM375 504q0 -90 -3 -183.5t-35 -169t-102.5 -123.5t-205.5 -48l-13 147q126 24 158.5 81t32.5 218v573h614v-381h256q172 0 270.5 -80.5t98.5 -234.5t-96.5 -229.5t-257.5 -75.5h-451v856h-266
v-350z" />
    <glyph glyph-name="afii10107" unicode="&#x45a;" horiz-adv-x="1497" 
d="M1085 147q185 0 185 162q0 76 -49.5 118t-135.5 42h-260v-322h260zM825 616h265q164 0 262 -79.5t98 -233.5t-95 -229.5t-259 -75.5h-453v471h-356v-469h-176v1001h176v-387h356v385h182v-383z" />
    <glyph glyph-name="afii10108" unicode="&#x45b;" horiz-adv-x="1040" 
d="M600 969q342 0 342 -396v-573h-180v545q0 266 -217 266q-72 0 -123 -39t-83 -102t-32 -133v-537h-180v1096h-104v121h104v135q81 31 180 75v-210h430v-121h-430v-275h4q55 76 136 112t153 36z" />
    <glyph glyph-name="afii10109" unicode="&#x45c;" horiz-adv-x="911" 
d="M287 0h-176v997h176v-442l403 442h207l-426 -460l440 -537h-221l-403 510v-510zM451 1128l-97 33l148 346l194 -37z" />
    <glyph glyph-name="afii10110" unicode="&#x45e;" horiz-adv-x="978" 
d="M504 1276q68 0 102.5 42t36.5 89h133q-8 -164 -102 -209t-171 -45q-138 0 -205.5 77.5t-72.5 176.5h131q10 -57 45 -94t103 -37zM948 999q-412 -1137 -504 -1384h-170l132 367q-34 85 -93 246t-97 260.5t-71.5 193.5t-64.5 176t-53 141h188l174 -503q17 -59 39.5 -125
t34.5 -105t22 -65h7q8 27 22 65.5t27.5 81.5t27 82t21.5 66l178 503h180z" />
    <glyph glyph-name="afii10193" unicode="&#x45f;" horiz-adv-x="1062" 
d="M621 0v-322h-172v322h-334v1001h178v-851h475v851h182v-1001h-329z" />
    <glyph glyph-name="afii10050" unicode="&#x490;" horiz-adv-x="1021" 
d="M131 1333h703v279h184v-449h-696v-1163h-191v1333z" />
    <glyph glyph-name="afii10098" unicode="&#x491;" horiz-adv-x="866" 
d="M838 850h-553v-850h-174v999h561v218h166v-367z" />
    <glyph glyph-name="schwacyrillic" unicode="&#x4d9;" horiz-adv-x="1017" 
d="M502 127q106 0 175.5 81.5t80.5 219.5h-502q14 -213 102 -257t144 -44zM174 887q138 131 327 131t313 -137t124 -377q0 -239 -122.5 -381.5t-318.5 -142.5t-304.5 141t-108.5 366v72h676q-14 162 -89 233.5t-189 71.5t-214 -88z" />
    <glyph glyph-name="Wgrave" unicode="&#x1e80;" horiz-adv-x="1589" 
d="M442 1567l148 131l287 -207l-66 -78zM246 1333q206 -1049 207 -1054h6l67 290q14 61 40 166t52.5 216.5t51 216t39.5 165.5h184q17 -66 44.5 -181.5t49 -203.5t45.5 -194t47 -193l64 -282h4l57 282q4 25 16.5 85.5t27 137t31.5 161.5t32.5 163t27 138.5t17.5 86.5h190
q-8 -39 -30.5 -142.5t-51 -238.5t-61.5 -285.5t-62.5 -285.5t-52 -238.5t-31.5 -142.5h-215l-178 750q-10 57 -35.5 157.5t-27.5 112.5h-4l-62 -266q-10 -41 -25.5 -101.5t-36.5 -146t-60 -251t-62 -255.5h-211q-40 165 -145.5 666.5t-145.5 666.5h197z" />
    <glyph glyph-name="wgrave" unicode="&#x1e81;" horiz-adv-x="1325" 
d="M403 1466l197 37l150 -342l-97 -33zM653 745l-51 -202l-145 -543h-166q-23 88 -59.5 222t-75.5 277.5t-75 277.5t-61 222h183l114 -471l60 -274h6q15 70 28 116t23 86t22 80t29 109.5t35.5 138t33.5 127t24 88.5h163l129 -489l58 -258h6l59 262q12 43 27.5 107.5
t43 173.5t48.5 204h182q-25 -88 -61.5 -222t-110.5 -399.5t-102 -377.5h-172q-30 113 -73.5 283.5t-76.5 294.5l-41 167h-4z" />
    <glyph glyph-name="Wacute" unicode="&#x1e82;" horiz-adv-x="1589" 
d="M774 1413l-63 78l284 207l148 -131zM246 1333q206 -1049 207 -1054h6l67 290q14 61 40 166t52.5 216.5t51 216t39.5 165.5h184q17 -66 44.5 -181.5t49 -203.5t45.5 -194t47 -193l64 -282h4l57 282q4 25 16.5 85.5t27 137t31.5 161.5t32.5 163t27 138.5t17.5 86.5h190
q-8 -39 -30.5 -142.5t-51 -238.5t-61.5 -285.5t-62.5 -285.5t-52 -238.5t-31.5 -142.5h-215l-178 750q-10 57 -35.5 157.5t-27.5 112.5h-4l-62 -266q-10 -41 -25.5 -101.5t-36.5 -146t-60 -251t-62 -255.5h-211q-40 165 -145.5 666.5t-145.5 666.5h197z" />
    <glyph glyph-name="wacute" unicode="&#x1e83;" horiz-adv-x="1325" 
d="M705 1128l-97 33l148 346l194 -37zM653 745l-51 -202l-145 -543h-166q-23 88 -59.5 222t-75.5 277.5t-75 277.5t-61 222h183l114 -471l60 -274h6q15 70 28 116t23 86t22 80t29 109.5t35.5 138t33.5 127t24 88.5h163l129 -489l58 -258h6l59 262q12 43 27.5 107.5t43 173.5
t48.5 204h182q-25 -88 -61.5 -222t-110.5 -399.5t-102 -377.5h-172q-30 113 -73.5 283.5t-76.5 294.5l-41 167h-4z" />
    <glyph glyph-name="Wdieresis" unicode="&#x1e84;" horiz-adv-x="1589" 
d="M1003 1485q-42 0 -74 30.5t-32 73.5t32 73t74 30t71.5 -30t29.5 -73t-29.5 -73.5t-71.5 -30.5zM596 1485q-41 0 -72.5 30.5t-31.5 73.5t31.5 73t72.5 30t72.5 -30t31.5 -73t-31.5 -73.5t-72.5 -30.5zM246 1333q206 -1049 207 -1054h6l67 290q14 61 40 166t52.5 216.5
t51 216t39.5 165.5h184q17 -66 44.5 -181.5t49 -203.5t45.5 -194t47 -193l64 -282h4l57 282q4 25 16.5 85.5t27 137t31.5 161.5t32.5 163t27 138.5t17.5 86.5h190q-8 -39 -30.5 -142.5t-51 -238.5t-61.5 -285.5t-62.5 -285.5t-52 -238.5t-31.5 -142.5h-215l-178 750
q-10 57 -35.5 157.5t-27.5 112.5h-4l-62 -266q-10 -41 -25.5 -101.5t-36.5 -146t-60 -251t-62 -255.5h-211q-40 165 -145.5 666.5t-145.5 666.5h197z" />
    <glyph glyph-name="wdieresis" unicode="&#x1e85;" horiz-adv-x="1325" 
d="M859 1178q-42 0 -73.5 30.5t-31.5 73.5t31.5 72.5t73.5 29.5t72 -29.5t30 -72.5t-30 -73.5t-72 -30.5zM453 1178q-41 0 -73 30.5t-32 73.5t32 72.5t73 29.5t72.5 -29.5t31.5 -72.5t-31.5 -73.5t-72.5 -30.5zM653 745l-51 -202l-145 -543h-166q-23 88 -59.5 222
t-75.5 277.5t-75 277.5t-61 222h183l114 -471l60 -274h6q15 70 28 116t23 86t22 80t29 109.5t35.5 138t33.5 127t24 88.5h163l129 -489l58 -258h6l59 262q12 43 27.5 107.5t43 173.5t48.5 204h182q-25 -88 -61.5 -222t-110.5 -399.5t-102 -377.5h-172q-30 113 -73.5 283.5
t-76.5 294.5l-41 167h-4z" />
    <glyph glyph-name="Ygrave" unicode="&#x1ef2;" horiz-adv-x="1187" 
d="M299 1567l147 131l287 -207l-65 -78zM592 633q99 193 369 700h210l-485 -866v-467h-188v467l-486 866h215q85 -167 189 -362q105 -195 176 -338z" />
    <glyph glyph-name="ygrave" unicode="&#x1ef3;" horiz-adv-x="978" 
d="M240 1466l196 37l150 -342l-97 -33zM948 999q-412 -1137 -504 -1384h-170l132 367q-34 85 -93 246t-97 260.5t-71.5 193.5t-64.5 176t-53 141h188l174 -503q17 -59 39.5 -125t34.5 -105t22 -65h7q8 27 22 65.5t27.5 81.5t27 82t21.5 66l178 503h180z" />
    <glyph glyph-name="uni1F00" unicode="&#x1f00;" horiz-adv-x="1052" 
d="M524 1303q0 98 -133 127l58 151q227 -48 227 -215q0 -47 -30 -115.5t-97 -132.5l-84 33q59 87 59 152zM516 868q-106 0 -176 -96t-70 -276q0 -362 246 -363q72 0 135.5 42t104.5 89v469q-41 51 -102.5 93t-137.5 42zM762 905v94h174v-999h-150l-20 102h-8
q-131 -123 -289 -122q-262 0 -319.5 188t-57.5 378t114.5 331t278.5 141t273 -113h4z" />
    <glyph glyph-name="uni1F01" unicode="&#x1f01;" horiz-adv-x="1052" 
d="M563 1291q0 -52 60 -140l-84 -33q-70 63 -98.5 132t-28.5 116q0 171 229 213l53 -149q-78 -16 -104.5 -51.5t-26.5 -87.5zM516 868q-106 0 -176 -96t-70 -276q0 -362 246 -363q72 0 135.5 42t104.5 89v469q-41 51 -102.5 93t-137.5 42zM762 905v94h174v-999h-150l-20 102
h-8q-131 -123 -289 -122q-262 0 -319.5 188t-57.5 378t114.5 331t278.5 141t273 -113h4z" />
    <glyph glyph-name="uni1F02" unicode="&#x1f02;" horiz-adv-x="1052" 
d="M512 1530l209 41l151 -408l-98 -26zM340 1305q0 98 -133 127q0 2 27.5 74t27.5 77q230 -48 230 -215q0 -47 -30 -115.5t-97 -132.5l-84 35q59 83 59 150zM516 868q-106 0 -176 -96t-70 -276q0 -362 246 -363q72 0 135.5 42t104.5 89v469q-41 51 -102.5 93t-137.5 42z
M762 905v94h174v-999h-150l-20 102h-8q-131 -123 -289 -122q-262 0 -319.5 188t-57.5 378t114.5 331t278.5 141t273 -113h4z" />
    <glyph glyph-name="uni1F03" unicode="&#x1f03;" horiz-adv-x="1052" 
d="M504 1530l211 41l151 -408l-98 -26zM358 1300q0 -70 58 -151l-84 -35q-68 66 -96.5 133.5t-28.5 114.5q0 171 229 215l51 -152q-129 -23 -129 -125zM516 868q-106 0 -176 -96t-70 -276q0 -362 246 -363q72 0 135.5 42t104.5 89v469q-41 51 -102.5 93t-137.5 42zM762 905
v94h174v-999h-150l-20 102h-8q-131 -123 -289 -122q-262 0 -319.5 188t-57.5 378t114.5 331t278.5 141t273 -113h4z" />
    <glyph glyph-name="uni1F04" unicode="&#x1f04;" horiz-adv-x="1052" 
d="M698 1130l-98 27l150 406l211 -39zM420 1313q0 98 -131 127q0 9 27.5 78t27.5 73q227 -48 227 -217q0 -47 -28.5 -114.5t-98.5 -131.5l-82 33q58 81 58 152zM516 868q-106 0 -176 -96t-70 -276q0 -362 246 -363q72 0 135.5 42t104.5 89v469q-41 51 -102.5 93t-137.5 42z
M762 905v94h174v-999h-150l-20 102h-8q-131 -123 -289 -122q-262 0 -319.5 188t-57.5 378t114.5 331t278.5 141t273 -113h4z" />
    <glyph glyph-name="uni1F05" unicode="&#x1f05;" horiz-adv-x="1052" 
d="M690 1130l-96 29l151 408l209 -41zM446 1299q0 -57 56 -136l-82 -35q-68 66 -97.5 133.5t-29.5 114.5q0 86 59.5 140.5t169.5 74.5l53 -151q-78 -14 -103.5 -49t-25.5 -92zM516 868q-106 0 -176 -96t-70 -276q0 -362 246 -363q72 0 135.5 42t104.5 89v469
q-41 51 -102.5 93t-137.5 42zM762 905v94h174v-999h-150l-20 102h-8q-131 -123 -289 -122q-262 0 -319.5 188t-57.5 378t114.5 331t278.5 141t273 -113h4z" />
    <glyph glyph-name="uni1F06" unicode="&#x1f06;" horiz-adv-x="1052" 
d="M537 1239q0 31 -26 51.5t-97 30.5l45 115q104 -12 158.5 -54.5t54.5 -88.5q0 -105 -144 -197l-53 45q62 67 62 98zM401 1532q-33 0 -61.5 -15.5t-69.5 -68.5l-75 39q64 188 211 188q55 0 119.5 -30.5t97 -44t64.5 -13.5t58.5 15.5t67.5 64.5l76 -45q-65 -174 -211 -174
q-41 0 -108.5 28.5t-101.5 42t-67 13.5zM516 868q-106 0 -176 -96t-70 -276q0 -362 246 -363q72 0 135.5 42t104.5 89v469q-41 51 -102.5 93t-137.5 42zM762 905v94h174v-999h-150l-20 102h-8q-131 -123 -289 -122q-262 0 -319.5 188t-57.5 378t114.5 331t278.5 141
t273 -113h4z" />
    <glyph glyph-name="uni1F07" unicode="&#x1f07;" horiz-adv-x="1052" 
d="M539 1237q0 -42 61 -92l-47 -47q-152 66 -152 168q2 55 53.5 103t163.5 58l31 -108q-110 -26 -110 -82zM674 1446q-41 0 -108.5 28.5t-101.5 42t-67 13.5t-61.5 -14.5t-69.5 -69.5l-76 39q33 98 90.5 143t106.5 45q68 0 161 -44t130 -44t63.5 15.5t67.5 64.5l74 -45
q-65 -174 -209 -174zM516 868q-106 0 -176 -96t-70 -276q0 -362 246 -363q72 0 135.5 42t104.5 89v469q-41 51 -102.5 93t-137.5 42zM762 905v94h174v-999h-150l-20 102h-8q-131 -123 -289 -122q-262 0 -319.5 188t-57.5 378t114.5 331t278.5 141t273 -113h4z" />
    <glyph glyph-name="uni1F08" unicode="&#x1f08;" horiz-adv-x="1300" 
d="M90 1072q0 52 -27.5 87t-105.5 51l57 152q228 -48 228 -215q0 -47 -30 -115.5t-97 -132.5l-84 33q59 88 59 140zM905 467q-61 168 -124.5 325.5t-123.5 340.5h-6l-248 -666h502zM1079 0q-76 200 -114 305h-619q-52 -141 -115 -305h-198l520 1333h209q247 -642 520 -1333
h-203z" />
    <glyph glyph-name="uni1F09" unicode="&#x1f09;" horiz-adv-x="1300" 
d="M127 1100q0 -61 59 -152l-84 -33q-70 63 -98.5 132t-28.5 116q0 171 230 213l53 -149q-131 -27 -131 -127zM905 467q-61 168 -124.5 325.5t-123.5 340.5h-6l-248 -666h502zM1079 0q-76 200 -114 305h-619q-52 -141 -115 -305h-198l520 1333h209q247 -642 520 -1333h-203z
" />
    <glyph glyph-name="uni1F0A" unicode="&#x1f0a;" horiz-adv-x="1300" 
d="M-37 1343l209 41l152 -407l-99 -27zM-209 1105q0 54 -27.5 89t-105.5 51q0 2 27.5 74t27.5 78q230 -48 230 -215q0 -47 -30 -116t-97 -132l-84 35q59 82 59 136zM905 467q-61 168 -124.5 325.5t-123.5 340.5h-6l-248 -666h502zM1079 0q-76 200 -114 305h-619
q-52 -141 -115 -305h-198l520 1333h209q247 -642 520 -1333h-203z" />
    <glyph glyph-name="uni1F0B" unicode="&#x1f0b;" horiz-adv-x="1300" 
d="M-37 1337l211 41l152 -407l-99 -27zM-182 1108q0 -72 57 -152l-84 -34q-68 66 -96.5 133t-28.5 114q0 174 230 215l51 -151q-129 -23 -129 -125zM905 467q-61 168 -124.5 325.5t-123.5 340.5h-6l-248 -666h502zM1079 0q-76 200 -114 305h-619q-52 -141 -115 -305h-198
l520 1333h209q247 -642 520 -1333h-203z" />
    <glyph glyph-name="uni1F0C" unicode="&#x1f0c;" horiz-adv-x="1300" 
d="M135 940l-98 27l149 405l211 -39zM-143 1108q0 55 -27 90t-104 51q0 14 27.5 82t27.5 70q227 -48 227 -217q0 -47 -28.5 -115t-98.5 -131l-82 33q58 82 58 137zM905 467q-61 168 -124.5 325.5t-123.5 340.5h-6l-248 -666h502zM1079 0q-76 200 -114 305h-619
q-52 -141 -115 -305h-198l520 1333h209q247 -642 520 -1333h-203z" />
    <glyph glyph-name="uni1F0D" unicode="&#x1f0d;" horiz-adv-x="1300" 
d="M139 942l-96 29l152 407l208 -41zM-104 1110q0 -58 55 -135l-82 -35q-68 66 -97.5 133.5t-29.5 114.5q0 171 229 215l54 -152q-78 -14 -103.5 -48.5t-25.5 -92.5zM905 467q-61 168 -124.5 325.5t-123.5 340.5h-6l-248 -666h502zM1079 0q-76 200 -114 305h-619
q-52 -141 -115 -305h-198l520 1333h209q247 -642 520 -1333h-203z" />
    <glyph glyph-name="uni1F0E" unicode="&#x1f0e;" horiz-adv-x="1300" 
d="M53 1015q0 32 -25.5 52t-97.5 31l45 114q104 -12 158.5 -54t54.5 -88q0 -105 -143 -198l-53 46q61 65 61 97zM195 1225q-45 0 -111 28.5t-99.5 42t-66.5 13.5t-61.5 -15.5t-69.5 -68.5l-76 39q33 98 90.5 143t106.5 45q67 0 161.5 -44t130.5 -44t62.5 15.5t67.5 64.5
l76 -45q-65 -174 -211 -174zM905 467q-61 168 -124.5 325.5t-123.5 340.5h-6l-248 -666h502zM1079 0q-76 200 -114 305h-619q-52 -141 -115 -305h-198l520 1333h209q247 -642 520 -1333h-203z" />
    <glyph glyph-name="uni1F0F" unicode="&#x1f0f;" horiz-adv-x="1300" 
d="M66 1016q0 -42 61 -92l-47 -47q-152 66 -152 167q2 55 53.5 103.5t163.5 58.5l31 -108q-110 -26 -110 -82zM201 1225q-45 0 -110.5 28.5t-99.5 42t-67 13.5t-61.5 -14.5t-69.5 -69.5l-76 39q33 98 90.5 143t106.5 45q64 0 160 -44t132 -44t62.5 15.5t67.5 64.5l74 -45
q-65 -174 -209 -174zM905 467q-61 168 -124.5 325.5t-123.5 340.5h-6l-248 -666h502zM1079 0q-76 200 -114 305h-619q-52 -141 -115 -305h-198l520 1333h209q247 -642 520 -1333h-203z" />
    <glyph glyph-name="uni1F10" unicode="&#x1f10;" horiz-adv-x="897" 
d="M489 1303q0 98 -133 127l58 151q227 -48 227 -215q0 -47 -29.5 -115.5t-97.5 -132.5l-84 33q59 87 59 152zM870 131q-151 -151 -399 -151t-313.5 107t-65.5 183t47 142.5t129 93.5v4q-86 29 -124 91.5t-38 126.5q0 126 115.5 208t267.5 82q221 0 357 -129
q-23 -23 -103 -119q-108 100 -223 100t-173 -48.5t-58 -100.5q0 -139 172 -139h137v-131h-129q-71 0 -116.5 -28t-64 -56.5t-18.5 -80.5t54.5 -105.5t169.5 -53.5q151 0 274 117z" />
    <glyph glyph-name="uni1F11" unicode="&#x1f11;" horiz-adv-x="897" 
d="M508 1292q0 -51 59 -141l-84 -33q-70 63 -98.5 132t-28.5 116q0 171 230 213l53 -149q-78 -16 -104.5 -51.5t-26.5 -86.5zM870 131q-151 -151 -399 -151t-313.5 107t-65.5 183t47 142.5t129 93.5v4q-86 29 -124 91.5t-38 126.5q0 126 115.5 208t267.5 82q221 0 357 -129
q-23 -23 -103 -119q-108 100 -223 100t-173 -48.5t-58 -100.5q0 -139 172 -139h137v-131h-129q-71 0 -116.5 -28t-64 -56.5t-18.5 -80.5t54.5 -105.5t169.5 -53.5q151 0 274 117z" />
    <glyph glyph-name="uni1F12" unicode="&#x1f12;" horiz-adv-x="897" 
d="M442 1530l209 41l152 -408l-98 -26zM270 1305q0 98 -133 127q0 2 9.5 25.5t19.5 51t18.5 50t8.5 24.5q229 -47 229 -215q0 -47 -30 -115.5t-97 -132.5l-84 35q59 83 59 150zM870 131q-151 -151 -399 -151t-313.5 107t-65.5 183t47 142.5t129 93.5v4q-86 29 -124 91.5
t-38 126.5q0 126 115.5 208t267.5 82q221 0 357 -129q-23 -23 -103 -119q-108 100 -223 100t-173 -48.5t-58 -100.5q0 -139 172 -139h137v-131h-129q-71 0 -116.5 -28t-64 -56.5t-18.5 -80.5t54.5 -105.5t169.5 -53.5q151 0 274 117z" />
    <glyph glyph-name="uni1F13" unicode="&#x1f13;" horiz-adv-x="897" 
d="M428 1530l211 41l152 -408l-99 -26zM283 1300q0 -71 57 -151l-84 -35q-68 66 -96.5 133.5t-28.5 114.5q0 171 229 215l52 -152q-129 -23 -129 -125zM870 131q-151 -151 -399 -151t-313.5 107t-65.5 183t47 142.5t129 93.5v4q-86 29 -124 91.5t-38 126.5q0 126 115.5 208
t267.5 82q221 0 357 -129q-23 -23 -103 -119q-108 100 -223 100t-173 -48.5t-58 -100.5q0 -139 172 -139h137v-131h-129q-71 0 -116.5 -28t-64 -56.5t-18.5 -80.5t54.5 -105.5t169.5 -53.5q151 0 274 117z" />
    <glyph glyph-name="uni1F14" unicode="&#x1f14;" horiz-adv-x="897" 
d="M602 1130l-98 27l149 406l211 -39zM324 1313q0 98 -131 127q0 13 27.5 81t27.5 70q227 -48 227 -217q0 -47 -28.5 -114.5t-98.5 -131.5l-82 33q58 81 58 152zM870 131q-151 -151 -399 -151t-313.5 107t-65.5 183t47 142.5t129 93.5v4q-86 29 -124 91.5t-38 126.5
q0 126 115.5 208t267.5 82q221 0 357 -129q-23 -23 -103 -119q-108 100 -223 100t-173 -48.5t-58 -100.5q0 -139 172 -139h137v-131h-129q-71 0 -116.5 -28t-64 -56.5t-18.5 -80.5t54.5 -105.5t169.5 -53.5q151 0 274 117z" />
    <glyph glyph-name="uni1F15" unicode="&#x1f15;" horiz-adv-x="897" 
d="M600 1126l-96 29l151 408l209 -41zM356 1295q0 -57 56 -136l-82 -35q-68 66 -97.5 133.5t-29.5 114.5q0 86 59.5 140.5t169.5 74.5l53 -151q-78 -14 -103.5 -49t-25.5 -92zM870 131q-151 -151 -399 -151t-313.5 107t-65.5 183t47 142.5t129 93.5v4q-86 29 -124 91.5
t-38 126.5q0 126 115.5 208t267.5 82q221 0 357 -129q-23 -23 -103 -119q-108 100 -223 100t-173 -48.5t-58 -100.5q0 -139 172 -139h137v-131h-129q-71 0 -116.5 -28t-64 -56.5t-18.5 -80.5t54.5 -105.5t169.5 -53.5q151 0 274 117z" />
    <glyph glyph-name="uni1F18" unicode="&#x1f18;" horiz-adv-x="1069" 
d="M-154 1104q0 98 -133 127l58 151q227 -48 227 -215q0 -47 -29.5 -115.5t-97.5 -131.5l-84 32q59 87 59 152zM131 1333h879v-170h-688v-370h487v-170h-487v-453h712v-170h-903v1333z" />
    <glyph glyph-name="uni1F19" unicode="&#x1f19;" horiz-adv-x="1069" 
d="M-121 1100q0 -63 60 -152l-84 -33q-70 63 -98.5 132t-28.5 116q0 171 229 213l53 -149q-131 -27 -131 -127zM131 1333h879v-170h-688v-370h487v-170h-487v-453h712v-170h-903v1333z" />
    <glyph glyph-name="uni1F1A" unicode="&#x1f1a;" horiz-adv-x="1069" 
d="M-334 1346l209 40l152 -407l-99 -27zM-506 1107q0 54 -27.5 89t-105.5 51q0 2 27.5 74t27.5 78q230 -48 230 -215q0 -47 -30 -116t-97 -132l-84 35q59 82 59 136zM131 1333h879v-170h-688v-370h487v-170h-487v-453h712v-170h-903v1333z" />
    <glyph glyph-name="uni1F1B" unicode="&#x1f1b;" horiz-adv-x="1069" 
d="M-346 1346l211 40l151 -407l-98 -27zM-492 1100q0 -57 58 -135l-84 -35q-68 66 -96.5 133t-28.5 115q0 171 229 215l52 -152q-78 -14 -104 -49t-26 -92zM131 1333h879v-170h-688v-370h487v-170h-487v-453h712v-170h-903v1333z" />
    <glyph glyph-name="uni1F1C" unicode="&#x1f1c;" horiz-adv-x="1069" 
d="M-195 936l-98 27l150 405l211 -39zM-473 1118q0 100 -131 127q0 8 27.5 78.5t27.5 73.5q227 -48 227 -217q0 -47 -28.5 -115t-98.5 -131l-81 33q57 80 57 151zM131 1333h879v-170h-688v-370h487v-170h-487v-453h712v-170h-903v1333z" />
    <glyph glyph-name="uni1F1D" unicode="&#x1f1d;" horiz-adv-x="1069" 
d="M-197 938l-96 29l152 407l209 -41zM-440 1106q0 -58 55 -135l-82 -35q-68 66 -97.5 133.5t-29.5 114.5q0 171 229 215l54 -152q-78 -14 -103.5 -48.5t-25.5 -92.5zM131 1333h879v-170h-688v-370h487v-170h-487v-453h712v-170h-903v1333z" />
    <glyph glyph-name="uni1F20" unicode="&#x1f20;" horiz-adv-x="1024" 
d="M453 1303q0 98 -134 127l58 151q227 -48 227 -215q0 -47 -29.5 -115.5t-97.5 -132.5l-84 33q60 89 60 152zM745 592q-1 270 -203 270q-100 0 -175.5 -66.5t-75.5 -209.5v-586h-180v999h180v-131l6 -2q53 80 133 116t154 36q342 0 342 -395v-623h-181v592z" />
    <glyph glyph-name="uni1F21" unicode="&#x1f21;" horiz-adv-x="1024" 
d="M500 1292q0 -51 59 -141l-84 -33q-70 63 -98.5 132t-28.5 116q0 171 230 213l53 -149q-78 -16 -104.5 -51.5t-26.5 -86.5zM745 592q-1 270 -203 270q-100 0 -175.5 -66.5t-75.5 -209.5v-586h-180v999h180v-131l6 -2q53 80 133 116t154 36q342 0 342 -395v-623h-181v592z
" />
    <glyph glyph-name="uni1F22" unicode="&#x1f22;" horiz-adv-x="1024" 
d="M453 1532l209 41l151 -408l-98 -26zM281 1307q0 98 -134 127q0 2 9.5 25.5t19.5 51t18.5 50t8.5 24.5q229 -47 229 -215q0 -47 -29.5 -115.5t-97.5 -132.5l-84 35q60 84 60 150zM745 592q-1 270 -203 270q-100 0 -175.5 -66.5t-75.5 -209.5v-586h-180v999h180v-131l6 -2
q53 80 133 116t154 36q342 0 342 -395v-623h-181v592z" />
    <glyph glyph-name="uni1F23" unicode="&#x1f23;" horiz-adv-x="1024" 
d="M453 1532l211 41l151 -408l-98 -26zM307 1288q0 -55 58 -137l-84 -35q-68 66 -96.5 133.5t-28.5 114.5q0 174 229 215l51 -152q-78 -14 -103.5 -49t-25.5 -90zM745 592q-1 270 -203 270q-100 0 -175.5 -66.5t-75.5 -209.5v-586h-180v999h180v-131l6 -2q53 80 133 116
t154 36q342 0 342 -395v-623h-181v592z" />
    <glyph glyph-name="uni1F24" unicode="&#x1f24;" horiz-adv-x="1024" 
d="M623 1130l-99 27l150 406l211 -39zM344 1313q0 98 -131 127q0 9 27.5 78t27.5 73q228 -48 228 -217q0 -47 -29 -114.5t-98 -131.5l-82 33q57 80 57 152zM745 592q-1 270 -203 270q-100 0 -175.5 -66.5t-75.5 -209.5v-586h-180v999h180v-131l6 -2q53 80 133 116t154 36
q342 0 342 -395v-623h-181v592z" />
    <glyph glyph-name="uni1F25" unicode="&#x1f25;" horiz-adv-x="1024" 
d="M621 1130l-97 29l152 408l209 -41zM377 1300q0 -56 55 -137l-82 -35q-68 66 -97.5 133.5t-29.5 114.5q0 174 230 215l53 -151q-78 -14 -103.5 -49t-25.5 -91zM745 592q-1 270 -203 270q-100 0 -175.5 -66.5t-75.5 -209.5v-586h-180v999h180v-131l6 -2q53 80 133 116
t154 36q342 0 342 -395v-623h-181v592z" />
    <glyph glyph-name="uni1F26" unicode="&#x1f26;" horiz-adv-x="1024" 
d="M477 1236q0 32 -25.5 52.5t-97.5 30.5l45 115q104 -12 158.5 -54.5t54.5 -88.5q0 -106 -143 -197l-53 45q61 65 61 97zM618 1446q-39 0 -107.5 28.5t-102 42t-66.5 13.5t-61.5 -15.5t-69.5 -68.5l-76 39q33 98 90.5 143t106.5 45q71 0 162.5 -44t128.5 -44t63.5 15.5
t67.5 64.5l75 -45q-65 -174 -211 -174zM745 592q-1 270 -203 270q-100 0 -175.5 -66.5t-75.5 -209.5v-586h-180v999h180v-131l6 -2q53 80 133 116t154 36q342 0 342 -395v-623h-181v592z" />
    <glyph glyph-name="uni1F27" unicode="&#x1f27;" horiz-adv-x="1024" 
d="M485 1237q0 -41 62 -92l-47 -47q-152 66 -152 168q2 55 53.5 103t163.5 58l31 -108q-111 -26 -111 -82zM621 1446q-40 0 -108.5 28.5t-102 42t-66.5 13.5t-61.5 -14.5t-69.5 -69.5l-76 39q33 98 90.5 143t106.5 45q69 0 160.5 -44t129.5 -44t64.5 15.5t67.5 64.5l73 -45
q-65 -174 -208 -174zM745 592q-1 270 -203 270q-100 0 -175.5 -66.5t-75.5 -209.5v-586h-180v999h180v-131l6 -2q53 80 133 116t154 36q342 0 342 -395v-623h-181v592z" />
    <glyph glyph-name="uni1F28" unicode="&#x1f28;" horiz-adv-x="1294" 
d="M-158 1096q0 98 -133 127l58 151q227 -48 227 -215q0 -47 -30 -115.5t-97 -132.5l-84 33q59 87 59 152zM973 608h-651v-608h-193v1333h193v-553h651v553h190v-1333h-190v608z" />
    <glyph glyph-name="uni1F29" unicode="&#x1f29;" horiz-adv-x="1294" 
d="M-123 1104q0 -63 60 -152l-84 -32q-70 63 -98.5 131.5t-28.5 115.5q0 171 229 213l53 -149q-131 -27 -131 -127zM973 608h-651v-608h-193v1333h193v-553h651v553h190v-1333h-190v608z" />
    <glyph glyph-name="uni1F2A" unicode="&#x1f2a;" horiz-adv-x="1294" 
d="M-332 1335l209 41l152 -407l-99 -27zM-504 1097q0 54 -27.5 89t-105.5 51q0 2 27.5 70t27.5 82q230 -48 230 -215q0 -47 -30 -116t-97 -132l-84 35q59 82 59 136zM973 608h-651v-608h-193v1333h193v-553h651v553h190v-1333h-190v608z" />
    <glyph glyph-name="uni1F2B" unicode="&#x1f2b;" horiz-adv-x="1294" 
d="M-338 1335l211 41l152 -407l-99 -27zM-483 1106q0 -72 57 -152l-84 -34q-68 66 -96.5 133t-28.5 114q0 86 59.5 140.5t169.5 74.5l52 -151q-129 -23 -129 -125zM973 608h-651v-608h-193v1333h193v-553h651v553h190v-1333h-190v608z" />
    <glyph glyph-name="uni1F2C" unicode="&#x1f2c;" horiz-adv-x="1294" 
d="M-209 930l-98 26l149 406l211 -39zM-487 1098q0 55 -27 90t-104 51q0 11 27.5 80.5t27.5 71.5q227 -48 227 -217q0 -47 -28.5 -115t-98.5 -131l-82 33q58 82 58 137zM973 608h-651v-608h-193v1333h193v-553h651v553h190v-1333h-190v608z" />
    <glyph glyph-name="uni1F2D" unicode="&#x1f2d;" horiz-adv-x="1294" 
d="M-207 930l-96 28l151 408l209 -41zM-451 1097q0 -58 56 -134l-82 -35q-68 66 -97.5 133t-29.5 115q0 171 229 215l53 -152q-78 -14 -103.5 -49t-25.5 -93zM973 608h-651v-608h-193v1333h193v-553h651v553h190v-1333h-190v608z" />
    <glyph glyph-name="uni1F2E" unicode="&#x1f2e;" horiz-adv-x="1294" 
d="M-305 1003q0 32 -25.5 52t-97.5 30l45 115q104 -12 158.5 -54t54.5 -88q0 -107 -143 -198l-54 45q62 66 62 98zM-647 1251q64 189 215 189q49 0 142 -44t130 -44t63.5 15t67.5 65l76 -46q-65 -174 -211 -174q-41 0 -108.5 29t-101.5 42t-66 13t-61 -15t-70 -69zM973 608
h-651v-608h-193v1333h193v-553h651v553h190v-1333h-190v608z" />
    <glyph glyph-name="uni1F2F" unicode="&#x1f2f;" horiz-adv-x="1294" 
d="M-291 999q0 -39 62 -92l-47 -47q-152 66 -152 168q2 55 53 103.5t164 58.5l31 -109q-111 -26 -111 -82zM-639 1247q64 189 215 189q49 0 140.5 -44t130.5 -44q38 0 65 15t68 64l73 -45q-65 -174 -209 -174q-41 0 -108.5 29t-101 42t-66.5 13t-61.5 -14t-69.5 -70z
M973 608h-651v-608h-193v1333h193v-553h651v553h190v-1333h-190v608z" />
    <glyph glyph-name="uni1F30" unicode="&#x1f30;" horiz-adv-x="499" 
d="M244 1303q0 98 -133 127l57 151q227 -48 227 -215q0 -47 -29.5 -115.5t-97.5 -132.5l-84 33q60 89 60 152zM160 997h180v-997h-180v997z" />
    <glyph glyph-name="uni1F31" unicode="&#x1f31;" horiz-adv-x="499" 
d="M274 1291q0 -52 60 -140l-84 -33q-70 63 -98.5 132t-28.5 116q0 171 229 213l54 -149q-78 -16 -105 -51.5t-27 -87.5zM160 997h180v-997h-180v997z" />
    <glyph glyph-name="uni1F32" unicode="&#x1f32;" horiz-adv-x="499" 
d="M207 1532l209 41l151 -408l-98 -26zM35 1307q0 98 -133 127q0 2 27.5 74t27.5 77q229 -47 229 -215q0 -47 -29.5 -115.5t-97.5 -132.5l-84 35q60 84 60 150zM160 997h180v-997h-180v997z" />
    <glyph glyph-name="uni1F33" unicode="&#x1f33;" horiz-adv-x="499" 
d="M209 1534l211 41l151 -408l-98 -26zM63 1290q0 -56 58 -137l-84 -35q-68 66 -96.5 133.5t-28.5 114.5q0 86 59.5 140.5t169.5 74.5l52 -151q-78 -14 -104 -49t-26 -91zM160 997h180v-997h-180v997z" />
    <glyph glyph-name="uni1F34" unicode="&#x1f34;" horiz-adv-x="499" 
d="M391 1130l-98 27l149 406l211 -39zM113 1313q0 98 -131 127q0 13 27.5 81t27.5 70q227 -48 227 -217q0 -47 -28.5 -114.5t-98.5 -131.5l-82 33q58 81 58 152zM160 997h180v-997h-180v997z" />
    <glyph glyph-name="uni1F35" unicode="&#x1f35;" horiz-adv-x="499" 
d="M387 1130l-96 29l151 408l209 -41zM143 1299q0 -57 56 -136l-82 -35q-68 66 -97.5 133.5t-29.5 114.5q0 86 59.5 140.5t169.5 74.5l53 -151q-78 -14 -103.5 -49t-25.5 -92zM160 997h180v-997h-180v997z" />
    <glyph glyph-name="uni1F36" unicode="&#x1f36;" horiz-adv-x="499" 
d="M236 1239q0 31 -26 51.5t-97 30.5l45 115q104 -12 158.5 -54.5t54.5 -88.5q0 -105 -144 -197l-53 45q62 67 62 98zM377 1448q-41 0 -108.5 28.5t-101.5 42t-67 13.5t-61.5 -15.5t-69.5 -68.5l-75 39q64 188 210 188q56 0 120.5 -30.5t97 -44t64.5 -13.5t58.5 15.5
t67.5 64.5l76 -45q-65 -174 -211 -174zM160 997h180v-997h-180v997z" />
    <glyph glyph-name="uni1F37" unicode="&#x1f37;" horiz-adv-x="499" 
d="M252 1237q0 -40 61 -92l-47 -47q-151 65 -151 168q2 55 53 103t164 58l30 -108q-110 -26 -110 -82zM387 1446q-39 0 -107.5 28.5t-103 42t-66.5 13.5t-61 -14.5t-69 -69.5l-76 39q64 188 211 188q53 0 146 -44t130 -44t63.5 15.5t67.5 64.5l74 -45q-65 -174 -209 -174z
M160 997h180v-997h-180v997z" />
    <glyph glyph-name="uni1F38" unicode="&#x1f38;" horiz-adv-x="520" 
d="M-139 1095q0 52 -28 87t-105 51l57 151q227 -48 227 -215q0 -47 -29.5 -115.5t-97.5 -131.5l-84 32q60 89 60 141zM164 1333h192v-1333h-192v1333z" />
    <glyph glyph-name="uni1F39" unicode="&#x1f39;" horiz-adv-x="520" 
d="M-100 1096q0 -65 59 -152l-84 -33q-70 63 -98.5 132t-28.5 116q0 171 229 213l54 -149q-131 -27 -131 -127zM164 1333h192v-1333h-192v1333z" />
    <glyph glyph-name="uni1F3A" unicode="&#x1f3a;" horiz-adv-x="520" 
d="M-295 1335l209 41l152 -407l-99 -27zM-467 1097q0 54 -27.5 89t-105.5 51q0 2 27.5 74t27.5 78q230 -48 230 -215q0 -47 -30 -116t-97 -132l-84 35q59 82 59 136zM164 1333h192v-1333h-192v1333z" />
    <glyph glyph-name="uni1F3B" unicode="&#x1f3b;" horiz-adv-x="520" 
d="M-303 1333l211 41l151 -407l-98 -27zM-449 1089q0 -56 58 -137l-84 -34q-68 66 -96.5 133t-28.5 114q0 86 59.5 140.5t169.5 74.5l52 -151q-78 -14 -104 -49t-26 -91zM164 1333h192v-1333h-192v1333z" />
    <glyph glyph-name="uni1F3C" unicode="&#x1f3c;" horiz-adv-x="520" 
d="M-193 928l-98 26l150 406l211 -39zM-471 1110q0 100 -131 127q0 9 27.5 78t27.5 74q228 -48 228 -218q0 -47 -29 -114.5t-98 -130.5l-82 32q57 80 57 152zM164 1333h192v-1333h-192v1333z" />
    <glyph glyph-name="uni1F3D" unicode="&#x1f3d;" horiz-adv-x="520" 
d="M-182 920l-97 28l152 408l209 -41zM-426 1089q0 -56 55 -137l-82 -34q-68 66 -97.5 133t-29.5 114q0 174 230 215l53 -151q-78 -14 -103.5 -49t-25.5 -91zM164 1333h192v-1333h-192v1333z" />
    <glyph glyph-name="uni1F3E" unicode="&#x1f3e;" horiz-adv-x="520" 
d="M-248 1013q0 32 -25.5 52t-97.5 31l45 114q104 -12 158.5 -54t54.5 -88q0 -105 -143 -198l-53 45q61 66 61 98zM-106 1223q-45 0 -111 28.5t-99.5 42t-66.5 13.5t-61.5 -15.5t-69.5 -68.5l-76 39q33 98 90.5 143t106.5 45q67 0 161.5 -44t130.5 -44t62.5 15.5t67.5 64.5
l75 -45q-65 -174 -210 -174zM164 1333h192v-1333h-192v1333z" />
    <glyph glyph-name="uni1F3F" unicode="&#x1f3f;" horiz-adv-x="520" 
d="M-244 1016q0 -41 62 -92l-47 -47q-152 66 -152 167q2 55 53.5 103.5t163.5 58.5l31 -108q-111 -26 -111 -82zM-109 1225q-44 0 -110 28.5t-99.5 42t-66.5 13.5t-61.5 -14.5t-69.5 -69.5l-76 39q33 98 90.5 143t106.5 45q65 0 159.5 -44t131.5 -44t63.5 15.5t67.5 64.5
l73 -45q-65 -174 -209 -174zM164 1333h192v-1333h-192v1333z" />
    <glyph glyph-name="uni1F40" unicode="&#x1f40;" horiz-adv-x="1075" 
d="M500 1303q0 98 -133 127l57 151q227 -48 227 -215q0 -47 -29.5 -115.5t-97.5 -132.5l-84 33q60 89 60 152zM540 864q-124 0 -195 -101.5t-71 -266.5q0 -164 66 -263.5t191 -99.5t198.5 105t73.5 262q0 252 -98.5 308t-164.5 56zM92 496q0 241 126 381.5t323 140.5
t319.5 -137t122.5 -377t-128 -382t-328 -142t-317.5 137.5t-117.5 378.5z" />
    <glyph glyph-name="uni1F41" unicode="&#x1f41;" horiz-adv-x="1075" 
d="M561 1291q0 -52 60 -140l-84 -33q-70 63 -98.5 132t-28.5 116q0 171 229 213l53 -149q-78 -16 -104.5 -51.5t-26.5 -87.5zM540 864q-124 0 -195 -101.5t-71 -266.5q0 -164 66 -263.5t191 -99.5t198.5 105t73.5 262q0 252 -98.5 308t-164.5 56zM92 496q0 241 126 381.5
t323 140.5t319.5 -137t122.5 -377t-128 -382t-328 -142t-317.5 137.5t-117.5 378.5z" />
    <glyph glyph-name="uni1F42" unicode="&#x1f42;" horiz-adv-x="1075" 
d="M540 864q-124 0 -195 -101.5t-71 -266.5q0 -164 66 -263.5t191 -99.5t198.5 105t73.5 262q0 252 -98.5 308t-164.5 56zM92 496q0 241 126 381.5t323 140.5t319.5 -137t122.5 -377t-128 -382t-328 -142t-317.5 137.5t-117.5 378.5zM463 1530l209 41l151 -408l-98 -26z
M291 1305q0 98 -133 127q0 2 27.5 74t27.5 77q229 -47 229 -215q0 -47 -29.5 -115.5t-97.5 -132.5l-84 35q60 84 60 150z" />
    <glyph glyph-name="uni1F43" unicode="&#x1f43;" horiz-adv-x="1075" 
d="M467 1530l211 41l151 -408l-98 -26zM322 1300q0 -71 57 -151l-84 -35q-68 66 -96.5 133.5t-28.5 114.5q0 171 229 215l52 -152q-129 -23 -129 -125zM540 864q-124 0 -195 -101.5t-71 -266.5q0 -164 66 -263.5t191 -99.5t198.5 105t73.5 262q0 252 -98.5 308t-164.5 56z
M92 496q0 241 126 381.5t323 140.5t319.5 -137t122.5 -377t-128 -382t-328 -142t-317.5 137.5t-117.5 378.5z" />
    <glyph glyph-name="uni1F44" unicode="&#x1f44;" horiz-adv-x="1075" 
d="M540 864q-124 0 -195 -101.5t-71 -266.5q0 -164 66 -263.5t191 -99.5t198.5 105t73.5 262q0 252 -98.5 308t-164.5 56zM92 496q0 241 126 381.5t323 140.5t319.5 -137t122.5 -377t-128 -382t-328 -142t-317.5 137.5t-117.5 378.5zM649 1130l-98 27l149 406l211 -39z
M371 1313q0 98 -131 127q0 13 27.5 81t27.5 70q227 -48 227 -217q0 -47 -28.5 -114.5t-98.5 -131.5l-82 33q58 81 58 152z" />
    <glyph glyph-name="uni1F45" unicode="&#x1f45;" horiz-adv-x="1075" 
d="M651 1130l-96 29l152 408l208 -41zM408 1298q0 -58 55 -135l-82 -35q-68 66 -97.5 133.5t-29.5 114.5q0 86 59.5 140.5t169.5 74.5l54 -151q-78 -14 -103.5 -49t-25.5 -93zM540 864q-124 0 -195 -101.5t-71 -266.5q0 -164 66 -263.5t191 -99.5t198.5 105t73.5 262
q0 252 -98.5 308t-164.5 56zM92 496q0 241 126 381.5t323 140.5t319.5 -137t122.5 -377t-128 -382t-328 -142t-317.5 137.5t-117.5 378.5z" />
    <glyph glyph-name="uni1F48" unicode="&#x1f48;" horiz-adv-x="1318" 
d="M-113 1100q0 98 -133 127l58 151q227 -48 227 -215q0 -47 -29.5 -115.5t-97.5 -132.5l-84 33q59 87 59 152zM287 671q0 -226 96 -372.5t276 -146.5t275.5 148t95.5 372q0 225 -95.5 367.5t-276 142.5t-276 -142.5t-95.5 -368.5zM92 662q0 305 150.5 498.5t412.5 193.5
t416 -189.5t154 -499.5t-154.5 -497.5t-415.5 -187.5q-263 0 -413 188.5t-150 493.5z" />
    <glyph glyph-name="uni1F49" unicode="&#x1f49;" horiz-adv-x="1318" 
d="M-102 1104q0 -65 59 -152l-84 -32q-70 63 -98.5 131.5t-28.5 115.5q0 171 229 213l54 -149q-131 -27 -131 -127zM287 671q0 -226 96 -372.5t276 -146.5t275.5 148t95.5 372q0 225 -95.5 367.5t-276 142.5t-276 -142.5t-95.5 -368.5zM92 662q0 305 150.5 498.5
t412.5 193.5t416 -189.5t154 -499.5t-154.5 -497.5t-415.5 -187.5q-263 0 -413 188.5t-150 493.5z" />
    <glyph glyph-name="uni1F4A" unicode="&#x1f4a;" horiz-adv-x="1318" 
d="M-309 1337l209 41l151 -407l-98 -27zM-481 1100q0 53 -28 88t-105 51q0 2 27.5 74t27.5 78q229 -47 229 -215q0 -47 -29.5 -116t-97.5 -132l-84 35q60 84 60 137zM287 671q0 -226 96 -372.5t276 -146.5t275.5 148t95.5 372q0 225 -95.5 367.5t-276 142.5t-276 -142.5
t-95.5 -368.5zM92 662q0 305 150.5 498.5t412.5 193.5t416 -189.5t154 -499.5t-154.5 -497.5t-415.5 -187.5q-263 0 -413 188.5t-150 493.5z" />
    <glyph glyph-name="uni1F4B" unicode="&#x1f4b;" horiz-adv-x="1318" 
d="M-317 1337l211 41l151 -407l-98 -27zM-463 1108q0 -69 57 -152l-83 -34q-68 66 -96.5 133t-28.5 114q0 174 229 215l51 -151q-129 -23 -129 -125zM287 671q0 -226 96 -372.5t276 -146.5t275.5 148t95.5 372q0 225 -95.5 367.5t-276 142.5t-276 -142.5t-95.5 -368.5z
M92 662q0 305 150.5 498.5t412.5 193.5t416 -189.5t154 -499.5t-154.5 -497.5t-415.5 -187.5q-263 0 -413 188.5t-150 493.5z" />
    <glyph glyph-name="uni1F4C" unicode="&#x1f4c;" horiz-adv-x="1318" 
d="M-106 940l-99 27l150 405l211 -39zM-385 1122q0 100 -131 127q0 8 27.5 78.5t27.5 73.5q228 -48 228 -217q0 -47 -29 -115t-98 -131l-82 33q57 80 57 151zM287 671q0 -226 96 -372.5t276 -146.5t275.5 148t95.5 372q0 225 -95.5 367.5t-276 142.5t-276 -142.5
t-95.5 -368.5zM92 662q0 305 150.5 498.5t412.5 193.5t416 -189.5t154 -499.5t-154.5 -497.5t-415.5 -187.5q-263 0 -413 188.5t-150 493.5z" />
    <glyph glyph-name="uni1F4D" unicode="&#x1f4d;" horiz-adv-x="1318" 
d="M-129 938l-96 29l151 407l209 -41zM-373 1106q0 -57 56 -135l-82 -35q-68 66 -97.5 133.5t-29.5 114.5q0 172 229 215l53 -152q-78 -14 -103.5 -49t-25.5 -92zM287 671q0 -226 96 -372.5t276 -146.5t275.5 148t95.5 372q0 225 -95.5 367.5t-276 142.5t-276 -142.5
t-95.5 -368.5zM92 662q0 305 150.5 498.5t412.5 193.5t416 -189.5t154 -499.5t-154.5 -497.5t-415.5 -187.5q-263 0 -413 188.5t-150 493.5z" />
    <glyph glyph-name="uni1F50" unicode="&#x1f50;" horiz-adv-x="1036" 
d="M522 1303q0 98 -133 127l57 151q228 -48 228 -215q0 -47 -30 -115.5t-97 -132.5l-84 33q59 87 59 152zM525 -20q-202 0 -312.5 111.5t-110.5 340.5v569h185v-561q0 -156 53 -234.5t185 -78.5t183.5 80t51.5 233v561h180v-569q0 -229 -106.5 -340.5t-308.5 -111.5z" />
    <glyph glyph-name="uni1F51" unicode="&#x1f51;" horiz-adv-x="1036" 
d="M551 1292q0 -51 59 -141l-84 -33q-70 63 -98.5 132t-28.5 116q0 171 230 213l53 -149q-78 -16 -104.5 -51.5t-26.5 -86.5zM525 -20q-202 0 -312.5 111.5t-110.5 340.5v569h185v-561q0 -156 53 -234.5t185 -78.5t183.5 80t51.5 233v561h180v-569q0 -229 -106.5 -340.5
t-308.5 -111.5z" />
    <glyph glyph-name="uni1F52" unicode="&#x1f52;" horiz-adv-x="1036" 
d="M465 1532l209 41l151 -408l-98 -26zM293 1307q0 98 -133 127q0 2 27.5 74t27.5 77q229 -47 229 -215q0 -47 -29.5 -115.5t-97.5 -132.5l-84 35q60 84 60 150zM525 -20q-202 0 -312.5 111.5t-110.5 340.5v569h185v-561q0 -156 53 -234.5t185 -78.5t183.5 80t51.5 233v561
h180v-569q0 -229 -106.5 -340.5t-308.5 -111.5z" />
    <glyph glyph-name="uni1F53" unicode="&#x1f53;" horiz-adv-x="1036" 
d="M467 1530l211 41l151 -408l-98 -26zM322 1300q0 -71 57 -151l-84 -35q-68 66 -96.5 133.5t-28.5 114.5q0 171 229 215l52 -152q-129 -23 -129 -125zM525 -20q-202 0 -312.5 111.5t-110.5 340.5v569h185v-561q0 -156 53 -234.5t185 -78.5t183.5 80t51.5 233v561h180v-569
q0 -229 -106.5 -340.5t-308.5 -111.5z" />
    <glyph glyph-name="uni1F54" unicode="&#x1f54;" horiz-adv-x="1036" 
d="M647 1130l-98 27l149 406l211 -39zM369 1313q0 98 -131 127q0 13 27.5 81t27.5 70q227 -48 227 -217q0 -47 -28.5 -114.5t-98.5 -131.5l-82 33q58 81 58 152zM525 -20q-202 0 -312.5 111.5t-110.5 340.5v569h185v-561q0 -156 53 -234.5t185 -78.5t183.5 80t51.5 233v561
h180v-569q0 -229 -106.5 -340.5t-308.5 -111.5z" />
    <glyph glyph-name="uni1F55" unicode="&#x1f55;" horiz-adv-x="1036" 
d="M668 1128l-97 29l152 408l209 -41zM424 1298q0 -56 55 -137l-82 -35q-68 66 -97.5 133.5t-29.5 114.5q0 174 230 215l53 -151q-78 -14 -103.5 -49t-25.5 -91zM525 -20q-202 0 -312.5 111.5t-110.5 340.5v569h185v-561q0 -156 53 -234.5t185 -78.5t183.5 80t51.5 233v561
h180v-569q0 -229 -106.5 -340.5t-308.5 -111.5z" />
    <glyph glyph-name="uni1F56" unicode="&#x1f56;" horiz-adv-x="1036" 
d="M510 1211q0 32 -25.5 52.5t-97.5 30.5l45 115q104 -12 158.5 -54.5t54.5 -88.5q0 -106 -143 -197l-53 45q61 65 61 97zM168 1460q64 189 215 189q49 0 142 -44t130 -44t63.5 15t67.5 64l76 -45q-65 -174 -211 -174q-41 0 -108.5 29t-101 42t-66.5 13t-61.5 -15t-69.5 -69
zM525 -20q-202 0 -312.5 111.5t-110.5 340.5v569h185v-561q0 -156 53 -234.5t185 -78.5t183.5 80t51.5 233v561h180v-569q0 -229 -106.5 -340.5t-308.5 -111.5z" />
    <glyph glyph-name="uni1F57" unicode="&#x1f57;" horiz-adv-x="1036" 
d="M520 1214q0 -39 62 -92l-47 -47q-152 66 -152 168q2 55 53 103.5t164 58.5l31 -109q-111 -26 -111 -82zM172 1462q64 189 215 189q49 0 140.5 -44t130.5 -44t65.5 15t67.5 64l73 -45q-65 -174 -209 -174q-41 0 -108.5 29t-101 42t-66.5 13t-61.5 -14t-69.5 -70zM525 -20
q-202 0 -312.5 111.5t-110.5 340.5v569h185v-561q0 -156 53 -234.5t185 -78.5t183.5 80t51.5 233v561h180v-569q0 -229 -106.5 -340.5t-308.5 -111.5z" />
    <glyph glyph-name="uni1F59" unicode="&#x1f59;" horiz-adv-x="1187" 
d="M-164 1098q0 -63 60 -152l-84 -33q-70 63 -98.5 132t-28.5 116q0 171 229 213l53 -149q-131 -27 -131 -127zM592 633q99 193 369 700h210l-485 -866v-467h-188v467l-486 866h215q85 -167 189 -362q105 -195 176 -338z" />
    <glyph glyph-name="uni1F5B" unicode="&#x1f5b;" horiz-adv-x="1187" 
d="M-358 1337l211 41l151 -407l-98 -27zM-504 1108q0 -71 58 -152l-84 -34q-68 66 -96.5 133t-28.5 114q0 174 229 215l51 -151q-129 -23 -129 -125zM592 633q99 193 369 700h210l-485 -866v-467h-188v467l-486 866h215q85 -167 189 -362q105 -195 176 -338z" />
    <glyph glyph-name="uni1F5D" unicode="&#x1f5d;" horiz-adv-x="1187" 
d="M-287 930l-96 28l152 408l208 -41zM-530 1096q0 -59 55 -133l-82 -35q-68 66 -97.5 133t-29.5 115q0 171 229 215l54 -152q-78 -14 -103.5 -49t-25.5 -94zM592 633q99 193 369 700h210l-485 -866v-467h-188v467l-486 866h215q85 -167 189 -362q105 -195 176 -338z" />
    <glyph glyph-name="uni1F5F" unicode="&#x1f5f;" horiz-adv-x="1187" 
d="M-365 1014q0 -41 62 -92l-47 -48q-153 66 -151 176q1 46 52.5 95t163.5 59l31 -108q-111 -26 -111 -82zM-229 1223q-45 0 -111 28.5t-99.5 42t-66.5 13.5t-61.5 -14.5t-69.5 -69.5l-76 39q33 98 90.5 143t106.5 45q64 0 160 -44t132 -44t62.5 15.5t67.5 64.5l74 -45
q-65 -174 -209 -174zM592 633q99 193 369 700h210l-485 -866v-467h-188v467l-486 866h215q85 -167 189 -362q105 -195 176 -338z" />
    <glyph glyph-name="uni1F60" unicode="&#x1f60;" horiz-adv-x="1531" 
d="M745 1303q0 98 -133 127l58 151q227 -48 227 -215q0 -47 -29.5 -115.5t-97.5 -132.5l-84 33q59 87 59 152zM92 498q0 185 100.5 332t256.5 184l57 -144q-116 -34 -175 -141.5t-59 -259.5q0 -151 63 -243.5t161 -92.5t144 68.5t46 167.5v260h162v-260q0 -100 44 -168
t136 -68q229 0 229 359q0 121 -58 230.5t-171 145.5l57 144q159 -39 256 -189.5t97 -328.5q0 -248 -110.5 -380t-293.5 -132q-78 0 -150.5 37.5t-117.5 121.5h-2q-95 -159 -273 -159t-288.5 132t-110.5 384z" />
    <glyph glyph-name="uni1F61" unicode="&#x1f61;" horiz-adv-x="1531" 
d="M776 1291q0 -52 60 -140l-84 -33q-70 63 -98.5 132t-28.5 116q0 171 229 213l53 -149q-78 -16 -104.5 -51.5t-26.5 -87.5zM92 498q0 185 100.5 332t256.5 184l57 -144q-116 -34 -175 -141.5t-59 -259.5q0 -151 63 -243.5t161 -92.5t144 68.5t46 167.5v260h162v-260
q0 -100 44 -168t136 -68q229 0 229 359q0 121 -58 230.5t-171 145.5l57 144q159 -39 256 -189.5t97 -328.5q0 -248 -110.5 -380t-293.5 -132q-78 0 -150.5 37.5t-117.5 121.5h-2q-95 -159 -273 -159t-288.5 132t-110.5 384z" />
    <glyph glyph-name="uni1F62" unicode="&#x1f62;" horiz-adv-x="1531" 
d="M711 1530l209 41l151 -408l-98 -26zM539 1305q0 98 -133 127q0 2 9 25.5t19 51t18.5 50t8.5 24.5q229 -47 229 -215q0 -47 -29.5 -115.5t-97.5 -132.5l-84 35q60 84 60 150zM92 498q0 185 100.5 332t256.5 184l57 -144q-116 -34 -175 -141.5t-59 -259.5q0 -151 63 -243.5
t161 -92.5t144 68.5t46 167.5v260h162v-260q0 -100 44 -168t136 -68q229 0 229 359q0 121 -58 230.5t-171 145.5l57 144q159 -39 256 -189.5t97 -328.5q0 -248 -110.5 -380t-293.5 -132q-78 0 -150.5 37.5t-117.5 121.5h-2q-95 -159 -273 -159t-288.5 132t-110.5 384z" />
    <glyph glyph-name="uni1F63" unicode="&#x1f63;" horiz-adv-x="1531" 
d="M690 1530l211 41l152 -408l-99 -26zM545 1300q0 -68 57 -151l-84 -35q-68 66 -96.5 133.5t-28.5 114.5q0 171 230 215l51 -152q-129 -23 -129 -125zM92 498q0 185 100.5 332t256.5 184l57 -144q-116 -34 -175 -141.5t-59 -259.5q0 -151 63 -243.5t161 -92.5t144 68.5
t46 167.5v260h162v-260q0 -100 44 -168t136 -68q229 0 229 359q0 121 -58 230.5t-171 145.5l57 144q159 -39 256 -189.5t97 -328.5q0 -248 -110.5 -380t-293.5 -132q-78 0 -150.5 37.5t-117.5 121.5h-2q-95 -159 -273 -159t-288.5 132t-110.5 384z" />
    <glyph glyph-name="uni1F64" unicode="&#x1f64;" horiz-adv-x="1531" 
d="M918 1128l-99 27l150 406l211 -39zM639 1311q0 98 -131 127q0 9 27.5 78t27.5 73q228 -48 228 -217q0 -47 -29 -114.5t-98 -131.5l-82 33q57 80 57 152zM92 498q0 185 100.5 332t256.5 184l57 -144q-116 -34 -175 -141.5t-59 -259.5q0 -151 63 -243.5t161 -92.5t144 68.5
t46 167.5v260h162v-260q0 -100 44 -168t136 -68q229 0 229 359q0 121 -58 230.5t-171 145.5l57 144q159 -39 256 -189.5t97 -328.5q0 -248 -110.5 -380t-293.5 -132q-78 0 -150.5 37.5t-117.5 121.5h-2q-95 -159 -273 -159t-288.5 132t-110.5 384z" />
    <glyph glyph-name="uni1F65" unicode="&#x1f65;" horiz-adv-x="1531" 
d="M911 1130l-96 29l152 408l209 -41zM668 1298q0 -58 55 -135l-82 -35q-68 66 -97.5 133.5t-29.5 114.5q0 86 59.5 140.5t169.5 74.5l54 -151q-78 -14 -103.5 -49t-25.5 -93zM92 498q0 185 100.5 332t256.5 184l57 -144q-116 -34 -175 -141.5t-59 -259.5q0 -151 63 -243.5
t161 -92.5t144 68.5t46 167.5v260h162v-260q0 -100 44 -168t136 -68q229 0 229 359q0 121 -58 230.5t-171 145.5l57 144q159 -39 256 -189.5t97 -328.5q0 -248 -110.5 -380t-293.5 -132q-78 0 -150.5 37.5t-117.5 121.5h-2q-95 -159 -273 -159t-288.5 132t-110.5 384z" />
    <glyph glyph-name="uni1F66" unicode="&#x1f66;" horiz-adv-x="1531" 
d="M758 1175q0 32 -25.5 52t-97.5 30l45 115q104 -12 158.5 -54t54.5 -88q0 -106 -143 -198l-54 45q62 66 62 98zM416 1423q64 189 215 189q49 0 142 -44t130 -44t63.5 15t67.5 65l76 -45q-65 -175 -211 -175q-41 0 -108.5 29t-102 42t-66.5 13t-61 -15t-69 -69zM92 498
q0 185 100.5 332t256.5 184l57 -144q-116 -34 -175 -141.5t-59 -259.5q0 -151 63 -243.5t161 -92.5t144 68.5t46 167.5v260h162v-260q0 -100 44 -168t136 -68q229 0 229 359q0 121 -58 230.5t-171 145.5l57 144q159 -39 256 -189.5t97 -328.5q0 -248 -110.5 -380
t-293.5 -132q-78 0 -150.5 37.5t-117.5 121.5h-2q-95 -159 -273 -159t-288.5 132t-110.5 384z" />
    <glyph glyph-name="uni1F67" unicode="&#x1f67;" horiz-adv-x="1531" 
d="M772 1174q0 -40 62 -93l-48 -47q-151 65 -151 168q2 55 53 103.5t164 58.5l31 -109q-111 -26 -111 -81zM424 1421q64 189 215 189q47 0 140 -44t131 -44t64.5 15t67.5 65l74 -46q-65 -174 -209 -174q-41 0 -108.5 29t-101 42t-66.5 13t-61.5 -14t-69.5 -70zM92 498
q0 185 100.5 332t256.5 184l57 -144q-116 -34 -175 -141.5t-59 -259.5q0 -151 63 -243.5t161 -92.5t144 68.5t46 167.5v260h162v-260q0 -100 44 -168t136 -68q229 0 229 359q0 121 -58 230.5t-171 145.5l57 144q159 -39 256 -189.5t97 -328.5q0 -248 -110.5 -380
t-293.5 -132q-78 0 -150.5 37.5t-117.5 121.5h-2q-95 -159 -273 -159t-288.5 132t-110.5 384z" />
    <glyph glyph-name="uni1F68" unicode="&#x1f68;" horiz-adv-x="1368" 
d="M-100 1094q0 98 -133 127l57 151q227 -48 227 -215q0 -47 -29.5 -115.5t-97.5 -132.5l-84 33q60 89 60 152zM1253 694q0 -386 -235 -532h248v-162h-475v197q139 47 202.5 178t63.5 332t-100 338t-279.5 137t-278 -139t-98.5 -353q0 -291 100.5 -381t171.5 -112v-197h-477
v162h244q-229 131 -229 526q0 301 155.5 483.5t414 182.5t415.5 -182.5t157 -477.5z" />
    <glyph glyph-name="uni1F69" unicode="&#x1f69;" horiz-adv-x="1368" 
d="M-84 1100q0 -61 59 -152l-84 -33q-70 63 -98.5 132t-28.5 116q0 171 230 213l53 -149q-131 -27 -131 -127zM1253 694q0 -386 -235 -532h248v-162h-475v197q139 47 202.5 178t63.5 332t-100 338t-279.5 137t-278 -139t-98.5 -353q0 -291 100.5 -381t171.5 -112v-197h-477
v162h244q-229 131 -229 526q0 301 155.5 483.5t414 182.5t415.5 -182.5t157 -477.5z" />
    <glyph glyph-name="uni1F6A" unicode="&#x1f6a;" horiz-adv-x="1368" 
d="M-285 1341l209 41l152 -407l-99 -27zM-457 1103q0 54 -27.5 89t-105.5 51q0 2 27.5 70t27.5 82q230 -48 230 -215q0 -47 -30 -116t-97 -132l-84 35q59 82 59 136zM1253 694q0 -386 -235 -532h248v-162h-475v197q139 47 202.5 178t63.5 332t-100 338t-279.5 137t-278 -139
t-98.5 -353q0 -291 100.5 -381t171.5 -112v-197h-477v162h244q-229 131 -229 526q0 301 155.5 483.5t414 182.5t415.5 -182.5t157 -477.5z" />
    <glyph glyph-name="uni1F6B" unicode="&#x1f6b;" horiz-adv-x="1368" 
d="M-295 1337l211 41l152 -407l-99 -27zM-440 1108q0 -72 57 -152l-84 -34q-68 66 -96.5 133t-28.5 114q0 174 230 215l51 -151q-129 -23 -129 -125zM1253 694q0 -386 -235 -532h248v-162h-475v197q139 47 202.5 178t63.5 332t-100 338t-279.5 137t-278 -139t-98.5 -353
q0 -291 100.5 -381t171.5 -112v-197h-477v162h244q-229 131 -229 526q0 301 155.5 483.5t414 182.5t415.5 -182.5t157 -477.5z" />
    <glyph glyph-name="uni1F6C" unicode="&#x1f6c;" horiz-adv-x="1368" 
d="M-94 940l-99 27l150 405l211 -39zM-373 1122q0 100 -131 127q0 6 27.5 78t27.5 74q228 -48 228 -217q0 -47 -29 -115t-98 -131l-82 33q57 80 57 151zM1253 694q0 -386 -235 -532h248v-162h-475v197q139 47 202.5 178t63.5 332t-100 338t-279.5 137t-278 -139t-98.5 -353
q0 -291 100.5 -381t171.5 -112v-197h-477v162h244q-229 131 -229 526q0 301 155.5 483.5t414 182.5t415.5 -182.5t157 -477.5z" />
    <glyph glyph-name="uni1F6D" unicode="&#x1f6d;" horiz-adv-x="1368" 
d="M-94 940l-96 29l151 407l209 -41zM-338 1109q0 -56 55 -136l-82 -35q-68 66 -97.5 133.5t-29.5 114.5q0 171 230 215l53 -152q-78 -14 -103.5 -49t-25.5 -91zM1253 694q0 -386 -235 -532h248v-162h-475v197q139 47 202.5 178t63.5 332t-100 338t-279.5 137t-278 -139
t-98.5 -353q0 -291 100.5 -381t171.5 -112v-197h-477v162h244q-229 131 -229 526q0 301 155.5 483.5t414 182.5t415.5 -182.5t157 -477.5z" />
    <glyph glyph-name="uni1F6E" unicode="&#x1f6e;" horiz-adv-x="1368" 
d="M-164 1003q0 32 -25.5 52t-97.5 30l45 115q104 -12 158.5 -54t54.5 -88q0 -107 -143 -198l-53 45q61 66 61 98zM-506 1251q64 189 215 189q51 0 142.5 -44t129.5 -44t64.5 15t67.5 65l75 -46q-65 -174 -211 -174q-41 0 -108.5 29t-101 42t-66.5 13t-61.5 -15t-69.5 -69z
M1253 694q0 -386 -235 -532h248v-162h-475v197q139 47 202.5 178t63.5 332t-100 338t-279.5 137t-278 -139t-98.5 -353q0 -291 100.5 -381t171.5 -112v-197h-477v162h244q-229 131 -229 526q0 301 155.5 483.5t414 182.5t415.5 -182.5t157 -477.5z" />
    <glyph glyph-name="uni1F6F" unicode="&#x1f6f;" horiz-adv-x="1368" 
d="M-141 1004q0 -40 61 -93l-47 -47q-152 66 -152 168q2 55 53.5 103.5t164.5 58.5l30 -109q-110 -26 -110 -81zM-489 1251q65 189 215 189q47 0 140 -44t131 -44t64.5 15t67.5 65l74 -46q-65 -174 -209 -174q-43 0 -109.5 29t-100.5 42t-67 13t-61.5 -14t-69.5 -70z
M1253 694q0 -386 -235 -532h248v-162h-475v197q139 47 202.5 178t63.5 332t-100 338t-279.5 137t-278 -139t-98.5 -353q0 -291 100.5 -381t171.5 -112v-197h-477v162h244q-229 131 -229 526q0 301 155.5 483.5t414 182.5t415.5 -182.5t157 -477.5z" />
    <glyph glyph-name="uni1F70" unicode="&#x1f70;" horiz-adv-x="1052" 
d="M266 1530l213 41l148 -408l-99 -28zM516 868q-106 0 -176 -96t-70 -276q0 -362 246 -363q72 0 135.5 42t104.5 89v469q-41 51 -102.5 93t-137.5 42zM762 905v94h174v-999h-150l-20 102h-8q-131 -123 -289 -122q-262 0 -319.5 188t-57.5 378t114.5 331t278.5 141t273 -113
h4z" />
    <glyph glyph-name="uni1F71" unicode="&#x1f71;" horiz-adv-x="1052" 
d="M592 1135l-100 28l151 408l211 -41zM516 868q-106 0 -176 -96t-70 -276q0 -362 246 -363q72 0 135.5 42t104.5 89v469q-41 51 -102.5 93t-137.5 42zM762 905v94h174v-999h-150l-20 102h-8q-131 -123 -289 -122q-262 0 -319.5 188t-57.5 378t114.5 331t278.5 141t273 -113
h4z" />
    <glyph glyph-name="uni1F72" unicode="&#x1f72;" horiz-adv-x="897" 
d="M215 1532l213 41l147 -408l-98 -28zM870 131q-151 -151 -399 -151t-313.5 107t-65.5 183t47 142.5t129 93.5v4q-86 29 -124 91.5t-38 126.5q0 126 115.5 208t267.5 82q221 0 357 -129q-23 -23 -103 -119q-108 100 -223 100t-173 -48.5t-58 -100.5q0 -139 172 -139h137
v-131h-129q-71 0 -116.5 -28t-64 -56.5t-18.5 -80.5t54.5 -105.5t169.5 -53.5q151 0 274 117z" />
    <glyph glyph-name="uni1F73" unicode="&#x1f73;" horiz-adv-x="897" 
d="M502 1135l-101 28l152 408l211 -41zM870 131q-151 -151 -399 -151t-313.5 107t-65.5 183t47 142.5t129 93.5v4q-86 29 -124 91.5t-38 126.5q0 126 115.5 208t267.5 82q221 0 357 -129q-23 -23 -103 -119q-108 100 -223 100t-173 -48.5t-58 -100.5q0 -139 172 -139h137
v-131h-129q-71 0 -116.5 -28t-64 -56.5t-18.5 -80.5t54.5 -105.5t169.5 -53.5q151 0 274 117z" />
    <glyph glyph-name="uni1F74" unicode="&#x1f74;" horiz-adv-x="1024" 
d="M205 1528l213 41l147 -408l-98 -28zM745 592q-1 270 -203 270q-100 0 -175.5 -66.5t-75.5 -209.5v-586h-180v999h180v-131l6 -2q53 80 133 116t154 36q342 0 342 -395v-623h-181v592z" />
    <glyph glyph-name="uni1F75" unicode="&#x1f75;" horiz-adv-x="1024" 
d="M516 1135l-100 28l151 408l211 -41zM745 592q-1 270 -203 270q-100 0 -175.5 -66.5t-75.5 -209.5v-586h-180v999h180v-131l6 -2q53 80 133 116t154 36q342 0 342 -395v-623h-181v592z" />
    <glyph glyph-name="uni1F76" unicode="&#x1f76;" horiz-adv-x="499" 
d="M-49 1530l213 41l147 -408l-98 -28zM160 997h180v-997h-180v997z" />
    <glyph glyph-name="uni1F77" unicode="&#x1f77;" horiz-adv-x="499" 
d="M289 1135l-101 28l152 408l211 -41zM160 997h180v-997h-180v997z" />
    <glyph glyph-name="uni1F78" unicode="&#x1f78;" horiz-adv-x="1075" 
d="M540 864q-124 0 -195 -101.5t-71 -266.5q0 -164 66 -263.5t191 -99.5t198.5 105t73.5 262q0 252 -98.5 308t-164.5 56zM92 496q0 241 126 381.5t323 140.5t319.5 -137t122.5 -377t-128 -382t-328 -142t-317.5 137.5t-117.5 378.5zM227 1530l213 41l148 -408l-99 -28z" />
    <glyph glyph-name="uni1F79" unicode="&#x1f79;" horiz-adv-x="1075" 
d="M540 864q-124 0 -195 -101.5t-71 -266.5q0 -164 66 -263.5t191 -99.5t198.5 105t73.5 262q0 252 -98.5 308t-164.5 56zM92 496q0 241 126 381.5t323 140.5t319.5 -137t122.5 -377t-128 -382t-328 -142t-317.5 137.5t-117.5 378.5zM541 1135l-101 28l152 408l211 -41z" />
    <glyph glyph-name="uni1F7A" unicode="&#x1f7a;" horiz-adv-x="1036" 
d="M233 1530l213 41l148 -408l-98 -28zM525 -20q-202 0 -312.5 111.5t-110.5 340.5v569h185v-561q0 -156 53 -234.5t185 -78.5t183.5 80t51.5 233v561h180v-569q0 -229 -106.5 -340.5t-308.5 -111.5z" />
    <glyph glyph-name="uni1F7B" unicode="&#x1f7b;" horiz-adv-x="1036" 
d="M559 1135l-100 28l151 408l211 -41zM525 -20q-202 0 -312.5 111.5t-110.5 340.5v569h185v-561q0 -156 53 -234.5t185 -78.5t183.5 80t51.5 233v561h180v-569q0 -229 -106.5 -340.5t-308.5 -111.5z" />
    <glyph glyph-name="uni1F7C" unicode="&#x1f7c;" horiz-adv-x="1531" 
d="M461 1530l213 41l147 -408l-98 -28zM92 498q0 185 100.5 332t256.5 184l57 -144q-116 -34 -175 -141.5t-59 -259.5q0 -151 63 -243.5t161 -92.5t144 68.5t46 167.5v260h162v-260q0 -100 44 -168t136 -68q229 0 229 359q0 121 -58 230.5t-171 145.5l57 144
q159 -39 256 -189.5t97 -328.5q0 -248 -110.5 -380t-293.5 -132q-78 0 -150.5 37.5t-117.5 121.5h-2q-95 -159 -273 -159t-288.5 132t-110.5 384z" />
    <glyph glyph-name="uni1F7D" unicode="&#x1f7d;" horiz-adv-x="1531" 
d="M770 1135l-100 28l151 408l211 -41zM92 498q0 185 100.5 332t256.5 184l57 -144q-116 -34 -175 -141.5t-59 -259.5q0 -151 63 -243.5t161 -92.5t144 68.5t46 167.5v260h162v-260q0 -100 44 -168t136 -68q229 0 229 359q0 121 -58 230.5t-171 145.5l57 144
q159 -39 256 -189.5t97 -328.5q0 -248 -110.5 -380t-293.5 -132q-78 0 -150.5 37.5t-117.5 121.5h-2q-95 -159 -273 -159t-288.5 132t-110.5 384z" />
    <glyph glyph-name="uni1F80" unicode="&#x1f80;" horiz-adv-x="1052" 
d="M599 -514q-144 0 -144 190v209h147v-188q0 -43 18.5 -60.5t63.5 -17.5l33 2v-117q-45 -18 -118 -18zM512 1303q0 98 -133 127l57 151q228 -48 228 -215q0 -47 -30 -115.5t-97 -132.5l-84 33q59 87 59 152zM516 868q-106 0 -176 -96t-70 -276q0 -362 246 -363
q72 0 135.5 42t104.5 89v469q-41 51 -102.5 93t-137.5 42zM762 905v94h174v-999h-150l-20 102h-8q-131 -123 -289 -122q-262 0 -319.5 188t-57.5 378t114.5 331t278.5 141t273 -113h4z" />
    <glyph glyph-name="uni1F81" unicode="&#x1f81;" horiz-adv-x="1052" 
d="M599 -514q-144 0 -144 190v209h147v-188q0 -43 18.5 -60.5t63.5 -17.5l33 2v-117q-45 -18 -118 -18zM549 1292q0 -51 59 -141l-84 -33q-70 63 -98.5 132t-28.5 116q0 171 230 213l53 -149q-78 -16 -104.5 -51.5t-26.5 -86.5zM516 868q-106 0 -176 -96t-70 -276
q0 -362 246 -363q72 0 135.5 42t104.5 89v469q-41 51 -102.5 93t-137.5 42zM762 905v94h174v-999h-150l-20 102h-8q-131 -123 -289 -122q-262 0 -319.5 188t-57.5 378t114.5 331t278.5 141t273 -113h4z" />
    <glyph glyph-name="uni1F82" unicode="&#x1f82;" horiz-adv-x="1052" 
d="M599 -514q-144 0 -144 190v209h147v-188q0 -43 18.5 -60.5t63.5 -17.5l33 2v-117q-45 -18 -118 -18zM504 1530l209 41l151 -408l-98 -26zM332 1305q0 98 -133 127q0 2 27.5 74t27.5 77q229 -47 229 -215q0 -47 -29.5 -115.5t-97.5 -132.5l-84 35q60 84 60 150zM516 868
q-106 0 -176 -96t-70 -276q0 -362 246 -363q72 0 135.5 42t104.5 89v469q-41 51 -102.5 93t-137.5 42zM762 905v94h174v-999h-150l-20 102h-8q-131 -123 -289 -122q-262 0 -319.5 188t-57.5 378t114.5 331t278.5 141t273 -113h4z" />
    <glyph glyph-name="uni1F83" unicode="&#x1f83;" horiz-adv-x="1052" 
d="M494 1530l211 41l151 -408l-98 -26zM599 -514q-144 0 -144 190v209h147v-188q0 -43 18.5 -60.5t63.5 -17.5l33 2v-117q-45 -18 -118 -18zM348 1300q0 -70 58 -151l-84 -35q-68 66 -96.5 133.5t-28.5 114.5q0 172 229 215l51 -152q-129 -23 -129 -125zM516 868
q-106 0 -176 -96t-70 -276q0 -362 246 -363q72 0 135.5 42t104.5 89v469q-41 51 -102.5 93t-137.5 42zM762 905v94h174v-999h-150l-20 102h-8q-131 -123 -289 -122q-262 0 -319.5 188t-57.5 378t114.5 331t278.5 141t273 -113h4z" />
    <glyph glyph-name="uni1F84" unicode="&#x1f84;" horiz-adv-x="1052" 
d="M599 -514q-144 0 -144 190v209h147v-188q0 -43 18.5 -60.5t63.5 -17.5l33 2v-117q-45 -18 -118 -18zM690 1130l-98 27l149 406l211 -39zM412 1313q0 98 -131 127q0 13 27.5 81t27.5 70q227 -48 227 -217q0 -47 -28.5 -114.5t-98.5 -131.5l-82 33q58 81 58 152zM516 868
q-106 0 -176 -96t-70 -276q0 -362 246 -363q72 0 135.5 42t104.5 89v469q-41 51 -102.5 93t-137.5 42zM762 905v94h174v-999h-150l-20 102h-8q-131 -123 -289 -122q-262 0 -319.5 188t-57.5 378t114.5 331t278.5 141t273 -113h4z" />
    <glyph glyph-name="uni1F85" unicode="&#x1f85;" horiz-adv-x="1052" 
d="M686 1130l-96 29l151 408l209 -41zM599 -514q-144 0 -144 190v209h147v-188q0 -43 18.5 -60.5t63.5 -17.5l33 2v-117q-45 -18 -118 -18zM442 1299q0 -57 56 -136l-82 -35q-68 66 -97.5 133.5t-29.5 114.5q0 86 59.5 140.5t169.5 74.5l53 -151q-78 -14 -103.5 -49
t-25.5 -92zM516 868q-106 0 -176 -96t-70 -276q0 -362 246 -363q72 0 135.5 42t104.5 89v469q-41 51 -102.5 93t-137.5 42zM762 905v94h174v-999h-150l-20 102h-8q-131 -123 -289 -122q-262 0 -319.5 188t-57.5 378t114.5 331t278.5 141t273 -113h4z" />
    <glyph glyph-name="uni1F86" unicode="&#x1f86;" horiz-adv-x="1052" 
d="M599 -514q-144 0 -144 190v209h147v-188q0 -43 18.5 -60.5t63.5 -17.5l33 2v-117q-45 -18 -118 -18zM537 1255q0 31 -26 51.5t-97 30.5l45 115q104 -12 158.5 -54t54.5 -88q0 -106 -144 -198l-53 45q62 67 62 98zM401 1548q-33 0 -61.5 -15t-69.5 -69l-75 39
q64 189 211 189q53 0 118.5 -31t98 -44t64.5 -13t58.5 15t67.5 64l76 -45q-65 -174 -211 -174q-43 0 -109.5 29t-100.5 42t-67 13zM516 868q-106 0 -176 -96t-70 -276q0 -362 246 -363q72 0 135.5 42t104.5 89v469q-41 51 -102.5 93t-137.5 42zM762 905v94h174v-999h-150
l-20 102h-8q-131 -123 -289 -122q-262 0 -319.5 188t-57.5 378t114.5 331t278.5 141t273 -113h4z" />
    <glyph glyph-name="uni1F87" unicode="&#x1f87;" horiz-adv-x="1052" 
d="M599 -514q-144 0 -144 190v209h147v-188q0 -43 18.5 -60.5t63.5 -17.5l33 2v-117q-45 -18 -118 -18zM545 1255q0 -38 61 -92l-47 -47q-151 65 -151 168q2 55 53 103.5t164 58.5l30 -109q-110 -26 -110 -82zM197 1503q64 189 215 189q47 0 140 -44t131 -44t64.5 15
t67.5 64l74 -45q-65 -174 -209 -174q-43 0 -109.5 29t-100.5 42t-66 13t-61.5 -14t-70.5 -70zM516 868q-106 0 -176 -96t-70 -276q0 -362 246 -363q72 0 135.5 42t104.5 89v469q-41 51 -102.5 93t-137.5 42zM762 905v94h174v-999h-150l-20 102h-8q-131 -123 -289 -122
q-262 0 -319.5 188t-57.5 378t114.5 331t278.5 141t273 -113h4z" />
    <glyph glyph-name="uni1F88" unicode="&#x1f88;" horiz-adv-x="1730" 
d="M84 1072q0 52 -27.5 87t-105.5 51l57 152q228 -48 228 -215q0 -47 -30 -115.5t-97 -132.5l-84 33q59 88 59 140zM905 467q-61 168 -124.5 325.5t-123.5 340.5h-6l-248 -666h502zM1556 -10q-113 0 -147.5 64t-34.5 202v741h176v-751q0 -76 25 -96.5t94 -20.5v-121
q-52 -18 -113 -18zM1079 0q-76 200 -114 305h-619q-52 -141 -115 -305h-198l520 1333h209q247 -642 520 -1333h-203z" />
    <glyph glyph-name="uni1F89" unicode="&#x1f89;" horiz-adv-x="1730" 
d="M94 1100q0 -63 60 -152l-84 -33q-70 63 -98.5 132t-28.5 116q0 171 229 213l53 -149q-131 -27 -131 -127zM905 467q-61 168 -124.5 325.5t-123.5 340.5h-6l-248 -666h502zM1556 -10q-113 0 -147.5 64t-34.5 202v741h176v-751q0 -76 25 -96.5t94 -20.5v-121
q-52 -18 -113 -18zM1079 0q-76 200 -114 305h-619q-52 -141 -115 -305h-198l520 1333h209q247 -642 520 -1333h-203z" />
    <glyph glyph-name="uni1F8A" unicode="&#x1f8a;" horiz-adv-x="1730" 
d="M-84 1341l209 41l151 -407l-98 -27zM-256 1103q0 54 -27.5 89t-105.5 51q0 2 27.5 74t27.5 78q230 -48 230 -215q0 -47 -30 -116t-97 -132l-84 35q59 82 59 136zM905 467q-61 168 -124.5 325.5t-123.5 340.5h-6l-248 -666h502zM1556 -10q-113 0 -147.5 64t-34.5 202v741
h176v-751q0 -76 25 -96.5t94 -20.5v-121q-52 -18 -113 -18zM1079 0q-76 200 -114 305h-619q-52 -141 -115 -305h-198l520 1333h209q247 -642 520 -1333h-203z" />
    <glyph glyph-name="uni1F8B" unicode="&#x1f8b;" horiz-adv-x="1730" 
d="M-96 1337l211 41l151 -407l-98 -27zM-242 1108q0 -71 58 -152l-84 -34q-68 66 -96.5 133t-28.5 114q0 86 59.5 140.5t169.5 74.5l51 -151q-129 -23 -129 -125zM905 467q-61 168 -124.5 325.5t-123.5 340.5h-6l-248 -666h502zM1556 -10q-113 0 -147.5 64t-34.5 202v741
h176v-751q0 -76 25 -96.5t94 -20.5v-121q-52 -18 -113 -18zM1079 0q-76 200 -114 305h-619q-52 -141 -115 -305h-198l520 1333h209q247 -642 520 -1333h-203z" />
    <glyph glyph-name="uni1F8C" unicode="&#x1f8c;" horiz-adv-x="1730" 
d="M84 940l-98 27l149 405l211 -39zM-195 1122q0 100 -131 127q0 11 28 80.5t28 71.5q227 -48 227 -217q0 -47 -28.5 -115t-98.5 -131l-82 33q57 80 57 151zM905 467q-61 168 -124.5 325.5t-123.5 340.5h-6l-248 -666h502zM1556 -10q-113 0 -147.5 64t-34.5 202v741h176
v-751q0 -76 25 -96.5t94 -20.5v-121q-52 -18 -113 -18zM1079 0q-76 200 -114 305h-619q-52 -141 -115 -305h-198l520 1333h209q247 -642 520 -1333h-203z" />
    <glyph glyph-name="uni1F8D" unicode="&#x1f8d;" horiz-adv-x="1730" 
d="M90 942l-96 29l151 407l209 -41zM-154 1110q0 -57 56 -135l-82 -35q-68 66 -97.5 133.5t-29.5 114.5q0 171 229 215l53 -152q-78 -14 -103.5 -49t-25.5 -92zM905 467q-61 168 -124.5 325.5t-123.5 340.5h-6l-248 -666h502zM1556 -10q-113 0 -147.5 64t-34.5 202v741h176
v-751q0 -76 25 -96.5t94 -20.5v-121q-52 -18 -113 -18zM1079 0q-76 200 -114 305h-619q-52 -141 -115 -305h-198l520 1333h209q247 -642 520 -1333h-203z" />
    <glyph glyph-name="uni1F8E" unicode="&#x1f8e;" horiz-adv-x="1730" 
d="M12 1005q0 32 -25.5 52t-97.5 30l45 115q104 -12 158.5 -54t54.5 -88q0 -107 -143 -198l-53 45q61 66 61 98zM-330 1253q64 189 216 189q49 0 142 -44t130 -44t63.5 15t67.5 65l76 -45q-65 -175 -211 -175q-42 0 -109.5 29t-101 42t-66.5 13t-61.5 -15t-69.5 -69z
M905 467q-61 168 -124.5 325.5t-123.5 340.5h-6l-248 -666h502zM1556 -10q-113 0 -147.5 64t-34.5 202v741h176v-751q0 -76 25 -96.5t94 -20.5v-121q-52 -18 -113 -18zM1079 0q-76 200 -114 305h-619q-52 -141 -115 -305h-198l520 1333h209q247 -642 520 -1333h-203z" />
    </font>
</defs>
</svg>
